solid OpenSCAD_Model
  facet normal -2.22045e-16 -1 0
    outer loop
      vertex -66.5548 1.47781e-14 0
      vertex -9.94522 2.20828e-15 0.299999
      vertex -66.5548 1.47781e-14 0.299999
    endloop
  endfacet
  facet normal -2.22045e-16 -1 -0
    outer loop
      vertex -9.94522 2.20828e-15 0.299999
      vertex -66.5548 1.47781e-14 0
      vertex -9.94522 2.20828e-15 0
    endloop
  endfacet
  facet normal -2.22045e-16 -1 0
    outer loop
      vertex -66.5548 1.47781e-14 0.299999
      vertex -76.5 1.69864e-14 31.25
      vertex -76.5 1.69864e-14 0.299999
    endloop
  endfacet
  facet normal -2.22045e-16 -1 0
    outer loop
      vertex -76.5 1.69864e-14 31.25
      vertex -66.5548 1.47781e-14 0.299999
      vertex 0 0 31.25
    endloop
  endfacet
  facet normal -2.22045e-16 -1 0
    outer loop
      vertex -9.94522 2.20828e-15 0.299999
      vertex 0 0 31.25
      vertex -66.5548 1.47781e-14 0.299999
    endloop
  endfacet
  facet normal -2.22045e-16 -1 -0
    outer loop
      vertex 0 0 31.25
      vertex -9.94522 2.20828e-15 0.299999
      vertex 0 0 0.299999
    endloop
  endfacet
  facet normal -0 0 1
    outer loop
      vertex -75.25 33.75 31.25
      vertex -1.25 32.5 31.25
      vertex -1.25 33.75 31.25
    endloop
  endfacet
  facet normal 0 0 1
    outer loop
      vertex -1.25 32.5 31.25
      vertex -75.25 33.75 31.25
      vertex -75.25 32.5 31.25
    endloop
  endfacet
  facet normal -0 0 1
    outer loop
      vertex -75.25 66.25 31.25
      vertex -1.25 65 31.25
      vertex -1.25 66.25 31.25
    endloop
  endfacet
  facet normal 0 0 1
    outer loop
      vertex -1.25 65 31.25
      vertex -75.25 66.25 31.25
      vertex -75.25 65 31.25
    endloop
  endfacet
  facet normal -0 0 1
    outer loop
      vertex -75.25 98.75 31.25
      vertex -1.25 97.5 31.25
      vertex -1.25 98.75 31.25
    endloop
  endfacet
  facet normal 0 0 1
    outer loop
      vertex -1.25 97.5 31.25
      vertex -75.25 98.75 31.25
      vertex -75.25 97.5 31.25
    endloop
  endfacet
  facet normal -0 0 1
    outer loop
      vertex -75.25 131.25 31.25
      vertex -1.25 130 31.25
      vertex -1.25 131.25 31.25
    endloop
  endfacet
  facet normal 0 0 1
    outer loop
      vertex -1.25 130 31.25
      vertex -75.25 131.25 31.25
      vertex -75.25 130 31.25
    endloop
  endfacet
  facet normal -0 0 1
    outer loop
      vertex -75.25 163.75 31.25
      vertex -1.25 162.5 31.25
      vertex -1.25 163.75 31.25
    endloop
  endfacet
  facet normal 0 0 1
    outer loop
      vertex -1.25 162.5 31.25
      vertex -75.25 163.75 31.25
      vertex -75.25 162.5 31.25
    endloop
  endfacet
  facet normal -0 0 1
    outer loop
      vertex -75.25 196.25 31.25
      vertex -1.25 195 31.25
      vertex -1.25 196.25 31.25
    endloop
  endfacet
  facet normal 0 0 1
    outer loop
      vertex -1.25 195 31.25
      vertex -75.25 196.25 31.25
      vertex -75.25 195 31.25
    endloop
  endfacet
  facet normal 0 0 1
    outer loop
      vertex -1.25 196.25 31.25
      vertex 5.07927e-14 228.75 31.25
      vertex -1.25 227.5 31.25
    endloop
  endfacet
  facet normal 0 0 1
    outer loop
      vertex 5.07927e-14 228.75 31.25
      vertex -75.25 227.5 31.25
      vertex -1.25 227.5 31.25
    endloop
  endfacet
  facet normal 0 0 1
    outer loop
      vertex -76.5 228.75 31.25
      vertex -75.25 196.25 31.25
      vertex -75.25 227.5 31.25
    endloop
  endfacet
  facet normal 0 0 1
    outer loop
      vertex -75.25 196.25 31.25
      vertex -76.5 228.75 31.25
      vertex -75.25 195 31.25
    endloop
  endfacet
  facet normal 0 0 1
    outer loop
      vertex -75.25 195 31.25
      vertex -76.5 228.75 31.25
      vertex -75.25 163.75 31.25
    endloop
  endfacet
  facet normal 0 0 1
    outer loop
      vertex -75.25 163.75 31.25
      vertex -76.5 228.75 31.25
      vertex -75.25 162.5 31.25
    endloop
  endfacet
  facet normal 0 0 1
    outer loop
      vertex -75.25 162.5 31.25
      vertex -76.5 228.75 31.25
      vertex -75.25 131.25 31.25
    endloop
  endfacet
  facet normal 0 0 1
    outer loop
      vertex -75.25 131.25 31.25
      vertex -76.5 228.75 31.25
      vertex -75.25 130 31.25
    endloop
  endfacet
  facet normal 0 0 1
    outer loop
      vertex -75.25 130 31.25
      vertex -76.5 228.75 31.25
      vertex -75.25 98.75 31.25
    endloop
  endfacet
  facet normal 0 0 1
    outer loop
      vertex -75.25 98.75 31.25
      vertex -76.5 228.75 31.25
      vertex -75.25 97.5 31.25
    endloop
  endfacet
  facet normal 0 0 1
    outer loop
      vertex -75.25 97.5 31.25
      vertex -76.5 228.75 31.25
      vertex -75.25 66.25 31.25
    endloop
  endfacet
  facet normal 0 0 1
    outer loop
      vertex -76.5 1.69864e-14 31.25
      vertex -75.25 66.25 31.25
      vertex -76.5 228.75 31.25
    endloop
  endfacet
  facet normal 0 0 1
    outer loop
      vertex -75.25 66.25 31.25
      vertex -76.5 1.69864e-14 31.25
      vertex -75.25 65 31.25
    endloop
  endfacet
  facet normal 0 0 1
    outer loop
      vertex -75.25 65 31.25
      vertex -76.5 1.69864e-14 31.25
      vertex -75.25 33.75 31.25
    endloop
  endfacet
  facet normal 0 0 1
    outer loop
      vertex -75.25 33.75 31.25
      vertex -76.5 1.69864e-14 31.25
      vertex -75.25 32.5 31.25
    endloop
  endfacet
  facet normal -0 0 1
    outer loop
      vertex -76.5 228.75 31.25
      vertex -75.25 227.5 31.25
      vertex 5.07927e-14 228.75 31.25
    endloop
  endfacet
  facet normal 0 0 1
    outer loop
      vertex -1.25 195 31.25
      vertex 5.07927e-14 228.75 31.25
      vertex -1.25 196.25 31.25
    endloop
  endfacet
  facet normal 0 0 1
    outer loop
      vertex -1.25 163.75 31.25
      vertex 5.07927e-14 228.75 31.25
      vertex -1.25 195 31.25
    endloop
  endfacet
  facet normal 0 0 1
    outer loop
      vertex -1.25 162.5 31.25
      vertex 5.07927e-14 228.75 31.25
      vertex -1.25 163.75 31.25
    endloop
  endfacet
  facet normal 0 0 1
    outer loop
      vertex 5.07927e-14 228.75 31.25
      vertex -1.25 162.5 31.25
      vertex 0 0 31.25
    endloop
  endfacet
  facet normal -0 0 1
    outer loop
      vertex -1.25 131.25 31.25
      vertex 0 0 31.25
      vertex -1.25 162.5 31.25
    endloop
  endfacet
  facet normal -0 0 1
    outer loop
      vertex -1.25 130 31.25
      vertex 0 0 31.25
      vertex -1.25 131.25 31.25
    endloop
  endfacet
  facet normal -0 0 1
    outer loop
      vertex -1.25 98.75 31.25
      vertex 0 0 31.25
      vertex -1.25 130 31.25
    endloop
  endfacet
  facet normal -0 0 1
    outer loop
      vertex -1.25 97.5 31.25
      vertex 0 0 31.25
      vertex -1.25 98.75 31.25
    endloop
  endfacet
  facet normal -0 0 1
    outer loop
      vertex -1.25 66.25 31.25
      vertex 0 0 31.25
      vertex -1.25 97.5 31.25
    endloop
  endfacet
  facet normal -0 0 1
    outer loop
      vertex -1.25 65 31.25
      vertex 0 0 31.25
      vertex -1.25 66.25 31.25
    endloop
  endfacet
  facet normal -0 0 1
    outer loop
      vertex -1.25 33.75 31.25
      vertex 0 0 31.25
      vertex -1.25 65 31.25
    endloop
  endfacet
  facet normal -0 0 1
    outer loop
      vertex -1.25 32.5 31.25
      vertex 0 0 31.25
      vertex -1.25 33.75 31.25
    endloop
  endfacet
  facet normal -0 0 1
    outer loop
      vertex -1.25 1.25 31.25
      vertex 0 0 31.25
      vertex -1.25 32.5 31.25
    endloop
  endfacet
  facet normal -0 0 1
    outer loop
      vertex -75.25 1.25 31.25
      vertex 0 0 31.25
      vertex -1.25 1.25 31.25
    endloop
  endfacet
  facet normal 0 0 1
    outer loop
      vertex -75.25 1.25 31.25
      vertex -76.5 1.69864e-14 31.25
      vertex 0 0 31.25
    endloop
  endfacet
  facet normal 0 0 1
    outer loop
      vertex -75.25 32.5 31.25
      vertex -76.5 1.69864e-14 31.25
      vertex -75.25 1.25 31.25
    endloop
  endfacet
  facet normal 0 1 -0
    outer loop
      vertex -1.25 33.75 1.25
      vertex -75.25 33.75 31.25
      vertex -1.25 33.75 31.25
    endloop
  endfacet
  facet normal 0 1 0
    outer loop
      vertex -75.25 33.75 31.25
      vertex -1.25 33.75 1.25
      vertex -75.25 33.75 1.25
    endloop
  endfacet
  facet normal -1 0 0
    outer loop
      vertex -76.5 218.75 0
      vertex -76.5 10 0
      vertex -76.5 218.75 0.299999
    endloop
  endfacet
  facet normal -1 0 0
    outer loop
      vertex -76.5 218.75 0.299999
      vertex -76.5 228.75 31.25
      vertex -76.5 228.75 0.299999
    endloop
  endfacet
  facet normal -1 0 0
    outer loop
      vertex -76.5 10 0.299999
      vertex -76.5 218.75 0.299999
      vertex -76.5 10 0
    endloop
  endfacet
  facet normal -1 0 0
    outer loop
      vertex -76.5 218.75 0.299999
      vertex -76.5 10 0.299999
      vertex -76.5 228.75 31.25
    endloop
  endfacet
  facet normal -1 0 0
    outer loop
      vertex -76.5 1.69864e-14 31.25
      vertex -76.5 10 0.299999
      vertex -76.5 1.69864e-14 0.299999
    endloop
  endfacet
  facet normal -1 0 0
    outer loop
      vertex -76.5 10 0.299999
      vertex -76.5 1.69864e-14 31.25
      vertex -76.5 228.75 31.25
    endloop
  endfacet
  facet normal 0 0 -1
    outer loop
      vertex 9.51056 -3.09017 0
      vertex 9.94522 1.04528 0
      vertex 9.94522 -1.04528 0
    endloop
  endfacet
  facet normal 0 0 -1
    outer loop
      vertex 9.51056 -3.09017 0
      vertex 9.51056 3.09017 0
      vertex 9.94522 1.04528 0
    endloop
  endfacet
  facet normal 0 0 -1
    outer loop
      vertex 8.66025 -5 0
      vertex 9.51056 3.09017 0
      vertex 9.51056 -3.09017 0
    endloop
  endfacet
  facet normal 0 0 -1
    outer loop
      vertex 8.66025 -5 0
      vertex 8.66025 5 0
      vertex 9.51056 3.09017 0
    endloop
  endfacet
  facet normal 0 0 -1
    outer loop
      vertex 7.43145 -6.69131 0
      vertex 8.66025 5 0
      vertex 8.66025 -5 0
    endloop
  endfacet
  facet normal 0 0 -1
    outer loop
      vertex 7.43145 -6.69131 0
      vertex 7.43145 6.69131 0
      vertex 8.66025 5 0
    endloop
  endfacet
  facet normal 0 0 -1
    outer loop
      vertex 5.87785 -8.09017 0
      vertex 7.43145 6.69131 0
      vertex 7.43145 -6.69131 0
    endloop
  endfacet
  facet normal 0 0 -1
    outer loop
      vertex 5.87785 -8.09017 0
      vertex 5.87785 8.09017 0
      vertex 7.43145 6.69131 0
    endloop
  endfacet
  facet normal 0 0 -1
    outer loop
      vertex 4.06737 -9.13545 0
      vertex 5.87785 8.09017 0
      vertex 5.87785 -8.09017 0
    endloop
  endfacet
  facet normal 0 0 -1
    outer loop
      vertex 4.06737 -9.13545 0
      vertex 4.06737 9.13545 0
      vertex 5.87785 8.09017 0
    endloop
  endfacet
  facet normal 0 0 -1
    outer loop
      vertex 2.07912 -9.78148 0
      vertex 4.06737 9.13545 0
      vertex 4.06737 -9.13545 0
    endloop
  endfacet
  facet normal 0 0 -1
    outer loop
      vertex 2.07912 -9.78148 0
      vertex 2.07912 9.78148 0
      vertex 4.06737 9.13545 0
    endloop
  endfacet
  facet normal 0 0 -1
    outer loop
      vertex 2.07912 -9.78148 0
      vertex 2.22045e-15 10 0
      vertex 2.07912 9.78148 0
    endloop
  endfacet
  facet normal 0 -0 -1
    outer loop
      vertex 2.22045e-15 10 0
      vertex 2.07912 -9.78148 0
      vertex -2.22045e-15 -10 0
    endloop
  endfacet
  facet normal 0 0 -1
    outer loop
      vertex 9.51056 225.66 0
      vertex 9.94522 229.795 0
      vertex 9.94522 227.705 0
    endloop
  endfacet
  facet normal 0 0 -1
    outer loop
      vertex 9.51056 225.66 0
      vertex 9.51056 231.84 0
      vertex 9.94522 229.795 0
    endloop
  endfacet
  facet normal 0 0 -1
    outer loop
      vertex 8.66025 223.75 0
      vertex 9.51056 231.84 0
      vertex 9.51056 225.66 0
    endloop
  endfacet
  facet normal 0 0 -1
    outer loop
      vertex 8.66025 223.75 0
      vertex 8.66025 233.75 0
      vertex 9.51056 231.84 0
    endloop
  endfacet
  facet normal 0 0 -1
    outer loop
      vertex 7.43145 222.059 0
      vertex 8.66025 233.75 0
      vertex 8.66025 223.75 0
    endloop
  endfacet
  facet normal 0 0 -1
    outer loop
      vertex 7.43145 222.059 0
      vertex 7.43145 235.441 0
      vertex 8.66025 233.75 0
    endloop
  endfacet
  facet normal 0 0 -1
    outer loop
      vertex 5.87785 220.66 0
      vertex 7.43145 235.441 0
      vertex 7.43145 222.059 0
    endloop
  endfacet
  facet normal 0 0 -1
    outer loop
      vertex 5.87785 220.66 0
      vertex 5.87785 236.84 0
      vertex 7.43145 235.441 0
    endloop
  endfacet
  facet normal 0 0 -1
    outer loop
      vertex 4.06737 219.615 0
      vertex 5.87785 236.84 0
      vertex 5.87785 220.66 0
    endloop
  endfacet
  facet normal 0 0 -1
    outer loop
      vertex 4.06737 219.615 0
      vertex 4.06737 237.885 0
      vertex 5.87785 236.84 0
    endloop
  endfacet
  facet normal 0 0 -1
    outer loop
      vertex 2.07912 218.969 0
      vertex 4.06737 237.885 0
      vertex 4.06737 219.615 0
    endloop
  endfacet
  facet normal 0 0 -1
    outer loop
      vertex 2.07912 218.969 0
      vertex 2.07912 238.531 0
      vertex 4.06737 237.885 0
    endloop
  endfacet
  facet normal 0 0 -1
    outer loop
      vertex 2.07912 218.969 0
      vertex 5.30131e-14 238.75 0
      vertex 2.07912 238.531 0
    endloop
  endfacet
  facet normal 0 0 -1
    outer loop
      vertex 4.85723e-14 218.75 0
      vertex 5.30131e-14 238.75 0
      vertex 2.07912 218.969 0
    endloop
  endfacet
  facet normal 0 0 -1
    outer loop
      vertex -76.5 218.75 0
      vertex 4.85723e-14 218.75 0
      vertex 2.22045e-15 10 0
    endloop
  endfacet
  facet normal 0 0 -1
    outer loop
      vertex -9.94522 2.20828e-15 0
      vertex 2.22045e-15 10 0
      vertex -2.22045e-15 -10 0
    endloop
  endfacet
  facet normal 0 0 -1
    outer loop
      vertex -9.94522 2.20828e-15 0
      vertex -2.22045e-15 -10 0
      vertex -2.07912 -9.78148 0
    endloop
  endfacet
  facet normal 0 0 -1
    outer loop
      vertex -66.5548 1.47781e-14 0
      vertex 2.22045e-15 10 0
      vertex -9.94522 2.20828e-15 0
    endloop
  endfacet
  facet normal 0 0 -1
    outer loop
      vertex -9.94522 2.20828e-15 0
      vertex -2.07912 -9.78148 0
      vertex -4.06737 -9.13545 0
    endloop
  endfacet
  facet normal 0 0 -1
    outer loop
      vertex 4.85723e-14 218.75 0
      vertex -9.94522 228.75 0
      vertex 5.30131e-14 238.75 0
    endloop
  endfacet
  facet normal 0 0 -1
    outer loop
      vertex -9.94522 2.20828e-15 0
      vertex -4.06737 -9.13545 0
      vertex -5.87785 -8.09017 0
    endloop
  endfacet
  facet normal 0 0 -1
    outer loop
      vertex 5.30131e-14 238.75 0
      vertex -9.94522 228.75 0
      vertex -2.07912 238.531 0
    endloop
  endfacet
  facet normal 0 0 -1
    outer loop
      vertex -9.94522 2.20828e-15 0
      vertex -5.87785 -8.09017 0
      vertex -7.43145 -6.69131 0
    endloop
  endfacet
  facet normal 0 0 -1
    outer loop
      vertex -2.07912 238.531 0
      vertex -9.94522 228.75 0
      vertex -4.06737 237.885 0
    endloop
  endfacet
  facet normal 0 0 -1
    outer loop
      vertex -9.94522 2.20828e-15 0
      vertex -7.43145 -6.69131 0
      vertex -8.66025 -5 0
    endloop
  endfacet
  facet normal 0 0 -1
    outer loop
      vertex -4.06737 237.885 0
      vertex -9.94522 228.75 0
      vertex -5.87785 236.84 0
    endloop
  endfacet
  facet normal 0 0 -1
    outer loop
      vertex -9.94522 2.20828e-15 0
      vertex -8.66025 -5 0
      vertex -9.51056 -3.09017 0
    endloop
  endfacet
  facet normal 0 0 -1
    outer loop
      vertex -5.87785 236.84 0
      vertex -9.94522 228.75 0
      vertex -7.43145 235.441 0
    endloop
  endfacet
  facet normal 0 0 -1
    outer loop
      vertex -9.94522 2.20828e-15 0
      vertex -9.51056 -3.09017 0
      vertex -9.94522 -1.04528 0
    endloop
  endfacet
  facet normal 0 0 -1
    outer loop
      vertex -7.43145 235.441 0
      vertex -9.94522 228.75 0
      vertex -8.66025 233.75 0
    endloop
  endfacet
  facet normal 0 0 -1
    outer loop
      vertex -8.66025 233.75 0
      vertex -9.94522 228.75 0
      vertex -9.51056 231.84 0
    endloop
  endfacet
  facet normal 0 0 -1
    outer loop
      vertex -9.51056 231.84 0
      vertex -9.94522 228.75 0
      vertex -9.94522 229.795 0
    endloop
  endfacet
  facet normal 0 0 -1
    outer loop
      vertex -78.5791 -9.78148 0
      vertex -76.5 10 0
      vertex -76.5 -10 0
    endloop
  endfacet
  facet normal 0 0 -1
    outer loop
      vertex -78.5791 -9.78148 0
      vertex -78.5791 9.78148 0
      vertex -76.5 10 0
    endloop
  endfacet
  facet normal 0 0 -1
    outer loop
      vertex -80.5674 -9.13545 0
      vertex -78.5791 9.78148 0
      vertex -78.5791 -9.78148 0
    endloop
  endfacet
  facet normal 0 0 -1
    outer loop
      vertex -80.5674 -9.13545 0
      vertex -80.5674 9.13545 0
      vertex -78.5791 9.78148 0
    endloop
  endfacet
  facet normal 0 0 -1
    outer loop
      vertex -82.3779 -8.09017 0
      vertex -80.5674 9.13545 0
      vertex -80.5674 -9.13545 0
    endloop
  endfacet
  facet normal 0 0 -1
    outer loop
      vertex -82.3779 -8.09017 0
      vertex -82.3779 8.09017 0
      vertex -80.5674 9.13545 0
    endloop
  endfacet
  facet normal 0 0 -1
    outer loop
      vertex -83.9314 -6.69131 0
      vertex -82.3779 8.09017 0
      vertex -82.3779 -8.09017 0
    endloop
  endfacet
  facet normal 0 0 -1
    outer loop
      vertex -83.9314 -6.69131 0
      vertex -83.9314 6.69131 0
      vertex -82.3779 8.09017 0
    endloop
  endfacet
  facet normal 0 0 -1
    outer loop
      vertex -85.1603 -5 0
      vertex -83.9314 6.69131 0
      vertex -83.9314 -6.69131 0
    endloop
  endfacet
  facet normal 0 0 -1
    outer loop
      vertex -85.1603 -5 0
      vertex -85.1603 5 0
      vertex -83.9314 6.69131 0
    endloop
  endfacet
  facet normal 0 0 -1
    outer loop
      vertex -86.0106 -3.09017 0
      vertex -85.1603 5 0
      vertex -85.1603 -5 0
    endloop
  endfacet
  facet normal 0 0 -1
    outer loop
      vertex -86.0106 -3.09017 0
      vertex -86.0106 3.09017 0
      vertex -85.1603 5 0
    endloop
  endfacet
  facet normal 0 0 -1
    outer loop
      vertex -86.4452 -1.04528 0
      vertex -86.0106 3.09017 0
      vertex -86.0106 -3.09017 0
    endloop
  endfacet
  facet normal 0 0 -1
    outer loop
      vertex -86.0106 3.09017 0
      vertex -86.4452 -1.04528 0
      vertex -86.4452 1.04528 0
    endloop
  endfacet
  facet normal 0 0 -1
    outer loop
      vertex -66.9894 -3.09017 0
      vertex -66.5548 1.47781e-14 0
      vertex -66.5548 -1.04528 0
    endloop
  endfacet
  facet normal 0 0 -1
    outer loop
      vertex -76.5 218.75 0
      vertex 2.22045e-15 10 0
      vertex -76.5 10 0
    endloop
  endfacet
  facet normal 0 0 -1
    outer loop
      vertex -67.8397 -5 0
      vertex -66.5548 1.47781e-14 0
      vertex -66.9894 -3.09017 0
    endloop
  endfacet
  facet normal 0 0 -1
    outer loop
      vertex 4.85723e-14 218.75 0
      vertex -76.5 218.75 0
      vertex -66.5548 228.75 0
    endloop
  endfacet
  facet normal 0 0 -1
    outer loop
      vertex -69.0686 -6.69131 0
      vertex -66.5548 1.47781e-14 0
      vertex -67.8397 -5 0
    endloop
  endfacet
  facet normal 0 -0 -1
    outer loop
      vertex -69.0686 235.441 0
      vertex -66.5548 228.75 0
      vertex -76.5 218.75 0
    endloop
  endfacet
  facet normal -0 0 -1
    outer loop
      vertex -66.5548 1.47781e-14 0
      vertex -69.0686 -6.69131 0
      vertex -76.5 10 0
    endloop
  endfacet
  facet normal 0 0 -1
    outer loop
      vertex -66.5548 228.75 0
      vertex -66.9894 231.84 0
      vertex -66.5548 229.795 0
    endloop
  endfacet
  facet normal 0 0 -1
    outer loop
      vertex -76.5 10 0
      vertex -69.0686 -6.69131 0
      vertex -70.6221 -8.09017 0
    endloop
  endfacet
  facet normal 0 0 -1
    outer loop
      vertex -66.5548 228.75 0
      vertex -67.8397 233.75 0
      vertex -66.9894 231.84 0
    endloop
  endfacet
  facet normal 0 0 -1
    outer loop
      vertex -76.5 10 0
      vertex -70.6221 -8.09017 0
      vertex -72.4326 -9.13545 0
    endloop
  endfacet
  facet normal 0 0 -1
    outer loop
      vertex -66.5548 228.75 0
      vertex -69.0686 235.441 0
      vertex -67.8397 233.75 0
    endloop
  endfacet
  facet normal 0 0 -1
    outer loop
      vertex -76.5 10 0
      vertex -72.4326 -9.13545 0
      vertex -74.4209 -9.78148 0
    endloop
  endfacet
  facet normal -0 0 -1
    outer loop
      vertex -69.0686 235.441 0
      vertex -76.5 218.75 0
      vertex -70.6221 236.84 0
    endloop
  endfacet
  facet normal 0 0 -1
    outer loop
      vertex -76.5 10 0
      vertex -74.4209 -9.78148 0
      vertex -76.5 -10 0
    endloop
  endfacet
  facet normal -0 0 -1
    outer loop
      vertex -70.6221 236.84 0
      vertex -76.5 218.75 0
      vertex -72.4326 237.885 0
    endloop
  endfacet
  facet normal -0 0 -1
    outer loop
      vertex -72.4326 237.885 0
      vertex -76.5 218.75 0
      vertex -74.4209 238.531 0
    endloop
  endfacet
  facet normal 0 0 -1
    outer loop
      vertex -76.5 218.75 0
      vertex -76.5 238.75 0
      vertex -74.4209 238.531 0
    endloop
  endfacet
  facet normal 0 0 -1
    outer loop
      vertex -78.5791 218.969 0
      vertex -76.5 238.75 0
      vertex -76.5 218.75 0
    endloop
  endfacet
  facet normal 0 0 -1
    outer loop
      vertex -78.5791 218.969 0
      vertex -78.5791 238.531 0
      vertex -76.5 238.75 0
    endloop
  endfacet
  facet normal 0 0 -1
    outer loop
      vertex -80.5674 219.615 0
      vertex -78.5791 238.531 0
      vertex -78.5791 218.969 0
    endloop
  endfacet
  facet normal 0 0 -1
    outer loop
      vertex -80.5674 219.615 0
      vertex -80.5674 237.885 0
      vertex -78.5791 238.531 0
    endloop
  endfacet
  facet normal 0 0 -1
    outer loop
      vertex -82.3779 220.66 0
      vertex -80.5674 237.885 0
      vertex -80.5674 219.615 0
    endloop
  endfacet
  facet normal 0 0 -1
    outer loop
      vertex -82.3779 220.66 0
      vertex -82.3779 236.84 0
      vertex -80.5674 237.885 0
    endloop
  endfacet
  facet normal 0 0 -1
    outer loop
      vertex -83.9314 222.059 0
      vertex -82.3779 236.84 0
      vertex -82.3779 220.66 0
    endloop
  endfacet
  facet normal 0 0 -1
    outer loop
      vertex -83.9314 222.059 0
      vertex -83.9314 235.441 0
      vertex -82.3779 236.84 0
    endloop
  endfacet
  facet normal 0 0 -1
    outer loop
      vertex -85.1603 223.75 0
      vertex -83.9314 235.441 0
      vertex -83.9314 222.059 0
    endloop
  endfacet
  facet normal 0 0 -1
    outer loop
      vertex -85.1603 223.75 0
      vertex -85.1603 233.75 0
      vertex -83.9314 235.441 0
    endloop
  endfacet
  facet normal 0 0 -1
    outer loop
      vertex -86.0106 225.66 0
      vertex -85.1603 233.75 0
      vertex -85.1603 223.75 0
    endloop
  endfacet
  facet normal 0 0 -1
    outer loop
      vertex -86.0106 225.66 0
      vertex -86.0106 231.84 0
      vertex -85.1603 233.75 0
    endloop
  endfacet
  facet normal 0 0 -1
    outer loop
      vertex -86.4452 227.705 0
      vertex -86.0106 231.84 0
      vertex -86.0106 225.66 0
    endloop
  endfacet
  facet normal 0 0 -1
    outer loop
      vertex -86.0106 231.84 0
      vertex -86.4452 227.705 0
      vertex -86.4452 229.795 0
    endloop
  endfacet
  facet normal 0 0 -1
    outer loop
      vertex -76.5 10 0
      vertex 2.22045e-15 10 0
      vertex -66.5548 1.47781e-14 0
    endloop
  endfacet
  facet normal 0 0 -1
    outer loop
      vertex 4.85723e-14 218.75 0
      vertex -66.5548 228.75 0
      vertex -9.94522 228.75 0
    endloop
  endfacet
  facet normal 1 -2.22045e-16 0
    outer loop
      vertex 5.07927e-14 228.75 31.25
      vertex 4.85723e-14 218.75 0.299999
      vertex 5.07927e-14 228.75 0.299999
    endloop
  endfacet
  facet normal 1 -2.22045e-16 0
    outer loop
      vertex 4.85723e-14 218.75 0.299999
      vertex 2.22045e-15 10 0.299999
      vertex 4.85723e-14 218.75 0
    endloop
  endfacet
  facet normal 1 -2.22045e-16 0
    outer loop
      vertex 5.07927e-14 228.75 31.25
      vertex 2.22045e-15 10 0.299999
      vertex 4.85723e-14 218.75 0.299999
    endloop
  endfacet
  facet normal 1 -2.22045e-16 0
    outer loop
      vertex 0 0 31.25
      vertex 2.22045e-15 10 0.299999
      vertex 5.07927e-14 228.75 31.25
    endloop
  endfacet
  facet normal 1 -2.22045e-16 0
    outer loop
      vertex 2.22045e-15 10 0.299999
      vertex 0 0 31.25
      vertex 0 0 0.299999
    endloop
  endfacet
  facet normal 1 -2.22045e-16 0
    outer loop
      vertex 4.85723e-14 218.75 0
      vertex 2.22045e-15 10 0.299999
      vertex 2.22045e-15 10 0
    endloop
  endfacet
  facet normal 0 1 -0
    outer loop
      vertex -1.25 1.25 1.25
      vertex -75.25 1.25 31.25
      vertex -1.25 1.25 31.25
    endloop
  endfacet
  facet normal 0 1 0
    outer loop
      vertex -75.25 1.25 31.25
      vertex -1.25 1.25 1.25
      vertex -75.25 1.25 1.25
    endloop
  endfacet
  facet normal 0 -1 0
    outer loop
      vertex -75.25 32.5 1.25
      vertex -1.25 32.5 31.25
      vertex -75.25 32.5 31.25
    endloop
  endfacet
  facet normal 0 -1 -0
    outer loop
      vertex -1.25 32.5 31.25
      vertex -75.25 32.5 1.25
      vertex -1.25 32.5 1.25
    endloop
  endfacet
  facet normal 1 -0 0
    outer loop
      vertex -75.25 1.25 31.25
      vertex -75.25 32.5 1.25
      vertex -75.25 32.5 31.25
    endloop
  endfacet
  facet normal 1 0 0
    outer loop
      vertex -75.25 32.5 1.25
      vertex -75.25 1.25 31.25
      vertex -75.25 1.25 1.25
    endloop
  endfacet
  facet normal -0 0 1
    outer loop
      vertex -75.25 32.5 1.25
      vertex -1.25 1.25 1.25
      vertex -1.25 32.5 1.25
    endloop
  endfacet
  facet normal 0 0 1
    outer loop
      vertex -1.25 1.25 1.25
      vertex -75.25 32.5 1.25
      vertex -75.25 1.25 1.25
    endloop
  endfacet
  facet normal -1 0 0
    outer loop
      vertex -1.25 1.25 1.25
      vertex -1.25 32.5 31.25
      vertex -1.25 32.5 1.25
    endloop
  endfacet
  facet normal -1 -0 0
    outer loop
      vertex -1.25 32.5 31.25
      vertex -1.25 1.25 1.25
      vertex -1.25 1.25 31.25
    endloop
  endfacet
  facet normal 0 1 -0
    outer loop
      vertex -1.25 66.25 1.25
      vertex -75.25 66.25 31.25
      vertex -1.25 66.25 31.25
    endloop
  endfacet
  facet normal 0 1 0
    outer loop
      vertex -75.25 66.25 31.25
      vertex -1.25 66.25 1.25
      vertex -75.25 66.25 1.25
    endloop
  endfacet
  facet normal 0 -1 0
    outer loop
      vertex -75.25 65 1.25
      vertex -1.25 65 31.25
      vertex -75.25 65 31.25
    endloop
  endfacet
  facet normal 0 -1 -0
    outer loop
      vertex -1.25 65 31.25
      vertex -75.25 65 1.25
      vertex -1.25 65 1.25
    endloop
  endfacet
  facet normal 1 -0 0
    outer loop
      vertex -75.25 33.75 31.25
      vertex -75.25 65 1.25
      vertex -75.25 65 31.25
    endloop
  endfacet
  facet normal 1 0 0
    outer loop
      vertex -75.25 65 1.25
      vertex -75.25 33.75 31.25
      vertex -75.25 33.75 1.25
    endloop
  endfacet
  facet normal -0 0 1
    outer loop
      vertex -75.25 65 1.25
      vertex -1.25 33.75 1.25
      vertex -1.25 65 1.25
    endloop
  endfacet
  facet normal 0 0 1
    outer loop
      vertex -1.25 33.75 1.25
      vertex -75.25 65 1.25
      vertex -75.25 33.75 1.25
    endloop
  endfacet
  facet normal -1 0 0
    outer loop
      vertex -1.25 33.75 1.25
      vertex -1.25 65 31.25
      vertex -1.25 65 1.25
    endloop
  endfacet
  facet normal -1 -0 0
    outer loop
      vertex -1.25 65 31.25
      vertex -1.25 33.75 1.25
      vertex -1.25 33.75 31.25
    endloop
  endfacet
  facet normal 0 1 -0
    outer loop
      vertex -1.25 98.75 1.25
      vertex -75.25 98.75 31.25
      vertex -1.25 98.75 31.25
    endloop
  endfacet
  facet normal 0 1 0
    outer loop
      vertex -75.25 98.75 31.25
      vertex -1.25 98.75 1.25
      vertex -75.25 98.75 1.25
    endloop
  endfacet
  facet normal 0 -1 0
    outer loop
      vertex -75.25 97.5 1.25
      vertex -1.25 97.5 31.25
      vertex -75.25 97.5 31.25
    endloop
  endfacet
  facet normal 0 -1 -0
    outer loop
      vertex -1.25 97.5 31.25
      vertex -75.25 97.5 1.25
      vertex -1.25 97.5 1.25
    endloop
  endfacet
  facet normal 1 -0 0
    outer loop
      vertex -75.25 66.25 31.25
      vertex -75.25 97.5 1.25
      vertex -75.25 97.5 31.25
    endloop
  endfacet
  facet normal 1 0 0
    outer loop
      vertex -75.25 97.5 1.25
      vertex -75.25 66.25 31.25
      vertex -75.25 66.25 1.25
    endloop
  endfacet
  facet normal -0 0 1
    outer loop
      vertex -75.25 97.5 1.25
      vertex -1.25 66.25 1.25
      vertex -1.25 97.5 1.25
    endloop
  endfacet
  facet normal 0 0 1
    outer loop
      vertex -1.25 66.25 1.25
      vertex -75.25 97.5 1.25
      vertex -75.25 66.25 1.25
    endloop
  endfacet
  facet normal -1 0 0
    outer loop
      vertex -1.25 66.25 1.25
      vertex -1.25 97.5 31.25
      vertex -1.25 97.5 1.25
    endloop
  endfacet
  facet normal -1 -0 0
    outer loop
      vertex -1.25 97.5 31.25
      vertex -1.25 66.25 1.25
      vertex -1.25 66.25 31.25
    endloop
  endfacet
  facet normal 0 1 -0
    outer loop
      vertex -1.25 131.25 1.25
      vertex -75.25 131.25 31.25
      vertex -1.25 131.25 31.25
    endloop
  endfacet
  facet normal 0 1 0
    outer loop
      vertex -75.25 131.25 31.25
      vertex -1.25 131.25 1.25
      vertex -75.25 131.25 1.25
    endloop
  endfacet
  facet normal 0 -1 0
    outer loop
      vertex -75.25 130 1.25
      vertex -1.25 130 31.25
      vertex -75.25 130 31.25
    endloop
  endfacet
  facet normal 0 -1 -0
    outer loop
      vertex -1.25 130 31.25
      vertex -75.25 130 1.25
      vertex -1.25 130 1.25
    endloop
  endfacet
  facet normal 1 -0 0
    outer loop
      vertex -75.25 98.75 31.25
      vertex -75.25 130 1.25
      vertex -75.25 130 31.25
    endloop
  endfacet
  facet normal 1 0 0
    outer loop
      vertex -75.25 130 1.25
      vertex -75.25 98.75 31.25
      vertex -75.25 98.75 1.25
    endloop
  endfacet
  facet normal -0 0 1
    outer loop
      vertex -75.25 130 1.25
      vertex -1.25 98.75 1.25
      vertex -1.25 130 1.25
    endloop
  endfacet
  facet normal 0 0 1
    outer loop
      vertex -1.25 98.75 1.25
      vertex -75.25 130 1.25
      vertex -75.25 98.75 1.25
    endloop
  endfacet
  facet normal -1 0 0
    outer loop
      vertex -1.25 98.75 1.25
      vertex -1.25 130 31.25
      vertex -1.25 130 1.25
    endloop
  endfacet
  facet normal -1 -0 0
    outer loop
      vertex -1.25 130 31.25
      vertex -1.25 98.75 1.25
      vertex -1.25 98.75 31.25
    endloop
  endfacet
  facet normal 0 1 -0
    outer loop
      vertex -1.25 163.75 1.25
      vertex -75.25 163.75 31.25
      vertex -1.25 163.75 31.25
    endloop
  endfacet
  facet normal 0 1 0
    outer loop
      vertex -75.25 163.75 31.25
      vertex -1.25 163.75 1.25
      vertex -75.25 163.75 1.25
    endloop
  endfacet
  facet normal 0 -1 0
    outer loop
      vertex -75.25 162.5 1.25
      vertex -1.25 162.5 31.25
      vertex -75.25 162.5 31.25
    endloop
  endfacet
  facet normal 0 -1 -0
    outer loop
      vertex -1.25 162.5 31.25
      vertex -75.25 162.5 1.25
      vertex -1.25 162.5 1.25
    endloop
  endfacet
  facet normal 1 -0 0
    outer loop
      vertex -75.25 131.25 31.25
      vertex -75.25 162.5 1.25
      vertex -75.25 162.5 31.25
    endloop
  endfacet
  facet normal 1 0 0
    outer loop
      vertex -75.25 162.5 1.25
      vertex -75.25 131.25 31.25
      vertex -75.25 131.25 1.25
    endloop
  endfacet
  facet normal -0 0 1
    outer loop
      vertex -75.25 162.5 1.25
      vertex -1.25 131.25 1.25
      vertex -1.25 162.5 1.25
    endloop
  endfacet
  facet normal 0 0 1
    outer loop
      vertex -1.25 131.25 1.25
      vertex -75.25 162.5 1.25
      vertex -75.25 131.25 1.25
    endloop
  endfacet
  facet normal -1 0 0
    outer loop
      vertex -1.25 131.25 1.25
      vertex -1.25 162.5 31.25
      vertex -1.25 162.5 1.25
    endloop
  endfacet
  facet normal -1 -0 0
    outer loop
      vertex -1.25 162.5 31.25
      vertex -1.25 131.25 1.25
      vertex -1.25 131.25 31.25
    endloop
  endfacet
  facet normal 0 1 -0
    outer loop
      vertex -1.25 196.25 1.25
      vertex -75.25 196.25 31.25
      vertex -1.25 196.25 31.25
    endloop
  endfacet
  facet normal 0 1 0
    outer loop
      vertex -75.25 196.25 31.25
      vertex -1.25 196.25 1.25
      vertex -75.25 196.25 1.25
    endloop
  endfacet
  facet normal 0 -1 0
    outer loop
      vertex -75.25 195 1.25
      vertex -1.25 195 31.25
      vertex -75.25 195 31.25
    endloop
  endfacet
  facet normal 0 -1 -0
    outer loop
      vertex -1.25 195 31.25
      vertex -75.25 195 1.25
      vertex -1.25 195 1.25
    endloop
  endfacet
  facet normal 1 -0 0
    outer loop
      vertex -75.25 163.75 31.25
      vertex -75.25 195 1.25
      vertex -75.25 195 31.25
    endloop
  endfacet
  facet normal 1 0 0
    outer loop
      vertex -75.25 195 1.25
      vertex -75.25 163.75 31.25
      vertex -75.25 163.75 1.25
    endloop
  endfacet
  facet normal -0 0 1
    outer loop
      vertex -75.25 195 1.25
      vertex -1.25 163.75 1.25
      vertex -1.25 195 1.25
    endloop
  endfacet
  facet normal 0 0 1
    outer loop
      vertex -1.25 163.75 1.25
      vertex -75.25 195 1.25
      vertex -75.25 163.75 1.25
    endloop
  endfacet
  facet normal -1 0 0
    outer loop
      vertex -1.25 163.75 1.25
      vertex -1.25 195 31.25
      vertex -1.25 195 1.25
    endloop
  endfacet
  facet normal -1 -0 0
    outer loop
      vertex -1.25 195 31.25
      vertex -1.25 163.75 1.25
      vertex -1.25 163.75 31.25
    endloop
  endfacet
  facet normal 0 1 -0
    outer loop
      vertex -9.94522 228.75 0
      vertex -66.5548 228.75 0.299999
      vertex -9.94522 228.75 0.299999
    endloop
  endfacet
  facet normal 0 1 0
    outer loop
      vertex -66.5548 228.75 0.299999
      vertex -9.94522 228.75 0
      vertex -66.5548 228.75 0
    endloop
  endfacet
  facet normal 0 1 0
    outer loop
      vertex -9.94522 228.75 0.299999
      vertex 5.07927e-14 228.75 31.25
      vertex 5.07927e-14 228.75 0.299999
    endloop
  endfacet
  facet normal 0 1 0
    outer loop
      vertex 5.07927e-14 228.75 31.25
      vertex -9.94522 228.75 0.299999
      vertex -76.5 228.75 31.25
    endloop
  endfacet
  facet normal 0 1 -0
    outer loop
      vertex -66.5548 228.75 0.299999
      vertex -76.5 228.75 31.25
      vertex -9.94522 228.75 0.299999
    endloop
  endfacet
  facet normal 0 1 0
    outer loop
      vertex -76.5 228.75 31.25
      vertex -66.5548 228.75 0.299999
      vertex -76.5 228.75 0.299999
    endloop
  endfacet
  facet normal 0 -1 0
    outer loop
      vertex -75.25 227.5 1.25
      vertex -1.25 227.5 31.25
      vertex -75.25 227.5 31.25
    endloop
  endfacet
  facet normal 0 -1 -0
    outer loop
      vertex -1.25 227.5 31.25
      vertex -75.25 227.5 1.25
      vertex -1.25 227.5 1.25
    endloop
  endfacet
  facet normal 1 -0 0
    outer loop
      vertex -75.25 196.25 31.25
      vertex -75.25 227.5 1.25
      vertex -75.25 227.5 31.25
    endloop
  endfacet
  facet normal 1 0 0
    outer loop
      vertex -75.25 227.5 1.25
      vertex -75.25 196.25 31.25
      vertex -75.25 196.25 1.25
    endloop
  endfacet
  facet normal -0 0 1
    outer loop
      vertex -75.25 227.5 1.25
      vertex -1.25 196.25 1.25
      vertex -1.25 227.5 1.25
    endloop
  endfacet
  facet normal 0 0 1
    outer loop
      vertex -1.25 196.25 1.25
      vertex -75.25 227.5 1.25
      vertex -75.25 196.25 1.25
    endloop
  endfacet
  facet normal -1 0 0
    outer loop
      vertex -1.25 196.25 1.25
      vertex -1.25 227.5 31.25
      vertex -1.25 227.5 1.25
    endloop
  endfacet
  facet normal -1 -0 0
    outer loop
      vertex -1.25 227.5 31.25
      vertex -1.25 196.25 1.25
      vertex -1.25 196.25 31.25
    endloop
  endfacet
  facet normal -0.104529 -0.994522 0
    outer loop
      vertex -2.07912 -9.78148 0
      vertex -2.22045e-15 -10 0.299999
      vertex -2.07912 -9.78148 0.299999
    endloop
  endfacet
  facet normal -0.104529 -0.994522 -0
    outer loop
      vertex -2.22045e-15 -10 0.299999
      vertex -2.07912 -9.78148 0
      vertex -2.22045e-15 -10 0
    endloop
  endfacet
  facet normal -1 0 0
    outer loop
      vertex -9.94522 -1.04528 0
      vertex -9.94522 2.20828e-15 0.299999
      vertex -9.94522 2.20828e-15 0
    endloop
  endfacet
  facet normal -1 -0 0
    outer loop
      vertex -9.94522 2.20828e-15 0.299999
      vertex -9.94522 -1.04528 0
      vertex -9.94522 -1.04528 0.299999
    endloop
  endfacet
  facet normal 1 -0 0
    outer loop
      vertex 9.94522 -1.04528 0.299999
      vertex 9.94522 1.04528 0
      vertex 9.94522 1.04528 0.299999
    endloop
  endfacet
  facet normal 1 0 0
    outer loop
      vertex 9.94522 1.04528 0
      vertex 9.94522 -1.04528 0.299999
      vertex 9.94522 -1.04528 0
    endloop
  endfacet
  facet normal -0.669131 -0.743145 0
    outer loop
      vertex -7.43145 -6.69131 0
      vertex -5.87785 -8.09017 0.299999
      vertex -7.43145 -6.69131 0.299999
    endloop
  endfacet
  facet normal -0.669131 -0.743145 -0
    outer loop
      vertex -5.87785 -8.09017 0.299999
      vertex -7.43145 -6.69131 0
      vertex -5.87785 -8.09017 0
    endloop
  endfacet
  facet normal -0.5 -0.866026 0
    outer loop
      vertex -5.87785 -8.09017 0
      vertex -4.06737 -9.13545 0.299999
      vertex -5.87785 -8.09017 0.299999
    endloop
  endfacet
  facet normal -0.5 -0.866026 -0
    outer loop
      vertex -4.06737 -9.13545 0.299999
      vertex -5.87785 -8.09017 0
      vertex -4.06737 -9.13545 0
    endloop
  endfacet
  facet normal -0.913545 -0.406737 0
    outer loop
      vertex -8.66025 -5 0
      vertex -9.51056 -3.09017 0.299999
      vertex -9.51056 -3.09017 0
    endloop
  endfacet
  facet normal -0.913545 -0.406737 0
    outer loop
      vertex -9.51056 -3.09017 0.299999
      vertex -8.66025 -5 0
      vertex -8.66025 -5 0.299999
    endloop
  endfacet
  facet normal -0.309017 -0.951057 0
    outer loop
      vertex -4.06737 -9.13545 0
      vertex -2.07912 -9.78148 0.299999
      vertex -4.06737 -9.13545 0.299999
    endloop
  endfacet
  facet normal -0.309017 -0.951057 -0
    outer loop
      vertex -2.07912 -9.78148 0.299999
      vertex -4.06737 -9.13545 0
      vertex -2.07912 -9.78148 0
    endloop
  endfacet
  facet normal 0 0 1
    outer loop
      vertex 0 0 0.299999
      vertex 9.94522 1.04528 0.299999
      vertex 9.51056 3.09017 0.299999
    endloop
  endfacet
  facet normal 0 0 1
    outer loop
      vertex 9.94522 1.04528 0.299999
      vertex 0 0 0.299999
      vertex 9.94522 -1.04528 0.299999
    endloop
  endfacet
  facet normal 0 0 1
    outer loop
      vertex 0 0 0.299999
      vertex 9.51056 3.09017 0.299999
      vertex 8.66025 5 0.299999
    endloop
  endfacet
  facet normal 0 0 1
    outer loop
      vertex 9.94522 -1.04528 0.299999
      vertex 0 0 0.299999
      vertex 9.51056 -3.09017 0.299999
    endloop
  endfacet
  facet normal 0 0 1
    outer loop
      vertex 0 0 0.299999
      vertex 8.66025 5 0.299999
      vertex 7.43145 6.69131 0.299999
    endloop
  endfacet
  facet normal 0 0 1
    outer loop
      vertex 9.51056 -3.09017 0.299999
      vertex 0 0 0.299999
      vertex 8.66025 -5 0.299999
    endloop
  endfacet
  facet normal 0 0 1
    outer loop
      vertex 0 0 0.299999
      vertex 7.43145 6.69131 0.299999
      vertex 5.87785 8.09017 0.299999
    endloop
  endfacet
  facet normal 0 0 1
    outer loop
      vertex 8.66025 -5 0.299999
      vertex 0 0 0.299999
      vertex 7.43145 -6.69131 0.299999
    endloop
  endfacet
  facet normal 0 0 1
    outer loop
      vertex 0 0 0.299999
      vertex 5.87785 8.09017 0.299999
      vertex 4.06737 9.13545 0.299999
    endloop
  endfacet
  facet normal 0 0 1
    outer loop
      vertex 7.43145 -6.69131 0.299999
      vertex 0 0 0.299999
      vertex 5.87785 -8.09017 0.299999
    endloop
  endfacet
  facet normal 0 0 1
    outer loop
      vertex 0 0 0.299999
      vertex 4.06737 9.13545 0.299999
      vertex 2.07912 9.78148 0.299999
    endloop
  endfacet
  facet normal 0 0 1
    outer loop
      vertex 5.87785 -8.09017 0.299999
      vertex 0 0 0.299999
      vertex 4.06737 -9.13545 0.299999
    endloop
  endfacet
  facet normal 0 0 1
    outer loop
      vertex 0 0 0.299999
      vertex 2.07912 9.78148 0.299999
      vertex 2.22045e-15 10 0.299999
    endloop
  endfacet
  facet normal 0 0 1
    outer loop
      vertex 4.06737 -9.13545 0.299999
      vertex 0 0 0.299999
      vertex 2.07912 -9.78148 0.299999
    endloop
  endfacet
  facet normal 0 0 1
    outer loop
      vertex 0 0 0.299999
      vertex -2.22045e-15 -10 0.299999
      vertex 2.07912 -9.78148 0.299999
    endloop
  endfacet
  facet normal 0 0 1
    outer loop
      vertex 0 0 0.299999
      vertex -2.07912 -9.78148 0.299999
      vertex -2.22045e-15 -10 0.299999
    endloop
  endfacet
  facet normal 0 0 1
    outer loop
      vertex 0 0 0.299999
      vertex -4.06737 -9.13545 0.299999
      vertex -2.07912 -9.78148 0.299999
    endloop
  endfacet
  facet normal 0 0 1
    outer loop
      vertex 0 0 0.299999
      vertex -5.87785 -8.09017 0.299999
      vertex -4.06737 -9.13545 0.299999
    endloop
  endfacet
  facet normal 0 0 1
    outer loop
      vertex 0 0 0.299999
      vertex -7.43145 -6.69131 0.299999
      vertex -5.87785 -8.09017 0.299999
    endloop
  endfacet
  facet normal 0 0 1
    outer loop
      vertex 0 0 0.299999
      vertex -8.66025 -5 0.299999
      vertex -7.43145 -6.69131 0.299999
    endloop
  endfacet
  facet normal 0 0 1
    outer loop
      vertex 0 0 0.299999
      vertex -9.51056 -3.09017 0.299999
      vertex -8.66025 -5 0.299999
    endloop
  endfacet
  facet normal 0 0 1
    outer loop
      vertex -9.94522 -1.04528 0.299999
      vertex 0 0 0.299999
      vertex -9.94522 2.20828e-15 0.299999
    endloop
  endfacet
  facet normal 0 0 1
    outer loop
      vertex 0 0 0.299999
      vertex -9.94522 -1.04528 0.299999
      vertex -9.51056 -3.09017 0.299999
    endloop
  endfacet
  facet normal -0.809017 -0.587785 0
    outer loop
      vertex -7.43145 -6.69131 0
      vertex -8.66025 -5 0.299999
      vertex -8.66025 -5 0
    endloop
  endfacet
  facet normal -0.809017 -0.587785 0
    outer loop
      vertex -8.66025 -5 0.299999
      vertex -7.43145 -6.69131 0
      vertex -7.43145 -6.69131 0.299999
    endloop
  endfacet
  facet normal -0.978148 -0.207911 0
    outer loop
      vertex -9.51056 -3.09017 0
      vertex -9.94522 -1.04528 0.299999
      vertex -9.94522 -1.04528 0
    endloop
  endfacet
  facet normal -0.978148 -0.207911 0
    outer loop
      vertex -9.94522 -1.04528 0.299999
      vertex -9.51056 -3.09017 0
      vertex -9.51056 -3.09017 0.299999
    endloop
  endfacet
  facet normal 0.104529 0.994522 -0
    outer loop
      vertex 2.07912 9.78148 0
      vertex 2.22045e-15 10 0.299999
      vertex 2.07912 9.78148 0.299999
    endloop
  endfacet
  facet normal 0.104529 0.994522 0
    outer loop
      vertex 2.22045e-15 10 0.299999
      vertex 2.07912 9.78148 0
      vertex 2.22045e-15 10 0
    endloop
  endfacet
  facet normal 0.978148 0.207911 0
    outer loop
      vertex 9.94522 1.04528 0.299999
      vertex 9.51056 3.09017 0
      vertex 9.51056 3.09017 0.299999
    endloop
  endfacet
  facet normal 0.978148 0.207911 0
    outer loop
      vertex 9.51056 3.09017 0
      vertex 9.94522 1.04528 0.299999
      vertex 9.94522 1.04528 0
    endloop
  endfacet
  facet normal 0.669131 0.743145 -0
    outer loop
      vertex 7.43145 6.69131 0
      vertex 5.87785 8.09017 0.299999
      vertex 7.43145 6.69131 0.299999
    endloop
  endfacet
  facet normal 0.669131 0.743145 0
    outer loop
      vertex 5.87785 8.09017 0.299999
      vertex 7.43145 6.69131 0
      vertex 5.87785 8.09017 0
    endloop
  endfacet
  facet normal 0.309017 0.951057 -0
    outer loop
      vertex 4.06737 9.13545 0
      vertex 2.07912 9.78148 0.299999
      vertex 4.06737 9.13545 0.299999
    endloop
  endfacet
  facet normal 0.309017 0.951057 0
    outer loop
      vertex 2.07912 9.78148 0.299999
      vertex 4.06737 9.13545 0
      vertex 2.07912 9.78148 0
    endloop
  endfacet
  facet normal 0.5 0.866026 -0
    outer loop
      vertex 5.87785 8.09017 0
      vertex 4.06737 9.13545 0.299999
      vertex 5.87785 8.09017 0.299999
    endloop
  endfacet
  facet normal 0.5 0.866026 0
    outer loop
      vertex 4.06737 9.13545 0.299999
      vertex 5.87785 8.09017 0
      vertex 4.06737 9.13545 0
    endloop
  endfacet
  facet normal 0.5 -0.866026 0
    outer loop
      vertex 4.06737 -9.13545 0
      vertex 5.87785 -8.09017 0.299999
      vertex 4.06737 -9.13545 0.299999
    endloop
  endfacet
  facet normal 0.5 -0.866026 0
    outer loop
      vertex 5.87785 -8.09017 0.299999
      vertex 4.06737 -9.13545 0
      vertex 5.87785 -8.09017 0
    endloop
  endfacet
  facet normal 0.104529 -0.994522 0
    outer loop
      vertex -2.22045e-15 -10 0
      vertex 2.07912 -9.78148 0.299999
      vertex -2.22045e-15 -10 0.299999
    endloop
  endfacet
  facet normal 0.104529 -0.994522 0
    outer loop
      vertex 2.07912 -9.78148 0.299999
      vertex -2.22045e-15 -10 0
      vertex 2.07912 -9.78148 0
    endloop
  endfacet
  facet normal 0.809017 0.587785 0
    outer loop
      vertex 8.66025 5 0.299999
      vertex 7.43145 6.69131 0
      vertex 7.43145 6.69131 0.299999
    endloop
  endfacet
  facet normal 0.809017 0.587785 0
    outer loop
      vertex 7.43145 6.69131 0
      vertex 8.66025 5 0.299999
      vertex 8.66025 5 0
    endloop
  endfacet
  facet normal 0.913545 0.406737 0
    outer loop
      vertex 9.51056 3.09017 0.299999
      vertex 8.66025 5 0
      vertex 8.66025 5 0.299999
    endloop
  endfacet
  facet normal 0.913545 0.406737 0
    outer loop
      vertex 8.66025 5 0
      vertex 9.51056 3.09017 0.299999
      vertex 9.51056 3.09017 0
    endloop
  endfacet
  facet normal 0.978148 -0.207911 0
    outer loop
      vertex 9.51056 -3.09017 0.299999
      vertex 9.94522 -1.04528 0
      vertex 9.94522 -1.04528 0.299999
    endloop
  endfacet
  facet normal 0.978148 -0.207911 0
    outer loop
      vertex 9.94522 -1.04528 0
      vertex 9.51056 -3.09017 0.299999
      vertex 9.51056 -3.09017 0
    endloop
  endfacet
  facet normal 0.913545 -0.406737 0
    outer loop
      vertex 8.66025 -5 0.299999
      vertex 9.51056 -3.09017 0
      vertex 9.51056 -3.09017 0.299999
    endloop
  endfacet
  facet normal 0.913545 -0.406737 0
    outer loop
      vertex 9.51056 -3.09017 0
      vertex 8.66025 -5 0.299999
      vertex 8.66025 -5 0
    endloop
  endfacet
  facet normal 0.669131 -0.743145 0
    outer loop
      vertex 5.87785 -8.09017 0
      vertex 7.43145 -6.69131 0.299999
      vertex 5.87785 -8.09017 0.299999
    endloop
  endfacet
  facet normal 0.669131 -0.743145 0
    outer loop
      vertex 7.43145 -6.69131 0.299999
      vertex 5.87785 -8.09017 0
      vertex 7.43145 -6.69131 0
    endloop
  endfacet
  facet normal 0.309017 -0.951057 0
    outer loop
      vertex 2.07912 -9.78148 0
      vertex 4.06737 -9.13545 0.299999
      vertex 2.07912 -9.78148 0.299999
    endloop
  endfacet
  facet normal 0.309017 -0.951057 0
    outer loop
      vertex 4.06737 -9.13545 0.299999
      vertex 2.07912 -9.78148 0
      vertex 4.06737 -9.13545 0
    endloop
  endfacet
  facet normal 0.809017 -0.587785 0
    outer loop
      vertex 7.43145 -6.69131 0.299999
      vertex 8.66025 -5 0
      vertex 8.66025 -5 0.299999
    endloop
  endfacet
  facet normal 0.809017 -0.587785 0
    outer loop
      vertex 8.66025 -5 0
      vertex 7.43145 -6.69131 0.299999
      vertex 7.43145 -6.69131 0
    endloop
  endfacet
  facet normal -0.104527 0.994522 0
    outer loop
      vertex 5.30131e-14 238.75 0
      vertex -2.07912 238.531 0.299999
      vertex 5.30131e-14 238.75 0.299999
    endloop
  endfacet
  facet normal -0.104527 0.994522 0
    outer loop
      vertex -2.07912 238.531 0.299999
      vertex 5.30131e-14 238.75 0
      vertex -2.07912 238.531 0
    endloop
  endfacet
  facet normal 0.913546 0.406736 0
    outer loop
      vertex 9.51056 231.84 0.299999
      vertex 8.66025 233.75 0
      vertex 8.66025 233.75 0.299999
    endloop
  endfacet
  facet normal 0.913546 0.406736 0
    outer loop
      vertex 8.66025 233.75 0
      vertex 9.51056 231.84 0.299999
      vertex 9.51056 231.84 0
    endloop
  endfacet
  facet normal -0.809016 0.587787 0
    outer loop
      vertex -8.66025 233.75 0
      vertex -7.43145 235.441 0.299999
      vertex -7.43145 235.441 0
    endloop
  endfacet
  facet normal -0.809016 0.587787 0
    outer loop
      vertex -7.43145 235.441 0.299999
      vertex -8.66025 233.75 0
      vertex -8.66025 233.75 0.299999
    endloop
  endfacet
  facet normal -0.500001 0.866025 0
    outer loop
      vertex -4.06737 237.885 0
      vertex -5.87785 236.84 0.299999
      vertex -4.06737 237.885 0.299999
    endloop
  endfacet
  facet normal -0.500001 0.866025 0
    outer loop
      vertex -5.87785 236.84 0.299999
      vertex -4.06737 237.885 0
      vertex -5.87785 236.84 0
    endloop
  endfacet
  facet normal -0.309019 0.951056 0
    outer loop
      vertex -2.07912 238.531 0
      vertex -4.06737 237.885 0.299999
      vertex -2.07912 238.531 0.299999
    endloop
  endfacet
  facet normal -0.309019 0.951056 0
    outer loop
      vertex -4.06737 237.885 0.299999
      vertex -2.07912 238.531 0
      vertex -4.06737 237.885 0
    endloop
  endfacet
  facet normal -0.669131 0.743145 0
    outer loop
      vertex -5.87785 236.84 0
      vertex -7.43145 235.441 0.299999
      vertex -5.87785 236.84 0.299999
    endloop
  endfacet
  facet normal -0.669131 0.743145 0
    outer loop
      vertex -7.43145 235.441 0.299999
      vertex -5.87785 236.84 0
      vertex -7.43145 235.441 0
    endloop
  endfacet
  facet normal -0.978147 0.207912 0
    outer loop
      vertex -9.94522 229.795 0
      vertex -9.51056 231.84 0.299999
      vertex -9.51056 231.84 0
    endloop
  endfacet
  facet normal -0.978147 0.207912 0
    outer loop
      vertex -9.51056 231.84 0.299999
      vertex -9.94522 229.795 0
      vertex -9.94522 229.795 0.299999
    endloop
  endfacet
  facet normal -1 0 0
    outer loop
      vertex -9.94522 228.75 0
      vertex -9.94522 229.795 0.299999
      vertex -9.94522 229.795 0
    endloop
  endfacet
  facet normal -1 -0 0
    outer loop
      vertex -9.94522 229.795 0.299999
      vertex -9.94522 228.75 0
      vertex -9.94522 228.75 0.299999
    endloop
  endfacet
  facet normal -0.913546 0.406736 0
    outer loop
      vertex -9.51056 231.84 0
      vertex -8.66025 233.75 0.299999
      vertex -8.66025 233.75 0
    endloop
  endfacet
  facet normal -0.913546 0.406736 0
    outer loop
      vertex -8.66025 233.75 0.299999
      vertex -9.51056 231.84 0
      vertex -9.51056 231.84 0.299999
    endloop
  endfacet
  facet normal -0 0 1
    outer loop
      vertex -2.07912 238.531 0.299999
      vertex 5.07927e-14 228.75 0.299999
      vertex 5.30131e-14 238.75 0.299999
    endloop
  endfacet
  facet normal -0 0 1
    outer loop
      vertex -4.06737 237.885 0.299999
      vertex 5.07927e-14 228.75 0.299999
      vertex -2.07912 238.531 0.299999
    endloop
  endfacet
  facet normal -0 0 1
    outer loop
      vertex -5.87785 236.84 0.299999
      vertex 5.07927e-14 228.75 0.299999
      vertex -4.06737 237.885 0.299999
    endloop
  endfacet
  facet normal -0 0 1
    outer loop
      vertex -7.43145 235.441 0.299999
      vertex 5.07927e-14 228.75 0.299999
      vertex -5.87785 236.84 0.299999
    endloop
  endfacet
  facet normal -0 0 1
    outer loop
      vertex -8.66025 233.75 0.299999
      vertex 5.07927e-14 228.75 0.299999
      vertex -7.43145 235.441 0.299999
    endloop
  endfacet
  facet normal -0 0 1
    outer loop
      vertex -9.51056 231.84 0.299999
      vertex 5.07927e-14 228.75 0.299999
      vertex -8.66025 233.75 0.299999
    endloop
  endfacet
  facet normal -0 0 1
    outer loop
      vertex -9.94522 229.795 0.299999
      vertex 5.07927e-14 228.75 0.299999
      vertex -9.51056 231.84 0.299999
    endloop
  endfacet
  facet normal 0 0 1
    outer loop
      vertex 5.07927e-14 228.75 0.299999
      vertex -9.94522 229.795 0.299999
      vertex -9.94522 228.75 0.299999
    endloop
  endfacet
  facet normal 0 0 1
    outer loop
      vertex 5.07927e-14 228.75 0.299999
      vertex 9.94522 229.795 0.299999
      vertex 9.51056 231.84 0.299999
    endloop
  endfacet
  facet normal 0 0 1
    outer loop
      vertex 9.94522 229.795 0.299999
      vertex 5.07927e-14 228.75 0.299999
      vertex 9.94522 227.705 0.299999
    endloop
  endfacet
  facet normal 0 0 1
    outer loop
      vertex 5.07927e-14 228.75 0.299999
      vertex 9.51056 231.84 0.299999
      vertex 8.66025 233.75 0.299999
    endloop
  endfacet
  facet normal 0 0 1
    outer loop
      vertex 9.94522 227.705 0.299999
      vertex 5.07927e-14 228.75 0.299999
      vertex 9.51056 225.66 0.299999
    endloop
  endfacet
  facet normal 0 0 1
    outer loop
      vertex 5.07927e-14 228.75 0.299999
      vertex 8.66025 233.75 0.299999
      vertex 7.43145 235.441 0.299999
    endloop
  endfacet
  facet normal 0 0 1
    outer loop
      vertex 9.51056 225.66 0.299999
      vertex 5.07927e-14 228.75 0.299999
      vertex 8.66025 223.75 0.299999
    endloop
  endfacet
  facet normal 0 0 1
    outer loop
      vertex 5.07927e-14 228.75 0.299999
      vertex 7.43145 235.441 0.299999
      vertex 5.87785 236.84 0.299999
    endloop
  endfacet
  facet normal 0 0 1
    outer loop
      vertex 8.66025 223.75 0.299999
      vertex 5.07927e-14 228.75 0.299999
      vertex 7.43145 222.059 0.299999
    endloop
  endfacet
  facet normal 0 0 1
    outer loop
      vertex 5.07927e-14 228.75 0.299999
      vertex 5.87785 236.84 0.299999
      vertex 4.06737 237.885 0.299999
    endloop
  endfacet
  facet normal 0 0 1
    outer loop
      vertex 7.43145 222.059 0.299999
      vertex 5.07927e-14 228.75 0.299999
      vertex 5.87785 220.66 0.299999
    endloop
  endfacet
  facet normal 0 0 1
    outer loop
      vertex 5.07927e-14 228.75 0.299999
      vertex 4.06737 237.885 0.299999
      vertex 2.07912 238.531 0.299999
    endloop
  endfacet
  facet normal 0 0 1
    outer loop
      vertex 5.87785 220.66 0.299999
      vertex 5.07927e-14 228.75 0.299999
      vertex 4.06737 219.615 0.299999
    endloop
  endfacet
  facet normal 0 0 1
    outer loop
      vertex 5.07927e-14 228.75 0.299999
      vertex 2.07912 238.531 0.299999
      vertex 5.30131e-14 238.75 0.299999
    endloop
  endfacet
  facet normal 0 0 1
    outer loop
      vertex 4.06737 219.615 0.299999
      vertex 5.07927e-14 228.75 0.299999
      vertex 2.07912 218.969 0.299999
    endloop
  endfacet
  facet normal 0 0 1
    outer loop
      vertex 2.07912 218.969 0.299999
      vertex 5.07927e-14 228.75 0.299999
      vertex 4.85723e-14 218.75 0.299999
    endloop
  endfacet
  facet normal 0.500001 0.866025 -0
    outer loop
      vertex 5.87785 236.84 0
      vertex 4.06737 237.885 0.299999
      vertex 5.87785 236.84 0.299999
    endloop
  endfacet
  facet normal 0.500001 0.866025 0
    outer loop
      vertex 4.06737 237.885 0.299999
      vertex 5.87785 236.84 0
      vertex 4.06737 237.885 0
    endloop
  endfacet
  facet normal 0.104527 0.994522 -0
    outer loop
      vertex 2.07912 238.531 0
      vertex 5.30131e-14 238.75 0.299999
      vertex 2.07912 238.531 0.299999
    endloop
  endfacet
  facet normal 0.104527 0.994522 0
    outer loop
      vertex 5.30131e-14 238.75 0.299999
      vertex 2.07912 238.531 0
      vertex 5.30131e-14 238.75 0
    endloop
  endfacet
  facet normal 1 -0 0
    outer loop
      vertex 9.94522 227.705 0.299999
      vertex 9.94522 229.795 0
      vertex 9.94522 229.795 0.299999
    endloop
  endfacet
  facet normal 1 0 0
    outer loop
      vertex 9.94522 229.795 0
      vertex 9.94522 227.705 0.299999
      vertex 9.94522 227.705 0
    endloop
  endfacet
  facet normal 0.104527 -0.994522 0
    outer loop
      vertex 4.85723e-14 218.75 0
      vertex 2.07912 218.969 0.299999
      vertex 4.85723e-14 218.75 0.299999
    endloop
  endfacet
  facet normal 0.104527 -0.994522 0
    outer loop
      vertex 2.07912 218.969 0.299999
      vertex 4.85723e-14 218.75 0
      vertex 2.07912 218.969 0
    endloop
  endfacet
  facet normal 0.809016 0.587787 0
    outer loop
      vertex 8.66025 233.75 0.299999
      vertex 7.43145 235.441 0
      vertex 7.43145 235.441 0.299999
    endloop
  endfacet
  facet normal 0.809016 0.587787 0
    outer loop
      vertex 7.43145 235.441 0
      vertex 8.66025 233.75 0.299999
      vertex 8.66025 233.75 0
    endloop
  endfacet
  facet normal 0.669131 -0.743145 0
    outer loop
      vertex 5.87785 220.66 0
      vertex 7.43145 222.059 0.299999
      vertex 5.87785 220.66 0.299999
    endloop
  endfacet
  facet normal 0.669131 -0.743145 0
    outer loop
      vertex 7.43145 222.059 0.299999
      vertex 5.87785 220.66 0
      vertex 7.43145 222.059 0
    endloop
  endfacet
  facet normal 0.309019 -0.951056 0
    outer loop
      vertex 2.07912 218.969 0
      vertex 4.06737 219.615 0.299999
      vertex 2.07912 218.969 0.299999
    endloop
  endfacet
  facet normal 0.309019 -0.951056 0
    outer loop
      vertex 4.06737 219.615 0.299999
      vertex 2.07912 218.969 0
      vertex 4.06737 219.615 0
    endloop
  endfacet
  facet normal 0.500001 -0.866025 0
    outer loop
      vertex 4.06737 219.615 0
      vertex 5.87785 220.66 0.299999
      vertex 4.06737 219.615 0.299999
    endloop
  endfacet
  facet normal 0.500001 -0.866025 0
    outer loop
      vertex 5.87785 220.66 0.299999
      vertex 4.06737 219.615 0
      vertex 5.87785 220.66 0
    endloop
  endfacet
  facet normal 0.669131 0.743145 -0
    outer loop
      vertex 7.43145 235.441 0
      vertex 5.87785 236.84 0.299999
      vertex 7.43145 235.441 0.299999
    endloop
  endfacet
  facet normal 0.669131 0.743145 0
    outer loop
      vertex 5.87785 236.84 0.299999
      vertex 7.43145 235.441 0
      vertex 5.87785 236.84 0
    endloop
  endfacet
  facet normal 0.309019 0.951056 -0
    outer loop
      vertex 4.06737 237.885 0
      vertex 2.07912 238.531 0.299999
      vertex 4.06737 237.885 0.299999
    endloop
  endfacet
  facet normal 0.309019 0.951056 0
    outer loop
      vertex 2.07912 238.531 0.299999
      vertex 4.06737 237.885 0
      vertex 2.07912 238.531 0
    endloop
  endfacet
  facet normal 0.978147 0.207912 0
    outer loop
      vertex 9.94522 229.795 0.299999
      vertex 9.51056 231.84 0
      vertex 9.51056 231.84 0.299999
    endloop
  endfacet
  facet normal 0.978147 0.207912 0
    outer loop
      vertex 9.51056 231.84 0
      vertex 9.94522 229.795 0.299999
      vertex 9.94522 229.795 0
    endloop
  endfacet
  facet normal 0.978147 -0.207912 0
    outer loop
      vertex 9.51056 225.66 0.299999
      vertex 9.94522 227.705 0
      vertex 9.94522 227.705 0.299999
    endloop
  endfacet
  facet normal 0.978147 -0.207912 0
    outer loop
      vertex 9.94522 227.705 0
      vertex 9.51056 225.66 0.299999
      vertex 9.51056 225.66 0
    endloop
  endfacet
  facet normal 0.809016 -0.587787 0
    outer loop
      vertex 7.43145 222.059 0.299999
      vertex 8.66025 223.75 0
      vertex 8.66025 223.75 0.299999
    endloop
  endfacet
  facet normal 0.809016 -0.587787 0
    outer loop
      vertex 8.66025 223.75 0
      vertex 7.43145 222.059 0.299999
      vertex 7.43145 222.059 0
    endloop
  endfacet
  facet normal 0.913546 -0.406736 0
    outer loop
      vertex 8.66025 223.75 0.299999
      vertex 9.51056 225.66 0
      vertex 9.51056 225.66 0.299999
    endloop
  endfacet
  facet normal 0.913546 -0.406736 0
    outer loop
      vertex 9.51056 225.66 0
      vertex 8.66025 223.75 0.299999
      vertex 8.66025 223.75 0
    endloop
  endfacet
  facet normal -0.104529 0.994522 0
    outer loop
      vertex -76.5 10 0
      vertex -78.5791 9.78148 0.299999
      vertex -76.5 10 0.299999
    endloop
  endfacet
  facet normal -0.104529 0.994522 0
    outer loop
      vertex -78.5791 9.78148 0.299999
      vertex -76.5 10 0
      vertex -78.5791 9.78148 0
    endloop
  endfacet
  facet normal -0.978148 -0.207912 0
    outer loop
      vertex -86.0106 -3.09017 0
      vertex -86.4452 -1.04528 0.299999
      vertex -86.4452 -1.04528 0
    endloop
  endfacet
  facet normal -0.978148 -0.207912 0
    outer loop
      vertex -86.4452 -1.04528 0.299999
      vertex -86.0106 -3.09017 0
      vertex -86.0106 -3.09017 0.299999
    endloop
  endfacet
  facet normal -0.809017 0.587785 0
    outer loop
      vertex -85.1603 5 0
      vertex -83.9314 6.69131 0.299999
      vertex -83.9314 6.69131 0
    endloop
  endfacet
  facet normal -0.809017 0.587785 0
    outer loop
      vertex -83.9314 6.69131 0.299999
      vertex -85.1603 5 0
      vertex -85.1603 5 0.299999
    endloop
  endfacet
  facet normal -0.669131 -0.743145 0
    outer loop
      vertex -83.9314 -6.69131 0
      vertex -82.3779 -8.09017 0.299999
      vertex -83.9314 -6.69131 0.299999
    endloop
  endfacet
  facet normal -0.669131 -0.743145 -0
    outer loop
      vertex -82.3779 -8.09017 0.299999
      vertex -83.9314 -6.69131 0
      vertex -82.3779 -8.09017 0
    endloop
  endfacet
  facet normal -0.809017 -0.587785 0
    outer loop
      vertex -83.9314 -6.69131 0
      vertex -85.1603 -5 0.299999
      vertex -85.1603 -5 0
    endloop
  endfacet
  facet normal -0.809017 -0.587785 0
    outer loop
      vertex -85.1603 -5 0.299999
      vertex -83.9314 -6.69131 0
      vertex -83.9314 -6.69131 0.299999
    endloop
  endfacet
  facet normal -0.5 0.866025 0
    outer loop
      vertex -80.5674 9.13545 0
      vertex -82.3779 8.09017 0.299999
      vertex -80.5674 9.13545 0.299999
    endloop
  endfacet
  facet normal -0.5 0.866025 0
    outer loop
      vertex -82.3779 8.09017 0.299999
      vertex -80.5674 9.13545 0
      vertex -82.3779 8.09017 0
    endloop
  endfacet
  facet normal -0.309017 0.951057 0
    outer loop
      vertex -78.5791 9.78148 0
      vertex -80.5674 9.13545 0.299999
      vertex -78.5791 9.78148 0.299999
    endloop
  endfacet
  facet normal -0.309017 0.951057 0
    outer loop
      vertex -80.5674 9.13545 0.299999
      vertex -78.5791 9.78148 0
      vertex -80.5674 9.13545 0
    endloop
  endfacet
  facet normal -0.669131 0.743145 0
    outer loop
      vertex -82.3779 8.09017 0
      vertex -83.9314 6.69131 0.299999
      vertex -82.3779 8.09017 0.299999
    endloop
  endfacet
  facet normal -0.669131 0.743145 0
    outer loop
      vertex -83.9314 6.69131 0.299999
      vertex -82.3779 8.09017 0
      vertex -83.9314 6.69131 0
    endloop
  endfacet
  facet normal -0.978148 0.207912 0
    outer loop
      vertex -86.4452 1.04528 0
      vertex -86.0106 3.09017 0.299999
      vertex -86.0106 3.09017 0
    endloop
  endfacet
  facet normal -0.978148 0.207912 0
    outer loop
      vertex -86.0106 3.09017 0.299999
      vertex -86.4452 1.04528 0
      vertex -86.4452 1.04528 0.299999
    endloop
  endfacet
  facet normal -1 0 0
    outer loop
      vertex -86.4452 -1.04528 0
      vertex -86.4452 1.04528 0.299999
      vertex -86.4452 1.04528 0
    endloop
  endfacet
  facet normal -1 -0 0
    outer loop
      vertex -86.4452 1.04528 0.299999
      vertex -86.4452 -1.04528 0
      vertex -86.4452 -1.04528 0.299999
    endloop
  endfacet
  facet normal -0.913545 0.406737 0
    outer loop
      vertex -86.0106 3.09017 0
      vertex -85.1603 5 0.299999
      vertex -85.1603 5 0
    endloop
  endfacet
  facet normal -0.913545 0.406737 0
    outer loop
      vertex -85.1603 5 0.299999
      vertex -86.0106 3.09017 0
      vertex -86.0106 3.09017 0.299999
    endloop
  endfacet
  facet normal -0.309017 -0.951057 0
    outer loop
      vertex -80.5674 -9.13545 0
      vertex -78.5791 -9.78148 0.299999
      vertex -80.5674 -9.13545 0.299999
    endloop
  endfacet
  facet normal -0.309017 -0.951057 -0
    outer loop
      vertex -78.5791 -9.78148 0.299999
      vertex -80.5674 -9.13545 0
      vertex -78.5791 -9.78148 0
    endloop
  endfacet
  facet normal -0.5 -0.866025 0
    outer loop
      vertex -82.3779 -8.09017 0
      vertex -80.5674 -9.13545 0.299999
      vertex -82.3779 -8.09017 0.299999
    endloop
  endfacet
  facet normal -0.5 -0.866025 -0
    outer loop
      vertex -80.5674 -9.13545 0.299999
      vertex -82.3779 -8.09017 0
      vertex -80.5674 -9.13545 0
    endloop
  endfacet
  facet normal -0.104529 -0.994522 0
    outer loop
      vertex -78.5791 -9.78148 0
      vertex -76.5 -10 0.299999
      vertex -78.5791 -9.78148 0.299999
    endloop
  endfacet
  facet normal -0.104529 -0.994522 -0
    outer loop
      vertex -76.5 -10 0.299999
      vertex -78.5791 -9.78148 0
      vertex -76.5 -10 0
    endloop
  endfacet
  facet normal -0 0 1
    outer loop
      vertex -78.5791 9.78148 0.299999
      vertex -76.5 1.69864e-14 0.299999
      vertex -76.5 10 0.299999
    endloop
  endfacet
  facet normal -0 0 1
    outer loop
      vertex -80.5674 9.13545 0.299999
      vertex -76.5 1.69864e-14 0.299999
      vertex -78.5791 9.78148 0.299999
    endloop
  endfacet
  facet normal 0 0 1
    outer loop
      vertex -76.5 1.69864e-14 0.299999
      vertex -78.5791 -9.78148 0.299999
      vertex -76.5 -10 0.299999
    endloop
  endfacet
  facet normal -0 0 1
    outer loop
      vertex -82.3779 8.09017 0.299999
      vertex -76.5 1.69864e-14 0.299999
      vertex -80.5674 9.13545 0.299999
    endloop
  endfacet
  facet normal 0 0 1
    outer loop
      vertex -76.5 1.69864e-14 0.299999
      vertex -80.5674 -9.13545 0.299999
      vertex -78.5791 -9.78148 0.299999
    endloop
  endfacet
  facet normal -0 0 1
    outer loop
      vertex -83.9314 6.69131 0.299999
      vertex -76.5 1.69864e-14 0.299999
      vertex -82.3779 8.09017 0.299999
    endloop
  endfacet
  facet normal 0 0 1
    outer loop
      vertex -76.5 1.69864e-14 0.299999
      vertex -82.3779 -8.09017 0.299999
      vertex -80.5674 -9.13545 0.299999
    endloop
  endfacet
  facet normal -0 0 1
    outer loop
      vertex -85.1603 5 0.299999
      vertex -76.5 1.69864e-14 0.299999
      vertex -83.9314 6.69131 0.299999
    endloop
  endfacet
  facet normal 0 0 1
    outer loop
      vertex -76.5 1.69864e-14 0.299999
      vertex -83.9314 -6.69131 0.299999
      vertex -82.3779 -8.09017 0.299999
    endloop
  endfacet
  facet normal -0 0 1
    outer loop
      vertex -86.0106 3.09017 0.299999
      vertex -76.5 1.69864e-14 0.299999
      vertex -85.1603 5 0.299999
    endloop
  endfacet
  facet normal 0 0 1
    outer loop
      vertex -76.5 1.69864e-14 0.299999
      vertex -85.1603 -5 0.299999
      vertex -83.9314 -6.69131 0.299999
    endloop
  endfacet
  facet normal -0 0 1
    outer loop
      vertex -86.4452 1.04528 0.299999
      vertex -76.5 1.69864e-14 0.299999
      vertex -86.0106 3.09017 0.299999
    endloop
  endfacet
  facet normal 0 0 1
    outer loop
      vertex -76.5 1.69864e-14 0.299999
      vertex -86.0106 -3.09017 0.299999
      vertex -85.1603 -5 0.299999
    endloop
  endfacet
  facet normal 0 0 1
    outer loop
      vertex -86.4452 -1.04528 0.299999
      vertex -76.5 1.69864e-14 0.299999
      vertex -86.4452 1.04528 0.299999
    endloop
  endfacet
  facet normal 0 0 1
    outer loop
      vertex -76.5 1.69864e-14 0.299999
      vertex -86.4452 -1.04528 0.299999
      vertex -86.0106 -3.09017 0.299999
    endloop
  endfacet
  facet normal 0 0 1
    outer loop
      vertex -76.5 1.69864e-14 0.299999
      vertex -66.5548 -1.04528 0.299999
      vertex -66.5548 1.47781e-14 0.299999
    endloop
  endfacet
  facet normal 0 0 1
    outer loop
      vertex -66.5548 -1.04528 0.299999
      vertex -76.5 1.69864e-14 0.299999
      vertex -66.9894 -3.09017 0.299999
    endloop
  endfacet
  facet normal 0 0 1
    outer loop
      vertex -66.9894 -3.09017 0.299999
      vertex -76.5 1.69864e-14 0.299999
      vertex -67.8397 -5 0.299999
    endloop
  endfacet
  facet normal 0 0 1
    outer loop
      vertex -67.8397 -5 0.299999
      vertex -76.5 1.69864e-14 0.299999
      vertex -69.0686 -6.69131 0.299999
    endloop
  endfacet
  facet normal 0 0 1
    outer loop
      vertex -69.0686 -6.69131 0.299999
      vertex -76.5 1.69864e-14 0.299999
      vertex -70.6221 -8.09017 0.299999
    endloop
  endfacet
  facet normal 0 0 1
    outer loop
      vertex -70.6221 -8.09017 0.299999
      vertex -76.5 1.69864e-14 0.299999
      vertex -72.4326 -9.13545 0.299999
    endloop
  endfacet
  facet normal 0 0 1
    outer loop
      vertex -72.4326 -9.13545 0.299999
      vertex -76.5 1.69864e-14 0.299999
      vertex -74.4209 -9.78148 0.299999
    endloop
  endfacet
  facet normal 0 0 1
    outer loop
      vertex -74.4209 -9.78148 0.299999
      vertex -76.5 1.69864e-14 0.299999
      vertex -76.5 -10 0.299999
    endloop
  endfacet
  facet normal -0.913545 -0.406737 0
    outer loop
      vertex -85.1603 -5 0
      vertex -86.0106 -3.09017 0.299999
      vertex -86.0106 -3.09017 0
    endloop
  endfacet
  facet normal -0.913545 -0.406737 0
    outer loop
      vertex -86.0106 -3.09017 0.299999
      vertex -85.1603 -5 0
      vertex -85.1603 -5 0.299999
    endloop
  endfacet
  facet normal 0.104529 -0.994522 0
    outer loop
      vertex -76.5 -10 0
      vertex -74.4209 -9.78148 0.299999
      vertex -76.5 -10 0.299999
    endloop
  endfacet
  facet normal 0.104529 -0.994522 0
    outer loop
      vertex -74.4209 -9.78148 0.299999
      vertex -76.5 -10 0
      vertex -74.4209 -9.78148 0
    endloop
  endfacet
  facet normal 0.669131 -0.743145 0
    outer loop
      vertex -70.6221 -8.09017 0
      vertex -69.0686 -6.69131 0.299999
      vertex -70.6221 -8.09017 0.299999
    endloop
  endfacet
  facet normal 0.669131 -0.743145 0
    outer loop
      vertex -69.0686 -6.69131 0.299999
      vertex -70.6221 -8.09017 0
      vertex -69.0686 -6.69131 0
    endloop
  endfacet
  facet normal 0.809017 -0.587785 0
    outer loop
      vertex -69.0686 -6.69131 0.299999
      vertex -67.8397 -5 0
      vertex -67.8397 -5 0.299999
    endloop
  endfacet
  facet normal 0.809017 -0.587785 0
    outer loop
      vertex -67.8397 -5 0
      vertex -69.0686 -6.69131 0.299999
      vertex -69.0686 -6.69131 0
    endloop
  endfacet
  facet normal 1 -0 0
    outer loop
      vertex -66.5548 -1.04528 0.299999
      vertex -66.5548 1.47781e-14 0
      vertex -66.5548 1.47781e-14 0.299999
    endloop
  endfacet
  facet normal 1 0 0
    outer loop
      vertex -66.5548 1.47781e-14 0
      vertex -66.5548 -1.04528 0.299999
      vertex -66.5548 -1.04528 0
    endloop
  endfacet
  facet normal 0.5 -0.866025 0
    outer loop
      vertex -72.4326 -9.13545 0
      vertex -70.6221 -8.09017 0.299999
      vertex -72.4326 -9.13545 0.299999
    endloop
  endfacet
  facet normal 0.5 -0.866025 0
    outer loop
      vertex -70.6221 -8.09017 0.299999
      vertex -72.4326 -9.13545 0
      vertex -70.6221 -8.09017 0
    endloop
  endfacet
  facet normal 0.309017 -0.951057 0
    outer loop
      vertex -74.4209 -9.78148 0
      vertex -72.4326 -9.13545 0.299999
      vertex -74.4209 -9.78148 0.299999
    endloop
  endfacet
  facet normal 0.309017 -0.951057 0
    outer loop
      vertex -72.4326 -9.13545 0.299999
      vertex -74.4209 -9.78148 0
      vertex -72.4326 -9.13545 0
    endloop
  endfacet
  facet normal 0.978148 -0.207912 0
    outer loop
      vertex -66.9894 -3.09017 0.299999
      vertex -66.5548 -1.04528 0
      vertex -66.5548 -1.04528 0.299999
    endloop
  endfacet
  facet normal 0.978148 -0.207912 0
    outer loop
      vertex -66.5548 -1.04528 0
      vertex -66.9894 -3.09017 0.299999
      vertex -66.9894 -3.09017 0
    endloop
  endfacet
  facet normal 0.913545 -0.406737 0
    outer loop
      vertex -67.8397 -5 0.299999
      vertex -66.9894 -3.09017 0
      vertex -66.9894 -3.09017 0.299999
    endloop
  endfacet
  facet normal 0.913545 -0.406737 0
    outer loop
      vertex -66.9894 -3.09017 0
      vertex -67.8397 -5 0.299999
      vertex -67.8397 -5 0
    endloop
  endfacet
  facet normal -0.104527 0.994522 0
    outer loop
      vertex -76.5 238.75 0
      vertex -78.5791 238.531 0.299999
      vertex -76.5 238.75 0.299999
    endloop
  endfacet
  facet normal -0.104527 0.994522 0
    outer loop
      vertex -78.5791 238.531 0.299999
      vertex -76.5 238.75 0
      vertex -78.5791 238.531 0
    endloop
  endfacet
  facet normal -0.978147 -0.207913 0
    outer loop
      vertex -86.0106 225.66 0
      vertex -86.4452 227.705 0.299999
      vertex -86.4452 227.705 0
    endloop
  endfacet
  facet normal -0.978147 -0.207913 0
    outer loop
      vertex -86.4452 227.705 0.299999
      vertex -86.0106 225.66 0
      vertex -86.0106 225.66 0.299999
    endloop
  endfacet
  facet normal 0.978147 0.207913 0
    outer loop
      vertex -66.5548 229.795 0.299999
      vertex -66.9894 231.84 0
      vertex -66.9894 231.84 0.299999
    endloop
  endfacet
  facet normal 0.978147 0.207913 0
    outer loop
      vertex -66.9894 231.84 0
      vertex -66.5548 229.795 0.299999
      vertex -66.5548 229.795 0
    endloop
  endfacet
  facet normal 0.913546 0.406736 0
    outer loop
      vertex -66.9894 231.84 0.299999
      vertex -67.8397 233.75 0
      vertex -67.8397 233.75 0.299999
    endloop
  endfacet
  facet normal 0.913546 0.406736 0
    outer loop
      vertex -67.8397 233.75 0
      vertex -66.9894 231.84 0.299999
      vertex -66.9894 231.84 0
    endloop
  endfacet
  facet normal -0.809016 0.587787 0
    outer loop
      vertex -85.1603 233.75 0
      vertex -83.9314 235.441 0.299999
      vertex -83.9314 235.441 0
    endloop
  endfacet
  facet normal -0.809016 0.587787 0
    outer loop
      vertex -83.9314 235.441 0.299999
      vertex -85.1603 233.75 0
      vertex -85.1603 233.75 0.299999
    endloop
  endfacet
  facet normal -0.669131 -0.743145 0
    outer loop
      vertex -83.9314 222.059 0
      vertex -82.3779 220.66 0.299999
      vertex -83.9314 222.059 0.299999
    endloop
  endfacet
  facet normal -0.669131 -0.743145 -0
    outer loop
      vertex -82.3779 220.66 0.299999
      vertex -83.9314 222.059 0
      vertex -82.3779 220.66 0
    endloop
  endfacet
  facet normal -0.809016 -0.587787 0
    outer loop
      vertex -83.9314 222.059 0
      vertex -85.1603 223.75 0.299999
      vertex -85.1603 223.75 0
    endloop
  endfacet
  facet normal -0.809016 -0.587787 0
    outer loop
      vertex -85.1603 223.75 0.299999
      vertex -83.9314 222.059 0
      vertex -83.9314 222.059 0.299999
    endloop
  endfacet
  facet normal -0.500001 0.866025 0
    outer loop
      vertex -80.5674 237.885 0
      vertex -82.3779 236.84 0.299999
      vertex -80.5674 237.885 0.299999
    endloop
  endfacet
  facet normal -0.500001 0.866025 0
    outer loop
      vertex -82.3779 236.84 0.299999
      vertex -80.5674 237.885 0
      vertex -82.3779 236.84 0
    endloop
  endfacet
  facet normal -0.309019 0.951056 0
    outer loop
      vertex -78.5791 238.531 0
      vertex -80.5674 237.885 0.299999
      vertex -78.5791 238.531 0.299999
    endloop
  endfacet
  facet normal -0.309019 0.951056 0
    outer loop
      vertex -80.5674 237.885 0.299999
      vertex -78.5791 238.531 0
      vertex -80.5674 237.885 0
    endloop
  endfacet
  facet normal -0.669131 0.743145 0
    outer loop
      vertex -82.3779 236.84 0
      vertex -83.9314 235.441 0.299999
      vertex -82.3779 236.84 0.299999
    endloop
  endfacet
  facet normal -0.669131 0.743145 0
    outer loop
      vertex -83.9314 235.441 0.299999
      vertex -82.3779 236.84 0
      vertex -83.9314 235.441 0
    endloop
  endfacet
  facet normal -0.978147 0.207913 0
    outer loop
      vertex -86.4452 229.795 0
      vertex -86.0106 231.84 0.299999
      vertex -86.0106 231.84 0
    endloop
  endfacet
  facet normal -0.978147 0.207913 0
    outer loop
      vertex -86.0106 231.84 0.299999
      vertex -86.4452 229.795 0
      vertex -86.4452 229.795 0.299999
    endloop
  endfacet
  facet normal -1 0 0
    outer loop
      vertex -86.4452 227.705 0
      vertex -86.4452 229.795 0.299999
      vertex -86.4452 229.795 0
    endloop
  endfacet
  facet normal -1 -0 0
    outer loop
      vertex -86.4452 229.795 0.299999
      vertex -86.4452 227.705 0
      vertex -86.4452 227.705 0.299999
    endloop
  endfacet
  facet normal -0.913546 0.406736 0
    outer loop
      vertex -86.0106 231.84 0
      vertex -85.1603 233.75 0.299999
      vertex -85.1603 233.75 0
    endloop
  endfacet
  facet normal -0.913546 0.406736 0
    outer loop
      vertex -85.1603 233.75 0.299999
      vertex -86.0106 231.84 0
      vertex -86.0106 231.84 0.299999
    endloop
  endfacet
  facet normal -0.309019 -0.951056 0
    outer loop
      vertex -80.5674 219.615 0
      vertex -78.5791 218.969 0.299999
      vertex -80.5674 219.615 0.299999
    endloop
  endfacet
  facet normal -0.309019 -0.951056 -0
    outer loop
      vertex -78.5791 218.969 0.299999
      vertex -80.5674 219.615 0
      vertex -78.5791 218.969 0
    endloop
  endfacet
  facet normal -0.500001 -0.866025 0
    outer loop
      vertex -82.3779 220.66 0
      vertex -80.5674 219.615 0.299999
      vertex -82.3779 220.66 0.299999
    endloop
  endfacet
  facet normal -0.500001 -0.866025 -0
    outer loop
      vertex -80.5674 219.615 0.299999
      vertex -82.3779 220.66 0
      vertex -80.5674 219.615 0
    endloop
  endfacet
  facet normal -0.104527 -0.994522 0
    outer loop
      vertex -78.5791 218.969 0
      vertex -76.5 218.75 0.299999
      vertex -78.5791 218.969 0.299999
    endloop
  endfacet
  facet normal -0.104527 -0.994522 -0
    outer loop
      vertex -76.5 218.75 0.299999
      vertex -78.5791 218.969 0
      vertex -76.5 218.75 0
    endloop
  endfacet
  facet normal 0 0 1
    outer loop
      vertex -76.5 228.75 0.299999
      vertex -66.5548 229.795 0.299999
      vertex -66.9894 231.84 0.299999
    endloop
  endfacet
  facet normal 0 0 1
    outer loop
      vertex -76.5 228.75 0.299999
      vertex -66.9894 231.84 0.299999
      vertex -67.8397 233.75 0.299999
    endloop
  endfacet
  facet normal 0 0 1
    outer loop
      vertex -76.5 228.75 0.299999
      vertex -67.8397 233.75 0.299999
      vertex -69.0686 235.441 0.299999
    endloop
  endfacet
  facet normal 0 0 1
    outer loop
      vertex -76.5 228.75 0.299999
      vertex -69.0686 235.441 0.299999
      vertex -70.6221 236.84 0.299999
    endloop
  endfacet
  facet normal 0 0 1
    outer loop
      vertex -76.5 228.75 0.299999
      vertex -70.6221 236.84 0.299999
      vertex -72.4326 237.885 0.299999
    endloop
  endfacet
  facet normal 0 0 1
    outer loop
      vertex -76.5 228.75 0.299999
      vertex -72.4326 237.885 0.299999
      vertex -74.4209 238.531 0.299999
    endloop
  endfacet
  facet normal 0 0 1
    outer loop
      vertex -76.5 228.75 0.299999
      vertex -74.4209 238.531 0.299999
      vertex -76.5 238.75 0.299999
    endloop
  endfacet
  facet normal 0 0 1
    outer loop
      vertex -66.5548 229.795 0.299999
      vertex -76.5 228.75 0.299999
      vertex -66.5548 228.75 0.299999
    endloop
  endfacet
  facet normal -0 0 1
    outer loop
      vertex -78.5791 238.531 0.299999
      vertex -76.5 228.75 0.299999
      vertex -76.5 238.75 0.299999
    endloop
  endfacet
  facet normal -0 0 1
    outer loop
      vertex -80.5674 237.885 0.299999
      vertex -76.5 228.75 0.299999
      vertex -78.5791 238.531 0.299999
    endloop
  endfacet
  facet normal 0 0 1
    outer loop
      vertex -76.5 228.75 0.299999
      vertex -78.5791 218.969 0.299999
      vertex -76.5 218.75 0.299999
    endloop
  endfacet
  facet normal -0 0 1
    outer loop
      vertex -82.3779 236.84 0.299999
      vertex -76.5 228.75 0.299999
      vertex -80.5674 237.885 0.299999
    endloop
  endfacet
  facet normal 0 0 1
    outer loop
      vertex -76.5 228.75 0.299999
      vertex -80.5674 219.615 0.299999
      vertex -78.5791 218.969 0.299999
    endloop
  endfacet
  facet normal -0 0 1
    outer loop
      vertex -83.9314 235.441 0.299999
      vertex -76.5 228.75 0.299999
      vertex -82.3779 236.84 0.299999
    endloop
  endfacet
  facet normal 0 0 1
    outer loop
      vertex -76.5 228.75 0.299999
      vertex -82.3779 220.66 0.299999
      vertex -80.5674 219.615 0.299999
    endloop
  endfacet
  facet normal -0 0 1
    outer loop
      vertex -85.1603 233.75 0.299999
      vertex -76.5 228.75 0.299999
      vertex -83.9314 235.441 0.299999
    endloop
  endfacet
  facet normal 0 0 1
    outer loop
      vertex -76.5 228.75 0.299999
      vertex -83.9314 222.059 0.299999
      vertex -82.3779 220.66 0.299999
    endloop
  endfacet
  facet normal -0 0 1
    outer loop
      vertex -86.0106 231.84 0.299999
      vertex -76.5 228.75 0.299999
      vertex -85.1603 233.75 0.299999
    endloop
  endfacet
  facet normal 0 0 1
    outer loop
      vertex -76.5 228.75 0.299999
      vertex -85.1603 223.75 0.299999
      vertex -83.9314 222.059 0.299999
    endloop
  endfacet
  facet normal -0 0 1
    outer loop
      vertex -86.4452 229.795 0.299999
      vertex -76.5 228.75 0.299999
      vertex -86.0106 231.84 0.299999
    endloop
  endfacet
  facet normal 0 0 1
    outer loop
      vertex -76.5 228.75 0.299999
      vertex -86.0106 225.66 0.299999
      vertex -85.1603 223.75 0.299999
    endloop
  endfacet
  facet normal 0 0 1
    outer loop
      vertex -86.4452 227.705 0.299999
      vertex -76.5 228.75 0.299999
      vertex -86.4452 229.795 0.299999
    endloop
  endfacet
  facet normal 0 0 1
    outer loop
      vertex -76.5 228.75 0.299999
      vertex -86.4452 227.705 0.299999
      vertex -86.0106 225.66 0.299999
    endloop
  endfacet
  facet normal -0.913546 -0.406736 0
    outer loop
      vertex -85.1603 223.75 0
      vertex -86.0106 225.66 0.299999
      vertex -86.0106 225.66 0
    endloop
  endfacet
  facet normal -0.913546 -0.406736 0
    outer loop
      vertex -86.0106 225.66 0.299999
      vertex -85.1603 223.75 0
      vertex -85.1603 223.75 0.299999
    endloop
  endfacet
  facet normal 0.104527 0.994522 -0
    outer loop
      vertex -74.4209 238.531 0
      vertex -76.5 238.75 0.299999
      vertex -74.4209 238.531 0.299999
    endloop
  endfacet
  facet normal 0.104527 0.994522 0
    outer loop
      vertex -76.5 238.75 0.299999
      vertex -74.4209 238.531 0
      vertex -76.5 238.75 0
    endloop
  endfacet
  facet normal 0.500001 0.866025 -0
    outer loop
      vertex -70.6221 236.84 0
      vertex -72.4326 237.885 0.299999
      vertex -70.6221 236.84 0.299999
    endloop
  endfacet
  facet normal 0.500001 0.866025 0
    outer loop
      vertex -72.4326 237.885 0.299999
      vertex -70.6221 236.84 0
      vertex -72.4326 237.885 0
    endloop
  endfacet
  facet normal 0.809016 0.587787 0
    outer loop
      vertex -67.8397 233.75 0.299999
      vertex -69.0686 235.441 0
      vertex -69.0686 235.441 0.299999
    endloop
  endfacet
  facet normal 0.809016 0.587787 0
    outer loop
      vertex -69.0686 235.441 0
      vertex -67.8397 233.75 0.299999
      vertex -67.8397 233.75 0
    endloop
  endfacet
  facet normal 0.309019 0.951056 -0
    outer loop
      vertex -72.4326 237.885 0
      vertex -74.4209 238.531 0.299999
      vertex -72.4326 237.885 0.299999
    endloop
  endfacet
  facet normal 0.309019 0.951056 0
    outer loop
      vertex -74.4209 238.531 0.299999
      vertex -72.4326 237.885 0
      vertex -74.4209 238.531 0
    endloop
  endfacet
  facet normal 0.669131 0.743145 -0
    outer loop
      vertex -69.0686 235.441 0
      vertex -70.6221 236.84 0.299999
      vertex -69.0686 235.441 0.299999
    endloop
  endfacet
  facet normal 0.669131 0.743145 0
    outer loop
      vertex -70.6221 236.84 0.299999
      vertex -69.0686 235.441 0
      vertex -70.6221 236.84 0
    endloop
  endfacet
  facet normal 1 -0 0
    outer loop
      vertex -66.5548 228.75 0.299999
      vertex -66.5548 229.795 0
      vertex -66.5548 229.795 0.299999
    endloop
  endfacet
  facet normal 1 0 0
    outer loop
      vertex -66.5548 229.795 0
      vertex -66.5548 228.75 0.299999
      vertex -66.5548 228.75 0
    endloop
  endfacet
endsolid OpenSCAD_Model
