solid OpenSCAD_Model
  facet normal -2.22045e-16 -1 0
    outer loop
      vertex -67.0548 1.48892e-14 0
      vertex -9.94522 2.20828e-15 0.299999
      vertex -67.0548 1.48892e-14 0.299999
    endloop
  endfacet
  facet normal -2.22045e-16 -1 -0
    outer loop
      vertex -9.94522 2.20828e-15 0.299999
      vertex -67.0548 1.48892e-14 0
      vertex -9.94522 2.20828e-15 0
    endloop
  endfacet
  facet normal -2.22045e-16 -1 0
    outer loop
      vertex -67.0548 1.48892e-14 0.299999
      vertex -77 1.70974e-14 31.5
      vertex -77 1.70974e-14 0.299999
    endloop
  endfacet
  facet normal -2.22045e-16 -1 0
    outer loop
      vertex -77 1.70974e-14 31.5
      vertex -67.0548 1.48892e-14 0.299999
      vertex 0 0 31.5
    endloop
  endfacet
  facet normal -2.22045e-16 -1 0
    outer loop
      vertex -9.94522 2.20828e-15 0.299999
      vertex 0 0 31.5
      vertex -67.0548 1.48892e-14 0.299999
    endloop
  endfacet
  facet normal -2.22045e-16 -1 -0
    outer loop
      vertex 0 0 31.5
      vertex -9.94522 2.20828e-15 0.299999
      vertex 0 0 0.299999
    endloop
  endfacet
  facet normal -0 0 1
    outer loop
      vertex -75.5 21 31.5
      vertex -39.25 19.5 31.5
      vertex -39.25 21 31.5
    endloop
  endfacet
  facet normal 0 0 1
    outer loop
      vertex -39.25 19.5 31.5
      vertex -75.5 21 31.5
      vertex -75.5 19.5 31.5
    endloop
  endfacet
  facet normal -0 0 1
    outer loop
      vertex -37.75 21 31.5
      vertex -1.5 19.5 31.5
      vertex -1.5 21 31.5
    endloop
  endfacet
  facet normal 0 0 1
    outer loop
      vertex -1.5 19.5 31.5
      vertex -37.75 21 31.5
      vertex -37.75 19.5 31.5
    endloop
  endfacet
  facet normal 0 0 1
    outer loop
      vertex -1.5 40.5 31.5
      vertex -37.75 39 31.5
      vertex -1.5 39 31.5
    endloop
  endfacet
  facet normal 0 0 1
    outer loop
      vertex -39.25 21 31.5
      vertex -37.75 21 31.5
      vertex -37.75 39 31.5
    endloop
  endfacet
  facet normal 0 0 1
    outer loop
      vertex -37.75 21 31.5
      vertex -39.25 21 31.5
      vertex -37.75 19.5 31.5
    endloop
  endfacet
  facet normal 0 0 1
    outer loop
      vertex -39.25 21 31.5
      vertex -37.75 39 31.5
      vertex -39.25 39 31.5
    endloop
  endfacet
  facet normal 0 0 1
    outer loop
      vertex -1.5 40.5 31.5
      vertex -39.25 39 31.5
      vertex -37.75 39 31.5
    endloop
  endfacet
  facet normal -0 0 1
    outer loop
      vertex -75.5 40.5 31.5
      vertex -39.25 39 31.5
      vertex -1.5 40.5 31.5
    endloop
  endfacet
  facet normal 0 0 1
    outer loop
      vertex -39.25 39 31.5
      vertex -75.5 40.5 31.5
      vertex -75.5 39 31.5
    endloop
  endfacet
  facet normal -0 0 1
    outer loop
      vertex -75.5 56.4 31.5
      vertex -1.5 54.9 31.5
      vertex -1.5 56.4 31.5
    endloop
  endfacet
  facet normal 0 0 1
    outer loop
      vertex -1.5 54.9 31.5
      vertex -75.5 56.4 31.5
      vertex -75.5 54.9 31.5
    endloop
  endfacet
  facet normal -0 0 1
    outer loop
      vertex -75.5 72.3 31.5
      vertex -1.5 70.8 31.5
      vertex -1.5 72.3 31.5
    endloop
  endfacet
  facet normal 0 0 1
    outer loop
      vertex -1.5 70.8 31.5
      vertex -75.5 72.3 31.5
      vertex -75.5 70.8 31.5
    endloop
  endfacet
  facet normal -0 0 1
    outer loop
      vertex -75.5 91.8 31.5
      vertex -1.5 90.3 31.5
      vertex -1.5 91.8 31.5
    endloop
  endfacet
  facet normal 0 0 1
    outer loop
      vertex -1.5 90.3 31.5
      vertex -75.5 91.8 31.5
      vertex -75.5 90.3 31.5
    endloop
  endfacet
  facet normal -0 0 1
    outer loop
      vertex -75.5 111.3 31.5
      vertex -1.5 109.8 31.5
      vertex -1.5 111.3 31.5
    endloop
  endfacet
  facet normal 0 0 1
    outer loop
      vertex -1.5 109.8 31.5
      vertex -75.5 111.3 31.5
      vertex -75.5 109.8 31.5
    endloop
  endfacet
  facet normal -0 0 1
    outer loop
      vertex -75.5 130.8 31.5
      vertex -1.5 129.3 31.5
      vertex -1.5 130.8 31.5
    endloop
  endfacet
  facet normal 0 0 1
    outer loop
      vertex -1.5 129.3 31.5
      vertex -75.5 130.8 31.5
      vertex -75.5 129.3 31.5
    endloop
  endfacet
  facet normal -0 0 1
    outer loop
      vertex -75.5 150.3 31.5
      vertex -1.5 148.8 31.5
      vertex -1.5 150.3 31.5
    endloop
  endfacet
  facet normal 0 0 1
    outer loop
      vertex -1.5 148.8 31.5
      vertex -75.5 150.3 31.5
      vertex -75.5 148.8 31.5
    endloop
  endfacet
  facet normal -0 0 1
    outer loop
      vertex -75.5 169.8 31.5
      vertex -1.5 168.3 31.5
      vertex -1.5 169.8 31.5
    endloop
  endfacet
  facet normal 0 0 1
    outer loop
      vertex -1.5 168.3 31.5
      vertex -75.5 169.8 31.5
      vertex -75.5 168.3 31.5
    endloop
  endfacet
  facet normal -0 0 1
    outer loop
      vertex -75.5 189.3 31.5
      vertex -1.5 187.8 31.5
      vertex -1.5 189.3 31.5
    endloop
  endfacet
  facet normal 0 0 1
    outer loop
      vertex -1.5 187.8 31.5
      vertex -75.5 189.3 31.5
      vertex -75.5 187.8 31.5
    endloop
  endfacet
  facet normal -0 0 1
    outer loop
      vertex -75.5 208.8 31.5
      vertex -1.5 207.3 31.5
      vertex -1.5 208.8 31.5
    endloop
  endfacet
  facet normal 0 0 1
    outer loop
      vertex -1.5 207.3 31.5
      vertex -75.5 208.8 31.5
      vertex -75.5 207.3 31.5
    endloop
  endfacet
  facet normal 0 0 1
    outer loop
      vertex -1.5 208.8 31.5
      vertex 5.06928e-14 228.3 31.5
      vertex -1.5 226.8 31.5
    endloop
  endfacet
  facet normal 0 0 1
    outer loop
      vertex 5.06928e-14 228.3 31.5
      vertex -75.5 226.8 31.5
      vertex -1.5 226.8 31.5
    endloop
  endfacet
  facet normal 0 0 1
    outer loop
      vertex -77 228.3 31.5
      vertex -75.5 208.8 31.5
      vertex -75.5 226.8 31.5
    endloop
  endfacet
  facet normal 0 0 1
    outer loop
      vertex -75.5 208.8 31.5
      vertex -77 228.3 31.5
      vertex -75.5 207.3 31.5
    endloop
  endfacet
  facet normal 0 0 1
    outer loop
      vertex -75.5 207.3 31.5
      vertex -77 228.3 31.5
      vertex -75.5 189.3 31.5
    endloop
  endfacet
  facet normal 0 0 1
    outer loop
      vertex -75.5 189.3 31.5
      vertex -77 228.3 31.5
      vertex -75.5 187.8 31.5
    endloop
  endfacet
  facet normal 0 0 1
    outer loop
      vertex -75.5 187.8 31.5
      vertex -77 228.3 31.5
      vertex -75.5 169.8 31.5
    endloop
  endfacet
  facet normal 0 0 1
    outer loop
      vertex -75.5 169.8 31.5
      vertex -77 228.3 31.5
      vertex -75.5 168.3 31.5
    endloop
  endfacet
  facet normal 0 0 1
    outer loop
      vertex -75.5 168.3 31.5
      vertex -77 228.3 31.5
      vertex -75.5 150.3 31.5
    endloop
  endfacet
  facet normal 0 0 1
    outer loop
      vertex -75.5 150.3 31.5
      vertex -77 228.3 31.5
      vertex -75.5 148.8 31.5
    endloop
  endfacet
  facet normal 0 0 1
    outer loop
      vertex -75.5 148.8 31.5
      vertex -77 228.3 31.5
      vertex -75.5 130.8 31.5
    endloop
  endfacet
  facet normal 0 0 1
    outer loop
      vertex -75.5 130.8 31.5
      vertex -77 228.3 31.5
      vertex -75.5 129.3 31.5
    endloop
  endfacet
  facet normal 0 0 1
    outer loop
      vertex -75.5 129.3 31.5
      vertex -77 228.3 31.5
      vertex -75.5 111.3 31.5
    endloop
  endfacet
  facet normal 0 0 1
    outer loop
      vertex -75.5 111.3 31.5
      vertex -77 228.3 31.5
      vertex -75.5 109.8 31.5
    endloop
  endfacet
  facet normal 0 0 1
    outer loop
      vertex -75.5 109.8 31.5
      vertex -77 228.3 31.5
      vertex -75.5 91.8 31.5
    endloop
  endfacet
  facet normal 0 0 1
    outer loop
      vertex -75.5 91.8 31.5
      vertex -77 228.3 31.5
      vertex -75.5 90.3 31.5
    endloop
  endfacet
  facet normal 0 0 1
    outer loop
      vertex -75.5 90.3 31.5
      vertex -77 228.3 31.5
      vertex -75.5 72.3 31.5
    endloop
  endfacet
  facet normal 0 0 1
    outer loop
      vertex -77 1.70974e-14 31.5
      vertex -75.5 72.3 31.5
      vertex -77 228.3 31.5
    endloop
  endfacet
  facet normal 0 0 1
    outer loop
      vertex -75.5 72.3 31.5
      vertex -77 1.70974e-14 31.5
      vertex -75.5 70.8 31.5
    endloop
  endfacet
  facet normal 0 0 1
    outer loop
      vertex -75.5 70.8 31.5
      vertex -77 1.70974e-14 31.5
      vertex -75.5 56.4 31.5
    endloop
  endfacet
  facet normal 0 0 1
    outer loop
      vertex -75.5 56.4 31.5
      vertex -77 1.70974e-14 31.5
      vertex -75.5 54.9 31.5
    endloop
  endfacet
  facet normal 0 0 1
    outer loop
      vertex -75.5 54.9 31.5
      vertex -77 1.70974e-14 31.5
      vertex -75.5 40.5 31.5
    endloop
  endfacet
  facet normal 0 0 1
    outer loop
      vertex -75.5 40.5 31.5
      vertex -77 1.70974e-14 31.5
      vertex -75.5 39 31.5
    endloop
  endfacet
  facet normal 0 0 1
    outer loop
      vertex -75.5 39 31.5
      vertex -77 1.70974e-14 31.5
      vertex -75.5 21 31.5
    endloop
  endfacet
  facet normal 0 0 1
    outer loop
      vertex -75.5 21 31.5
      vertex -77 1.70974e-14 31.5
      vertex -75.5 19.5 31.5
    endloop
  endfacet
  facet normal -0 0 1
    outer loop
      vertex -77 228.3 31.5
      vertex -75.5 226.8 31.5
      vertex 5.06928e-14 228.3 31.5
    endloop
  endfacet
  facet normal 0 0 1
    outer loop
      vertex -1.5 207.3 31.5
      vertex 5.06928e-14 228.3 31.5
      vertex -1.5 208.8 31.5
    endloop
  endfacet
  facet normal 0 0 1
    outer loop
      vertex -1.5 189.3 31.5
      vertex 5.06928e-14 228.3 31.5
      vertex -1.5 207.3 31.5
    endloop
  endfacet
  facet normal 0 0 1
    outer loop
      vertex -1.5 187.8 31.5
      vertex 5.06928e-14 228.3 31.5
      vertex -1.5 189.3 31.5
    endloop
  endfacet
  facet normal 0 0 1
    outer loop
      vertex -1.5 169.8 31.5
      vertex 5.06928e-14 228.3 31.5
      vertex -1.5 187.8 31.5
    endloop
  endfacet
  facet normal 0 0 1
    outer loop
      vertex -1.5 168.3 31.5
      vertex 5.06928e-14 228.3 31.5
      vertex -1.5 169.8 31.5
    endloop
  endfacet
  facet normal 0 0 1
    outer loop
      vertex -1.5 150.3 31.5
      vertex 5.06928e-14 228.3 31.5
      vertex -1.5 168.3 31.5
    endloop
  endfacet
  facet normal 0 0 1
    outer loop
      vertex 5.06928e-14 228.3 31.5
      vertex -1.5 150.3 31.5
      vertex 0 0 31.5
    endloop
  endfacet
  facet normal -0 0 1
    outer loop
      vertex -1.5 148.8 31.5
      vertex 0 0 31.5
      vertex -1.5 150.3 31.5
    endloop
  endfacet
  facet normal -0 0 1
    outer loop
      vertex -1.5 130.8 31.5
      vertex 0 0 31.5
      vertex -1.5 148.8 31.5
    endloop
  endfacet
  facet normal -0 0 1
    outer loop
      vertex -1.5 129.3 31.5
      vertex 0 0 31.5
      vertex -1.5 130.8 31.5
    endloop
  endfacet
  facet normal -0 0 1
    outer loop
      vertex -1.5 111.3 31.5
      vertex 0 0 31.5
      vertex -1.5 129.3 31.5
    endloop
  endfacet
  facet normal -0 0 1
    outer loop
      vertex -1.5 109.8 31.5
      vertex 0 0 31.5
      vertex -1.5 111.3 31.5
    endloop
  endfacet
  facet normal -0 0 1
    outer loop
      vertex -1.5 91.8 31.5
      vertex 0 0 31.5
      vertex -1.5 109.8 31.5
    endloop
  endfacet
  facet normal -0 0 1
    outer loop
      vertex -1.5 90.3 31.5
      vertex 0 0 31.5
      vertex -1.5 91.8 31.5
    endloop
  endfacet
  facet normal -0 0 1
    outer loop
      vertex -1.5 72.3 31.5
      vertex 0 0 31.5
      vertex -1.5 90.3 31.5
    endloop
  endfacet
  facet normal -0 0 1
    outer loop
      vertex -1.5 70.8 31.5
      vertex 0 0 31.5
      vertex -1.5 72.3 31.5
    endloop
  endfacet
  facet normal -0 0 1
    outer loop
      vertex -1.5 56.4 31.5
      vertex 0 0 31.5
      vertex -1.5 70.8 31.5
    endloop
  endfacet
  facet normal -0 0 1
    outer loop
      vertex -1.5 54.9 31.5
      vertex 0 0 31.5
      vertex -1.5 56.4 31.5
    endloop
  endfacet
  facet normal -0 0 1
    outer loop
      vertex -1.5 40.5 31.5
      vertex 0 0 31.5
      vertex -1.5 54.9 31.5
    endloop
  endfacet
  facet normal -0 0 1
    outer loop
      vertex -1.5 39 31.5
      vertex 0 0 31.5
      vertex -1.5 40.5 31.5
    endloop
  endfacet
  facet normal -0 0 1
    outer loop
      vertex -1.5 21 31.5
      vertex 0 0 31.5
      vertex -1.5 39 31.5
    endloop
  endfacet
  facet normal -0 0 1
    outer loop
      vertex -1.5 19.5 31.5
      vertex 0 0 31.5
      vertex -1.5 21 31.5
    endloop
  endfacet
  facet normal -0 0 1
    outer loop
      vertex -1.5 1.5 31.5
      vertex 0 0 31.5
      vertex -1.5 19.5 31.5
    endloop
  endfacet
  facet normal -0 0 1
    outer loop
      vertex -37.75 1.5 31.5
      vertex 0 0 31.5
      vertex -1.5 1.5 31.5
    endloop
  endfacet
  facet normal 0 0 1
    outer loop
      vertex -39.25 19.5 31.5
      vertex -37.75 19.5 31.5
      vertex -39.25 21 31.5
    endloop
  endfacet
  facet normal 0 0 1
    outer loop
      vertex -37.75 19.5 31.5
      vertex -39.25 19.5 31.5
      vertex -37.75 1.5 31.5
    endloop
  endfacet
  facet normal 0 0 1
    outer loop
      vertex -39.25 1.5 31.5
      vertex -37.75 1.5 31.5
      vertex -39.25 19.5 31.5
    endloop
  endfacet
  facet normal -0 0 1
    outer loop
      vertex -39.25 1.5 31.5
      vertex 0 0 31.5
      vertex -37.75 1.5 31.5
    endloop
  endfacet
  facet normal 0 0 1
    outer loop
      vertex -77 1.70974e-14 31.5
      vertex -39.25 1.5 31.5
      vertex -75.5 1.5 31.5
    endloop
  endfacet
  facet normal 0 0 1
    outer loop
      vertex -39.25 1.5 31.5
      vertex -77 1.70974e-14 31.5
      vertex 0 0 31.5
    endloop
  endfacet
  facet normal 0 0 1
    outer loop
      vertex -75.5 19.5 31.5
      vertex -77 1.70974e-14 31.5
      vertex -75.5 1.5 31.5
    endloop
  endfacet
  facet normal 0 1 -0
    outer loop
      vertex -39.25 21 1.5
      vertex -75.5 21 31.5
      vertex -39.25 21 31.5
    endloop
  endfacet
  facet normal 0 1 0
    outer loop
      vertex -75.5 21 31.5
      vertex -39.25 21 1.5
      vertex -75.5 21 1.5
    endloop
  endfacet
  facet normal 0 1 -0
    outer loop
      vertex -1.5 21 1.5
      vertex -37.75 21 31.5
      vertex -1.5 21 31.5
    endloop
  endfacet
  facet normal 0 1 0
    outer loop
      vertex -37.75 21 31.5
      vertex -1.5 21 1.5
      vertex -37.75 21 1.5
    endloop
  endfacet
  facet normal -1 0 0
    outer loop
      vertex -39.25 1.5 1.5
      vertex -39.25 19.5 31.5
      vertex -39.25 19.5 1.5
    endloop
  endfacet
  facet normal -1 -0 0
    outer loop
      vertex -39.25 19.5 31.5
      vertex -39.25 1.5 1.5
      vertex -39.25 1.5 31.5
    endloop
  endfacet
  facet normal 0 0 -1
    outer loop
      vertex 9.51056 -3.09017 0
      vertex 9.94522 1.04528 0
      vertex 9.94522 -1.04528 0
    endloop
  endfacet
  facet normal 0 0 -1
    outer loop
      vertex 9.51056 -3.09017 0
      vertex 9.51056 3.09017 0
      vertex 9.94522 1.04528 0
    endloop
  endfacet
  facet normal 0 0 -1
    outer loop
      vertex 8.66025 -5 0
      vertex 9.51056 3.09017 0
      vertex 9.51056 -3.09017 0
    endloop
  endfacet
  facet normal 0 0 -1
    outer loop
      vertex 8.66025 -5 0
      vertex 8.66025 5 0
      vertex 9.51056 3.09017 0
    endloop
  endfacet
  facet normal 0 0 -1
    outer loop
      vertex 7.43145 -6.69131 0
      vertex 8.66025 5 0
      vertex 8.66025 -5 0
    endloop
  endfacet
  facet normal 0 0 -1
    outer loop
      vertex 7.43145 -6.69131 0
      vertex 7.43145 6.69131 0
      vertex 8.66025 5 0
    endloop
  endfacet
  facet normal 0 0 -1
    outer loop
      vertex 5.87785 -8.09017 0
      vertex 7.43145 6.69131 0
      vertex 7.43145 -6.69131 0
    endloop
  endfacet
  facet normal 0 0 -1
    outer loop
      vertex 5.87785 -8.09017 0
      vertex 5.87785 8.09017 0
      vertex 7.43145 6.69131 0
    endloop
  endfacet
  facet normal 0 0 -1
    outer loop
      vertex 4.06737 -9.13545 0
      vertex 5.87785 8.09017 0
      vertex 5.87785 -8.09017 0
    endloop
  endfacet
  facet normal 0 0 -1
    outer loop
      vertex 4.06737 -9.13545 0
      vertex 4.06737 9.13545 0
      vertex 5.87785 8.09017 0
    endloop
  endfacet
  facet normal 0 0 -1
    outer loop
      vertex 2.07912 -9.78148 0
      vertex 4.06737 9.13545 0
      vertex 4.06737 -9.13545 0
    endloop
  endfacet
  facet normal 0 0 -1
    outer loop
      vertex 2.07912 -9.78148 0
      vertex 2.07912 9.78148 0
      vertex 4.06737 9.13545 0
    endloop
  endfacet
  facet normal 0 0 -1
    outer loop
      vertex 2.07912 -9.78148 0
      vertex 2.22045e-15 10 0
      vertex 2.07912 9.78148 0
    endloop
  endfacet
  facet normal 0 -0 -1
    outer loop
      vertex 2.22045e-15 10 0
      vertex 2.07912 -9.78148 0
      vertex -2.22045e-15 -10 0
    endloop
  endfacet
  facet normal 0 0 -1
    outer loop
      vertex 9.51056 225.21 0
      vertex 9.94522 229.345 0
      vertex 9.94522 227.255 0
    endloop
  endfacet
  facet normal 0 0 -1
    outer loop
      vertex 9.51056 225.21 0
      vertex 9.51056 231.39 0
      vertex 9.94522 229.345 0
    endloop
  endfacet
  facet normal 0 0 -1
    outer loop
      vertex 8.66025 223.3 0
      vertex 9.51056 231.39 0
      vertex 9.51056 225.21 0
    endloop
  endfacet
  facet normal 0 0 -1
    outer loop
      vertex 8.66025 223.3 0
      vertex 8.66025 233.3 0
      vertex 9.51056 231.39 0
    endloop
  endfacet
  facet normal 0 0 -1
    outer loop
      vertex 7.43145 221.609 0
      vertex 8.66025 233.3 0
      vertex 8.66025 223.3 0
    endloop
  endfacet
  facet normal 0 0 -1
    outer loop
      vertex 7.43145 221.609 0
      vertex 7.43145 234.991 0
      vertex 8.66025 233.3 0
    endloop
  endfacet
  facet normal 0 0 -1
    outer loop
      vertex 5.87785 220.21 0
      vertex 7.43145 234.991 0
      vertex 7.43145 221.609 0
    endloop
  endfacet
  facet normal 0 0 -1
    outer loop
      vertex 5.87785 220.21 0
      vertex 5.87785 236.39 0
      vertex 7.43145 234.991 0
    endloop
  endfacet
  facet normal 0 0 -1
    outer loop
      vertex 4.06737 219.165 0
      vertex 5.87785 236.39 0
      vertex 5.87785 220.21 0
    endloop
  endfacet
  facet normal 0 0 -1
    outer loop
      vertex 4.06737 219.165 0
      vertex 4.06737 237.435 0
      vertex 5.87785 236.39 0
    endloop
  endfacet
  facet normal 0 0 -1
    outer loop
      vertex 2.07912 218.519 0
      vertex 4.06737 237.435 0
      vertex 4.06737 219.165 0
    endloop
  endfacet
  facet normal 0 0 -1
    outer loop
      vertex 2.07912 218.519 0
      vertex 2.07912 238.081 0
      vertex 4.06737 237.435 0
    endloop
  endfacet
  facet normal 0 0 -1
    outer loop
      vertex 2.07912 218.519 0
      vertex 5.29132e-14 238.3 0
      vertex 2.07912 238.081 0
    endloop
  endfacet
  facet normal 0 0 -1
    outer loop
      vertex 4.84723e-14 218.3 0
      vertex 5.29132e-14 238.3 0
      vertex 2.07912 218.519 0
    endloop
  endfacet
  facet normal 0 0 -1
    outer loop
      vertex -77 218.3 0
      vertex 4.84723e-14 218.3 0
      vertex 2.22045e-15 10 0
    endloop
  endfacet
  facet normal 0 0 -1
    outer loop
      vertex -9.94522 2.20828e-15 0
      vertex 2.22045e-15 10 0
      vertex -2.22045e-15 -10 0
    endloop
  endfacet
  facet normal 0 0 -1
    outer loop
      vertex -9.94522 2.20828e-15 0
      vertex -2.22045e-15 -10 0
      vertex -2.07912 -9.78148 0
    endloop
  endfacet
  facet normal 0 0 -1
    outer loop
      vertex -67.0548 1.48892e-14 0
      vertex 2.22045e-15 10 0
      vertex -9.94522 2.20828e-15 0
    endloop
  endfacet
  facet normal 0 0 -1
    outer loop
      vertex -9.94522 2.20828e-15 0
      vertex -2.07912 -9.78148 0
      vertex -4.06737 -9.13545 0
    endloop
  endfacet
  facet normal 0 0 -1
    outer loop
      vertex 4.84723e-14 218.3 0
      vertex -9.94522 228.3 0
      vertex 5.29132e-14 238.3 0
    endloop
  endfacet
  facet normal 0 0 -1
    outer loop
      vertex -9.94522 2.20828e-15 0
      vertex -4.06737 -9.13545 0
      vertex -5.87785 -8.09017 0
    endloop
  endfacet
  facet normal 0 0 -1
    outer loop
      vertex 5.29132e-14 238.3 0
      vertex -9.94522 228.3 0
      vertex -2.07912 238.081 0
    endloop
  endfacet
  facet normal 0 0 -1
    outer loop
      vertex -9.94522 2.20828e-15 0
      vertex -5.87785 -8.09017 0
      vertex -7.43145 -6.69131 0
    endloop
  endfacet
  facet normal 0 0 -1
    outer loop
      vertex -2.07912 238.081 0
      vertex -9.94522 228.3 0
      vertex -4.06737 237.435 0
    endloop
  endfacet
  facet normal 0 0 -1
    outer loop
      vertex -9.94522 2.20828e-15 0
      vertex -7.43145 -6.69131 0
      vertex -8.66025 -5 0
    endloop
  endfacet
  facet normal 0 0 -1
    outer loop
      vertex -4.06737 237.435 0
      vertex -9.94522 228.3 0
      vertex -5.87785 236.39 0
    endloop
  endfacet
  facet normal 0 0 -1
    outer loop
      vertex -9.94522 2.20828e-15 0
      vertex -8.66025 -5 0
      vertex -9.51056 -3.09017 0
    endloop
  endfacet
  facet normal 0 0 -1
    outer loop
      vertex -5.87785 236.39 0
      vertex -9.94522 228.3 0
      vertex -7.43145 234.991 0
    endloop
  endfacet
  facet normal 0 0 -1
    outer loop
      vertex -9.94522 2.20828e-15 0
      vertex -9.51056 -3.09017 0
      vertex -9.94522 -1.04528 0
    endloop
  endfacet
  facet normal 0 0 -1
    outer loop
      vertex -7.43145 234.991 0
      vertex -9.94522 228.3 0
      vertex -8.66025 233.3 0
    endloop
  endfacet
  facet normal 0 0 -1
    outer loop
      vertex -8.66025 233.3 0
      vertex -9.94522 228.3 0
      vertex -9.51056 231.39 0
    endloop
  endfacet
  facet normal 0 0 -1
    outer loop
      vertex -9.51056 231.39 0
      vertex -9.94522 228.3 0
      vertex -9.94522 229.345 0
    endloop
  endfacet
  facet normal 0 0 -1
    outer loop
      vertex -79.0791 -9.78148 0
      vertex -77 10 0
      vertex -77 -10 0
    endloop
  endfacet
  facet normal 0 0 -1
    outer loop
      vertex -79.0791 -9.78148 0
      vertex -79.0791 9.78148 0
      vertex -77 10 0
    endloop
  endfacet
  facet normal 0 0 -1
    outer loop
      vertex -81.0674 -9.13545 0
      vertex -79.0791 9.78148 0
      vertex -79.0791 -9.78148 0
    endloop
  endfacet
  facet normal 0 0 -1
    outer loop
      vertex -81.0674 -9.13545 0
      vertex -81.0674 9.13545 0
      vertex -79.0791 9.78148 0
    endloop
  endfacet
  facet normal 0 0 -1
    outer loop
      vertex -82.8779 -8.09017 0
      vertex -81.0674 9.13545 0
      vertex -81.0674 -9.13545 0
    endloop
  endfacet
  facet normal 0 0 -1
    outer loop
      vertex -82.8779 -8.09017 0
      vertex -82.8779 8.09017 0
      vertex -81.0674 9.13545 0
    endloop
  endfacet
  facet normal 0 0 -1
    outer loop
      vertex -84.4314 -6.69131 0
      vertex -82.8779 8.09017 0
      vertex -82.8779 -8.09017 0
    endloop
  endfacet
  facet normal 0 0 -1
    outer loop
      vertex -84.4314 -6.69131 0
      vertex -84.4314 6.69131 0
      vertex -82.8779 8.09017 0
    endloop
  endfacet
  facet normal 0 0 -1
    outer loop
      vertex -85.6603 -5 0
      vertex -84.4314 6.69131 0
      vertex -84.4314 -6.69131 0
    endloop
  endfacet
  facet normal 0 0 -1
    outer loop
      vertex -85.6603 -5 0
      vertex -85.6603 5 0
      vertex -84.4314 6.69131 0
    endloop
  endfacet
  facet normal 0 0 -1
    outer loop
      vertex -86.5106 -3.09017 0
      vertex -85.6603 5 0
      vertex -85.6603 -5 0
    endloop
  endfacet
  facet normal 0 0 -1
    outer loop
      vertex -86.5106 -3.09017 0
      vertex -86.5106 3.09017 0
      vertex -85.6603 5 0
    endloop
  endfacet
  facet normal 0 0 -1
    outer loop
      vertex -86.9452 -1.04528 0
      vertex -86.5106 3.09017 0
      vertex -86.5106 -3.09017 0
    endloop
  endfacet
  facet normal 0 0 -1
    outer loop
      vertex -86.5106 3.09017 0
      vertex -86.9452 -1.04528 0
      vertex -86.9452 1.04528 0
    endloop
  endfacet
  facet normal 0 0 -1
    outer loop
      vertex -67.4894 -3.09017 0
      vertex -67.0548 1.48892e-14 0
      vertex -67.0548 -1.04528 0
    endloop
  endfacet
  facet normal 0 0 -1
    outer loop
      vertex -77 218.3 0
      vertex 2.22045e-15 10 0
      vertex -77 10 0
    endloop
  endfacet
  facet normal 0 0 -1
    outer loop
      vertex -68.3397 -5 0
      vertex -67.0548 1.48892e-14 0
      vertex -67.4894 -3.09017 0
    endloop
  endfacet
  facet normal 0 0 -1
    outer loop
      vertex 4.84723e-14 218.3 0
      vertex -77 218.3 0
      vertex -67.0548 228.3 0
    endloop
  endfacet
  facet normal 0 0 -1
    outer loop
      vertex -69.5686 -6.69131 0
      vertex -67.0548 1.48892e-14 0
      vertex -68.3397 -5 0
    endloop
  endfacet
  facet normal 0 -0 -1
    outer loop
      vertex -69.5686 234.991 0
      vertex -67.0548 228.3 0
      vertex -77 218.3 0
    endloop
  endfacet
  facet normal -0 0 -1
    outer loop
      vertex -67.0548 1.48892e-14 0
      vertex -69.5686 -6.69131 0
      vertex -77 10 0
    endloop
  endfacet
  facet normal 0 0 -1
    outer loop
      vertex -67.0548 228.3 0
      vertex -67.4894 231.39 0
      vertex -67.0548 229.345 0
    endloop
  endfacet
  facet normal 0 0 -1
    outer loop
      vertex -77 10 0
      vertex -69.5686 -6.69131 0
      vertex -71.1221 -8.09017 0
    endloop
  endfacet
  facet normal 0 0 -1
    outer loop
      vertex -67.0548 228.3 0
      vertex -68.3397 233.3 0
      vertex -67.4894 231.39 0
    endloop
  endfacet
  facet normal 0 0 -1
    outer loop
      vertex -77 10 0
      vertex -71.1221 -8.09017 0
      vertex -72.9326 -9.13545 0
    endloop
  endfacet
  facet normal 0 0 -1
    outer loop
      vertex -67.0548 228.3 0
      vertex -69.5686 234.991 0
      vertex -68.3397 233.3 0
    endloop
  endfacet
  facet normal 0 0 -1
    outer loop
      vertex -77 10 0
      vertex -72.9326 -9.13545 0
      vertex -74.9209 -9.78148 0
    endloop
  endfacet
  facet normal -0 0 -1
    outer loop
      vertex -69.5686 234.991 0
      vertex -77 218.3 0
      vertex -71.1221 236.39 0
    endloop
  endfacet
  facet normal 0 0 -1
    outer loop
      vertex -77 10 0
      vertex -74.9209 -9.78148 0
      vertex -77 -10 0
    endloop
  endfacet
  facet normal -0 0 -1
    outer loop
      vertex -71.1221 236.39 0
      vertex -77 218.3 0
      vertex -72.9326 237.435 0
    endloop
  endfacet
  facet normal -0 0 -1
    outer loop
      vertex -72.9326 237.435 0
      vertex -77 218.3 0
      vertex -74.9209 238.081 0
    endloop
  endfacet
  facet normal 0 0 -1
    outer loop
      vertex -77 218.3 0
      vertex -77 238.3 0
      vertex -74.9209 238.081 0
    endloop
  endfacet
  facet normal 0 0 -1
    outer loop
      vertex -79.0791 218.519 0
      vertex -77 238.3 0
      vertex -77 218.3 0
    endloop
  endfacet
  facet normal 0 0 -1
    outer loop
      vertex -79.0791 218.519 0
      vertex -79.0791 238.081 0
      vertex -77 238.3 0
    endloop
  endfacet
  facet normal 0 0 -1
    outer loop
      vertex -81.0674 219.165 0
      vertex -79.0791 238.081 0
      vertex -79.0791 218.519 0
    endloop
  endfacet
  facet normal 0 0 -1
    outer loop
      vertex -81.0674 219.165 0
      vertex -81.0674 237.435 0
      vertex -79.0791 238.081 0
    endloop
  endfacet
  facet normal 0 0 -1
    outer loop
      vertex -82.8779 220.21 0
      vertex -81.0674 237.435 0
      vertex -81.0674 219.165 0
    endloop
  endfacet
  facet normal 0 0 -1
    outer loop
      vertex -82.8779 220.21 0
      vertex -82.8779 236.39 0
      vertex -81.0674 237.435 0
    endloop
  endfacet
  facet normal 0 0 -1
    outer loop
      vertex -84.4314 221.609 0
      vertex -82.8779 236.39 0
      vertex -82.8779 220.21 0
    endloop
  endfacet
  facet normal 0 0 -1
    outer loop
      vertex -84.4314 221.609 0
      vertex -84.4314 234.991 0
      vertex -82.8779 236.39 0
    endloop
  endfacet
  facet normal 0 0 -1
    outer loop
      vertex -85.6603 223.3 0
      vertex -84.4314 234.991 0
      vertex -84.4314 221.609 0
    endloop
  endfacet
  facet normal 0 0 -1
    outer loop
      vertex -85.6603 223.3 0
      vertex -85.6603 233.3 0
      vertex -84.4314 234.991 0
    endloop
  endfacet
  facet normal 0 0 -1
    outer loop
      vertex -86.5106 225.21 0
      vertex -85.6603 233.3 0
      vertex -85.6603 223.3 0
    endloop
  endfacet
  facet normal 0 0 -1
    outer loop
      vertex -86.5106 225.21 0
      vertex -86.5106 231.39 0
      vertex -85.6603 233.3 0
    endloop
  endfacet
  facet normal 0 0 -1
    outer loop
      vertex -86.9452 227.255 0
      vertex -86.5106 231.39 0
      vertex -86.5106 225.21 0
    endloop
  endfacet
  facet normal 0 0 -1
    outer loop
      vertex -86.5106 231.39 0
      vertex -86.9452 227.255 0
      vertex -86.9452 229.345 0
    endloop
  endfacet
  facet normal 0 0 -1
    outer loop
      vertex -77 10 0
      vertex 2.22045e-15 10 0
      vertex -67.0548 1.48892e-14 0
    endloop
  endfacet
  facet normal 0 0 -1
    outer loop
      vertex 4.84723e-14 218.3 0
      vertex -67.0548 228.3 0
      vertex -9.94522 228.3 0
    endloop
  endfacet
  facet normal 1 -2.22045e-16 0
    outer loop
      vertex 5.06928e-14 228.3 31.5
      vertex 4.84723e-14 218.3 0.299999
      vertex 5.06928e-14 228.3 0.299999
    endloop
  endfacet
  facet normal 1 -2.22045e-16 0
    outer loop
      vertex 4.84723e-14 218.3 0.299999
      vertex 2.22045e-15 10 0.299999
      vertex 4.84723e-14 218.3 0
    endloop
  endfacet
  facet normal 1 -2.22045e-16 0
    outer loop
      vertex 5.06928e-14 228.3 31.5
      vertex 2.22045e-15 10 0.299999
      vertex 4.84723e-14 218.3 0.299999
    endloop
  endfacet
  facet normal 1 -2.22045e-16 0
    outer loop
      vertex 0 0 31.5
      vertex 2.22045e-15 10 0.299999
      vertex 5.06928e-14 228.3 31.5
    endloop
  endfacet
  facet normal 1 -2.22045e-16 0
    outer loop
      vertex 2.22045e-15 10 0.299999
      vertex 0 0 31.5
      vertex 0 0 0.299999
    endloop
  endfacet
  facet normal 1 -2.22045e-16 0
    outer loop
      vertex 4.84723e-14 218.3 0
      vertex 2.22045e-15 10 0.299999
      vertex 2.22045e-15 10 0
    endloop
  endfacet
  facet normal 0 1 -0
    outer loop
      vertex -1.5 1.5 1.5
      vertex -37.75 1.5 31.5
      vertex -1.5 1.5 31.5
    endloop
  endfacet
  facet normal 0 1 0
    outer loop
      vertex -37.75 1.5 31.5
      vertex -1.5 1.5 1.5
      vertex -37.75 1.5 1.5
    endloop
  endfacet
  facet normal 0 -1 0
    outer loop
      vertex -75.5 19.5 1.5
      vertex -39.25 19.5 31.5
      vertex -75.5 19.5 31.5
    endloop
  endfacet
  facet normal 0 -1 -0
    outer loop
      vertex -39.25 19.5 31.5
      vertex -75.5 19.5 1.5
      vertex -39.25 19.5 1.5
    endloop
  endfacet
  facet normal 0 -1 0
    outer loop
      vertex -37.75 19.5 1.5
      vertex -1.5 19.5 31.5
      vertex -37.75 19.5 31.5
    endloop
  endfacet
  facet normal 0 -1 -0
    outer loop
      vertex -1.5 19.5 31.5
      vertex -37.75 19.5 1.5
      vertex -1.5 19.5 1.5
    endloop
  endfacet
  facet normal 1 -0 0
    outer loop
      vertex -37.75 1.5 31.5
      vertex -37.75 19.5 1.5
      vertex -37.75 19.5 31.5
    endloop
  endfacet
  facet normal 1 0 0
    outer loop
      vertex -37.75 19.5 1.5
      vertex -37.75 1.5 31.5
      vertex -37.75 1.5 1.5
    endloop
  endfacet
  facet normal -0 0 1
    outer loop
      vertex -37.75 19.5 1.5
      vertex -1.5 1.5 1.5
      vertex -1.5 19.5 1.5
    endloop
  endfacet
  facet normal 0 0 1
    outer loop
      vertex -1.5 1.5 1.5
      vertex -37.75 19.5 1.5
      vertex -37.75 1.5 1.5
    endloop
  endfacet
  facet normal -1 0 0
    outer loop
      vertex -1.5 1.5 1.5
      vertex -1.5 19.5 31.5
      vertex -1.5 19.5 1.5
    endloop
  endfacet
  facet normal -1 -0 0
    outer loop
      vertex -1.5 19.5 31.5
      vertex -1.5 1.5 1.5
      vertex -1.5 1.5 31.5
    endloop
  endfacet
  facet normal -1 0 0
    outer loop
      vertex -77 218.3 0
      vertex -77 10 0
      vertex -77 218.3 0.299999
    endloop
  endfacet
  facet normal -1 0 0
    outer loop
      vertex -77 218.3 0.299999
      vertex -77 228.3 31.5
      vertex -77 228.3 0.299999
    endloop
  endfacet
  facet normal -1 0 0
    outer loop
      vertex -77 10 0.299999
      vertex -77 218.3 0.299999
      vertex -77 10 0
    endloop
  endfacet
  facet normal -1 0 0
    outer loop
      vertex -77 218.3 0.299999
      vertex -77 10 0.299999
      vertex -77 228.3 31.5
    endloop
  endfacet
  facet normal -1 0 0
    outer loop
      vertex -77 1.70974e-14 31.5
      vertex -77 10 0.299999
      vertex -77 1.70974e-14 0.299999
    endloop
  endfacet
  facet normal -1 0 0
    outer loop
      vertex -77 10 0.299999
      vertex -77 1.70974e-14 31.5
      vertex -77 228.3 31.5
    endloop
  endfacet
  facet normal 0 1 -0
    outer loop
      vertex -39.25 1.5 1.5
      vertex -75.5 1.5 31.5
      vertex -39.25 1.5 31.5
    endloop
  endfacet
  facet normal 0 1 0
    outer loop
      vertex -75.5 1.5 31.5
      vertex -39.25 1.5 1.5
      vertex -75.5 1.5 1.5
    endloop
  endfacet
  facet normal 1 -0 0
    outer loop
      vertex -75.5 1.5 31.5
      vertex -75.5 19.5 1.5
      vertex -75.5 19.5 31.5
    endloop
  endfacet
  facet normal 1 0 0
    outer loop
      vertex -75.5 19.5 1.5
      vertex -75.5 1.5 31.5
      vertex -75.5 1.5 1.5
    endloop
  endfacet
  facet normal -0 0 1
    outer loop
      vertex -75.5 19.5 1.5
      vertex -39.25 1.5 1.5
      vertex -39.25 19.5 1.5
    endloop
  endfacet
  facet normal 0 0 1
    outer loop
      vertex -39.25 1.5 1.5
      vertex -75.5 19.5 1.5
      vertex -75.5 1.5 1.5
    endloop
  endfacet
  facet normal 0 1 -0
    outer loop
      vertex -1.5 40.5 1.5
      vertex -75.5 40.5 31.5
      vertex -1.5 40.5 31.5
    endloop
  endfacet
  facet normal 0 1 0
    outer loop
      vertex -75.5 40.5 31.5
      vertex -1.5 40.5 1.5
      vertex -75.5 40.5 1.5
    endloop
  endfacet
  facet normal -1 0 0
    outer loop
      vertex -39.25 21 1.5
      vertex -39.25 39 31.5
      vertex -39.25 39 1.5
    endloop
  endfacet
  facet normal -1 -0 0
    outer loop
      vertex -39.25 39 31.5
      vertex -39.25 21 1.5
      vertex -39.25 21 31.5
    endloop
  endfacet
  facet normal 0 -1 0
    outer loop
      vertex -75.5 39 1.5
      vertex -39.25 39 31.5
      vertex -75.5 39 31.5
    endloop
  endfacet
  facet normal 0 -1 -0
    outer loop
      vertex -39.25 39 31.5
      vertex -75.5 39 1.5
      vertex -39.25 39 1.5
    endloop
  endfacet
  facet normal 0 -1 0
    outer loop
      vertex -37.75 39 1.5
      vertex -1.5 39 31.5
      vertex -37.75 39 31.5
    endloop
  endfacet
  facet normal 0 -1 -0
    outer loop
      vertex -1.5 39 31.5
      vertex -37.75 39 1.5
      vertex -1.5 39 1.5
    endloop
  endfacet
  facet normal 1 -0 0
    outer loop
      vertex -37.75 21 31.5
      vertex -37.75 39 1.5
      vertex -37.75 39 31.5
    endloop
  endfacet
  facet normal 1 0 0
    outer loop
      vertex -37.75 39 1.5
      vertex -37.75 21 31.5
      vertex -37.75 21 1.5
    endloop
  endfacet
  facet normal -0 0 1
    outer loop
      vertex -37.75 39 1.5
      vertex -1.5 21 1.5
      vertex -1.5 39 1.5
    endloop
  endfacet
  facet normal 0 0 1
    outer loop
      vertex -1.5 21 1.5
      vertex -37.75 39 1.5
      vertex -37.75 21 1.5
    endloop
  endfacet
  facet normal -1 0 0
    outer loop
      vertex -1.5 21 1.5
      vertex -1.5 39 31.5
      vertex -1.5 39 1.5
    endloop
  endfacet
  facet normal -1 -0 0
    outer loop
      vertex -1.5 39 31.5
      vertex -1.5 21 1.5
      vertex -1.5 21 31.5
    endloop
  endfacet
  facet normal 1 -0 0
    outer loop
      vertex -75.5 21 31.5
      vertex -75.5 39 1.5
      vertex -75.5 39 31.5
    endloop
  endfacet
  facet normal 1 0 0
    outer loop
      vertex -75.5 39 1.5
      vertex -75.5 21 31.5
      vertex -75.5 21 1.5
    endloop
  endfacet
  facet normal -0 0 1
    outer loop
      vertex -75.5 39 1.5
      vertex -39.25 21 1.5
      vertex -39.25 39 1.5
    endloop
  endfacet
  facet normal 0 0 1
    outer loop
      vertex -39.25 21 1.5
      vertex -75.5 39 1.5
      vertex -75.5 21 1.5
    endloop
  endfacet
  facet normal 0 -1 0
    outer loop
      vertex -75.5 54.9 1.5
      vertex -1.5 54.9 31.5
      vertex -75.5 54.9 31.5
    endloop
  endfacet
  facet normal 0 -1 -0
    outer loop
      vertex -1.5 54.9 31.5
      vertex -75.5 54.9 1.5
      vertex -1.5 54.9 1.5
    endloop
  endfacet
  facet normal 1 -0 0
    outer loop
      vertex -75.5 40.5 31.5
      vertex -75.5 54.9 1.5
      vertex -75.5 54.9 31.5
    endloop
  endfacet
  facet normal 1 0 0
    outer loop
      vertex -75.5 54.9 1.5
      vertex -75.5 40.5 31.5
      vertex -75.5 40.5 1.5
    endloop
  endfacet
  facet normal -0 0 1
    outer loop
      vertex -75.5 54.9 1.5
      vertex -1.5 40.5 1.5
      vertex -1.5 54.9 1.5
    endloop
  endfacet
  facet normal 0 0 1
    outer loop
      vertex -1.5 40.5 1.5
      vertex -75.5 54.9 1.5
      vertex -75.5 40.5 1.5
    endloop
  endfacet
  facet normal -1 0 0
    outer loop
      vertex -1.5 40.5 1.5
      vertex -1.5 54.9 31.5
      vertex -1.5 54.9 1.5
    endloop
  endfacet
  facet normal -1 -0 0
    outer loop
      vertex -1.5 54.9 31.5
      vertex -1.5 40.5 1.5
      vertex -1.5 40.5 31.5
    endloop
  endfacet
  facet normal 0 1 -0
    outer loop
      vertex -1.5 56.4 1.5
      vertex -75.5 56.4 31.5
      vertex -1.5 56.4 31.5
    endloop
  endfacet
  facet normal 0 1 0
    outer loop
      vertex -75.5 56.4 31.5
      vertex -1.5 56.4 1.5
      vertex -75.5 56.4 1.5
    endloop
  endfacet
  facet normal 0 -1 0
    outer loop
      vertex -75.5 70.8 1.5
      vertex -1.5 70.8 31.5
      vertex -75.5 70.8 31.5
    endloop
  endfacet
  facet normal 0 -1 -0
    outer loop
      vertex -1.5 70.8 31.5
      vertex -75.5 70.8 1.5
      vertex -1.5 70.8 1.5
    endloop
  endfacet
  facet normal 1 -0 0
    outer loop
      vertex -75.5 56.4 31.5
      vertex -75.5 70.8 1.5
      vertex -75.5 70.8 31.5
    endloop
  endfacet
  facet normal 1 0 0
    outer loop
      vertex -75.5 70.8 1.5
      vertex -75.5 56.4 31.5
      vertex -75.5 56.4 1.5
    endloop
  endfacet
  facet normal -0 0 1
    outer loop
      vertex -75.5 70.8 1.5
      vertex -1.5 56.4 1.5
      vertex -1.5 70.8 1.5
    endloop
  endfacet
  facet normal 0 0 1
    outer loop
      vertex -1.5 56.4 1.5
      vertex -75.5 70.8 1.5
      vertex -75.5 56.4 1.5
    endloop
  endfacet
  facet normal -1 0 0
    outer loop
      vertex -1.5 56.4 1.5
      vertex -1.5 70.8 31.5
      vertex -1.5 70.8 1.5
    endloop
  endfacet
  facet normal -1 -0 0
    outer loop
      vertex -1.5 70.8 31.5
      vertex -1.5 56.4 1.5
      vertex -1.5 56.4 31.5
    endloop
  endfacet
  facet normal 0 1 -0
    outer loop
      vertex -1.5 91.8 1.5
      vertex -75.5 91.8 31.5
      vertex -1.5 91.8 31.5
    endloop
  endfacet
  facet normal 0 1 0
    outer loop
      vertex -75.5 91.8 31.5
      vertex -1.5 91.8 1.5
      vertex -75.5 91.8 1.5
    endloop
  endfacet
  facet normal 0 1 -0
    outer loop
      vertex -1.5 72.3 1.5
      vertex -75.5 72.3 31.5
      vertex -1.5 72.3 31.5
    endloop
  endfacet
  facet normal 0 1 0
    outer loop
      vertex -75.5 72.3 31.5
      vertex -1.5 72.3 1.5
      vertex -75.5 72.3 1.5
    endloop
  endfacet
  facet normal 0 -1 0
    outer loop
      vertex -75.5 90.3 1.5
      vertex -1.5 90.3 31.5
      vertex -75.5 90.3 31.5
    endloop
  endfacet
  facet normal 0 -1 -0
    outer loop
      vertex -1.5 90.3 31.5
      vertex -75.5 90.3 1.5
      vertex -1.5 90.3 1.5
    endloop
  endfacet
  facet normal -0 0 1
    outer loop
      vertex -75.5 90.3 1.5
      vertex -1.5 72.3 1.5
      vertex -1.5 90.3 1.5
    endloop
  endfacet
  facet normal 0 0 1
    outer loop
      vertex -1.5 72.3 1.5
      vertex -75.5 90.3 1.5
      vertex -75.5 72.3 1.5
    endloop
  endfacet
  facet normal -1 0 0
    outer loop
      vertex -1.5 72.3 1.5
      vertex -1.5 90.3 31.5
      vertex -1.5 90.3 1.5
    endloop
  endfacet
  facet normal -1 -0 0
    outer loop
      vertex -1.5 90.3 31.5
      vertex -1.5 72.3 1.5
      vertex -1.5 72.3 31.5
    endloop
  endfacet
  facet normal 1 -0 0
    outer loop
      vertex -75.5 72.3 31.5
      vertex -75.5 90.3 1.5
      vertex -75.5 90.3 31.5
    endloop
  endfacet
  facet normal 1 0 0
    outer loop
      vertex -75.5 90.3 1.5
      vertex -75.5 72.3 31.5
      vertex -75.5 72.3 1.5
    endloop
  endfacet
  facet normal 0 1 -0
    outer loop
      vertex -1.5 111.3 1.5
      vertex -75.5 111.3 31.5
      vertex -1.5 111.3 31.5
    endloop
  endfacet
  facet normal 0 1 0
    outer loop
      vertex -75.5 111.3 31.5
      vertex -1.5 111.3 1.5
      vertex -75.5 111.3 1.5
    endloop
  endfacet
  facet normal 0 -1 0
    outer loop
      vertex -75.5 109.8 1.5
      vertex -1.5 109.8 31.5
      vertex -75.5 109.8 31.5
    endloop
  endfacet
  facet normal 0 -1 -0
    outer loop
      vertex -1.5 109.8 31.5
      vertex -75.5 109.8 1.5
      vertex -1.5 109.8 1.5
    endloop
  endfacet
  facet normal -0 0 1
    outer loop
      vertex -75.5 109.8 1.5
      vertex -1.5 91.8 1.5
      vertex -1.5 109.8 1.5
    endloop
  endfacet
  facet normal 0 0 1
    outer loop
      vertex -1.5 91.8 1.5
      vertex -75.5 109.8 1.5
      vertex -75.5 91.8 1.5
    endloop
  endfacet
  facet normal -1 0 0
    outer loop
      vertex -1.5 91.8 1.5
      vertex -1.5 109.8 31.5
      vertex -1.5 109.8 1.5
    endloop
  endfacet
  facet normal -1 -0 0
    outer loop
      vertex -1.5 109.8 31.5
      vertex -1.5 91.8 1.5
      vertex -1.5 91.8 31.5
    endloop
  endfacet
  facet normal 1 -0 0
    outer loop
      vertex -75.5 91.8 31.5
      vertex -75.5 109.8 1.5
      vertex -75.5 109.8 31.5
    endloop
  endfacet
  facet normal 1 0 0
    outer loop
      vertex -75.5 109.8 1.5
      vertex -75.5 91.8 31.5
      vertex -75.5 91.8 1.5
    endloop
  endfacet
  facet normal 0 -1 0
    outer loop
      vertex -75.5 129.3 1.5
      vertex -1.5 129.3 31.5
      vertex -75.5 129.3 31.5
    endloop
  endfacet
  facet normal 0 -1 -0
    outer loop
      vertex -1.5 129.3 31.5
      vertex -75.5 129.3 1.5
      vertex -1.5 129.3 1.5
    endloop
  endfacet
  facet normal -0 0 1
    outer loop
      vertex -75.5 129.3 1.5
      vertex -1.5 111.3 1.5
      vertex -1.5 129.3 1.5
    endloop
  endfacet
  facet normal 0 0 1
    outer loop
      vertex -1.5 111.3 1.5
      vertex -75.5 129.3 1.5
      vertex -75.5 111.3 1.5
    endloop
  endfacet
  facet normal -1 0 0
    outer loop
      vertex -1.5 111.3 1.5
      vertex -1.5 129.3 31.5
      vertex -1.5 129.3 1.5
    endloop
  endfacet
  facet normal -1 -0 0
    outer loop
      vertex -1.5 129.3 31.5
      vertex -1.5 111.3 1.5
      vertex -1.5 111.3 31.5
    endloop
  endfacet
  facet normal 1 -0 0
    outer loop
      vertex -75.5 111.3 31.5
      vertex -75.5 129.3 1.5
      vertex -75.5 129.3 31.5
    endloop
  endfacet
  facet normal 1 0 0
    outer loop
      vertex -75.5 129.3 1.5
      vertex -75.5 111.3 31.5
      vertex -75.5 111.3 1.5
    endloop
  endfacet
  facet normal 0 1 -0
    outer loop
      vertex -1.5 150.3 1.5
      vertex -75.5 150.3 31.5
      vertex -1.5 150.3 31.5
    endloop
  endfacet
  facet normal 0 1 0
    outer loop
      vertex -75.5 150.3 31.5
      vertex -1.5 150.3 1.5
      vertex -75.5 150.3 1.5
    endloop
  endfacet
  facet normal 0 1 -0
    outer loop
      vertex -1.5 130.8 1.5
      vertex -75.5 130.8 31.5
      vertex -1.5 130.8 31.5
    endloop
  endfacet
  facet normal 0 1 0
    outer loop
      vertex -75.5 130.8 31.5
      vertex -1.5 130.8 1.5
      vertex -75.5 130.8 1.5
    endloop
  endfacet
  facet normal -0 0 1
    outer loop
      vertex -75.5 148.8 1.5
      vertex -1.5 130.8 1.5
      vertex -1.5 148.8 1.5
    endloop
  endfacet
  facet normal 0 0 1
    outer loop
      vertex -1.5 130.8 1.5
      vertex -75.5 148.8 1.5
      vertex -75.5 130.8 1.5
    endloop
  endfacet
  facet normal -1 0 0
    outer loop
      vertex -1.5 130.8 1.5
      vertex -1.5 148.8 31.5
      vertex -1.5 148.8 1.5
    endloop
  endfacet
  facet normal -1 -0 0
    outer loop
      vertex -1.5 148.8 31.5
      vertex -1.5 130.8 1.5
      vertex -1.5 130.8 31.5
    endloop
  endfacet
  facet normal 1 -0 0
    outer loop
      vertex -75.5 130.8 31.5
      vertex -75.5 148.8 1.5
      vertex -75.5 148.8 31.5
    endloop
  endfacet
  facet normal 1 0 0
    outer loop
      vertex -75.5 148.8 1.5
      vertex -75.5 130.8 31.5
      vertex -75.5 130.8 1.5
    endloop
  endfacet
  facet normal 0 -1 0
    outer loop
      vertex -75.5 148.8 1.5
      vertex -1.5 148.8 31.5
      vertex -75.5 148.8 31.5
    endloop
  endfacet
  facet normal 0 -1 -0
    outer loop
      vertex -1.5 148.8 31.5
      vertex -75.5 148.8 1.5
      vertex -1.5 148.8 1.5
    endloop
  endfacet
  facet normal 0 1 -0
    outer loop
      vertex -1.5 169.8 1.5
      vertex -75.5 169.8 31.5
      vertex -1.5 169.8 31.5
    endloop
  endfacet
  facet normal 0 1 0
    outer loop
      vertex -75.5 169.8 31.5
      vertex -1.5 169.8 1.5
      vertex -75.5 169.8 1.5
    endloop
  endfacet
  facet normal 0 -1 0
    outer loop
      vertex -75.5 168.3 1.5
      vertex -1.5 168.3 31.5
      vertex -75.5 168.3 31.5
    endloop
  endfacet
  facet normal 0 -1 -0
    outer loop
      vertex -1.5 168.3 31.5
      vertex -75.5 168.3 1.5
      vertex -1.5 168.3 1.5
    endloop
  endfacet
  facet normal -0 0 1
    outer loop
      vertex -75.5 168.3 1.5
      vertex -1.5 150.3 1.5
      vertex -1.5 168.3 1.5
    endloop
  endfacet
  facet normal 0 0 1
    outer loop
      vertex -1.5 150.3 1.5
      vertex -75.5 168.3 1.5
      vertex -75.5 150.3 1.5
    endloop
  endfacet
  facet normal -1 0 0
    outer loop
      vertex -1.5 150.3 1.5
      vertex -1.5 168.3 31.5
      vertex -1.5 168.3 1.5
    endloop
  endfacet
  facet normal -1 -0 0
    outer loop
      vertex -1.5 168.3 31.5
      vertex -1.5 150.3 1.5
      vertex -1.5 150.3 31.5
    endloop
  endfacet
  facet normal 1 -0 0
    outer loop
      vertex -75.5 150.3 31.5
      vertex -75.5 168.3 1.5
      vertex -75.5 168.3 31.5
    endloop
  endfacet
  facet normal 1 0 0
    outer loop
      vertex -75.5 168.3 1.5
      vertex -75.5 150.3 31.5
      vertex -75.5 150.3 1.5
    endloop
  endfacet
  facet normal 0 1 -0
    outer loop
      vertex -1.5 189.3 1.5
      vertex -75.5 189.3 31.5
      vertex -1.5 189.3 31.5
    endloop
  endfacet
  facet normal 0 1 0
    outer loop
      vertex -75.5 189.3 31.5
      vertex -1.5 189.3 1.5
      vertex -75.5 189.3 1.5
    endloop
  endfacet
  facet normal 0 -1 0
    outer loop
      vertex -75.5 187.8 1.5
      vertex -1.5 187.8 31.5
      vertex -75.5 187.8 31.5
    endloop
  endfacet
  facet normal 0 -1 -0
    outer loop
      vertex -1.5 187.8 31.5
      vertex -75.5 187.8 1.5
      vertex -1.5 187.8 1.5
    endloop
  endfacet
  facet normal -0 0 1
    outer loop
      vertex -75.5 187.8 1.5
      vertex -1.5 169.8 1.5
      vertex -1.5 187.8 1.5
    endloop
  endfacet
  facet normal 0 0 1
    outer loop
      vertex -1.5 169.8 1.5
      vertex -75.5 187.8 1.5
      vertex -75.5 169.8 1.5
    endloop
  endfacet
  facet normal -1 0 0
    outer loop
      vertex -1.5 169.8 1.5
      vertex -1.5 187.8 31.5
      vertex -1.5 187.8 1.5
    endloop
  endfacet
  facet normal -1 -0 0
    outer loop
      vertex -1.5 187.8 31.5
      vertex -1.5 169.8 1.5
      vertex -1.5 169.8 31.5
    endloop
  endfacet
  facet normal 1 -0 0
    outer loop
      vertex -75.5 169.8 31.5
      vertex -75.5 187.8 1.5
      vertex -75.5 187.8 31.5
    endloop
  endfacet
  facet normal 1 0 0
    outer loop
      vertex -75.5 187.8 1.5
      vertex -75.5 169.8 31.5
      vertex -75.5 169.8 1.5
    endloop
  endfacet
  facet normal 0 1 -0
    outer loop
      vertex -1.5 208.8 1.5
      vertex -75.5 208.8 31.5
      vertex -1.5 208.8 31.5
    endloop
  endfacet
  facet normal 0 1 0
    outer loop
      vertex -75.5 208.8 31.5
      vertex -1.5 208.8 1.5
      vertex -75.5 208.8 1.5
    endloop
  endfacet
  facet normal 0 -1 0
    outer loop
      vertex -75.5 207.3 1.5
      vertex -1.5 207.3 31.5
      vertex -75.5 207.3 31.5
    endloop
  endfacet
  facet normal 0 -1 -0
    outer loop
      vertex -1.5 207.3 31.5
      vertex -75.5 207.3 1.5
      vertex -1.5 207.3 1.5
    endloop
  endfacet
  facet normal -0 0 1
    outer loop
      vertex -75.5 207.3 1.5
      vertex -1.5 189.3 1.5
      vertex -1.5 207.3 1.5
    endloop
  endfacet
  facet normal 0 0 1
    outer loop
      vertex -1.5 189.3 1.5
      vertex -75.5 207.3 1.5
      vertex -75.5 189.3 1.5
    endloop
  endfacet
  facet normal -1 0 0
    outer loop
      vertex -1.5 189.3 1.5
      vertex -1.5 207.3 31.5
      vertex -1.5 207.3 1.5
    endloop
  endfacet
  facet normal -1 -0 0
    outer loop
      vertex -1.5 207.3 31.5
      vertex -1.5 189.3 1.5
      vertex -1.5 189.3 31.5
    endloop
  endfacet
  facet normal 1 -0 0
    outer loop
      vertex -75.5 189.3 31.5
      vertex -75.5 207.3 1.5
      vertex -75.5 207.3 31.5
    endloop
  endfacet
  facet normal 1 0 0
    outer loop
      vertex -75.5 207.3 1.5
      vertex -75.5 189.3 31.5
      vertex -75.5 189.3 1.5
    endloop
  endfacet
  facet normal 0 1 -0
    outer loop
      vertex -9.94522 228.3 0
      vertex -67.0548 228.3 0.299999
      vertex -9.94522 228.3 0.299999
    endloop
  endfacet
  facet normal 0 1 0
    outer loop
      vertex -67.0548 228.3 0.299999
      vertex -9.94522 228.3 0
      vertex -67.0548 228.3 0
    endloop
  endfacet
  facet normal 0 1 0
    outer loop
      vertex -9.94522 228.3 0.299999
      vertex 5.06928e-14 228.3 31.5
      vertex 5.06928e-14 228.3 0.299999
    endloop
  endfacet
  facet normal 0 1 0
    outer loop
      vertex 5.06928e-14 228.3 31.5
      vertex -9.94522 228.3 0.299999
      vertex -77 228.3 31.5
    endloop
  endfacet
  facet normal 0 1 -0
    outer loop
      vertex -67.0548 228.3 0.299999
      vertex -77 228.3 31.5
      vertex -9.94522 228.3 0.299999
    endloop
  endfacet
  facet normal 0 1 0
    outer loop
      vertex -77 228.3 31.5
      vertex -67.0548 228.3 0.299999
      vertex -77 228.3 0.299999
    endloop
  endfacet
  facet normal 0 -1 0
    outer loop
      vertex -75.5 226.8 1.5
      vertex -1.5 226.8 31.5
      vertex -75.5 226.8 31.5
    endloop
  endfacet
  facet normal 0 -1 -0
    outer loop
      vertex -1.5 226.8 31.5
      vertex -75.5 226.8 1.5
      vertex -1.5 226.8 1.5
    endloop
  endfacet
  facet normal -0 0 1
    outer loop
      vertex -75.5 226.8 1.5
      vertex -1.5 208.8 1.5
      vertex -1.5 226.8 1.5
    endloop
  endfacet
  facet normal 0 0 1
    outer loop
      vertex -1.5 208.8 1.5
      vertex -75.5 226.8 1.5
      vertex -75.5 208.8 1.5
    endloop
  endfacet
  facet normal -1 0 0
    outer loop
      vertex -1.5 208.8 1.5
      vertex -1.5 226.8 31.5
      vertex -1.5 226.8 1.5
    endloop
  endfacet
  facet normal -1 -0 0
    outer loop
      vertex -1.5 226.8 31.5
      vertex -1.5 208.8 1.5
      vertex -1.5 208.8 31.5
    endloop
  endfacet
  facet normal 1 -0 0
    outer loop
      vertex -75.5 208.8 31.5
      vertex -75.5 226.8 1.5
      vertex -75.5 226.8 31.5
    endloop
  endfacet
  facet normal 1 0 0
    outer loop
      vertex -75.5 226.8 1.5
      vertex -75.5 208.8 31.5
      vertex -75.5 208.8 1.5
    endloop
  endfacet
  facet normal -0.309017 -0.951057 0
    outer loop
      vertex -4.06737 -9.13545 0
      vertex -2.07912 -9.78148 0.299999
      vertex -4.06737 -9.13545 0.299999
    endloop
  endfacet
  facet normal -0.309017 -0.951057 -0
    outer loop
      vertex -2.07912 -9.78148 0.299999
      vertex -4.06737 -9.13545 0
      vertex -2.07912 -9.78148 0
    endloop
  endfacet
  facet normal -0.913545 -0.406737 0
    outer loop
      vertex -8.66025 -5 0
      vertex -9.51056 -3.09017 0.299999
      vertex -9.51056 -3.09017 0
    endloop
  endfacet
  facet normal -0.913545 -0.406737 0
    outer loop
      vertex -9.51056 -3.09017 0.299999
      vertex -8.66025 -5 0
      vertex -8.66025 -5 0.299999
    endloop
  endfacet
  facet normal 0.104529 0.994522 -0
    outer loop
      vertex 2.07912 9.78148 0
      vertex 2.22045e-15 10 0.299999
      vertex 2.07912 9.78148 0.299999
    endloop
  endfacet
  facet normal 0.104529 0.994522 0
    outer loop
      vertex 2.22045e-15 10 0.299999
      vertex 2.07912 9.78148 0
      vertex 2.22045e-15 10 0
    endloop
  endfacet
  facet normal -1 0 0
    outer loop
      vertex -9.94522 -1.04528 0
      vertex -9.94522 2.20828e-15 0.299999
      vertex -9.94522 2.20828e-15 0
    endloop
  endfacet
  facet normal -1 -0 0
    outer loop
      vertex -9.94522 2.20828e-15 0.299999
      vertex -9.94522 -1.04528 0
      vertex -9.94522 -1.04528 0.299999
    endloop
  endfacet
  facet normal -0.104529 -0.994522 0
    outer loop
      vertex -2.07912 -9.78148 0
      vertex -2.22045e-15 -10 0.299999
      vertex -2.07912 -9.78148 0.299999
    endloop
  endfacet
  facet normal -0.104529 -0.994522 -0
    outer loop
      vertex -2.22045e-15 -10 0.299999
      vertex -2.07912 -9.78148 0
      vertex -2.22045e-15 -10 0
    endloop
  endfacet
  facet normal -0.5 -0.866026 0
    outer loop
      vertex -5.87785 -8.09017 0
      vertex -4.06737 -9.13545 0.299999
      vertex -5.87785 -8.09017 0.299999
    endloop
  endfacet
  facet normal -0.5 -0.866026 -0
    outer loop
      vertex -4.06737 -9.13545 0.299999
      vertex -5.87785 -8.09017 0
      vertex -4.06737 -9.13545 0
    endloop
  endfacet
  facet normal -0.809017 -0.587785 0
    outer loop
      vertex -7.43145 -6.69131 0
      vertex -8.66025 -5 0.299999
      vertex -8.66025 -5 0
    endloop
  endfacet
  facet normal -0.809017 -0.587785 0
    outer loop
      vertex -8.66025 -5 0.299999
      vertex -7.43145 -6.69131 0
      vertex -7.43145 -6.69131 0.299999
    endloop
  endfacet
  facet normal -0.978148 -0.207911 0
    outer loop
      vertex -9.51056 -3.09017 0
      vertex -9.94522 -1.04528 0.299999
      vertex -9.94522 -1.04528 0
    endloop
  endfacet
  facet normal -0.978148 -0.207911 0
    outer loop
      vertex -9.94522 -1.04528 0.299999
      vertex -9.51056 -3.09017 0
      vertex -9.51056 -3.09017 0.299999
    endloop
  endfacet
  facet normal -0.669131 -0.743145 0
    outer loop
      vertex -7.43145 -6.69131 0
      vertex -5.87785 -8.09017 0.299999
      vertex -7.43145 -6.69131 0.299999
    endloop
  endfacet
  facet normal -0.669131 -0.743145 -0
    outer loop
      vertex -5.87785 -8.09017 0.299999
      vertex -7.43145 -6.69131 0
      vertex -5.87785 -8.09017 0
    endloop
  endfacet
  facet normal 0.978148 -0.207911 0
    outer loop
      vertex 9.51056 -3.09017 0.299999
      vertex 9.94522 -1.04528 0
      vertex 9.94522 -1.04528 0.299999
    endloop
  endfacet
  facet normal 0.978148 -0.207911 0
    outer loop
      vertex 9.94522 -1.04528 0
      vertex 9.51056 -3.09017 0.299999
      vertex 9.51056 -3.09017 0
    endloop
  endfacet
  facet normal 0.809017 0.587785 0
    outer loop
      vertex 8.66025 5 0.299999
      vertex 7.43145 6.69131 0
      vertex 7.43145 6.69131 0.299999
    endloop
  endfacet
  facet normal 0.809017 0.587785 0
    outer loop
      vertex 7.43145 6.69131 0
      vertex 8.66025 5 0.299999
      vertex 8.66025 5 0
    endloop
  endfacet
  facet normal 0 0 1
    outer loop
      vertex 0 0 0.299999
      vertex 9.94522 1.04528 0.299999
      vertex 9.51056 3.09017 0.299999
    endloop
  endfacet
  facet normal 0 0 1
    outer loop
      vertex 9.94522 1.04528 0.299999
      vertex 0 0 0.299999
      vertex 9.94522 -1.04528 0.299999
    endloop
  endfacet
  facet normal 0 0 1
    outer loop
      vertex 0 0 0.299999
      vertex 9.51056 3.09017 0.299999
      vertex 8.66025 5 0.299999
    endloop
  endfacet
  facet normal 0 0 1
    outer loop
      vertex 9.94522 -1.04528 0.299999
      vertex 0 0 0.299999
      vertex 9.51056 -3.09017 0.299999
    endloop
  endfacet
  facet normal 0 0 1
    outer loop
      vertex 0 0 0.299999
      vertex 8.66025 5 0.299999
      vertex 7.43145 6.69131 0.299999
    endloop
  endfacet
  facet normal 0 0 1
    outer loop
      vertex 9.51056 -3.09017 0.299999
      vertex 0 0 0.299999
      vertex 8.66025 -5 0.299999
    endloop
  endfacet
  facet normal 0 0 1
    outer loop
      vertex 0 0 0.299999
      vertex 7.43145 6.69131 0.299999
      vertex 5.87785 8.09017 0.299999
    endloop
  endfacet
  facet normal 0 0 1
    outer loop
      vertex 8.66025 -5 0.299999
      vertex 0 0 0.299999
      vertex 7.43145 -6.69131 0.299999
    endloop
  endfacet
  facet normal 0 0 1
    outer loop
      vertex 0 0 0.299999
      vertex 5.87785 8.09017 0.299999
      vertex 4.06737 9.13545 0.299999
    endloop
  endfacet
  facet normal 0 0 1
    outer loop
      vertex 7.43145 -6.69131 0.299999
      vertex 0 0 0.299999
      vertex 5.87785 -8.09017 0.299999
    endloop
  endfacet
  facet normal 0 0 1
    outer loop
      vertex 0 0 0.299999
      vertex 4.06737 9.13545 0.299999
      vertex 2.07912 9.78148 0.299999
    endloop
  endfacet
  facet normal 0 0 1
    outer loop
      vertex 5.87785 -8.09017 0.299999
      vertex 0 0 0.299999
      vertex 4.06737 -9.13545 0.299999
    endloop
  endfacet
  facet normal 0 0 1
    outer loop
      vertex 0 0 0.299999
      vertex 2.07912 9.78148 0.299999
      vertex 2.22045e-15 10 0.299999
    endloop
  endfacet
  facet normal 0 0 1
    outer loop
      vertex 4.06737 -9.13545 0.299999
      vertex 0 0 0.299999
      vertex 2.07912 -9.78148 0.299999
    endloop
  endfacet
  facet normal 0 0 1
    outer loop
      vertex 0 0 0.299999
      vertex -2.22045e-15 -10 0.299999
      vertex 2.07912 -9.78148 0.299999
    endloop
  endfacet
  facet normal 0 0 1
    outer loop
      vertex 0 0 0.299999
      vertex -2.07912 -9.78148 0.299999
      vertex -2.22045e-15 -10 0.299999
    endloop
  endfacet
  facet normal 0 0 1
    outer loop
      vertex 0 0 0.299999
      vertex -4.06737 -9.13545 0.299999
      vertex -2.07912 -9.78148 0.299999
    endloop
  endfacet
  facet normal 0 0 1
    outer loop
      vertex 0 0 0.299999
      vertex -5.87785 -8.09017 0.299999
      vertex -4.06737 -9.13545 0.299999
    endloop
  endfacet
  facet normal 0 0 1
    outer loop
      vertex 0 0 0.299999
      vertex -7.43145 -6.69131 0.299999
      vertex -5.87785 -8.09017 0.299999
    endloop
  endfacet
  facet normal 0 0 1
    outer loop
      vertex 0 0 0.299999
      vertex -8.66025 -5 0.299999
      vertex -7.43145 -6.69131 0.299999
    endloop
  endfacet
  facet normal 0 0 1
    outer loop
      vertex 0 0 0.299999
      vertex -9.51056 -3.09017 0.299999
      vertex -8.66025 -5 0.299999
    endloop
  endfacet
  facet normal 0 0 1
    outer loop
      vertex -9.94522 -1.04528 0.299999
      vertex 0 0 0.299999
      vertex -9.94522 2.20828e-15 0.299999
    endloop
  endfacet
  facet normal 0 0 1
    outer loop
      vertex 0 0 0.299999
      vertex -9.94522 -1.04528 0.299999
      vertex -9.51056 -3.09017 0.299999
    endloop
  endfacet
  facet normal 0.309017 0.951057 -0
    outer loop
      vertex 4.06737 9.13545 0
      vertex 2.07912 9.78148 0.299999
      vertex 4.06737 9.13545 0.299999
    endloop
  endfacet
  facet normal 0.309017 0.951057 0
    outer loop
      vertex 2.07912 9.78148 0.299999
      vertex 4.06737 9.13545 0
      vertex 2.07912 9.78148 0
    endloop
  endfacet
  facet normal 0.5 0.866026 -0
    outer loop
      vertex 5.87785 8.09017 0
      vertex 4.06737 9.13545 0.299999
      vertex 5.87785 8.09017 0.299999
    endloop
  endfacet
  facet normal 0.5 0.866026 0
    outer loop
      vertex 4.06737 9.13545 0.299999
      vertex 5.87785 8.09017 0
      vertex 4.06737 9.13545 0
    endloop
  endfacet
  facet normal 0.104529 -0.994522 0
    outer loop
      vertex -2.22045e-15 -10 0
      vertex 2.07912 -9.78148 0.299999
      vertex -2.22045e-15 -10 0.299999
    endloop
  endfacet
  facet normal 0.104529 -0.994522 0
    outer loop
      vertex 2.07912 -9.78148 0.299999
      vertex -2.22045e-15 -10 0
      vertex 2.07912 -9.78148 0
    endloop
  endfacet
  facet normal 0.978148 0.207911 0
    outer loop
      vertex 9.94522 1.04528 0.299999
      vertex 9.51056 3.09017 0
      vertex 9.51056 3.09017 0.299999
    endloop
  endfacet
  facet normal 0.978148 0.207911 0
    outer loop
      vertex 9.51056 3.09017 0
      vertex 9.94522 1.04528 0.299999
      vertex 9.94522 1.04528 0
    endloop
  endfacet
  facet normal 0.913545 0.406737 0
    outer loop
      vertex 9.51056 3.09017 0.299999
      vertex 8.66025 5 0
      vertex 8.66025 5 0.299999
    endloop
  endfacet
  facet normal 0.913545 0.406737 0
    outer loop
      vertex 8.66025 5 0
      vertex 9.51056 3.09017 0.299999
      vertex 9.51056 3.09017 0
    endloop
  endfacet
  facet normal 0.669131 0.743145 -0
    outer loop
      vertex 7.43145 6.69131 0
      vertex 5.87785 8.09017 0.299999
      vertex 7.43145 6.69131 0.299999
    endloop
  endfacet
  facet normal 0.669131 0.743145 0
    outer loop
      vertex 5.87785 8.09017 0.299999
      vertex 7.43145 6.69131 0
      vertex 5.87785 8.09017 0
    endloop
  endfacet
  facet normal 0.913545 -0.406737 0
    outer loop
      vertex 8.66025 -5 0.299999
      vertex 9.51056 -3.09017 0
      vertex 9.51056 -3.09017 0.299999
    endloop
  endfacet
  facet normal 0.913545 -0.406737 0
    outer loop
      vertex 9.51056 -3.09017 0
      vertex 8.66025 -5 0.299999
      vertex 8.66025 -5 0
    endloop
  endfacet
  facet normal 1 -0 0
    outer loop
      vertex 9.94522 -1.04528 0.299999
      vertex 9.94522 1.04528 0
      vertex 9.94522 1.04528 0.299999
    endloop
  endfacet
  facet normal 1 0 0
    outer loop
      vertex 9.94522 1.04528 0
      vertex 9.94522 -1.04528 0.299999
      vertex 9.94522 -1.04528 0
    endloop
  endfacet
  facet normal 0.309017 -0.951057 0
    outer loop
      vertex 2.07912 -9.78148 0
      vertex 4.06737 -9.13545 0.299999
      vertex 2.07912 -9.78148 0.299999
    endloop
  endfacet
  facet normal 0.309017 -0.951057 0
    outer loop
      vertex 4.06737 -9.13545 0.299999
      vertex 2.07912 -9.78148 0
      vertex 4.06737 -9.13545 0
    endloop
  endfacet
  facet normal 0.669131 -0.743145 0
    outer loop
      vertex 5.87785 -8.09017 0
      vertex 7.43145 -6.69131 0.299999
      vertex 5.87785 -8.09017 0.299999
    endloop
  endfacet
  facet normal 0.669131 -0.743145 0
    outer loop
      vertex 7.43145 -6.69131 0.299999
      vertex 5.87785 -8.09017 0
      vertex 7.43145 -6.69131 0
    endloop
  endfacet
  facet normal 0.5 -0.866026 0
    outer loop
      vertex 4.06737 -9.13545 0
      vertex 5.87785 -8.09017 0.299999
      vertex 4.06737 -9.13545 0.299999
    endloop
  endfacet
  facet normal 0.5 -0.866026 0
    outer loop
      vertex 5.87785 -8.09017 0.299999
      vertex 4.06737 -9.13545 0
      vertex 5.87785 -8.09017 0
    endloop
  endfacet
  facet normal 0.809017 -0.587785 0
    outer loop
      vertex 7.43145 -6.69131 0.299999
      vertex 8.66025 -5 0
      vertex 8.66025 -5 0.299999
    endloop
  endfacet
  facet normal 0.809017 -0.587785 0
    outer loop
      vertex 8.66025 -5 0
      vertex 7.43145 -6.69131 0.299999
      vertex 7.43145 -6.69131 0
    endloop
  endfacet
  facet normal -0.500001 0.866025 0
    outer loop
      vertex -4.06737 237.435 0
      vertex -5.87785 236.39 0.299999
      vertex -4.06737 237.435 0.299999
    endloop
  endfacet
  facet normal -0.500001 0.866025 0
    outer loop
      vertex -5.87785 236.39 0.299999
      vertex -4.06737 237.435 0
      vertex -5.87785 236.39 0
    endloop
  endfacet
  facet normal -0.309019 0.951056 0
    outer loop
      vertex -2.07912 238.081 0
      vertex -4.06737 237.435 0.299999
      vertex -2.07912 238.081 0.299999
    endloop
  endfacet
  facet normal -0.309019 0.951056 0
    outer loop
      vertex -4.06737 237.435 0.299999
      vertex -2.07912 238.081 0
      vertex -4.06737 237.435 0
    endloop
  endfacet
  facet normal -0.913546 0.406736 0
    outer loop
      vertex -9.51056 231.39 0
      vertex -8.66025 233.3 0.299999
      vertex -8.66025 233.3 0
    endloop
  endfacet
  facet normal -0.913546 0.406736 0
    outer loop
      vertex -8.66025 233.3 0.299999
      vertex -9.51056 231.39 0
      vertex -9.51056 231.39 0.299999
    endloop
  endfacet
  facet normal 0.104527 0.994522 -0
    outer loop
      vertex 2.07912 238.081 0
      vertex 5.29132e-14 238.3 0.299999
      vertex 2.07912 238.081 0.299999
    endloop
  endfacet
  facet normal 0.104527 0.994522 0
    outer loop
      vertex 5.29132e-14 238.3 0.299999
      vertex 2.07912 238.081 0
      vertex 5.29132e-14 238.3 0
    endloop
  endfacet
  facet normal -0.669131 0.743145 0
    outer loop
      vertex -5.87785 236.39 0
      vertex -7.43145 234.991 0.299999
      vertex -5.87785 236.39 0.299999
    endloop
  endfacet
  facet normal -0.669131 0.743145 0
    outer loop
      vertex -7.43145 234.991 0.299999
      vertex -5.87785 236.39 0
      vertex -7.43145 234.991 0
    endloop
  endfacet
  facet normal -1 0 0
    outer loop
      vertex -9.94522 228.3 0
      vertex -9.94522 229.345 0.299999
      vertex -9.94522 229.345 0
    endloop
  endfacet
  facet normal -1 -0 0
    outer loop
      vertex -9.94522 229.345 0.299999
      vertex -9.94522 228.3 0
      vertex -9.94522 228.3 0.299999
    endloop
  endfacet
  facet normal -0.809016 0.587787 0
    outer loop
      vertex -8.66025 233.3 0
      vertex -7.43145 234.991 0.299999
      vertex -7.43145 234.991 0
    endloop
  endfacet
  facet normal -0.809016 0.587787 0
    outer loop
      vertex -7.43145 234.991 0.299999
      vertex -8.66025 233.3 0
      vertex -8.66025 233.3 0.299999
    endloop
  endfacet
  facet normal -0.104527 0.994522 0
    outer loop
      vertex 5.29132e-14 238.3 0
      vertex -2.07912 238.081 0.299999
      vertex 5.29132e-14 238.3 0.299999
    endloop
  endfacet
  facet normal -0.104527 0.994522 0
    outer loop
      vertex -2.07912 238.081 0.299999
      vertex 5.29132e-14 238.3 0
      vertex -2.07912 238.081 0
    endloop
  endfacet
  facet normal 0.809016 0.587787 0
    outer loop
      vertex 8.66025 233.3 0.299999
      vertex 7.43145 234.991 0
      vertex 7.43145 234.991 0.299999
    endloop
  endfacet
  facet normal 0.809016 0.587787 0
    outer loop
      vertex 7.43145 234.991 0
      vertex 8.66025 233.3 0.299999
      vertex 8.66025 233.3 0
    endloop
  endfacet
  facet normal 0.309019 0.951056 -0
    outer loop
      vertex 4.06737 237.435 0
      vertex 2.07912 238.081 0.299999
      vertex 4.06737 237.435 0.299999
    endloop
  endfacet
  facet normal 0.309019 0.951056 0
    outer loop
      vertex 2.07912 238.081 0.299999
      vertex 4.06737 237.435 0
      vertex 2.07912 238.081 0
    endloop
  endfacet
  facet normal -0.978147 0.207912 0
    outer loop
      vertex -9.94522 229.345 0
      vertex -9.51056 231.39 0.299999
      vertex -9.51056 231.39 0
    endloop
  endfacet
  facet normal -0.978147 0.207912 0
    outer loop
      vertex -9.51056 231.39 0.299999
      vertex -9.94522 229.345 0
      vertex -9.94522 229.345 0.299999
    endloop
  endfacet
  facet normal -0 0 1
    outer loop
      vertex -2.07912 238.081 0.299999
      vertex 5.06928e-14 228.3 0.299999
      vertex 5.29132e-14 238.3 0.299999
    endloop
  endfacet
  facet normal -0 0 1
    outer loop
      vertex -4.06737 237.435 0.299999
      vertex 5.06928e-14 228.3 0.299999
      vertex -2.07912 238.081 0.299999
    endloop
  endfacet
  facet normal -0 0 1
    outer loop
      vertex -5.87785 236.39 0.299999
      vertex 5.06928e-14 228.3 0.299999
      vertex -4.06737 237.435 0.299999
    endloop
  endfacet
  facet normal -0 0 1
    outer loop
      vertex -7.43145 234.991 0.299999
      vertex 5.06928e-14 228.3 0.299999
      vertex -5.87785 236.39 0.299999
    endloop
  endfacet
  facet normal -0 0 1
    outer loop
      vertex -8.66025 233.3 0.299999
      vertex 5.06928e-14 228.3 0.299999
      vertex -7.43145 234.991 0.299999
    endloop
  endfacet
  facet normal -0 0 1
    outer loop
      vertex -9.51056 231.39 0.299999
      vertex 5.06928e-14 228.3 0.299999
      vertex -8.66025 233.3 0.299999
    endloop
  endfacet
  facet normal -0 0 1
    outer loop
      vertex -9.94522 229.345 0.299999
      vertex 5.06928e-14 228.3 0.299999
      vertex -9.51056 231.39 0.299999
    endloop
  endfacet
  facet normal 0 0 1
    outer loop
      vertex 5.06928e-14 228.3 0.299999
      vertex -9.94522 229.345 0.299999
      vertex -9.94522 228.3 0.299999
    endloop
  endfacet
  facet normal 0 0 1
    outer loop
      vertex 5.06928e-14 228.3 0.299999
      vertex 9.94522 229.345 0.299999
      vertex 9.51056 231.39 0.299999
    endloop
  endfacet
  facet normal 0 0 1
    outer loop
      vertex 9.94522 229.345 0.299999
      vertex 5.06928e-14 228.3 0.299999
      vertex 9.94522 227.255 0.299999
    endloop
  endfacet
  facet normal 0 0 1
    outer loop
      vertex 5.06928e-14 228.3 0.299999
      vertex 9.51056 231.39 0.299999
      vertex 8.66025 233.3 0.299999
    endloop
  endfacet
  facet normal 0 0 1
    outer loop
      vertex 9.94522 227.255 0.299999
      vertex 5.06928e-14 228.3 0.299999
      vertex 9.51056 225.21 0.299999
    endloop
  endfacet
  facet normal 0 0 1
    outer loop
      vertex 5.06928e-14 228.3 0.299999
      vertex 8.66025 233.3 0.299999
      vertex 7.43145 234.991 0.299999
    endloop
  endfacet
  facet normal 0 0 1
    outer loop
      vertex 9.51056 225.21 0.299999
      vertex 5.06928e-14 228.3 0.299999
      vertex 8.66025 223.3 0.299999
    endloop
  endfacet
  facet normal 0 0 1
    outer loop
      vertex 5.06928e-14 228.3 0.299999
      vertex 7.43145 234.991 0.299999
      vertex 5.87785 236.39 0.299999
    endloop
  endfacet
  facet normal 0 0 1
    outer loop
      vertex 8.66025 223.3 0.299999
      vertex 5.06928e-14 228.3 0.299999
      vertex 7.43145 221.609 0.299999
    endloop
  endfacet
  facet normal 0 0 1
    outer loop
      vertex 5.06928e-14 228.3 0.299999
      vertex 5.87785 236.39 0.299999
      vertex 4.06737 237.435 0.299999
    endloop
  endfacet
  facet normal 0 0 1
    outer loop
      vertex 7.43145 221.609 0.299999
      vertex 5.06928e-14 228.3 0.299999
      vertex 5.87785 220.21 0.299999
    endloop
  endfacet
  facet normal 0 0 1
    outer loop
      vertex 5.06928e-14 228.3 0.299999
      vertex 4.06737 237.435 0.299999
      vertex 2.07912 238.081 0.299999
    endloop
  endfacet
  facet normal 0 0 1
    outer loop
      vertex 5.87785 220.21 0.299999
      vertex 5.06928e-14 228.3 0.299999
      vertex 4.06737 219.165 0.299999
    endloop
  endfacet
  facet normal 0 0 1
    outer loop
      vertex 5.06928e-14 228.3 0.299999
      vertex 2.07912 238.081 0.299999
      vertex 5.29132e-14 238.3 0.299999
    endloop
  endfacet
  facet normal 0 0 1
    outer loop
      vertex 4.06737 219.165 0.299999
      vertex 5.06928e-14 228.3 0.299999
      vertex 2.07912 218.519 0.299999
    endloop
  endfacet
  facet normal 0 0 1
    outer loop
      vertex 2.07912 218.519 0.299999
      vertex 5.06928e-14 228.3 0.299999
      vertex 4.84723e-14 218.3 0.299999
    endloop
  endfacet
  facet normal 0.978148 -0.207911 0
    outer loop
      vertex 9.51056 225.21 0.299999
      vertex 9.94522 227.255 0
      vertex 9.94522 227.255 0.299999
    endloop
  endfacet
  facet normal 0.978148 -0.207911 0
    outer loop
      vertex 9.94522 227.255 0
      vertex 9.51056 225.21 0.299999
      vertex 9.51056 225.21 0
    endloop
  endfacet
  facet normal 0.104527 -0.994522 0
    outer loop
      vertex 4.84723e-14 218.3 0
      vertex 2.07912 218.519 0.299999
      vertex 4.84723e-14 218.3 0.299999
    endloop
  endfacet
  facet normal 0.104527 -0.994522 0
    outer loop
      vertex 2.07912 218.519 0.299999
      vertex 4.84723e-14 218.3 0
      vertex 2.07912 218.519 0
    endloop
  endfacet
  facet normal 0.499996 -0.866028 0
    outer loop
      vertex 4.06737 219.165 0
      vertex 5.87785 220.21 0.299999
      vertex 4.06737 219.165 0.299999
    endloop
  endfacet
  facet normal 0.499996 -0.866028 0
    outer loop
      vertex 5.87785 220.21 0.299999
      vertex 4.06737 219.165 0
      vertex 5.87785 220.21 0
    endloop
  endfacet
  facet normal 0.978147 0.207912 0
    outer loop
      vertex 9.94522 229.345 0.299999
      vertex 9.51056 231.39 0
      vertex 9.51056 231.39 0.299999
    endloop
  endfacet
  facet normal 0.978147 0.207912 0
    outer loop
      vertex 9.51056 231.39 0
      vertex 9.94522 229.345 0.299999
      vertex 9.94522 229.345 0
    endloop
  endfacet
  facet normal 0.913546 0.406736 0
    outer loop
      vertex 9.51056 231.39 0.299999
      vertex 8.66025 233.3 0
      vertex 8.66025 233.3 0.299999
    endloop
  endfacet
  facet normal 0.913546 0.406736 0
    outer loop
      vertex 8.66025 233.3 0
      vertex 9.51056 231.39 0.299999
      vertex 9.51056 231.39 0
    endloop
  endfacet
  facet normal 0.669131 0.743145 -0
    outer loop
      vertex 7.43145 234.991 0
      vertex 5.87785 236.39 0.299999
      vertex 7.43145 234.991 0.299999
    endloop
  endfacet
  facet normal 0.669131 0.743145 0
    outer loop
      vertex 5.87785 236.39 0.299999
      vertex 7.43145 234.991 0
      vertex 5.87785 236.39 0
    endloop
  endfacet
  facet normal 0.500001 0.866025 -0
    outer loop
      vertex 5.87785 236.39 0
      vertex 4.06737 237.435 0.299999
      vertex 5.87785 236.39 0.299999
    endloop
  endfacet
  facet normal 0.500001 0.866025 0
    outer loop
      vertex 4.06737 237.435 0.299999
      vertex 5.87785 236.39 0
      vertex 4.06737 237.435 0
    endloop
  endfacet
  facet normal 0.809018 -0.587783 0
    outer loop
      vertex 7.43145 221.609 0.299999
      vertex 8.66025 223.3 0
      vertex 8.66025 223.3 0.299999
    endloop
  endfacet
  facet normal 0.809018 -0.587783 0
    outer loop
      vertex 8.66025 223.3 0
      vertex 7.43145 221.609 0.299999
      vertex 7.43145 221.609 0
    endloop
  endfacet
  facet normal 1 -0 0
    outer loop
      vertex 9.94522 227.255 0.299999
      vertex 9.94522 229.345 0
      vertex 9.94522 229.345 0.299999
    endloop
  endfacet
  facet normal 1 0 0
    outer loop
      vertex 9.94522 229.345 0
      vertex 9.94522 227.255 0.299999
      vertex 9.94522 227.255 0
    endloop
  endfacet
  facet normal 0.913545 -0.406738 0
    outer loop
      vertex 8.66025 223.3 0.299999
      vertex 9.51056 225.21 0
      vertex 9.51056 225.21 0.299999
    endloop
  endfacet
  facet normal 0.913545 -0.406738 0
    outer loop
      vertex 9.51056 225.21 0
      vertex 8.66025 223.3 0.299999
      vertex 8.66025 223.3 0
    endloop
  endfacet
  facet normal 0.309019 -0.951056 0
    outer loop
      vertex 2.07912 218.519 0
      vertex 4.06737 219.165 0.299999
      vertex 2.07912 218.519 0.299999
    endloop
  endfacet
  facet normal 0.309019 -0.951056 0
    outer loop
      vertex 4.06737 219.165 0.299999
      vertex 2.07912 218.519 0
      vertex 4.06737 219.165 0
    endloop
  endfacet
  facet normal 0.669131 -0.743145 0
    outer loop
      vertex 5.87785 220.21 0
      vertex 7.43145 221.609 0.299999
      vertex 5.87785 220.21 0.299999
    endloop
  endfacet
  facet normal 0.669131 -0.743145 0
    outer loop
      vertex 7.43145 221.609 0.299999
      vertex 5.87785 220.21 0
      vertex 7.43145 221.609 0
    endloop
  endfacet
  facet normal -0.5 0.866025 0
    outer loop
      vertex -81.0674 9.13545 0
      vertex -82.8779 8.09017 0.299999
      vertex -81.0674 9.13545 0.299999
    endloop
  endfacet
  facet normal -0.5 0.866025 0
    outer loop
      vertex -82.8779 8.09017 0.299999
      vertex -81.0674 9.13545 0
      vertex -82.8779 8.09017 0
    endloop
  endfacet
  facet normal -0.104529 -0.994522 0
    outer loop
      vertex -79.0791 -9.78148 0
      vertex -77 -10 0.299999
      vertex -79.0791 -9.78148 0.299999
    endloop
  endfacet
  facet normal -0.104529 -0.994522 -0
    outer loop
      vertex -77 -10 0.299999
      vertex -79.0791 -9.78148 0
      vertex -77 -10 0
    endloop
  endfacet
  facet normal -0.669131 0.743145 0
    outer loop
      vertex -82.8779 8.09017 0
      vertex -84.4314 6.69131 0.299999
      vertex -82.8779 8.09017 0.299999
    endloop
  endfacet
  facet normal -0.669131 0.743145 0
    outer loop
      vertex -84.4314 6.69131 0.299999
      vertex -82.8779 8.09017 0
      vertex -84.4314 6.69131 0
    endloop
  endfacet
  facet normal -1 0 0
    outer loop
      vertex -86.9452 -1.04528 0
      vertex -86.9452 1.04528 0.299999
      vertex -86.9452 1.04528 0
    endloop
  endfacet
  facet normal -1 -0 0
    outer loop
      vertex -86.9452 1.04528 0.299999
      vertex -86.9452 -1.04528 0
      vertex -86.9452 -1.04528 0.299999
    endloop
  endfacet
  facet normal -0.978148 0.207912 0
    outer loop
      vertex -86.9452 1.04528 0
      vertex -86.5106 3.09017 0.299999
      vertex -86.5106 3.09017 0
    endloop
  endfacet
  facet normal -0.978148 0.207912 0
    outer loop
      vertex -86.5106 3.09017 0.299999
      vertex -86.9452 1.04528 0
      vertex -86.9452 1.04528 0.299999
    endloop
  endfacet
  facet normal -0.809017 -0.587785 0
    outer loop
      vertex -84.4314 -6.69131 0
      vertex -85.6603 -5 0.299999
      vertex -85.6603 -5 0
    endloop
  endfacet
  facet normal -0.809017 -0.587785 0
    outer loop
      vertex -85.6603 -5 0.299999
      vertex -84.4314 -6.69131 0
      vertex -84.4314 -6.69131 0.299999
    endloop
  endfacet
  facet normal -0.309017 -0.951057 0
    outer loop
      vertex -81.0674 -9.13545 0
      vertex -79.0791 -9.78148 0.299999
      vertex -81.0674 -9.13545 0.299999
    endloop
  endfacet
  facet normal -0.309017 -0.951057 -0
    outer loop
      vertex -79.0791 -9.78148 0.299999
      vertex -81.0674 -9.13545 0
      vertex -79.0791 -9.78148 0
    endloop
  endfacet
  facet normal -0.669131 -0.743145 0
    outer loop
      vertex -84.4314 -6.69131 0
      vertex -82.8779 -8.09017 0.299999
      vertex -84.4314 -6.69131 0.299999
    endloop
  endfacet
  facet normal -0.669131 -0.743145 -0
    outer loop
      vertex -82.8779 -8.09017 0.299999
      vertex -84.4314 -6.69131 0
      vertex -82.8779 -8.09017 0
    endloop
  endfacet
  facet normal -0.309017 0.951057 0
    outer loop
      vertex -79.0791 9.78148 0
      vertex -81.0674 9.13545 0.299999
      vertex -79.0791 9.78148 0.299999
    endloop
  endfacet
  facet normal -0.309017 0.951057 0
    outer loop
      vertex -81.0674 9.13545 0.299999
      vertex -79.0791 9.78148 0
      vertex -81.0674 9.13545 0
    endloop
  endfacet
  facet normal -0.809017 0.587785 0
    outer loop
      vertex -85.6603 5 0
      vertex -84.4314 6.69131 0.299999
      vertex -84.4314 6.69131 0
    endloop
  endfacet
  facet normal -0.809017 0.587785 0
    outer loop
      vertex -84.4314 6.69131 0.299999
      vertex -85.6603 5 0
      vertex -85.6603 5 0.299999
    endloop
  endfacet
  facet normal -0.978148 -0.207912 0
    outer loop
      vertex -86.5106 -3.09017 0
      vertex -86.9452 -1.04528 0.299999
      vertex -86.9452 -1.04528 0
    endloop
  endfacet
  facet normal -0.978148 -0.207912 0
    outer loop
      vertex -86.9452 -1.04528 0.299999
      vertex -86.5106 -3.09017 0
      vertex -86.5106 -3.09017 0.299999
    endloop
  endfacet
  facet normal -0.913545 0.406737 0
    outer loop
      vertex -86.5106 3.09017 0
      vertex -85.6603 5 0.299999
      vertex -85.6603 5 0
    endloop
  endfacet
  facet normal -0.913545 0.406737 0
    outer loop
      vertex -85.6603 5 0.299999
      vertex -86.5106 3.09017 0
      vertex -86.5106 3.09017 0.299999
    endloop
  endfacet
  facet normal 0.104529 -0.994522 0
    outer loop
      vertex -77 -10 0
      vertex -74.9209 -9.78148 0.299999
      vertex -77 -10 0.299999
    endloop
  endfacet
  facet normal 0.104529 -0.994522 0
    outer loop
      vertex -74.9209 -9.78148 0.299999
      vertex -77 -10 0
      vertex -74.9209 -9.78148 0
    endloop
  endfacet
  facet normal -0.5 -0.866025 0
    outer loop
      vertex -82.8779 -8.09017 0
      vertex -81.0674 -9.13545 0.299999
      vertex -82.8779 -8.09017 0.299999
    endloop
  endfacet
  facet normal -0.5 -0.866025 -0
    outer loop
      vertex -81.0674 -9.13545 0.299999
      vertex -82.8779 -8.09017 0
      vertex -81.0674 -9.13545 0
    endloop
  endfacet
  facet normal -0.913545 -0.406737 0
    outer loop
      vertex -85.6603 -5 0
      vertex -86.5106 -3.09017 0.299999
      vertex -86.5106 -3.09017 0
    endloop
  endfacet
  facet normal -0.913545 -0.406737 0
    outer loop
      vertex -86.5106 -3.09017 0.299999
      vertex -85.6603 -5 0
      vertex -85.6603 -5 0.299999
    endloop
  endfacet
  facet normal -0.104529 0.994522 0
    outer loop
      vertex -77 10 0
      vertex -79.0791 9.78148 0.299999
      vertex -77 10 0.299999
    endloop
  endfacet
  facet normal -0.104529 0.994522 0
    outer loop
      vertex -79.0791 9.78148 0.299999
      vertex -77 10 0
      vertex -79.0791 9.78148 0
    endloop
  endfacet
  facet normal 0.913545 -0.406737 0
    outer loop
      vertex -68.3397 -5 0.299999
      vertex -67.4894 -3.09017 0
      vertex -67.4894 -3.09017 0.299999
    endloop
  endfacet
  facet normal 0.913545 -0.406737 0
    outer loop
      vertex -67.4894 -3.09017 0
      vertex -68.3397 -5 0.299999
      vertex -68.3397 -5 0
    endloop
  endfacet
  facet normal 0.669131 -0.743145 0
    outer loop
      vertex -71.1221 -8.09017 0
      vertex -69.5686 -6.69131 0.299999
      vertex -71.1221 -8.09017 0.299999
    endloop
  endfacet
  facet normal 0.669131 -0.743145 0
    outer loop
      vertex -69.5686 -6.69131 0.299999
      vertex -71.1221 -8.09017 0
      vertex -69.5686 -6.69131 0
    endloop
  endfacet
  facet normal -0 0 1
    outer loop
      vertex -79.0791 9.78148 0.299999
      vertex -77 1.70974e-14 0.299999
      vertex -77 10 0.299999
    endloop
  endfacet
  facet normal -0 0 1
    outer loop
      vertex -81.0674 9.13545 0.299999
      vertex -77 1.70974e-14 0.299999
      vertex -79.0791 9.78148 0.299999
    endloop
  endfacet
  facet normal 0 0 1
    outer loop
      vertex -77 1.70974e-14 0.299999
      vertex -79.0791 -9.78148 0.299999
      vertex -77 -10 0.299999
    endloop
  endfacet
  facet normal -0 0 1
    outer loop
      vertex -82.8779 8.09017 0.299999
      vertex -77 1.70974e-14 0.299999
      vertex -81.0674 9.13545 0.299999
    endloop
  endfacet
  facet normal 0 0 1
    outer loop
      vertex -77 1.70974e-14 0.299999
      vertex -81.0674 -9.13545 0.299999
      vertex -79.0791 -9.78148 0.299999
    endloop
  endfacet
  facet normal -0 0 1
    outer loop
      vertex -84.4314 6.69131 0.299999
      vertex -77 1.70974e-14 0.299999
      vertex -82.8779 8.09017 0.299999
    endloop
  endfacet
  facet normal 0 0 1
    outer loop
      vertex -77 1.70974e-14 0.299999
      vertex -82.8779 -8.09017 0.299999
      vertex -81.0674 -9.13545 0.299999
    endloop
  endfacet
  facet normal -0 0 1
    outer loop
      vertex -85.6603 5 0.299999
      vertex -77 1.70974e-14 0.299999
      vertex -84.4314 6.69131 0.299999
    endloop
  endfacet
  facet normal 0 0 1
    outer loop
      vertex -77 1.70974e-14 0.299999
      vertex -84.4314 -6.69131 0.299999
      vertex -82.8779 -8.09017 0.299999
    endloop
  endfacet
  facet normal -0 0 1
    outer loop
      vertex -86.5106 3.09017 0.299999
      vertex -77 1.70974e-14 0.299999
      vertex -85.6603 5 0.299999
    endloop
  endfacet
  facet normal 0 0 1
    outer loop
      vertex -77 1.70974e-14 0.299999
      vertex -85.6603 -5 0.299999
      vertex -84.4314 -6.69131 0.299999
    endloop
  endfacet
  facet normal -0 0 1
    outer loop
      vertex -86.9452 1.04528 0.299999
      vertex -77 1.70974e-14 0.299999
      vertex -86.5106 3.09017 0.299999
    endloop
  endfacet
  facet normal 0 0 1
    outer loop
      vertex -77 1.70974e-14 0.299999
      vertex -86.5106 -3.09017 0.299999
      vertex -85.6603 -5 0.299999
    endloop
  endfacet
  facet normal 0 0 1
    outer loop
      vertex -86.9452 -1.04528 0.299999
      vertex -77 1.70974e-14 0.299999
      vertex -86.9452 1.04528 0.299999
    endloop
  endfacet
  facet normal 0 0 1
    outer loop
      vertex -77 1.70974e-14 0.299999
      vertex -86.9452 -1.04528 0.299999
      vertex -86.5106 -3.09017 0.299999
    endloop
  endfacet
  facet normal 0 0 1
    outer loop
      vertex -77 1.70974e-14 0.299999
      vertex -67.0548 -1.04528 0.299999
      vertex -67.0548 1.48892e-14 0.299999
    endloop
  endfacet
  facet normal 0 0 1
    outer loop
      vertex -67.0548 -1.04528 0.299999
      vertex -77 1.70974e-14 0.299999
      vertex -67.4894 -3.09017 0.299999
    endloop
  endfacet
  facet normal 0 0 1
    outer loop
      vertex -67.4894 -3.09017 0.299999
      vertex -77 1.70974e-14 0.299999
      vertex -68.3397 -5 0.299999
    endloop
  endfacet
  facet normal 0 0 1
    outer loop
      vertex -68.3397 -5 0.299999
      vertex -77 1.70974e-14 0.299999
      vertex -69.5686 -6.69131 0.299999
    endloop
  endfacet
  facet normal 0 0 1
    outer loop
      vertex -69.5686 -6.69131 0.299999
      vertex -77 1.70974e-14 0.299999
      vertex -71.1221 -8.09017 0.299999
    endloop
  endfacet
  facet normal 0 0 1
    outer loop
      vertex -71.1221 -8.09017 0.299999
      vertex -77 1.70974e-14 0.299999
      vertex -72.9326 -9.13545 0.299999
    endloop
  endfacet
  facet normal 0 0 1
    outer loop
      vertex -72.9326 -9.13545 0.299999
      vertex -77 1.70974e-14 0.299999
      vertex -74.9209 -9.78148 0.299999
    endloop
  endfacet
  facet normal 0 0 1
    outer loop
      vertex -74.9209 -9.78148 0.299999
      vertex -77 1.70974e-14 0.299999
      vertex -77 -10 0.299999
    endloop
  endfacet
  facet normal 0.309017 -0.951057 0
    outer loop
      vertex -74.9209 -9.78148 0
      vertex -72.9326 -9.13545 0.299999
      vertex -74.9209 -9.78148 0.299999
    endloop
  endfacet
  facet normal 0.309017 -0.951057 0
    outer loop
      vertex -72.9326 -9.13545 0.299999
      vertex -74.9209 -9.78148 0
      vertex -72.9326 -9.13545 0
    endloop
  endfacet
  facet normal 0.809017 -0.587785 0
    outer loop
      vertex -69.5686 -6.69131 0.299999
      vertex -68.3397 -5 0
      vertex -68.3397 -5 0.299999
    endloop
  endfacet
  facet normal 0.809017 -0.587785 0
    outer loop
      vertex -68.3397 -5 0
      vertex -69.5686 -6.69131 0.299999
      vertex -69.5686 -6.69131 0
    endloop
  endfacet
  facet normal 0.978148 -0.207912 0
    outer loop
      vertex -67.4894 -3.09017 0.299999
      vertex -67.0548 -1.04528 0
      vertex -67.0548 -1.04528 0.299999
    endloop
  endfacet
  facet normal 0.978148 -0.207912 0
    outer loop
      vertex -67.0548 -1.04528 0
      vertex -67.4894 -3.09017 0.299999
      vertex -67.4894 -3.09017 0
    endloop
  endfacet
  facet normal 0.5 -0.866025 0
    outer loop
      vertex -72.9326 -9.13545 0
      vertex -71.1221 -8.09017 0.299999
      vertex -72.9326 -9.13545 0.299999
    endloop
  endfacet
  facet normal 0.5 -0.866025 0
    outer loop
      vertex -71.1221 -8.09017 0.299999
      vertex -72.9326 -9.13545 0
      vertex -71.1221 -8.09017 0
    endloop
  endfacet
  facet normal 1 -0 0
    outer loop
      vertex -67.0548 -1.04528 0.299999
      vertex -67.0548 1.48892e-14 0
      vertex -67.0548 1.48892e-14 0.299999
    endloop
  endfacet
  facet normal 1 0 0
    outer loop
      vertex -67.0548 1.48892e-14 0
      vertex -67.0548 -1.04528 0.299999
      vertex -67.0548 -1.04528 0
    endloop
  endfacet
  facet normal -0.104527 0.994522 0
    outer loop
      vertex -77 238.3 0
      vertex -79.0791 238.081 0.299999
      vertex -77 238.3 0.299999
    endloop
  endfacet
  facet normal -0.104527 0.994522 0
    outer loop
      vertex -79.0791 238.081 0.299999
      vertex -77 238.3 0
      vertex -79.0791 238.081 0
    endloop
  endfacet
  facet normal -0.978148 -0.207911 0
    outer loop
      vertex -86.5106 225.21 0
      vertex -86.9452 227.255 0.299999
      vertex -86.9452 227.255 0
    endloop
  endfacet
  facet normal -0.978148 -0.207911 0
    outer loop
      vertex -86.9452 227.255 0.299999
      vertex -86.5106 225.21 0
      vertex -86.5106 225.21 0.299999
    endloop
  endfacet
  facet normal -0.809016 0.587787 0
    outer loop
      vertex -85.6603 233.3 0
      vertex -84.4314 234.991 0.299999
      vertex -84.4314 234.991 0
    endloop
  endfacet
  facet normal -0.809016 0.587787 0
    outer loop
      vertex -84.4314 234.991 0.299999
      vertex -85.6603 233.3 0
      vertex -85.6603 233.3 0.299999
    endloop
  endfacet
  facet normal -0.669131 -0.743145 0
    outer loop
      vertex -84.4314 221.609 0
      vertex -82.8779 220.21 0.299999
      vertex -84.4314 221.609 0.299999
    endloop
  endfacet
  facet normal -0.669131 -0.743145 -0
    outer loop
      vertex -82.8779 220.21 0.299999
      vertex -84.4314 221.609 0
      vertex -82.8779 220.21 0
    endloop
  endfacet
  facet normal -0.809018 -0.587783 0
    outer loop
      vertex -84.4314 221.609 0
      vertex -85.6603 223.3 0.299999
      vertex -85.6603 223.3 0
    endloop
  endfacet
  facet normal -0.809018 -0.587783 0
    outer loop
      vertex -85.6603 223.3 0.299999
      vertex -84.4314 221.609 0
      vertex -84.4314 221.609 0.299999
    endloop
  endfacet
  facet normal 0.500001 0.866025 -0
    outer loop
      vertex -71.1221 236.39 0
      vertex -72.9326 237.435 0.299999
      vertex -71.1221 236.39 0.299999
    endloop
  endfacet
  facet normal 0.500001 0.866025 0
    outer loop
      vertex -72.9326 237.435 0.299999
      vertex -71.1221 236.39 0
      vertex -72.9326 237.435 0
    endloop
  endfacet
  facet normal -0.500001 0.866025 0
    outer loop
      vertex -81.0674 237.435 0
      vertex -82.8779 236.39 0.299999
      vertex -81.0674 237.435 0.299999
    endloop
  endfacet
  facet normal -0.500001 0.866025 0
    outer loop
      vertex -82.8779 236.39 0.299999
      vertex -81.0674 237.435 0
      vertex -82.8779 236.39 0
    endloop
  endfacet
  facet normal -0.309019 0.951056 0
    outer loop
      vertex -79.0791 238.081 0
      vertex -81.0674 237.435 0.299999
      vertex -79.0791 238.081 0.299999
    endloop
  endfacet
  facet normal -0.309019 0.951056 0
    outer loop
      vertex -81.0674 237.435 0.299999
      vertex -79.0791 238.081 0
      vertex -81.0674 237.435 0
    endloop
  endfacet
  facet normal -0.669131 0.743145 0
    outer loop
      vertex -82.8779 236.39 0
      vertex -84.4314 234.991 0.299999
      vertex -82.8779 236.39 0.299999
    endloop
  endfacet
  facet normal -0.669131 0.743145 0
    outer loop
      vertex -84.4314 234.991 0.299999
      vertex -82.8779 236.39 0
      vertex -84.4314 234.991 0
    endloop
  endfacet
  facet normal -0.978147 0.207913 0
    outer loop
      vertex -86.9452 229.345 0
      vertex -86.5106 231.39 0.299999
      vertex -86.5106 231.39 0
    endloop
  endfacet
  facet normal -0.978147 0.207913 0
    outer loop
      vertex -86.5106 231.39 0.299999
      vertex -86.9452 229.345 0
      vertex -86.9452 229.345 0.299999
    endloop
  endfacet
  facet normal -1 0 0
    outer loop
      vertex -86.9452 227.255 0
      vertex -86.9452 229.345 0.299999
      vertex -86.9452 229.345 0
    endloop
  endfacet
  facet normal -1 -0 0
    outer loop
      vertex -86.9452 229.345 0.299999
      vertex -86.9452 227.255 0
      vertex -86.9452 227.255 0.299999
    endloop
  endfacet
  facet normal -0.913546 0.406736 0
    outer loop
      vertex -86.5106 231.39 0
      vertex -85.6603 233.3 0.299999
      vertex -85.6603 233.3 0
    endloop
  endfacet
  facet normal -0.913546 0.406736 0
    outer loop
      vertex -85.6603 233.3 0.299999
      vertex -86.5106 231.39 0
      vertex -86.5106 231.39 0.299999
    endloop
  endfacet
  facet normal -0.309019 -0.951056 0
    outer loop
      vertex -81.0674 219.165 0
      vertex -79.0791 218.519 0.299999
      vertex -81.0674 219.165 0.299999
    endloop
  endfacet
  facet normal -0.309019 -0.951056 -0
    outer loop
      vertex -79.0791 218.519 0.299999
      vertex -81.0674 219.165 0
      vertex -79.0791 218.519 0
    endloop
  endfacet
  facet normal -0.499996 -0.866028 0
    outer loop
      vertex -82.8779 220.21 0
      vertex -81.0674 219.165 0.299999
      vertex -82.8779 220.21 0.299999
    endloop
  endfacet
  facet normal -0.499996 -0.866028 -0
    outer loop
      vertex -81.0674 219.165 0.299999
      vertex -82.8779 220.21 0
      vertex -81.0674 219.165 0
    endloop
  endfacet
  facet normal -0.104527 -0.994522 0
    outer loop
      vertex -79.0791 218.519 0
      vertex -77 218.3 0.299999
      vertex -79.0791 218.519 0.299999
    endloop
  endfacet
  facet normal -0.104527 -0.994522 -0
    outer loop
      vertex -77 218.3 0.299999
      vertex -79.0791 218.519 0
      vertex -77 218.3 0
    endloop
  endfacet
  facet normal 0 0 1
    outer loop
      vertex -77 228.3 0.299999
      vertex -67.0548 229.345 0.299999
      vertex -67.4894 231.39 0.299999
    endloop
  endfacet
  facet normal 0 0 1
    outer loop
      vertex -77 228.3 0.299999
      vertex -67.4894 231.39 0.299999
      vertex -68.3397 233.3 0.299999
    endloop
  endfacet
  facet normal 0 0 1
    outer loop
      vertex -77 228.3 0.299999
      vertex -68.3397 233.3 0.299999
      vertex -69.5686 234.991 0.299999
    endloop
  endfacet
  facet normal 0 0 1
    outer loop
      vertex -77 228.3 0.299999
      vertex -69.5686 234.991 0.299999
      vertex -71.1221 236.39 0.299999
    endloop
  endfacet
  facet normal 0 0 1
    outer loop
      vertex -77 228.3 0.299999
      vertex -71.1221 236.39 0.299999
      vertex -72.9326 237.435 0.299999
    endloop
  endfacet
  facet normal 0 0 1
    outer loop
      vertex -77 228.3 0.299999
      vertex -72.9326 237.435 0.299999
      vertex -74.9209 238.081 0.299999
    endloop
  endfacet
  facet normal 0 0 1
    outer loop
      vertex -77 228.3 0.299999
      vertex -74.9209 238.081 0.299999
      vertex -77 238.3 0.299999
    endloop
  endfacet
  facet normal 0 0 1
    outer loop
      vertex -67.0548 229.345 0.299999
      vertex -77 228.3 0.299999
      vertex -67.0548 228.3 0.299999
    endloop
  endfacet
  facet normal -0 0 1
    outer loop
      vertex -79.0791 238.081 0.299999
      vertex -77 228.3 0.299999
      vertex -77 238.3 0.299999
    endloop
  endfacet
  facet normal -0 0 1
    outer loop
      vertex -81.0674 237.435 0.299999
      vertex -77 228.3 0.299999
      vertex -79.0791 238.081 0.299999
    endloop
  endfacet
  facet normal 0 0 1
    outer loop
      vertex -77 228.3 0.299999
      vertex -79.0791 218.519 0.299999
      vertex -77 218.3 0.299999
    endloop
  endfacet
  facet normal -0 0 1
    outer loop
      vertex -82.8779 236.39 0.299999
      vertex -77 228.3 0.299999
      vertex -81.0674 237.435 0.299999
    endloop
  endfacet
  facet normal 0 0 1
    outer loop
      vertex -77 228.3 0.299999
      vertex -81.0674 219.165 0.299999
      vertex -79.0791 218.519 0.299999
    endloop
  endfacet
  facet normal -0 0 1
    outer loop
      vertex -84.4314 234.991 0.299999
      vertex -77 228.3 0.299999
      vertex -82.8779 236.39 0.299999
    endloop
  endfacet
  facet normal 0 0 1
    outer loop
      vertex -77 228.3 0.299999
      vertex -82.8779 220.21 0.299999
      vertex -81.0674 219.165 0.299999
    endloop
  endfacet
  facet normal -0 0 1
    outer loop
      vertex -85.6603 233.3 0.299999
      vertex -77 228.3 0.299999
      vertex -84.4314 234.991 0.299999
    endloop
  endfacet
  facet normal 0 0 1
    outer loop
      vertex -77 228.3 0.299999
      vertex -84.4314 221.609 0.299999
      vertex -82.8779 220.21 0.299999
    endloop
  endfacet
  facet normal -0 0 1
    outer loop
      vertex -86.5106 231.39 0.299999
      vertex -77 228.3 0.299999
      vertex -85.6603 233.3 0.299999
    endloop
  endfacet
  facet normal 0 0 1
    outer loop
      vertex -77 228.3 0.299999
      vertex -85.6603 223.3 0.299999
      vertex -84.4314 221.609 0.299999
    endloop
  endfacet
  facet normal -0 0 1
    outer loop
      vertex -86.9452 229.345 0.299999
      vertex -77 228.3 0.299999
      vertex -86.5106 231.39 0.299999
    endloop
  endfacet
  facet normal 0 0 1
    outer loop
      vertex -77 228.3 0.299999
      vertex -86.5106 225.21 0.299999
      vertex -85.6603 223.3 0.299999
    endloop
  endfacet
  facet normal 0 0 1
    outer loop
      vertex -86.9452 227.255 0.299999
      vertex -77 228.3 0.299999
      vertex -86.9452 229.345 0.299999
    endloop
  endfacet
  facet normal 0 0 1
    outer loop
      vertex -77 228.3 0.299999
      vertex -86.9452 227.255 0.299999
      vertex -86.5106 225.21 0.299999
    endloop
  endfacet
  facet normal -0.913545 -0.406738 0
    outer loop
      vertex -85.6603 223.3 0
      vertex -86.5106 225.21 0.299999
      vertex -86.5106 225.21 0
    endloop
  endfacet
  facet normal -0.913545 -0.406738 0
    outer loop
      vertex -86.5106 225.21 0.299999
      vertex -85.6603 223.3 0
      vertex -85.6603 223.3 0.299999
    endloop
  endfacet
  facet normal 0.104527 0.994522 -0
    outer loop
      vertex -74.9209 238.081 0
      vertex -77 238.3 0.299999
      vertex -74.9209 238.081 0.299999
    endloop
  endfacet
  facet normal 0.104527 0.994522 0
    outer loop
      vertex -77 238.3 0.299999
      vertex -74.9209 238.081 0
      vertex -77 238.3 0
    endloop
  endfacet
  facet normal 1 -0 0
    outer loop
      vertex -67.0548 228.3 0.299999
      vertex -67.0548 229.345 0
      vertex -67.0548 229.345 0.299999
    endloop
  endfacet
  facet normal 1 0 0
    outer loop
      vertex -67.0548 229.345 0
      vertex -67.0548 228.3 0.299999
      vertex -67.0548 228.3 0
    endloop
  endfacet
  facet normal 0.309019 0.951056 -0
    outer loop
      vertex -72.9326 237.435 0
      vertex -74.9209 238.081 0.299999
      vertex -72.9326 237.435 0.299999
    endloop
  endfacet
  facet normal 0.309019 0.951056 0
    outer loop
      vertex -74.9209 238.081 0.299999
      vertex -72.9326 237.435 0
      vertex -74.9209 238.081 0
    endloop
  endfacet
  facet normal 0.913546 0.406736 0
    outer loop
      vertex -67.4894 231.39 0.299999
      vertex -68.3397 233.3 0
      vertex -68.3397 233.3 0.299999
    endloop
  endfacet
  facet normal 0.913546 0.406736 0
    outer loop
      vertex -68.3397 233.3 0
      vertex -67.4894 231.39 0.299999
      vertex -67.4894 231.39 0
    endloop
  endfacet
  facet normal 0.669131 0.743145 -0
    outer loop
      vertex -69.5686 234.991 0
      vertex -71.1221 236.39 0.299999
      vertex -69.5686 234.991 0.299999
    endloop
  endfacet
  facet normal 0.669131 0.743145 0
    outer loop
      vertex -71.1221 236.39 0.299999
      vertex -69.5686 234.991 0
      vertex -71.1221 236.39 0
    endloop
  endfacet
  facet normal 0.978147 0.207913 0
    outer loop
      vertex -67.0548 229.345 0.299999
      vertex -67.4894 231.39 0
      vertex -67.4894 231.39 0.299999
    endloop
  endfacet
  facet normal 0.978147 0.207913 0
    outer loop
      vertex -67.4894 231.39 0
      vertex -67.0548 229.345 0.299999
      vertex -67.0548 229.345 0
    endloop
  endfacet
  facet normal 0.809016 0.587787 0
    outer loop
      vertex -68.3397 233.3 0.299999
      vertex -69.5686 234.991 0
      vertex -69.5686 234.991 0.299999
    endloop
  endfacet
  facet normal 0.809016 0.587787 0
    outer loop
      vertex -69.5686 234.991 0
      vertex -68.3397 233.3 0.299999
      vertex -68.3397 233.3 0
    endloop
  endfacet
endsolid OpenSCAD_Model
