solid OpenSCAD_Model
  facet normal -2.22045e-16 -1 0
    outer loop
      vertex -67.0548 1.48892e-14 0
      vertex -9.94522 2.20828e-15 0.299999
      vertex -67.0548 1.48892e-14 0.299999
    endloop
  endfacet
  facet normal -2.22045e-16 -1 -0
    outer loop
      vertex -9.94522 2.20828e-15 0.299999
      vertex -67.0548 1.48892e-14 0
      vertex -9.94522 2.20828e-15 0
    endloop
  endfacet
  facet normal -2.22045e-16 -1 0
    outer loop
      vertex -67.0548 1.48892e-14 0.299999
      vertex -77 1.70974e-14 31.5
      vertex -77 1.70974e-14 0.299999
    endloop
  endfacet
  facet normal -2.22045e-16 -1 0
    outer loop
      vertex -77 1.70974e-14 31.5
      vertex -67.0548 1.48892e-14 0.299999
      vertex 0 0 31.5
    endloop
  endfacet
  facet normal -2.22045e-16 -1 0
    outer loop
      vertex -9.94522 2.20828e-15 0.299999
      vertex 0 0 31.5
      vertex -67.0548 1.48892e-14 0.299999
    endloop
  endfacet
  facet normal -2.22045e-16 -1 -0
    outer loop
      vertex 0 0 31.5
      vertex -9.94522 2.20828e-15 0.299999
      vertex 0 0 0.299999
    endloop
  endfacet
  facet normal -0 0 1
    outer loop
      vertex -75.5 60 31.5
      vertex -39.25 58.5 31.5
      vertex -39.25 60 31.5
    endloop
  endfacet
  facet normal 0 0 1
    outer loop
      vertex -39.25 58.5 31.5
      vertex -75.5 60 31.5
      vertex -75.5 58.5 31.5
    endloop
  endfacet
  facet normal -0 0 1
    outer loop
      vertex -75.5 27 31.5
      vertex -1.5 25.5 31.5
      vertex -1.5 27 31.5
    endloop
  endfacet
  facet normal 0 0 1
    outer loop
      vertex -1.5 25.5 31.5
      vertex -75.5 27 31.5
      vertex -75.5 25.5 31.5
    endloop
  endfacet
  facet normal -0 0 1
    outer loop
      vertex -37.75 46.5 31.5
      vertex -1.5 45 31.5
      vertex -1.5 46.5 31.5
    endloop
  endfacet
  facet normal 0 0 1
    outer loop
      vertex -39.25 58.5 31.5
      vertex -37.75 58.5 31.5
      vertex -39.25 60 31.5
    endloop
  endfacet
  facet normal 0 0 1
    outer loop
      vertex -37.75 58.5 31.5
      vertex -39.25 58.5 31.5
      vertex -37.75 46.5 31.5
    endloop
  endfacet
  facet normal 0 0 1
    outer loop
      vertex -39.25 46.5 31.5
      vertex -37.75 46.5 31.5
      vertex -39.25 58.5 31.5
    endloop
  endfacet
  facet normal -0 0 1
    outer loop
      vertex -39.25 46.5 31.5
      vertex -1.5 45 31.5
      vertex -37.75 46.5 31.5
    endloop
  endfacet
  facet normal 0 0 1
    outer loop
      vertex -75.5 45 31.5
      vertex -39.25 46.5 31.5
      vertex -75.5 46.5 31.5
    endloop
  endfacet
  facet normal 0 0 1
    outer loop
      vertex -39.25 46.5 31.5
      vertex -75.5 45 31.5
      vertex -1.5 45 31.5
    endloop
  endfacet
  facet normal -0 0 1
    outer loop
      vertex -37.75 60 31.5
      vertex -1.5 58.5 31.5
      vertex -1.5 60 31.5
    endloop
  endfacet
  facet normal 0 0 1
    outer loop
      vertex -1.5 58.5 31.5
      vertex -37.75 60 31.5
      vertex -37.75 58.5 31.5
    endloop
  endfacet
  facet normal 0 0 1
    outer loop
      vertex -1.5 73.5 31.5
      vertex -37.75 72 31.5
      vertex -1.5 72 31.5
    endloop
  endfacet
  facet normal -0 0 1
    outer loop
      vertex -39.25 72 31.5
      vertex -37.75 60 31.5
      vertex -37.75 72 31.5
    endloop
  endfacet
  facet normal 0 0 1
    outer loop
      vertex -39.25 60 31.5
      vertex -37.75 60 31.5
      vertex -39.25 72 31.5
    endloop
  endfacet
  facet normal 0 0 1
    outer loop
      vertex -37.75 60 31.5
      vertex -39.25 60 31.5
      vertex -37.75 58.5 31.5
    endloop
  endfacet
  facet normal 0 0 1
    outer loop
      vertex -1.5 73.5 31.5
      vertex -39.25 72 31.5
      vertex -37.75 72 31.5
    endloop
  endfacet
  facet normal -0 0 1
    outer loop
      vertex -75.5 73.5 31.5
      vertex -39.25 72 31.5
      vertex -1.5 73.5 31.5
    endloop
  endfacet
  facet normal 0 0 1
    outer loop
      vertex -39.25 72 31.5
      vertex -75.5 73.5 31.5
      vertex -75.5 72 31.5
    endloop
  endfacet
  facet normal -0 0 1
    outer loop
      vertex -75.5 87 31.5
      vertex -1.5 85.5 31.5
      vertex -1.5 87 31.5
    endloop
  endfacet
  facet normal 0 0 1
    outer loop
      vertex -1.5 85.5 31.5
      vertex -75.5 87 31.5
      vertex -75.5 85.5 31.5
    endloop
  endfacet
  facet normal -0 0 1
    outer loop
      vertex -75.5 106.5 31.5
      vertex -1.5 105 31.5
      vertex -1.5 106.5 31.5
    endloop
  endfacet
  facet normal 0 0 1
    outer loop
      vertex -1.5 105 31.5
      vertex -75.5 106.5 31.5
      vertex -75.5 105 31.5
    endloop
  endfacet
  facet normal -0 0 1
    outer loop
      vertex -75.5 126 31.5
      vertex -1.5 124.5 31.5
      vertex -1.5 126 31.5
    endloop
  endfacet
  facet normal 0 0 1
    outer loop
      vertex -1.5 124.5 31.5
      vertex -75.5 126 31.5
      vertex -75.5 124.5 31.5
    endloop
  endfacet
  facet normal -0 0 1
    outer loop
      vertex -75.5 145.5 31.5
      vertex -1.5 144 31.5
      vertex -1.5 145.5 31.5
    endloop
  endfacet
  facet normal 0 0 1
    outer loop
      vertex -1.5 144 31.5
      vertex -75.5 145.5 31.5
      vertex -75.5 144 31.5
    endloop
  endfacet
  facet normal -0 0 1
    outer loop
      vertex -75.5 165 31.5
      vertex -1.5 163.5 31.5
      vertex -1.5 165 31.5
    endloop
  endfacet
  facet normal 0 0 1
    outer loop
      vertex -1.5 163.5 31.5
      vertex -75.5 165 31.5
      vertex -75.5 163.5 31.5
    endloop
  endfacet
  facet normal -0 0 1
    outer loop
      vertex -75.5 184.5 31.5
      vertex -1.5 183 31.5
      vertex -1.5 184.5 31.5
    endloop
  endfacet
  facet normal 0 0 1
    outer loop
      vertex -1.5 183 31.5
      vertex -75.5 184.5 31.5
      vertex -75.5 183 31.5
    endloop
  endfacet
  facet normal -0 0 1
    outer loop
      vertex -75.5 204 31.5
      vertex -1.5 202.5 31.5
      vertex -1.5 204 31.5
    endloop
  endfacet
  facet normal 0 0 1
    outer loop
      vertex -1.5 202.5 31.5
      vertex -75.5 204 31.5
      vertex -75.5 202.5 31.5
    endloop
  endfacet
  facet normal 0 0 1
    outer loop
      vertex -1.5 204 31.5
      vertex 5.09592e-14 229.5 31.5
      vertex -1.5 228 31.5
    endloop
  endfacet
  facet normal 0 0 1
    outer loop
      vertex 5.09592e-14 229.5 31.5
      vertex -75.5 228 31.5
      vertex -1.5 228 31.5
    endloop
  endfacet
  facet normal 0 0 1
    outer loop
      vertex -77 229.5 31.5
      vertex -75.5 204 31.5
      vertex -75.5 228 31.5
    endloop
  endfacet
  facet normal 0 0 1
    outer loop
      vertex -75.5 204 31.5
      vertex -77 229.5 31.5
      vertex -75.5 202.5 31.5
    endloop
  endfacet
  facet normal 0 0 1
    outer loop
      vertex -75.5 202.5 31.5
      vertex -77 229.5 31.5
      vertex -75.5 184.5 31.5
    endloop
  endfacet
  facet normal 0 0 1
    outer loop
      vertex -75.5 184.5 31.5
      vertex -77 229.5 31.5
      vertex -75.5 183 31.5
    endloop
  endfacet
  facet normal 0 0 1
    outer loop
      vertex -75.5 183 31.5
      vertex -77 229.5 31.5
      vertex -75.5 165 31.5
    endloop
  endfacet
  facet normal 0 0 1
    outer loop
      vertex -75.5 165 31.5
      vertex -77 229.5 31.5
      vertex -75.5 163.5 31.5
    endloop
  endfacet
  facet normal 0 0 1
    outer loop
      vertex -75.5 163.5 31.5
      vertex -77 229.5 31.5
      vertex -75.5 145.5 31.5
    endloop
  endfacet
  facet normal 0 0 1
    outer loop
      vertex -75.5 145.5 31.5
      vertex -77 229.5 31.5
      vertex -75.5 144 31.5
    endloop
  endfacet
  facet normal 0 0 1
    outer loop
      vertex -75.5 144 31.5
      vertex -77 229.5 31.5
      vertex -75.5 126 31.5
    endloop
  endfacet
  facet normal 0 0 1
    outer loop
      vertex -75.5 126 31.5
      vertex -77 229.5 31.5
      vertex -75.5 124.5 31.5
    endloop
  endfacet
  facet normal 0 0 1
    outer loop
      vertex -75.5 124.5 31.5
      vertex -77 229.5 31.5
      vertex -75.5 106.5 31.5
    endloop
  endfacet
  facet normal 0 0 1
    outer loop
      vertex -75.5 106.5 31.5
      vertex -77 229.5 31.5
      vertex -75.5 105 31.5
    endloop
  endfacet
  facet normal 0 0 1
    outer loop
      vertex -75.5 105 31.5
      vertex -77 229.5 31.5
      vertex -75.5 87 31.5
    endloop
  endfacet
  facet normal 0 0 1
    outer loop
      vertex -75.5 87 31.5
      vertex -77 229.5 31.5
      vertex -75.5 85.5 31.5
    endloop
  endfacet
  facet normal 0 0 1
    outer loop
      vertex -75.5 85.5 31.5
      vertex -77 229.5 31.5
      vertex -75.5 73.5 31.5
    endloop
  endfacet
  facet normal 0 0 1
    outer loop
      vertex -77 1.70974e-14 31.5
      vertex -75.5 73.5 31.5
      vertex -77 229.5 31.5
    endloop
  endfacet
  facet normal 0 0 1
    outer loop
      vertex -75.5 73.5 31.5
      vertex -77 1.70974e-14 31.5
      vertex -75.5 72 31.5
    endloop
  endfacet
  facet normal 0 0 1
    outer loop
      vertex -75.5 72 31.5
      vertex -77 1.70974e-14 31.5
      vertex -75.5 60 31.5
    endloop
  endfacet
  facet normal 0 0 1
    outer loop
      vertex -75.5 60 31.5
      vertex -77 1.70974e-14 31.5
      vertex -75.5 58.5 31.5
    endloop
  endfacet
  facet normal 0 0 1
    outer loop
      vertex -75.5 58.5 31.5
      vertex -77 1.70974e-14 31.5
      vertex -75.5 46.5 31.5
    endloop
  endfacet
  facet normal 0 0 1
    outer loop
      vertex -75.5 46.5 31.5
      vertex -77 1.70974e-14 31.5
      vertex -75.5 45 31.5
    endloop
  endfacet
  facet normal 0 0 1
    outer loop
      vertex -75.5 45 31.5
      vertex -77 1.70974e-14 31.5
      vertex -75.5 27 31.5
    endloop
  endfacet
  facet normal 0 0 1
    outer loop
      vertex -75.5 27 31.5
      vertex -77 1.70974e-14 31.5
      vertex -75.5 25.5 31.5
    endloop
  endfacet
  facet normal -0 0 1
    outer loop
      vertex -77 229.5 31.5
      vertex -75.5 228 31.5
      vertex 5.09592e-14 229.5 31.5
    endloop
  endfacet
  facet normal 0 0 1
    outer loop
      vertex -1.5 202.5 31.5
      vertex 5.09592e-14 229.5 31.5
      vertex -1.5 204 31.5
    endloop
  endfacet
  facet normal 0 0 1
    outer loop
      vertex -1.5 184.5 31.5
      vertex 5.09592e-14 229.5 31.5
      vertex -1.5 202.5 31.5
    endloop
  endfacet
  facet normal 0 0 1
    outer loop
      vertex -1.5 183 31.5
      vertex 5.09592e-14 229.5 31.5
      vertex -1.5 184.5 31.5
    endloop
  endfacet
  facet normal 0 0 1
    outer loop
      vertex -1.5 165 31.5
      vertex 5.09592e-14 229.5 31.5
      vertex -1.5 183 31.5
    endloop
  endfacet
  facet normal 0 0 1
    outer loop
      vertex -1.5 163.5 31.5
      vertex 5.09592e-14 229.5 31.5
      vertex -1.5 165 31.5
    endloop
  endfacet
  facet normal 0 0 1
    outer loop
      vertex -1.5 145.5 31.5
      vertex 5.09592e-14 229.5 31.5
      vertex -1.5 163.5 31.5
    endloop
  endfacet
  facet normal 0 0 1
    outer loop
      vertex 5.09592e-14 229.5 31.5
      vertex -1.5 145.5 31.5
      vertex 0 0 31.5
    endloop
  endfacet
  facet normal -0 0 1
    outer loop
      vertex -1.5 144 31.5
      vertex 0 0 31.5
      vertex -1.5 145.5 31.5
    endloop
  endfacet
  facet normal -0 0 1
    outer loop
      vertex -1.5 126 31.5
      vertex 0 0 31.5
      vertex -1.5 144 31.5
    endloop
  endfacet
  facet normal -0 0 1
    outer loop
      vertex -1.5 124.5 31.5
      vertex 0 0 31.5
      vertex -1.5 126 31.5
    endloop
  endfacet
  facet normal -0 0 1
    outer loop
      vertex -1.5 106.5 31.5
      vertex 0 0 31.5
      vertex -1.5 124.5 31.5
    endloop
  endfacet
  facet normal -0 0 1
    outer loop
      vertex -1.5 105 31.5
      vertex 0 0 31.5
      vertex -1.5 106.5 31.5
    endloop
  endfacet
  facet normal -0 0 1
    outer loop
      vertex -1.5 87 31.5
      vertex 0 0 31.5
      vertex -1.5 105 31.5
    endloop
  endfacet
  facet normal -0 0 1
    outer loop
      vertex -1.5 85.5 31.5
      vertex 0 0 31.5
      vertex -1.5 87 31.5
    endloop
  endfacet
  facet normal -0 0 1
    outer loop
      vertex -1.5 73.5 31.5
      vertex 0 0 31.5
      vertex -1.5 85.5 31.5
    endloop
  endfacet
  facet normal -0 0 1
    outer loop
      vertex -1.5 72 31.5
      vertex 0 0 31.5
      vertex -1.5 73.5 31.5
    endloop
  endfacet
  facet normal -0 0 1
    outer loop
      vertex -1.5 60 31.5
      vertex 0 0 31.5
      vertex -1.5 72 31.5
    endloop
  endfacet
  facet normal -0 0 1
    outer loop
      vertex -1.5 58.5 31.5
      vertex 0 0 31.5
      vertex -1.5 60 31.5
    endloop
  endfacet
  facet normal -0 0 1
    outer loop
      vertex -1.5 46.5 31.5
      vertex 0 0 31.5
      vertex -1.5 58.5 31.5
    endloop
  endfacet
  facet normal -0 0 1
    outer loop
      vertex -1.5 45 31.5
      vertex 0 0 31.5
      vertex -1.5 46.5 31.5
    endloop
  endfacet
  facet normal -0 0 1
    outer loop
      vertex -1.5 27 31.5
      vertex 0 0 31.5
      vertex -1.5 45 31.5
    endloop
  endfacet
  facet normal -0 0 1
    outer loop
      vertex -1.5 25.5 31.5
      vertex 0 0 31.5
      vertex -1.5 27 31.5
    endloop
  endfacet
  facet normal -0 0 1
    outer loop
      vertex -1.5 1.5 31.5
      vertex 0 0 31.5
      vertex -1.5 25.5 31.5
    endloop
  endfacet
  facet normal -0 0 1
    outer loop
      vertex -75.5 1.5 31.5
      vertex 0 0 31.5
      vertex -1.5 1.5 31.5
    endloop
  endfacet
  facet normal 0 0 1
    outer loop
      vertex -75.5 1.5 31.5
      vertex -77 1.70974e-14 31.5
      vertex 0 0 31.5
    endloop
  endfacet
  facet normal 0 0 1
    outer loop
      vertex -75.5 25.5 31.5
      vertex -77 1.70974e-14 31.5
      vertex -75.5 1.5 31.5
    endloop
  endfacet
  facet normal 0 1 -0
    outer loop
      vertex -1.5 27 1.5
      vertex -75.5 27 31.5
      vertex -1.5 27 31.5
    endloop
  endfacet
  facet normal 0 1 0
    outer loop
      vertex -75.5 27 31.5
      vertex -1.5 27 1.5
      vertex -75.5 27 1.5
    endloop
  endfacet
  facet normal -1 0 0
    outer loop
      vertex -77 219.5 0
      vertex -77 10 0
      vertex -77 219.5 0.299999
    endloop
  endfacet
  facet normal -1 0 0
    outer loop
      vertex -77 219.5 0.299999
      vertex -77 229.5 31.5
      vertex -77 229.5 0.299999
    endloop
  endfacet
  facet normal -1 0 0
    outer loop
      vertex -77 10 0.299999
      vertex -77 219.5 0.299999
      vertex -77 10 0
    endloop
  endfacet
  facet normal -1 0 0
    outer loop
      vertex -77 219.5 0.299999
      vertex -77 10 0.299999
      vertex -77 229.5 31.5
    endloop
  endfacet
  facet normal -1 0 0
    outer loop
      vertex -77 1.70974e-14 31.5
      vertex -77 10 0.299999
      vertex -77 1.70974e-14 0.299999
    endloop
  endfacet
  facet normal -1 0 0
    outer loop
      vertex -77 10 0.299999
      vertex -77 1.70974e-14 31.5
      vertex -77 229.5 31.5
    endloop
  endfacet
  facet normal 0 0 -1
    outer loop
      vertex 9.51056 -3.09017 0
      vertex 9.94522 1.04528 0
      vertex 9.94522 -1.04528 0
    endloop
  endfacet
  facet normal 0 0 -1
    outer loop
      vertex 9.51056 -3.09017 0
      vertex 9.51056 3.09017 0
      vertex 9.94522 1.04528 0
    endloop
  endfacet
  facet normal 0 0 -1
    outer loop
      vertex 8.66025 -5 0
      vertex 9.51056 3.09017 0
      vertex 9.51056 -3.09017 0
    endloop
  endfacet
  facet normal 0 0 -1
    outer loop
      vertex 8.66025 -5 0
      vertex 8.66025 5 0
      vertex 9.51056 3.09017 0
    endloop
  endfacet
  facet normal 0 0 -1
    outer loop
      vertex 7.43145 -6.69131 0
      vertex 8.66025 5 0
      vertex 8.66025 -5 0
    endloop
  endfacet
  facet normal 0 0 -1
    outer loop
      vertex 7.43145 -6.69131 0
      vertex 7.43145 6.69131 0
      vertex 8.66025 5 0
    endloop
  endfacet
  facet normal 0 0 -1
    outer loop
      vertex 5.87785 -8.09017 0
      vertex 7.43145 6.69131 0
      vertex 7.43145 -6.69131 0
    endloop
  endfacet
  facet normal 0 0 -1
    outer loop
      vertex 5.87785 -8.09017 0
      vertex 5.87785 8.09017 0
      vertex 7.43145 6.69131 0
    endloop
  endfacet
  facet normal 0 0 -1
    outer loop
      vertex 4.06737 -9.13545 0
      vertex 5.87785 8.09017 0
      vertex 5.87785 -8.09017 0
    endloop
  endfacet
  facet normal 0 0 -1
    outer loop
      vertex 4.06737 -9.13545 0
      vertex 4.06737 9.13545 0
      vertex 5.87785 8.09017 0
    endloop
  endfacet
  facet normal 0 0 -1
    outer loop
      vertex 2.07912 -9.78148 0
      vertex 4.06737 9.13545 0
      vertex 4.06737 -9.13545 0
    endloop
  endfacet
  facet normal 0 0 -1
    outer loop
      vertex 2.07912 -9.78148 0
      vertex 2.07912 9.78148 0
      vertex 4.06737 9.13545 0
    endloop
  endfacet
  facet normal 0 0 -1
    outer loop
      vertex 2.07912 -9.78148 0
      vertex 2.22045e-15 10 0
      vertex 2.07912 9.78148 0
    endloop
  endfacet
  facet normal 0 -0 -1
    outer loop
      vertex 2.22045e-15 10 0
      vertex 2.07912 -9.78148 0
      vertex -2.22045e-15 -10 0
    endloop
  endfacet
  facet normal 0 0 -1
    outer loop
      vertex 9.51056 226.41 0
      vertex 9.94522 230.545 0
      vertex 9.94522 228.455 0
    endloop
  endfacet
  facet normal 0 0 -1
    outer loop
      vertex 9.51056 226.41 0
      vertex 9.51056 232.59 0
      vertex 9.94522 230.545 0
    endloop
  endfacet
  facet normal 0 0 -1
    outer loop
      vertex 8.66025 224.5 0
      vertex 9.51056 232.59 0
      vertex 9.51056 226.41 0
    endloop
  endfacet
  facet normal 0 0 -1
    outer loop
      vertex 8.66025 224.5 0
      vertex 8.66025 234.5 0
      vertex 9.51056 232.59 0
    endloop
  endfacet
  facet normal 0 0 -1
    outer loop
      vertex 7.43145 222.809 0
      vertex 8.66025 234.5 0
      vertex 8.66025 224.5 0
    endloop
  endfacet
  facet normal 0 0 -1
    outer loop
      vertex 7.43145 222.809 0
      vertex 7.43145 236.191 0
      vertex 8.66025 234.5 0
    endloop
  endfacet
  facet normal 0 0 -1
    outer loop
      vertex 5.87785 221.41 0
      vertex 7.43145 236.191 0
      vertex 7.43145 222.809 0
    endloop
  endfacet
  facet normal 0 0 -1
    outer loop
      vertex 5.87785 221.41 0
      vertex 5.87785 237.59 0
      vertex 7.43145 236.191 0
    endloop
  endfacet
  facet normal 0 0 -1
    outer loop
      vertex 4.06737 220.365 0
      vertex 5.87785 237.59 0
      vertex 5.87785 221.41 0
    endloop
  endfacet
  facet normal 0 0 -1
    outer loop
      vertex 4.06737 220.365 0
      vertex 4.06737 238.635 0
      vertex 5.87785 237.59 0
    endloop
  endfacet
  facet normal 0 0 -1
    outer loop
      vertex 2.07912 219.719 0
      vertex 4.06737 238.635 0
      vertex 4.06737 220.365 0
    endloop
  endfacet
  facet normal 0 0 -1
    outer loop
      vertex 2.07912 219.719 0
      vertex 2.07912 239.281 0
      vertex 4.06737 238.635 0
    endloop
  endfacet
  facet normal 0 0 -1
    outer loop
      vertex 2.07912 219.719 0
      vertex 5.31797e-14 239.5 0
      vertex 2.07912 239.281 0
    endloop
  endfacet
  facet normal 0 0 -1
    outer loop
      vertex 4.87388e-14 219.5 0
      vertex 5.31797e-14 239.5 0
      vertex 2.07912 219.719 0
    endloop
  endfacet
  facet normal 0 0 -1
    outer loop
      vertex -77 219.5 0
      vertex 4.87388e-14 219.5 0
      vertex 2.22045e-15 10 0
    endloop
  endfacet
  facet normal 0 0 -1
    outer loop
      vertex -9.94522 2.20828e-15 0
      vertex 2.22045e-15 10 0
      vertex -2.22045e-15 -10 0
    endloop
  endfacet
  facet normal 0 0 -1
    outer loop
      vertex -9.94522 2.20828e-15 0
      vertex -2.22045e-15 -10 0
      vertex -2.07912 -9.78148 0
    endloop
  endfacet
  facet normal 0 0 -1
    outer loop
      vertex -67.0548 1.48892e-14 0
      vertex 2.22045e-15 10 0
      vertex -9.94522 2.20828e-15 0
    endloop
  endfacet
  facet normal 0 0 -1
    outer loop
      vertex -9.94522 2.20828e-15 0
      vertex -2.07912 -9.78148 0
      vertex -4.06737 -9.13545 0
    endloop
  endfacet
  facet normal 0 0 -1
    outer loop
      vertex 4.87388e-14 219.5 0
      vertex -9.94522 229.5 0
      vertex 5.31797e-14 239.5 0
    endloop
  endfacet
  facet normal 0 0 -1
    outer loop
      vertex -9.94522 2.20828e-15 0
      vertex -4.06737 -9.13545 0
      vertex -5.87785 -8.09017 0
    endloop
  endfacet
  facet normal 0 0 -1
    outer loop
      vertex 5.31797e-14 239.5 0
      vertex -9.94522 229.5 0
      vertex -2.07912 239.281 0
    endloop
  endfacet
  facet normal 0 0 -1
    outer loop
      vertex -9.94522 2.20828e-15 0
      vertex -5.87785 -8.09017 0
      vertex -7.43145 -6.69131 0
    endloop
  endfacet
  facet normal 0 0 -1
    outer loop
      vertex -2.07912 239.281 0
      vertex -9.94522 229.5 0
      vertex -4.06737 238.635 0
    endloop
  endfacet
  facet normal 0 0 -1
    outer loop
      vertex -9.94522 2.20828e-15 0
      vertex -7.43145 -6.69131 0
      vertex -8.66025 -5 0
    endloop
  endfacet
  facet normal 0 0 -1
    outer loop
      vertex -4.06737 238.635 0
      vertex -9.94522 229.5 0
      vertex -5.87785 237.59 0
    endloop
  endfacet
  facet normal 0 0 -1
    outer loop
      vertex -9.94522 2.20828e-15 0
      vertex -8.66025 -5 0
      vertex -9.51056 -3.09017 0
    endloop
  endfacet
  facet normal 0 0 -1
    outer loop
      vertex -5.87785 237.59 0
      vertex -9.94522 229.5 0
      vertex -7.43145 236.191 0
    endloop
  endfacet
  facet normal 0 0 -1
    outer loop
      vertex -9.94522 2.20828e-15 0
      vertex -9.51056 -3.09017 0
      vertex -9.94522 -1.04528 0
    endloop
  endfacet
  facet normal 0 0 -1
    outer loop
      vertex -7.43145 236.191 0
      vertex -9.94522 229.5 0
      vertex -8.66025 234.5 0
    endloop
  endfacet
  facet normal 0 0 -1
    outer loop
      vertex -8.66025 234.5 0
      vertex -9.94522 229.5 0
      vertex -9.51056 232.59 0
    endloop
  endfacet
  facet normal 0 0 -1
    outer loop
      vertex -9.51056 232.59 0
      vertex -9.94522 229.5 0
      vertex -9.94522 230.545 0
    endloop
  endfacet
  facet normal 0 0 -1
    outer loop
      vertex -79.0791 -9.78148 0
      vertex -77 10 0
      vertex -77 -10 0
    endloop
  endfacet
  facet normal 0 0 -1
    outer loop
      vertex -79.0791 -9.78148 0
      vertex -79.0791 9.78148 0
      vertex -77 10 0
    endloop
  endfacet
  facet normal 0 0 -1
    outer loop
      vertex -81.0674 -9.13545 0
      vertex -79.0791 9.78148 0
      vertex -79.0791 -9.78148 0
    endloop
  endfacet
  facet normal 0 0 -1
    outer loop
      vertex -81.0674 -9.13545 0
      vertex -81.0674 9.13545 0
      vertex -79.0791 9.78148 0
    endloop
  endfacet
  facet normal 0 0 -1
    outer loop
      vertex -82.8779 -8.09017 0
      vertex -81.0674 9.13545 0
      vertex -81.0674 -9.13545 0
    endloop
  endfacet
  facet normal 0 0 -1
    outer loop
      vertex -82.8779 -8.09017 0
      vertex -82.8779 8.09017 0
      vertex -81.0674 9.13545 0
    endloop
  endfacet
  facet normal 0 0 -1
    outer loop
      vertex -84.4314 -6.69131 0
      vertex -82.8779 8.09017 0
      vertex -82.8779 -8.09017 0
    endloop
  endfacet
  facet normal 0 0 -1
    outer loop
      vertex -84.4314 -6.69131 0
      vertex -84.4314 6.69131 0
      vertex -82.8779 8.09017 0
    endloop
  endfacet
  facet normal 0 0 -1
    outer loop
      vertex -85.6603 -5 0
      vertex -84.4314 6.69131 0
      vertex -84.4314 -6.69131 0
    endloop
  endfacet
  facet normal 0 0 -1
    outer loop
      vertex -85.6603 -5 0
      vertex -85.6603 5 0
      vertex -84.4314 6.69131 0
    endloop
  endfacet
  facet normal 0 0 -1
    outer loop
      vertex -86.5106 -3.09017 0
      vertex -85.6603 5 0
      vertex -85.6603 -5 0
    endloop
  endfacet
  facet normal 0 0 -1
    outer loop
      vertex -86.5106 -3.09017 0
      vertex -86.5106 3.09017 0
      vertex -85.6603 5 0
    endloop
  endfacet
  facet normal 0 0 -1
    outer loop
      vertex -86.9452 -1.04528 0
      vertex -86.5106 3.09017 0
      vertex -86.5106 -3.09017 0
    endloop
  endfacet
  facet normal 0 0 -1
    outer loop
      vertex -86.5106 3.09017 0
      vertex -86.9452 -1.04528 0
      vertex -86.9452 1.04528 0
    endloop
  endfacet
  facet normal 0 0 -1
    outer loop
      vertex -67.4894 -3.09017 0
      vertex -67.0548 1.48892e-14 0
      vertex -67.0548 -1.04528 0
    endloop
  endfacet
  facet normal 0 0 -1
    outer loop
      vertex -77 219.5 0
      vertex 2.22045e-15 10 0
      vertex -77 10 0
    endloop
  endfacet
  facet normal 0 0 -1
    outer loop
      vertex -68.3397 -5 0
      vertex -67.0548 1.48892e-14 0
      vertex -67.4894 -3.09017 0
    endloop
  endfacet
  facet normal 0 0 -1
    outer loop
      vertex 4.87388e-14 219.5 0
      vertex -77 219.5 0
      vertex -67.0548 229.5 0
    endloop
  endfacet
  facet normal 0 0 -1
    outer loop
      vertex -69.5686 -6.69131 0
      vertex -67.0548 1.48892e-14 0
      vertex -68.3397 -5 0
    endloop
  endfacet
  facet normal 0 -0 -1
    outer loop
      vertex -69.5686 236.191 0
      vertex -67.0548 229.5 0
      vertex -77 219.5 0
    endloop
  endfacet
  facet normal -0 0 -1
    outer loop
      vertex -67.0548 1.48892e-14 0
      vertex -69.5686 -6.69131 0
      vertex -77 10 0
    endloop
  endfacet
  facet normal 0 0 -1
    outer loop
      vertex -67.0548 229.5 0
      vertex -67.4894 232.59 0
      vertex -67.0548 230.545 0
    endloop
  endfacet
  facet normal 0 0 -1
    outer loop
      vertex -77 10 0
      vertex -69.5686 -6.69131 0
      vertex -71.1221 -8.09017 0
    endloop
  endfacet
  facet normal 0 0 -1
    outer loop
      vertex -67.0548 229.5 0
      vertex -68.3397 234.5 0
      vertex -67.4894 232.59 0
    endloop
  endfacet
  facet normal 0 0 -1
    outer loop
      vertex -77 10 0
      vertex -71.1221 -8.09017 0
      vertex -72.9326 -9.13545 0
    endloop
  endfacet
  facet normal 0 0 -1
    outer loop
      vertex -67.0548 229.5 0
      vertex -69.5686 236.191 0
      vertex -68.3397 234.5 0
    endloop
  endfacet
  facet normal 0 0 -1
    outer loop
      vertex -77 10 0
      vertex -72.9326 -9.13545 0
      vertex -74.9209 -9.78148 0
    endloop
  endfacet
  facet normal -0 0 -1
    outer loop
      vertex -69.5686 236.191 0
      vertex -77 219.5 0
      vertex -71.1221 237.59 0
    endloop
  endfacet
  facet normal 0 0 -1
    outer loop
      vertex -77 10 0
      vertex -74.9209 -9.78148 0
      vertex -77 -10 0
    endloop
  endfacet
  facet normal -0 0 -1
    outer loop
      vertex -71.1221 237.59 0
      vertex -77 219.5 0
      vertex -72.9326 238.635 0
    endloop
  endfacet
  facet normal -0 0 -1
    outer loop
      vertex -72.9326 238.635 0
      vertex -77 219.5 0
      vertex -74.9209 239.281 0
    endloop
  endfacet
  facet normal 0 0 -1
    outer loop
      vertex -77 219.5 0
      vertex -77 239.5 0
      vertex -74.9209 239.281 0
    endloop
  endfacet
  facet normal 0 0 -1
    outer loop
      vertex -79.0791 219.719 0
      vertex -77 239.5 0
      vertex -77 219.5 0
    endloop
  endfacet
  facet normal 0 0 -1
    outer loop
      vertex -79.0791 219.719 0
      vertex -79.0791 239.281 0
      vertex -77 239.5 0
    endloop
  endfacet
  facet normal 0 0 -1
    outer loop
      vertex -81.0674 220.365 0
      vertex -79.0791 239.281 0
      vertex -79.0791 219.719 0
    endloop
  endfacet
  facet normal 0 0 -1
    outer loop
      vertex -81.0674 220.365 0
      vertex -81.0674 238.635 0
      vertex -79.0791 239.281 0
    endloop
  endfacet
  facet normal 0 0 -1
    outer loop
      vertex -82.8779 221.41 0
      vertex -81.0674 238.635 0
      vertex -81.0674 220.365 0
    endloop
  endfacet
  facet normal 0 0 -1
    outer loop
      vertex -82.8779 221.41 0
      vertex -82.8779 237.59 0
      vertex -81.0674 238.635 0
    endloop
  endfacet
  facet normal 0 0 -1
    outer loop
      vertex -84.4314 222.809 0
      vertex -82.8779 237.59 0
      vertex -82.8779 221.41 0
    endloop
  endfacet
  facet normal 0 0 -1
    outer loop
      vertex -84.4314 222.809 0
      vertex -84.4314 236.191 0
      vertex -82.8779 237.59 0
    endloop
  endfacet
  facet normal 0 0 -1
    outer loop
      vertex -85.6603 224.5 0
      vertex -84.4314 236.191 0
      vertex -84.4314 222.809 0
    endloop
  endfacet
  facet normal 0 0 -1
    outer loop
      vertex -85.6603 224.5 0
      vertex -85.6603 234.5 0
      vertex -84.4314 236.191 0
    endloop
  endfacet
  facet normal 0 0 -1
    outer loop
      vertex -86.5106 226.41 0
      vertex -85.6603 234.5 0
      vertex -85.6603 224.5 0
    endloop
  endfacet
  facet normal 0 0 -1
    outer loop
      vertex -86.5106 226.41 0
      vertex -86.5106 232.59 0
      vertex -85.6603 234.5 0
    endloop
  endfacet
  facet normal 0 0 -1
    outer loop
      vertex -86.9452 228.455 0
      vertex -86.5106 232.59 0
      vertex -86.5106 226.41 0
    endloop
  endfacet
  facet normal 0 0 -1
    outer loop
      vertex -86.5106 232.59 0
      vertex -86.9452 228.455 0
      vertex -86.9452 230.545 0
    endloop
  endfacet
  facet normal 0 0 -1
    outer loop
      vertex -77 10 0
      vertex 2.22045e-15 10 0
      vertex -67.0548 1.48892e-14 0
    endloop
  endfacet
  facet normal 0 0 -1
    outer loop
      vertex 4.87388e-14 219.5 0
      vertex -67.0548 229.5 0
      vertex -9.94522 229.5 0
    endloop
  endfacet
  facet normal 1 -2.22045e-16 0
    outer loop
      vertex 5.09592e-14 229.5 31.5
      vertex 4.87388e-14 219.5 0.299999
      vertex 5.09592e-14 229.5 0.299999
    endloop
  endfacet
  facet normal 1 -2.22045e-16 0
    outer loop
      vertex 4.87388e-14 219.5 0.299999
      vertex 2.22045e-15 10 0.299999
      vertex 4.87388e-14 219.5 0
    endloop
  endfacet
  facet normal 1 -2.22045e-16 0
    outer loop
      vertex 5.09592e-14 229.5 31.5
      vertex 2.22045e-15 10 0.299999
      vertex 4.87388e-14 219.5 0.299999
    endloop
  endfacet
  facet normal 1 -2.22045e-16 0
    outer loop
      vertex 0 0 31.5
      vertex 2.22045e-15 10 0.299999
      vertex 5.09592e-14 229.5 31.5
    endloop
  endfacet
  facet normal 1 -2.22045e-16 0
    outer loop
      vertex 2.22045e-15 10 0.299999
      vertex 0 0 31.5
      vertex 0 0 0.299999
    endloop
  endfacet
  facet normal 1 -2.22045e-16 0
    outer loop
      vertex 4.87388e-14 219.5 0
      vertex 2.22045e-15 10 0.299999
      vertex 2.22045e-15 10 0
    endloop
  endfacet
  facet normal 0 1 -0
    outer loop
      vertex -1.5 1.5 1.5
      vertex -75.5 1.5 31.5
      vertex -1.5 1.5 31.5
    endloop
  endfacet
  facet normal 0 1 0
    outer loop
      vertex -75.5 1.5 31.5
      vertex -1.5 1.5 1.5
      vertex -75.5 1.5 1.5
    endloop
  endfacet
  facet normal 0 -1 0
    outer loop
      vertex -75.5 25.5 1.5
      vertex -1.5 25.5 31.5
      vertex -75.5 25.5 31.5
    endloop
  endfacet
  facet normal 0 -1 -0
    outer loop
      vertex -1.5 25.5 31.5
      vertex -75.5 25.5 1.5
      vertex -1.5 25.5 1.5
    endloop
  endfacet
  facet normal 1 -0 0
    outer loop
      vertex -75.5 1.5 31.5
      vertex -75.5 25.5 1.5
      vertex -75.5 25.5 31.5
    endloop
  endfacet
  facet normal 1 0 0
    outer loop
      vertex -75.5 25.5 1.5
      vertex -75.5 1.5 31.5
      vertex -75.5 1.5 1.5
    endloop
  endfacet
  facet normal -0 0 1
    outer loop
      vertex -75.5 25.5 1.5
      vertex -1.5 1.5 1.5
      vertex -1.5 25.5 1.5
    endloop
  endfacet
  facet normal 0 0 1
    outer loop
      vertex -1.5 1.5 1.5
      vertex -75.5 25.5 1.5
      vertex -75.5 1.5 1.5
    endloop
  endfacet
  facet normal -1 0 0
    outer loop
      vertex -1.5 1.5 1.5
      vertex -1.5 25.5 31.5
      vertex -1.5 25.5 1.5
    endloop
  endfacet
  facet normal -1 -0 0
    outer loop
      vertex -1.5 25.5 31.5
      vertex -1.5 1.5 1.5
      vertex -1.5 1.5 31.5
    endloop
  endfacet
  facet normal 0 1 -0
    outer loop
      vertex -39.25 46.5 1.5
      vertex -75.5 46.5 31.5
      vertex -39.25 46.5 31.5
    endloop
  endfacet
  facet normal 0 1 0
    outer loop
      vertex -75.5 46.5 31.5
      vertex -39.25 46.5 1.5
      vertex -75.5 46.5 1.5
    endloop
  endfacet
  facet normal 0 1 -0
    outer loop
      vertex -1.5 46.5 1.5
      vertex -37.75 46.5 31.5
      vertex -1.5 46.5 31.5
    endloop
  endfacet
  facet normal 0 1 0
    outer loop
      vertex -37.75 46.5 31.5
      vertex -1.5 46.5 1.5
      vertex -37.75 46.5 1.5
    endloop
  endfacet
  facet normal 0 -1 0
    outer loop
      vertex -75.5 45 1.5
      vertex -1.5 45 31.5
      vertex -75.5 45 31.5
    endloop
  endfacet
  facet normal 0 -1 -0
    outer loop
      vertex -1.5 45 31.5
      vertex -75.5 45 1.5
      vertex -1.5 45 1.5
    endloop
  endfacet
  facet normal -0 0 1
    outer loop
      vertex -75.5 45 1.5
      vertex -1.5 27 1.5
      vertex -1.5 45 1.5
    endloop
  endfacet
  facet normal 0 0 1
    outer loop
      vertex -1.5 27 1.5
      vertex -75.5 45 1.5
      vertex -75.5 27 1.5
    endloop
  endfacet
  facet normal -1 0 0
    outer loop
      vertex -1.5 27 1.5
      vertex -1.5 45 31.5
      vertex -1.5 45 1.5
    endloop
  endfacet
  facet normal -1 -0 0
    outer loop
      vertex -1.5 45 31.5
      vertex -1.5 27 1.5
      vertex -1.5 27 31.5
    endloop
  endfacet
  facet normal 1 -0 0
    outer loop
      vertex -75.5 27 31.5
      vertex -75.5 45 1.5
      vertex -75.5 45 31.5
    endloop
  endfacet
  facet normal 1 0 0
    outer loop
      vertex -75.5 45 1.5
      vertex -75.5 27 31.5
      vertex -75.5 27 1.5
    endloop
  endfacet
  facet normal 0 1 -0
    outer loop
      vertex -39.25 60 1.5
      vertex -75.5 60 31.5
      vertex -39.25 60 31.5
    endloop
  endfacet
  facet normal 0 1 0
    outer loop
      vertex -75.5 60 31.5
      vertex -39.25 60 1.5
      vertex -75.5 60 1.5
    endloop
  endfacet
  facet normal 0 1 -0
    outer loop
      vertex -1.5 60 1.5
      vertex -37.75 60 31.5
      vertex -1.5 60 31.5
    endloop
  endfacet
  facet normal 0 1 0
    outer loop
      vertex -37.75 60 31.5
      vertex -1.5 60 1.5
      vertex -37.75 60 1.5
    endloop
  endfacet
  facet normal -1 0 0
    outer loop
      vertex -39.25 46.5 1.5
      vertex -39.25 58.5 31.5
      vertex -39.25 58.5 1.5
    endloop
  endfacet
  facet normal -1 -0 0
    outer loop
      vertex -39.25 58.5 31.5
      vertex -39.25 46.5 1.5
      vertex -39.25 46.5 31.5
    endloop
  endfacet
  facet normal 0 -1 0
    outer loop
      vertex -75.5 58.5 1.5
      vertex -39.25 58.5 31.5
      vertex -75.5 58.5 31.5
    endloop
  endfacet
  facet normal 0 -1 -0
    outer loop
      vertex -39.25 58.5 31.5
      vertex -75.5 58.5 1.5
      vertex -39.25 58.5 1.5
    endloop
  endfacet
  facet normal 0 -1 0
    outer loop
      vertex -37.75 58.5 1.5
      vertex -1.5 58.5 31.5
      vertex -37.75 58.5 31.5
    endloop
  endfacet
  facet normal 0 -1 -0
    outer loop
      vertex -1.5 58.5 31.5
      vertex -37.75 58.5 1.5
      vertex -1.5 58.5 1.5
    endloop
  endfacet
  facet normal -0 0 1
    outer loop
      vertex -37.75 58.5 1.5
      vertex -1.5 46.5 1.5
      vertex -1.5 58.5 1.5
    endloop
  endfacet
  facet normal 0 0 1
    outer loop
      vertex -1.5 46.5 1.5
      vertex -37.75 58.5 1.5
      vertex -37.75 46.5 1.5
    endloop
  endfacet
  facet normal -1 0 0
    outer loop
      vertex -1.5 46.5 1.5
      vertex -1.5 58.5 31.5
      vertex -1.5 58.5 1.5
    endloop
  endfacet
  facet normal -1 -0 0
    outer loop
      vertex -1.5 58.5 31.5
      vertex -1.5 46.5 1.5
      vertex -1.5 46.5 31.5
    endloop
  endfacet
  facet normal 1 -0 0
    outer loop
      vertex -37.75 46.5 31.5
      vertex -37.75 58.5 1.5
      vertex -37.75 58.5 31.5
    endloop
  endfacet
  facet normal 1 0 0
    outer loop
      vertex -37.75 58.5 1.5
      vertex -37.75 46.5 31.5
      vertex -37.75 46.5 1.5
    endloop
  endfacet
  facet normal -0 0 1
    outer loop
      vertex -75.5 58.5 1.5
      vertex -39.25 46.5 1.5
      vertex -39.25 58.5 1.5
    endloop
  endfacet
  facet normal 0 0 1
    outer loop
      vertex -39.25 46.5 1.5
      vertex -75.5 58.5 1.5
      vertex -75.5 46.5 1.5
    endloop
  endfacet
  facet normal 1 -0 0
    outer loop
      vertex -75.5 46.5 31.5
      vertex -75.5 58.5 1.5
      vertex -75.5 58.5 31.5
    endloop
  endfacet
  facet normal 1 0 0
    outer loop
      vertex -75.5 58.5 1.5
      vertex -75.5 46.5 31.5
      vertex -75.5 46.5 1.5
    endloop
  endfacet
  facet normal 0 1 -0
    outer loop
      vertex -1.5 73.5 1.5
      vertex -75.5 73.5 31.5
      vertex -1.5 73.5 31.5
    endloop
  endfacet
  facet normal 0 1 0
    outer loop
      vertex -75.5 73.5 31.5
      vertex -1.5 73.5 1.5
      vertex -75.5 73.5 1.5
    endloop
  endfacet
  facet normal -1 0 0
    outer loop
      vertex -39.25 60 1.5
      vertex -39.25 72 31.5
      vertex -39.25 72 1.5
    endloop
  endfacet
  facet normal -1 -0 0
    outer loop
      vertex -39.25 72 31.5
      vertex -39.25 60 1.5
      vertex -39.25 60 31.5
    endloop
  endfacet
  facet normal 0 -1 0
    outer loop
      vertex -75.5 72 1.5
      vertex -39.25 72 31.5
      vertex -75.5 72 31.5
    endloop
  endfacet
  facet normal 0 -1 -0
    outer loop
      vertex -39.25 72 31.5
      vertex -75.5 72 1.5
      vertex -39.25 72 1.5
    endloop
  endfacet
  facet normal 0 -1 0
    outer loop
      vertex -37.75 72 1.5
      vertex -1.5 72 31.5
      vertex -37.75 72 31.5
    endloop
  endfacet
  facet normal 0 -1 -0
    outer loop
      vertex -1.5 72 31.5
      vertex -37.75 72 1.5
      vertex -1.5 72 1.5
    endloop
  endfacet
  facet normal -0 0 1
    outer loop
      vertex -37.75 72 1.5
      vertex -1.5 60 1.5
      vertex -1.5 72 1.5
    endloop
  endfacet
  facet normal 0 0 1
    outer loop
      vertex -1.5 60 1.5
      vertex -37.75 72 1.5
      vertex -37.75 60 1.5
    endloop
  endfacet
  facet normal -1 0 0
    outer loop
      vertex -1.5 60 1.5
      vertex -1.5 72 31.5
      vertex -1.5 72 1.5
    endloop
  endfacet
  facet normal -1 -0 0
    outer loop
      vertex -1.5 72 31.5
      vertex -1.5 60 1.5
      vertex -1.5 60 31.5
    endloop
  endfacet
  facet normal 1 -0 0
    outer loop
      vertex -37.75 60 31.5
      vertex -37.75 72 1.5
      vertex -37.75 72 31.5
    endloop
  endfacet
  facet normal 1 0 0
    outer loop
      vertex -37.75 72 1.5
      vertex -37.75 60 31.5
      vertex -37.75 60 1.5
    endloop
  endfacet
  facet normal -0 0 1
    outer loop
      vertex -75.5 72 1.5
      vertex -39.25 60 1.5
      vertex -39.25 72 1.5
    endloop
  endfacet
  facet normal 0 0 1
    outer loop
      vertex -39.25 60 1.5
      vertex -75.5 72 1.5
      vertex -75.5 60 1.5
    endloop
  endfacet
  facet normal 1 -0 0
    outer loop
      vertex -75.5 60 31.5
      vertex -75.5 72 1.5
      vertex -75.5 72 31.5
    endloop
  endfacet
  facet normal 1 0 0
    outer loop
      vertex -75.5 72 1.5
      vertex -75.5 60 31.5
      vertex -75.5 60 1.5
    endloop
  endfacet
  facet normal 0 1 -0
    outer loop
      vertex -1.5 87 1.5
      vertex -75.5 87 31.5
      vertex -1.5 87 31.5
    endloop
  endfacet
  facet normal 0 1 0
    outer loop
      vertex -75.5 87 31.5
      vertex -1.5 87 1.5
      vertex -75.5 87 1.5
    endloop
  endfacet
  facet normal 0 -1 0
    outer loop
      vertex -75.5 85.5 1.5
      vertex -1.5 85.5 31.5
      vertex -75.5 85.5 31.5
    endloop
  endfacet
  facet normal 0 -1 -0
    outer loop
      vertex -1.5 85.5 31.5
      vertex -75.5 85.5 1.5
      vertex -1.5 85.5 1.5
    endloop
  endfacet
  facet normal 1 -0 0
    outer loop
      vertex -75.5 73.5 31.5
      vertex -75.5 85.5 1.5
      vertex -75.5 85.5 31.5
    endloop
  endfacet
  facet normal 1 0 0
    outer loop
      vertex -75.5 85.5 1.5
      vertex -75.5 73.5 31.5
      vertex -75.5 73.5 1.5
    endloop
  endfacet
  facet normal -0 0 1
    outer loop
      vertex -75.5 85.5 1.5
      vertex -1.5 73.5 1.5
      vertex -1.5 85.5 1.5
    endloop
  endfacet
  facet normal 0 0 1
    outer loop
      vertex -1.5 73.5 1.5
      vertex -75.5 85.5 1.5
      vertex -75.5 73.5 1.5
    endloop
  endfacet
  facet normal -1 0 0
    outer loop
      vertex -1.5 73.5 1.5
      vertex -1.5 85.5 31.5
      vertex -1.5 85.5 1.5
    endloop
  endfacet
  facet normal -1 -0 0
    outer loop
      vertex -1.5 85.5 31.5
      vertex -1.5 73.5 1.5
      vertex -1.5 73.5 31.5
    endloop
  endfacet
  facet normal 0 1 -0
    outer loop
      vertex -1.5 106.5 1.5
      vertex -75.5 106.5 31.5
      vertex -1.5 106.5 31.5
    endloop
  endfacet
  facet normal 0 1 0
    outer loop
      vertex -75.5 106.5 31.5
      vertex -1.5 106.5 1.5
      vertex -75.5 106.5 1.5
    endloop
  endfacet
  facet normal 0 -1 0
    outer loop
      vertex -75.5 105 1.5
      vertex -1.5 105 31.5
      vertex -75.5 105 31.5
    endloop
  endfacet
  facet normal 0 -1 -0
    outer loop
      vertex -1.5 105 31.5
      vertex -75.5 105 1.5
      vertex -1.5 105 1.5
    endloop
  endfacet
  facet normal -0 0 1
    outer loop
      vertex -75.5 105 1.5
      vertex -1.5 87 1.5
      vertex -1.5 105 1.5
    endloop
  endfacet
  facet normal 0 0 1
    outer loop
      vertex -1.5 87 1.5
      vertex -75.5 105 1.5
      vertex -75.5 87 1.5
    endloop
  endfacet
  facet normal -1 0 0
    outer loop
      vertex -1.5 87 1.5
      vertex -1.5 105 31.5
      vertex -1.5 105 1.5
    endloop
  endfacet
  facet normal -1 -0 0
    outer loop
      vertex -1.5 105 31.5
      vertex -1.5 87 1.5
      vertex -1.5 87 31.5
    endloop
  endfacet
  facet normal 1 -0 0
    outer loop
      vertex -75.5 87 31.5
      vertex -75.5 105 1.5
      vertex -75.5 105 31.5
    endloop
  endfacet
  facet normal 1 0 0
    outer loop
      vertex -75.5 105 1.5
      vertex -75.5 87 31.5
      vertex -75.5 87 1.5
    endloop
  endfacet
  facet normal 0 1 -0
    outer loop
      vertex -1.5 126 1.5
      vertex -75.5 126 31.5
      vertex -1.5 126 31.5
    endloop
  endfacet
  facet normal 0 1 0
    outer loop
      vertex -75.5 126 31.5
      vertex -1.5 126 1.5
      vertex -75.5 126 1.5
    endloop
  endfacet
  facet normal 0 -1 0
    outer loop
      vertex -75.5 124.5 1.5
      vertex -1.5 124.5 31.5
      vertex -75.5 124.5 31.5
    endloop
  endfacet
  facet normal 0 -1 -0
    outer loop
      vertex -1.5 124.5 31.5
      vertex -75.5 124.5 1.5
      vertex -1.5 124.5 1.5
    endloop
  endfacet
  facet normal -0 0 1
    outer loop
      vertex -75.5 124.5 1.5
      vertex -1.5 106.5 1.5
      vertex -1.5 124.5 1.5
    endloop
  endfacet
  facet normal 0 0 1
    outer loop
      vertex -1.5 106.5 1.5
      vertex -75.5 124.5 1.5
      vertex -75.5 106.5 1.5
    endloop
  endfacet
  facet normal -1 0 0
    outer loop
      vertex -1.5 106.5 1.5
      vertex -1.5 124.5 31.5
      vertex -1.5 124.5 1.5
    endloop
  endfacet
  facet normal -1 -0 0
    outer loop
      vertex -1.5 124.5 31.5
      vertex -1.5 106.5 1.5
      vertex -1.5 106.5 31.5
    endloop
  endfacet
  facet normal 1 -0 0
    outer loop
      vertex -75.5 106.5 31.5
      vertex -75.5 124.5 1.5
      vertex -75.5 124.5 31.5
    endloop
  endfacet
  facet normal 1 0 0
    outer loop
      vertex -75.5 124.5 1.5
      vertex -75.5 106.5 31.5
      vertex -75.5 106.5 1.5
    endloop
  endfacet
  facet normal 0 1 -0
    outer loop
      vertex -1.5 145.5 1.5
      vertex -75.5 145.5 31.5
      vertex -1.5 145.5 31.5
    endloop
  endfacet
  facet normal 0 1 0
    outer loop
      vertex -75.5 145.5 31.5
      vertex -1.5 145.5 1.5
      vertex -75.5 145.5 1.5
    endloop
  endfacet
  facet normal 0 -1 0
    outer loop
      vertex -75.5 144 1.5
      vertex -1.5 144 31.5
      vertex -75.5 144 31.5
    endloop
  endfacet
  facet normal 0 -1 -0
    outer loop
      vertex -1.5 144 31.5
      vertex -75.5 144 1.5
      vertex -1.5 144 1.5
    endloop
  endfacet
  facet normal -0 0 1
    outer loop
      vertex -75.5 144 1.5
      vertex -1.5 126 1.5
      vertex -1.5 144 1.5
    endloop
  endfacet
  facet normal 0 0 1
    outer loop
      vertex -1.5 126 1.5
      vertex -75.5 144 1.5
      vertex -75.5 126 1.5
    endloop
  endfacet
  facet normal -1 0 0
    outer loop
      vertex -1.5 126 1.5
      vertex -1.5 144 31.5
      vertex -1.5 144 1.5
    endloop
  endfacet
  facet normal -1 -0 0
    outer loop
      vertex -1.5 144 31.5
      vertex -1.5 126 1.5
      vertex -1.5 126 31.5
    endloop
  endfacet
  facet normal 1 -0 0
    outer loop
      vertex -75.5 126 31.5
      vertex -75.5 144 1.5
      vertex -75.5 144 31.5
    endloop
  endfacet
  facet normal 1 0 0
    outer loop
      vertex -75.5 144 1.5
      vertex -75.5 126 31.5
      vertex -75.5 126 1.5
    endloop
  endfacet
  facet normal 0 1 -0
    outer loop
      vertex -1.5 165 1.5
      vertex -75.5 165 31.5
      vertex -1.5 165 31.5
    endloop
  endfacet
  facet normal 0 1 0
    outer loop
      vertex -75.5 165 31.5
      vertex -1.5 165 1.5
      vertex -75.5 165 1.5
    endloop
  endfacet
  facet normal 0 -1 0
    outer loop
      vertex -75.5 163.5 1.5
      vertex -1.5 163.5 31.5
      vertex -75.5 163.5 31.5
    endloop
  endfacet
  facet normal 0 -1 -0
    outer loop
      vertex -1.5 163.5 31.5
      vertex -75.5 163.5 1.5
      vertex -1.5 163.5 1.5
    endloop
  endfacet
  facet normal -0 0 1
    outer loop
      vertex -75.5 163.5 1.5
      vertex -1.5 145.5 1.5
      vertex -1.5 163.5 1.5
    endloop
  endfacet
  facet normal 0 0 1
    outer loop
      vertex -1.5 145.5 1.5
      vertex -75.5 163.5 1.5
      vertex -75.5 145.5 1.5
    endloop
  endfacet
  facet normal -1 0 0
    outer loop
      vertex -1.5 145.5 1.5
      vertex -1.5 163.5 31.5
      vertex -1.5 163.5 1.5
    endloop
  endfacet
  facet normal -1 -0 0
    outer loop
      vertex -1.5 163.5 31.5
      vertex -1.5 145.5 1.5
      vertex -1.5 145.5 31.5
    endloop
  endfacet
  facet normal 1 -0 0
    outer loop
      vertex -75.5 145.5 31.5
      vertex -75.5 163.5 1.5
      vertex -75.5 163.5 31.5
    endloop
  endfacet
  facet normal 1 0 0
    outer loop
      vertex -75.5 163.5 1.5
      vertex -75.5 145.5 31.5
      vertex -75.5 145.5 1.5
    endloop
  endfacet
  facet normal 0 1 -0
    outer loop
      vertex -1.5 184.5 1.5
      vertex -75.5 184.5 31.5
      vertex -1.5 184.5 31.5
    endloop
  endfacet
  facet normal 0 1 0
    outer loop
      vertex -75.5 184.5 31.5
      vertex -1.5 184.5 1.5
      vertex -75.5 184.5 1.5
    endloop
  endfacet
  facet normal 0 -1 0
    outer loop
      vertex -75.5 183 1.5
      vertex -1.5 183 31.5
      vertex -75.5 183 31.5
    endloop
  endfacet
  facet normal 0 -1 -0
    outer loop
      vertex -1.5 183 31.5
      vertex -75.5 183 1.5
      vertex -1.5 183 1.5
    endloop
  endfacet
  facet normal -0 0 1
    outer loop
      vertex -75.5 183 1.5
      vertex -1.5 165 1.5
      vertex -1.5 183 1.5
    endloop
  endfacet
  facet normal 0 0 1
    outer loop
      vertex -1.5 165 1.5
      vertex -75.5 183 1.5
      vertex -75.5 165 1.5
    endloop
  endfacet
  facet normal -1 0 0
    outer loop
      vertex -1.5 165 1.5
      vertex -1.5 183 31.5
      vertex -1.5 183 1.5
    endloop
  endfacet
  facet normal -1 -0 0
    outer loop
      vertex -1.5 183 31.5
      vertex -1.5 165 1.5
      vertex -1.5 165 31.5
    endloop
  endfacet
  facet normal 1 -0 0
    outer loop
      vertex -75.5 165 31.5
      vertex -75.5 183 1.5
      vertex -75.5 183 31.5
    endloop
  endfacet
  facet normal 1 0 0
    outer loop
      vertex -75.5 183 1.5
      vertex -75.5 165 31.5
      vertex -75.5 165 1.5
    endloop
  endfacet
  facet normal 0 1 -0
    outer loop
      vertex -1.5 204 1.5
      vertex -75.5 204 31.5
      vertex -1.5 204 31.5
    endloop
  endfacet
  facet normal 0 1 0
    outer loop
      vertex -75.5 204 31.5
      vertex -1.5 204 1.5
      vertex -75.5 204 1.5
    endloop
  endfacet
  facet normal 0 -1 0
    outer loop
      vertex -75.5 202.5 1.5
      vertex -1.5 202.5 31.5
      vertex -75.5 202.5 31.5
    endloop
  endfacet
  facet normal 0 -1 -0
    outer loop
      vertex -1.5 202.5 31.5
      vertex -75.5 202.5 1.5
      vertex -1.5 202.5 1.5
    endloop
  endfacet
  facet normal -0 0 1
    outer loop
      vertex -75.5 202.5 1.5
      vertex -1.5 184.5 1.5
      vertex -1.5 202.5 1.5
    endloop
  endfacet
  facet normal 0 0 1
    outer loop
      vertex -1.5 184.5 1.5
      vertex -75.5 202.5 1.5
      vertex -75.5 184.5 1.5
    endloop
  endfacet
  facet normal -1 0 0
    outer loop
      vertex -1.5 184.5 1.5
      vertex -1.5 202.5 31.5
      vertex -1.5 202.5 1.5
    endloop
  endfacet
  facet normal -1 -0 0
    outer loop
      vertex -1.5 202.5 31.5
      vertex -1.5 184.5 1.5
      vertex -1.5 184.5 31.5
    endloop
  endfacet
  facet normal 1 -0 0
    outer loop
      vertex -75.5 184.5 31.5
      vertex -75.5 202.5 1.5
      vertex -75.5 202.5 31.5
    endloop
  endfacet
  facet normal 1 0 0
    outer loop
      vertex -75.5 202.5 1.5
      vertex -75.5 184.5 31.5
      vertex -75.5 184.5 1.5
    endloop
  endfacet
  facet normal 0 1 -0
    outer loop
      vertex -9.94522 229.5 0
      vertex -67.0548 229.5 0.299999
      vertex -9.94522 229.5 0.299999
    endloop
  endfacet
  facet normal 0 1 0
    outer loop
      vertex -67.0548 229.5 0.299999
      vertex -9.94522 229.5 0
      vertex -67.0548 229.5 0
    endloop
  endfacet
  facet normal 0 1 0
    outer loop
      vertex -9.94522 229.5 0.299999
      vertex 5.09592e-14 229.5 31.5
      vertex 5.09592e-14 229.5 0.299999
    endloop
  endfacet
  facet normal 0 1 0
    outer loop
      vertex 5.09592e-14 229.5 31.5
      vertex -9.94522 229.5 0.299999
      vertex -77 229.5 31.5
    endloop
  endfacet
  facet normal 0 1 -0
    outer loop
      vertex -67.0548 229.5 0.299999
      vertex -77 229.5 31.5
      vertex -9.94522 229.5 0.299999
    endloop
  endfacet
  facet normal 0 1 0
    outer loop
      vertex -77 229.5 31.5
      vertex -67.0548 229.5 0.299999
      vertex -77 229.5 0.299999
    endloop
  endfacet
  facet normal 0 -1 0
    outer loop
      vertex -75.5 228 1.5
      vertex -1.5 228 31.5
      vertex -75.5 228 31.5
    endloop
  endfacet
  facet normal 0 -1 -0
    outer loop
      vertex -1.5 228 31.5
      vertex -75.5 228 1.5
      vertex -1.5 228 1.5
    endloop
  endfacet
  facet normal 1 -0 0
    outer loop
      vertex -75.5 204 31.5
      vertex -75.5 228 1.5
      vertex -75.5 228 31.5
    endloop
  endfacet
  facet normal 1 0 0
    outer loop
      vertex -75.5 228 1.5
      vertex -75.5 204 31.5
      vertex -75.5 204 1.5
    endloop
  endfacet
  facet normal -0 0 1
    outer loop
      vertex -75.5 228 1.5
      vertex -1.5 204 1.5
      vertex -1.5 228 1.5
    endloop
  endfacet
  facet normal 0 0 1
    outer loop
      vertex -1.5 204 1.5
      vertex -75.5 228 1.5
      vertex -75.5 204 1.5
    endloop
  endfacet
  facet normal -1 0 0
    outer loop
      vertex -1.5 204 1.5
      vertex -1.5 228 31.5
      vertex -1.5 228 1.5
    endloop
  endfacet
  facet normal -1 -0 0
    outer loop
      vertex -1.5 228 31.5
      vertex -1.5 204 1.5
      vertex -1.5 204 31.5
    endloop
  endfacet
  facet normal -0.104529 -0.994522 0
    outer loop
      vertex -2.07912 -9.78148 0
      vertex -2.22045e-15 -10 0.299999
      vertex -2.07912 -9.78148 0.299999
    endloop
  endfacet
  facet normal -0.104529 -0.994522 -0
    outer loop
      vertex -2.22045e-15 -10 0.299999
      vertex -2.07912 -9.78148 0
      vertex -2.22045e-15 -10 0
    endloop
  endfacet
  facet normal -1 0 0
    outer loop
      vertex -9.94522 -1.04528 0
      vertex -9.94522 2.20828e-15 0.299999
      vertex -9.94522 2.20828e-15 0
    endloop
  endfacet
  facet normal -1 -0 0
    outer loop
      vertex -9.94522 2.20828e-15 0.299999
      vertex -9.94522 -1.04528 0
      vertex -9.94522 -1.04528 0.299999
    endloop
  endfacet
  facet normal 1 -0 0
    outer loop
      vertex 9.94522 -1.04528 0.299999
      vertex 9.94522 1.04528 0
      vertex 9.94522 1.04528 0.299999
    endloop
  endfacet
  facet normal 1 0 0
    outer loop
      vertex 9.94522 1.04528 0
      vertex 9.94522 -1.04528 0.299999
      vertex 9.94522 -1.04528 0
    endloop
  endfacet
  facet normal -0.669131 -0.743145 0
    outer loop
      vertex -7.43145 -6.69131 0
      vertex -5.87785 -8.09017 0.299999
      vertex -7.43145 -6.69131 0.299999
    endloop
  endfacet
  facet normal -0.669131 -0.743145 -0
    outer loop
      vertex -5.87785 -8.09017 0.299999
      vertex -7.43145 -6.69131 0
      vertex -5.87785 -8.09017 0
    endloop
  endfacet
  facet normal -0.5 -0.866026 0
    outer loop
      vertex -5.87785 -8.09017 0
      vertex -4.06737 -9.13545 0.299999
      vertex -5.87785 -8.09017 0.299999
    endloop
  endfacet
  facet normal -0.5 -0.866026 -0
    outer loop
      vertex -4.06737 -9.13545 0.299999
      vertex -5.87785 -8.09017 0
      vertex -4.06737 -9.13545 0
    endloop
  endfacet
  facet normal -0.913545 -0.406737 0
    outer loop
      vertex -8.66025 -5 0
      vertex -9.51056 -3.09017 0.299999
      vertex -9.51056 -3.09017 0
    endloop
  endfacet
  facet normal -0.913545 -0.406737 0
    outer loop
      vertex -9.51056 -3.09017 0.299999
      vertex -8.66025 -5 0
      vertex -8.66025 -5 0.299999
    endloop
  endfacet
  facet normal 0.309017 0.951057 -0
    outer loop
      vertex 4.06737 9.13545 0
      vertex 2.07912 9.78148 0.299999
      vertex 4.06737 9.13545 0.299999
    endloop
  endfacet
  facet normal 0.309017 0.951057 0
    outer loop
      vertex 2.07912 9.78148 0.299999
      vertex 4.06737 9.13545 0
      vertex 2.07912 9.78148 0
    endloop
  endfacet
  facet normal -0.309017 -0.951057 0
    outer loop
      vertex -4.06737 -9.13545 0
      vertex -2.07912 -9.78148 0.299999
      vertex -4.06737 -9.13545 0.299999
    endloop
  endfacet
  facet normal -0.309017 -0.951057 -0
    outer loop
      vertex -2.07912 -9.78148 0.299999
      vertex -4.06737 -9.13545 0
      vertex -2.07912 -9.78148 0
    endloop
  endfacet
  facet normal 0 0 1
    outer loop
      vertex 0 0 0.299999
      vertex 9.94522 1.04528 0.299999
      vertex 9.51056 3.09017 0.299999
    endloop
  endfacet
  facet normal 0 0 1
    outer loop
      vertex 9.94522 1.04528 0.299999
      vertex 0 0 0.299999
      vertex 9.94522 -1.04528 0.299999
    endloop
  endfacet
  facet normal 0 0 1
    outer loop
      vertex 0 0 0.299999
      vertex 9.51056 3.09017 0.299999
      vertex 8.66025 5 0.299999
    endloop
  endfacet
  facet normal 0 0 1
    outer loop
      vertex 9.94522 -1.04528 0.299999
      vertex 0 0 0.299999
      vertex 9.51056 -3.09017 0.299999
    endloop
  endfacet
  facet normal 0 0 1
    outer loop
      vertex 0 0 0.299999
      vertex 8.66025 5 0.299999
      vertex 7.43145 6.69131 0.299999
    endloop
  endfacet
  facet normal 0 0 1
    outer loop
      vertex 9.51056 -3.09017 0.299999
      vertex 0 0 0.299999
      vertex 8.66025 -5 0.299999
    endloop
  endfacet
  facet normal 0 0 1
    outer loop
      vertex 0 0 0.299999
      vertex 7.43145 6.69131 0.299999
      vertex 5.87785 8.09017 0.299999
    endloop
  endfacet
  facet normal 0 0 1
    outer loop
      vertex 8.66025 -5 0.299999
      vertex 0 0 0.299999
      vertex 7.43145 -6.69131 0.299999
    endloop
  endfacet
  facet normal 0 0 1
    outer loop
      vertex 0 0 0.299999
      vertex 5.87785 8.09017 0.299999
      vertex 4.06737 9.13545 0.299999
    endloop
  endfacet
  facet normal 0 0 1
    outer loop
      vertex 7.43145 -6.69131 0.299999
      vertex 0 0 0.299999
      vertex 5.87785 -8.09017 0.299999
    endloop
  endfacet
  facet normal 0 0 1
    outer loop
      vertex 0 0 0.299999
      vertex 4.06737 9.13545 0.299999
      vertex 2.07912 9.78148 0.299999
    endloop
  endfacet
  facet normal 0 0 1
    outer loop
      vertex 5.87785 -8.09017 0.299999
      vertex 0 0 0.299999
      vertex 4.06737 -9.13545 0.299999
    endloop
  endfacet
  facet normal 0 0 1
    outer loop
      vertex 0 0 0.299999
      vertex 2.07912 9.78148 0.299999
      vertex 2.22045e-15 10 0.299999
    endloop
  endfacet
  facet normal 0 0 1
    outer loop
      vertex 4.06737 -9.13545 0.299999
      vertex 0 0 0.299999
      vertex 2.07912 -9.78148 0.299999
    endloop
  endfacet
  facet normal 0 0 1
    outer loop
      vertex 0 0 0.299999
      vertex -2.22045e-15 -10 0.299999
      vertex 2.07912 -9.78148 0.299999
    endloop
  endfacet
  facet normal 0 0 1
    outer loop
      vertex 0 0 0.299999
      vertex -2.07912 -9.78148 0.299999
      vertex -2.22045e-15 -10 0.299999
    endloop
  endfacet
  facet normal 0 0 1
    outer loop
      vertex 0 0 0.299999
      vertex -4.06737 -9.13545 0.299999
      vertex -2.07912 -9.78148 0.299999
    endloop
  endfacet
  facet normal 0 0 1
    outer loop
      vertex 0 0 0.299999
      vertex -5.87785 -8.09017 0.299999
      vertex -4.06737 -9.13545 0.299999
    endloop
  endfacet
  facet normal 0 0 1
    outer loop
      vertex 0 0 0.299999
      vertex -7.43145 -6.69131 0.299999
      vertex -5.87785 -8.09017 0.299999
    endloop
  endfacet
  facet normal 0 0 1
    outer loop
      vertex 0 0 0.299999
      vertex -8.66025 -5 0.299999
      vertex -7.43145 -6.69131 0.299999
    endloop
  endfacet
  facet normal 0 0 1
    outer loop
      vertex 0 0 0.299999
      vertex -9.51056 -3.09017 0.299999
      vertex -8.66025 -5 0.299999
    endloop
  endfacet
  facet normal 0 0 1
    outer loop
      vertex -9.94522 -1.04528 0.299999
      vertex 0 0 0.299999
      vertex -9.94522 2.20828e-15 0.299999
    endloop
  endfacet
  facet normal 0 0 1
    outer loop
      vertex 0 0 0.299999
      vertex -9.94522 -1.04528 0.299999
      vertex -9.51056 -3.09017 0.299999
    endloop
  endfacet
  facet normal -0.809017 -0.587785 0
    outer loop
      vertex -7.43145 -6.69131 0
      vertex -8.66025 -5 0.299999
      vertex -8.66025 -5 0
    endloop
  endfacet
  facet normal -0.809017 -0.587785 0
    outer loop
      vertex -8.66025 -5 0.299999
      vertex -7.43145 -6.69131 0
      vertex -7.43145 -6.69131 0.299999
    endloop
  endfacet
  facet normal -0.978148 -0.207911 0
    outer loop
      vertex -9.51056 -3.09017 0
      vertex -9.94522 -1.04528 0.299999
      vertex -9.94522 -1.04528 0
    endloop
  endfacet
  facet normal -0.978148 -0.207911 0
    outer loop
      vertex -9.94522 -1.04528 0.299999
      vertex -9.51056 -3.09017 0
      vertex -9.51056 -3.09017 0.299999
    endloop
  endfacet
  facet normal 0.104529 0.994522 -0
    outer loop
      vertex 2.07912 9.78148 0
      vertex 2.22045e-15 10 0.299999
      vertex 2.07912 9.78148 0.299999
    endloop
  endfacet
  facet normal 0.104529 0.994522 0
    outer loop
      vertex 2.22045e-15 10 0.299999
      vertex 2.07912 9.78148 0
      vertex 2.22045e-15 10 0
    endloop
  endfacet
  facet normal 0.978148 0.207911 0
    outer loop
      vertex 9.94522 1.04528 0.299999
      vertex 9.51056 3.09017 0
      vertex 9.51056 3.09017 0.299999
    endloop
  endfacet
  facet normal 0.978148 0.207911 0
    outer loop
      vertex 9.51056 3.09017 0
      vertex 9.94522 1.04528 0.299999
      vertex 9.94522 1.04528 0
    endloop
  endfacet
  facet normal 0.5 0.866026 -0
    outer loop
      vertex 5.87785 8.09017 0
      vertex 4.06737 9.13545 0.299999
      vertex 5.87785 8.09017 0.299999
    endloop
  endfacet
  facet normal 0.5 0.866026 0
    outer loop
      vertex 4.06737 9.13545 0.299999
      vertex 5.87785 8.09017 0
      vertex 4.06737 9.13545 0
    endloop
  endfacet
  facet normal 0.5 -0.866026 0
    outer loop
      vertex 4.06737 -9.13545 0
      vertex 5.87785 -8.09017 0.299999
      vertex 4.06737 -9.13545 0.299999
    endloop
  endfacet
  facet normal 0.5 -0.866026 0
    outer loop
      vertex 5.87785 -8.09017 0.299999
      vertex 4.06737 -9.13545 0
      vertex 5.87785 -8.09017 0
    endloop
  endfacet
  facet normal 0.809017 0.587785 0
    outer loop
      vertex 8.66025 5 0.299999
      vertex 7.43145 6.69131 0
      vertex 7.43145 6.69131 0.299999
    endloop
  endfacet
  facet normal 0.809017 0.587785 0
    outer loop
      vertex 7.43145 6.69131 0
      vertex 8.66025 5 0.299999
      vertex 8.66025 5 0
    endloop
  endfacet
  facet normal 0.913545 0.406737 0
    outer loop
      vertex 9.51056 3.09017 0.299999
      vertex 8.66025 5 0
      vertex 8.66025 5 0.299999
    endloop
  endfacet
  facet normal 0.913545 0.406737 0
    outer loop
      vertex 8.66025 5 0
      vertex 9.51056 3.09017 0.299999
      vertex 9.51056 3.09017 0
    endloop
  endfacet
  facet normal 0.978148 -0.207911 0
    outer loop
      vertex 9.51056 -3.09017 0.299999
      vertex 9.94522 -1.04528 0
      vertex 9.94522 -1.04528 0.299999
    endloop
  endfacet
  facet normal 0.978148 -0.207911 0
    outer loop
      vertex 9.94522 -1.04528 0
      vertex 9.51056 -3.09017 0.299999
      vertex 9.51056 -3.09017 0
    endloop
  endfacet
  facet normal 0.669131 -0.743145 0
    outer loop
      vertex 5.87785 -8.09017 0
      vertex 7.43145 -6.69131 0.299999
      vertex 5.87785 -8.09017 0.299999
    endloop
  endfacet
  facet normal 0.669131 -0.743145 0
    outer loop
      vertex 7.43145 -6.69131 0.299999
      vertex 5.87785 -8.09017 0
      vertex 7.43145 -6.69131 0
    endloop
  endfacet
  facet normal 0.309017 -0.951057 0
    outer loop
      vertex 2.07912 -9.78148 0
      vertex 4.06737 -9.13545 0.299999
      vertex 2.07912 -9.78148 0.299999
    endloop
  endfacet
  facet normal 0.309017 -0.951057 0
    outer loop
      vertex 4.06737 -9.13545 0.299999
      vertex 2.07912 -9.78148 0
      vertex 4.06737 -9.13545 0
    endloop
  endfacet
  facet normal 0.104529 -0.994522 0
    outer loop
      vertex -2.22045e-15 -10 0
      vertex 2.07912 -9.78148 0.299999
      vertex -2.22045e-15 -10 0.299999
    endloop
  endfacet
  facet normal 0.104529 -0.994522 0
    outer loop
      vertex 2.07912 -9.78148 0.299999
      vertex -2.22045e-15 -10 0
      vertex 2.07912 -9.78148 0
    endloop
  endfacet
  facet normal 0.669131 0.743145 -0
    outer loop
      vertex 7.43145 6.69131 0
      vertex 5.87785 8.09017 0.299999
      vertex 7.43145 6.69131 0.299999
    endloop
  endfacet
  facet normal 0.669131 0.743145 0
    outer loop
      vertex 5.87785 8.09017 0.299999
      vertex 7.43145 6.69131 0
      vertex 5.87785 8.09017 0
    endloop
  endfacet
  facet normal 0.809017 -0.587785 0
    outer loop
      vertex 7.43145 -6.69131 0.299999
      vertex 8.66025 -5 0
      vertex 8.66025 -5 0.299999
    endloop
  endfacet
  facet normal 0.809017 -0.587785 0
    outer loop
      vertex 8.66025 -5 0
      vertex 7.43145 -6.69131 0.299999
      vertex 7.43145 -6.69131 0
    endloop
  endfacet
  facet normal 0.913545 -0.406737 0
    outer loop
      vertex 8.66025 -5 0.299999
      vertex 9.51056 -3.09017 0
      vertex 9.51056 -3.09017 0.299999
    endloop
  endfacet
  facet normal 0.913545 -0.406737 0
    outer loop
      vertex 9.51056 -3.09017 0
      vertex 8.66025 -5 0.299999
      vertex 8.66025 -5 0
    endloop
  endfacet
  facet normal -0.104527 0.994522 0
    outer loop
      vertex 5.31797e-14 239.5 0
      vertex -2.07912 239.281 0.299999
      vertex 5.31797e-14 239.5 0.299999
    endloop
  endfacet
  facet normal -0.104527 0.994522 0
    outer loop
      vertex -2.07912 239.281 0.299999
      vertex 5.31797e-14 239.5 0
      vertex -2.07912 239.281 0
    endloop
  endfacet
  facet normal 0.978147 0.207912 0
    outer loop
      vertex 9.94522 230.545 0.299999
      vertex 9.51056 232.59 0
      vertex 9.51056 232.59 0.299999
    endloop
  endfacet
  facet normal 0.978147 0.207912 0
    outer loop
      vertex 9.51056 232.59 0
      vertex 9.94522 230.545 0.299999
      vertex 9.94522 230.545 0
    endloop
  endfacet
  facet normal 0.913546 0.406736 0
    outer loop
      vertex 9.51056 232.59 0.299999
      vertex 8.66025 234.5 0
      vertex 8.66025 234.5 0.299999
    endloop
  endfacet
  facet normal 0.913546 0.406736 0
    outer loop
      vertex 8.66025 234.5 0
      vertex 9.51056 232.59 0.299999
      vertex 9.51056 232.59 0
    endloop
  endfacet
  facet normal -0.809016 0.587787 0
    outer loop
      vertex -8.66025 234.5 0
      vertex -7.43145 236.191 0.299999
      vertex -7.43145 236.191 0
    endloop
  endfacet
  facet normal -0.809016 0.587787 0
    outer loop
      vertex -7.43145 236.191 0.299999
      vertex -8.66025 234.5 0
      vertex -8.66025 234.5 0.299999
    endloop
  endfacet
  facet normal -0.500001 0.866025 0
    outer loop
      vertex -4.06737 238.635 0
      vertex -5.87785 237.59 0.299999
      vertex -4.06737 238.635 0.299999
    endloop
  endfacet
  facet normal -0.500001 0.866025 0
    outer loop
      vertex -5.87785 237.59 0.299999
      vertex -4.06737 238.635 0
      vertex -5.87785 237.59 0
    endloop
  endfacet
  facet normal -0.309019 0.951056 0
    outer loop
      vertex -2.07912 239.281 0
      vertex -4.06737 238.635 0.299999
      vertex -2.07912 239.281 0.299999
    endloop
  endfacet
  facet normal -0.309019 0.951056 0
    outer loop
      vertex -4.06737 238.635 0.299999
      vertex -2.07912 239.281 0
      vertex -4.06737 238.635 0
    endloop
  endfacet
  facet normal -0.669131 0.743145 0
    outer loop
      vertex -5.87785 237.59 0
      vertex -7.43145 236.191 0.299999
      vertex -5.87785 237.59 0.299999
    endloop
  endfacet
  facet normal -0.669131 0.743145 0
    outer loop
      vertex -7.43145 236.191 0.299999
      vertex -5.87785 237.59 0
      vertex -7.43145 236.191 0
    endloop
  endfacet
  facet normal -0.978147 0.207912 0
    outer loop
      vertex -9.94522 230.545 0
      vertex -9.51056 232.59 0.299999
      vertex -9.51056 232.59 0
    endloop
  endfacet
  facet normal -0.978147 0.207912 0
    outer loop
      vertex -9.51056 232.59 0.299999
      vertex -9.94522 230.545 0
      vertex -9.94522 230.545 0.299999
    endloop
  endfacet
  facet normal -1 0 0
    outer loop
      vertex -9.94522 229.5 0
      vertex -9.94522 230.545 0.299999
      vertex -9.94522 230.545 0
    endloop
  endfacet
  facet normal -1 -0 0
    outer loop
      vertex -9.94522 230.545 0.299999
      vertex -9.94522 229.5 0
      vertex -9.94522 229.5 0.299999
    endloop
  endfacet
  facet normal -0.913546 0.406736 0
    outer loop
      vertex -9.51056 232.59 0
      vertex -8.66025 234.5 0.299999
      vertex -8.66025 234.5 0
    endloop
  endfacet
  facet normal -0.913546 0.406736 0
    outer loop
      vertex -8.66025 234.5 0.299999
      vertex -9.51056 232.59 0
      vertex -9.51056 232.59 0.299999
    endloop
  endfacet
  facet normal -0 0 1
    outer loop
      vertex -2.07912 239.281 0.299999
      vertex 5.09592e-14 229.5 0.299999
      vertex 5.31797e-14 239.5 0.299999
    endloop
  endfacet
  facet normal -0 0 1
    outer loop
      vertex -4.06737 238.635 0.299999
      vertex 5.09592e-14 229.5 0.299999
      vertex -2.07912 239.281 0.299999
    endloop
  endfacet
  facet normal -0 0 1
    outer loop
      vertex -5.87785 237.59 0.299999
      vertex 5.09592e-14 229.5 0.299999
      vertex -4.06737 238.635 0.299999
    endloop
  endfacet
  facet normal -0 0 1
    outer loop
      vertex -7.43145 236.191 0.299999
      vertex 5.09592e-14 229.5 0.299999
      vertex -5.87785 237.59 0.299999
    endloop
  endfacet
  facet normal -0 0 1
    outer loop
      vertex -8.66025 234.5 0.299999
      vertex 5.09592e-14 229.5 0.299999
      vertex -7.43145 236.191 0.299999
    endloop
  endfacet
  facet normal -0 0 1
    outer loop
      vertex -9.51056 232.59 0.299999
      vertex 5.09592e-14 229.5 0.299999
      vertex -8.66025 234.5 0.299999
    endloop
  endfacet
  facet normal -0 0 1
    outer loop
      vertex -9.94522 230.545 0.299999
      vertex 5.09592e-14 229.5 0.299999
      vertex -9.51056 232.59 0.299999
    endloop
  endfacet
  facet normal 0 0 1
    outer loop
      vertex 5.09592e-14 229.5 0.299999
      vertex -9.94522 230.545 0.299999
      vertex -9.94522 229.5 0.299999
    endloop
  endfacet
  facet normal 0 0 1
    outer loop
      vertex 5.09592e-14 229.5 0.299999
      vertex 9.94522 230.545 0.299999
      vertex 9.51056 232.59 0.299999
    endloop
  endfacet
  facet normal 0 0 1
    outer loop
      vertex 9.94522 230.545 0.299999
      vertex 5.09592e-14 229.5 0.299999
      vertex 9.94522 228.455 0.299999
    endloop
  endfacet
  facet normal 0 0 1
    outer loop
      vertex 5.09592e-14 229.5 0.299999
      vertex 9.51056 232.59 0.299999
      vertex 8.66025 234.5 0.299999
    endloop
  endfacet
  facet normal 0 0 1
    outer loop
      vertex 9.94522 228.455 0.299999
      vertex 5.09592e-14 229.5 0.299999
      vertex 9.51056 226.41 0.299999
    endloop
  endfacet
  facet normal 0 0 1
    outer loop
      vertex 5.09592e-14 229.5 0.299999
      vertex 8.66025 234.5 0.299999
      vertex 7.43145 236.191 0.299999
    endloop
  endfacet
  facet normal 0 0 1
    outer loop
      vertex 9.51056 226.41 0.299999
      vertex 5.09592e-14 229.5 0.299999
      vertex 8.66025 224.5 0.299999
    endloop
  endfacet
  facet normal 0 0 1
    outer loop
      vertex 5.09592e-14 229.5 0.299999
      vertex 7.43145 236.191 0.299999
      vertex 5.87785 237.59 0.299999
    endloop
  endfacet
  facet normal 0 0 1
    outer loop
      vertex 8.66025 224.5 0.299999
      vertex 5.09592e-14 229.5 0.299999
      vertex 7.43145 222.809 0.299999
    endloop
  endfacet
  facet normal 0 0 1
    outer loop
      vertex 5.09592e-14 229.5 0.299999
      vertex 5.87785 237.59 0.299999
      vertex 4.06737 238.635 0.299999
    endloop
  endfacet
  facet normal 0 0 1
    outer loop
      vertex 7.43145 222.809 0.299999
      vertex 5.09592e-14 229.5 0.299999
      vertex 5.87785 221.41 0.299999
    endloop
  endfacet
  facet normal 0 0 1
    outer loop
      vertex 5.09592e-14 229.5 0.299999
      vertex 4.06737 238.635 0.299999
      vertex 2.07912 239.281 0.299999
    endloop
  endfacet
  facet normal 0 0 1
    outer loop
      vertex 5.87785 221.41 0.299999
      vertex 5.09592e-14 229.5 0.299999
      vertex 4.06737 220.365 0.299999
    endloop
  endfacet
  facet normal 0 0 1
    outer loop
      vertex 5.09592e-14 229.5 0.299999
      vertex 2.07912 239.281 0.299999
      vertex 5.31797e-14 239.5 0.299999
    endloop
  endfacet
  facet normal 0 0 1
    outer loop
      vertex 4.06737 220.365 0.299999
      vertex 5.09592e-14 229.5 0.299999
      vertex 2.07912 219.719 0.299999
    endloop
  endfacet
  facet normal 0 0 1
    outer loop
      vertex 2.07912 219.719 0.299999
      vertex 5.09592e-14 229.5 0.299999
      vertex 4.87388e-14 219.5 0.299999
    endloop
  endfacet
  facet normal 0.104527 0.994522 -0
    outer loop
      vertex 2.07912 239.281 0
      vertex 5.31797e-14 239.5 0.299999
      vertex 2.07912 239.281 0.299999
    endloop
  endfacet
  facet normal 0.104527 0.994522 0
    outer loop
      vertex 5.31797e-14 239.5 0.299999
      vertex 2.07912 239.281 0
      vertex 5.31797e-14 239.5 0
    endloop
  endfacet
  facet normal 0.104527 -0.994522 0
    outer loop
      vertex 4.87388e-14 219.5 0
      vertex 2.07912 219.719 0.299999
      vertex 4.87388e-14 219.5 0.299999
    endloop
  endfacet
  facet normal 0.104527 -0.994522 0
    outer loop
      vertex 2.07912 219.719 0.299999
      vertex 4.87388e-14 219.5 0
      vertex 2.07912 219.719 0
    endloop
  endfacet
  facet normal 0.500001 0.866025 -0
    outer loop
      vertex 5.87785 237.59 0
      vertex 4.06737 238.635 0.299999
      vertex 5.87785 237.59 0.299999
    endloop
  endfacet
  facet normal 0.500001 0.866025 0
    outer loop
      vertex 4.06737 238.635 0.299999
      vertex 5.87785 237.59 0
      vertex 4.06737 238.635 0
    endloop
  endfacet
  facet normal 0.669131 -0.743145 0
    outer loop
      vertex 5.87785 221.41 0
      vertex 7.43145 222.809 0.299999
      vertex 5.87785 221.41 0.299999
    endloop
  endfacet
  facet normal 0.669131 -0.743145 0
    outer loop
      vertex 7.43145 222.809 0.299999
      vertex 5.87785 221.41 0
      vertex 7.43145 222.809 0
    endloop
  endfacet
  facet normal 0.809016 0.587787 0
    outer loop
      vertex 8.66025 234.5 0.299999
      vertex 7.43145 236.191 0
      vertex 7.43145 236.191 0.299999
    endloop
  endfacet
  facet normal 0.809016 0.587787 0
    outer loop
      vertex 7.43145 236.191 0
      vertex 8.66025 234.5 0.299999
      vertex 8.66025 234.5 0
    endloop
  endfacet
  facet normal 0.309019 0.951056 -0
    outer loop
      vertex 4.06737 238.635 0
      vertex 2.07912 239.281 0.299999
      vertex 4.06737 238.635 0.299999
    endloop
  endfacet
  facet normal 0.309019 0.951056 0
    outer loop
      vertex 2.07912 239.281 0.299999
      vertex 4.06737 238.635 0
      vertex 2.07912 239.281 0
    endloop
  endfacet
  facet normal 0.809016 -0.587787 0
    outer loop
      vertex 7.43145 222.809 0.299999
      vertex 8.66025 224.5 0
      vertex 8.66025 224.5 0.299999
    endloop
  endfacet
  facet normal 0.809016 -0.587787 0
    outer loop
      vertex 8.66025 224.5 0
      vertex 7.43145 222.809 0.299999
      vertex 7.43145 222.809 0
    endloop
  endfacet
  facet normal 0.500001 -0.866025 0
    outer loop
      vertex 4.06737 220.365 0
      vertex 5.87785 221.41 0.299999
      vertex 4.06737 220.365 0.299999
    endloop
  endfacet
  facet normal 0.500001 -0.866025 0
    outer loop
      vertex 5.87785 221.41 0.299999
      vertex 4.06737 220.365 0
      vertex 5.87785 221.41 0
    endloop
  endfacet
  facet normal 0.309019 -0.951056 0
    outer loop
      vertex 2.07912 219.719 0
      vertex 4.06737 220.365 0.299999
      vertex 2.07912 219.719 0.299999
    endloop
  endfacet
  facet normal 0.309019 -0.951056 0
    outer loop
      vertex 4.06737 220.365 0.299999
      vertex 2.07912 219.719 0
      vertex 4.06737 220.365 0
    endloop
  endfacet
  facet normal 0.669131 0.743145 -0
    outer loop
      vertex 7.43145 236.191 0
      vertex 5.87785 237.59 0.299999
      vertex 7.43145 236.191 0.299999
    endloop
  endfacet
  facet normal 0.669131 0.743145 0
    outer loop
      vertex 5.87785 237.59 0.299999
      vertex 7.43145 236.191 0
      vertex 5.87785 237.59 0
    endloop
  endfacet
  facet normal 0.978147 -0.207912 0
    outer loop
      vertex 9.51056 226.41 0.299999
      vertex 9.94522 228.455 0
      vertex 9.94522 228.455 0.299999
    endloop
  endfacet
  facet normal 0.978147 -0.207912 0
    outer loop
      vertex 9.94522 228.455 0
      vertex 9.51056 226.41 0.299999
      vertex 9.51056 226.41 0
    endloop
  endfacet
  facet normal 0.913546 -0.406736 0
    outer loop
      vertex 8.66025 224.5 0.299999
      vertex 9.51056 226.41 0
      vertex 9.51056 226.41 0.299999
    endloop
  endfacet
  facet normal 0.913546 -0.406736 0
    outer loop
      vertex 9.51056 226.41 0
      vertex 8.66025 224.5 0.299999
      vertex 8.66025 224.5 0
    endloop
  endfacet
  facet normal 1 -0 0
    outer loop
      vertex 9.94522 228.455 0.299999
      vertex 9.94522 230.545 0
      vertex 9.94522 230.545 0.299999
    endloop
  endfacet
  facet normal 1 0 0
    outer loop
      vertex 9.94522 230.545 0
      vertex 9.94522 228.455 0.299999
      vertex 9.94522 228.455 0
    endloop
  endfacet
  facet normal -0.104529 0.994522 0
    outer loop
      vertex -77 10 0
      vertex -79.0791 9.78148 0.299999
      vertex -77 10 0.299999
    endloop
  endfacet
  facet normal -0.104529 0.994522 0
    outer loop
      vertex -79.0791 9.78148 0.299999
      vertex -77 10 0
      vertex -79.0791 9.78148 0
    endloop
  endfacet
  facet normal -0.978148 -0.207912 0
    outer loop
      vertex -86.5106 -3.09017 0
      vertex -86.9452 -1.04528 0.299999
      vertex -86.9452 -1.04528 0
    endloop
  endfacet
  facet normal -0.978148 -0.207912 0
    outer loop
      vertex -86.9452 -1.04528 0.299999
      vertex -86.5106 -3.09017 0
      vertex -86.5106 -3.09017 0.299999
    endloop
  endfacet
  facet normal -0.809017 0.587785 0
    outer loop
      vertex -85.6603 5 0
      vertex -84.4314 6.69131 0.299999
      vertex -84.4314 6.69131 0
    endloop
  endfacet
  facet normal -0.809017 0.587785 0
    outer loop
      vertex -84.4314 6.69131 0.299999
      vertex -85.6603 5 0
      vertex -85.6603 5 0.299999
    endloop
  endfacet
  facet normal -0.669131 -0.743145 0
    outer loop
      vertex -84.4314 -6.69131 0
      vertex -82.8779 -8.09017 0.299999
      vertex -84.4314 -6.69131 0.299999
    endloop
  endfacet
  facet normal -0.669131 -0.743145 -0
    outer loop
      vertex -82.8779 -8.09017 0.299999
      vertex -84.4314 -6.69131 0
      vertex -82.8779 -8.09017 0
    endloop
  endfacet
  facet normal -0.809017 -0.587785 0
    outer loop
      vertex -84.4314 -6.69131 0
      vertex -85.6603 -5 0.299999
      vertex -85.6603 -5 0
    endloop
  endfacet
  facet normal -0.809017 -0.587785 0
    outer loop
      vertex -85.6603 -5 0.299999
      vertex -84.4314 -6.69131 0
      vertex -84.4314 -6.69131 0.299999
    endloop
  endfacet
  facet normal -0.5 0.866025 0
    outer loop
      vertex -81.0674 9.13545 0
      vertex -82.8779 8.09017 0.299999
      vertex -81.0674 9.13545 0.299999
    endloop
  endfacet
  facet normal -0.5 0.866025 0
    outer loop
      vertex -82.8779 8.09017 0.299999
      vertex -81.0674 9.13545 0
      vertex -82.8779 8.09017 0
    endloop
  endfacet
  facet normal -0.309017 0.951057 0
    outer loop
      vertex -79.0791 9.78148 0
      vertex -81.0674 9.13545 0.299999
      vertex -79.0791 9.78148 0.299999
    endloop
  endfacet
  facet normal -0.309017 0.951057 0
    outer loop
      vertex -81.0674 9.13545 0.299999
      vertex -79.0791 9.78148 0
      vertex -81.0674 9.13545 0
    endloop
  endfacet
  facet normal -0.669131 0.743145 0
    outer loop
      vertex -82.8779 8.09017 0
      vertex -84.4314 6.69131 0.299999
      vertex -82.8779 8.09017 0.299999
    endloop
  endfacet
  facet normal -0.669131 0.743145 0
    outer loop
      vertex -84.4314 6.69131 0.299999
      vertex -82.8779 8.09017 0
      vertex -84.4314 6.69131 0
    endloop
  endfacet
  facet normal -0.978148 0.207912 0
    outer loop
      vertex -86.9452 1.04528 0
      vertex -86.5106 3.09017 0.299999
      vertex -86.5106 3.09017 0
    endloop
  endfacet
  facet normal -0.978148 0.207912 0
    outer loop
      vertex -86.5106 3.09017 0.299999
      vertex -86.9452 1.04528 0
      vertex -86.9452 1.04528 0.299999
    endloop
  endfacet
  facet normal -1 0 0
    outer loop
      vertex -86.9452 -1.04528 0
      vertex -86.9452 1.04528 0.299999
      vertex -86.9452 1.04528 0
    endloop
  endfacet
  facet normal -1 -0 0
    outer loop
      vertex -86.9452 1.04528 0.299999
      vertex -86.9452 -1.04528 0
      vertex -86.9452 -1.04528 0.299999
    endloop
  endfacet
  facet normal -0.913545 0.406737 0
    outer loop
      vertex -86.5106 3.09017 0
      vertex -85.6603 5 0.299999
      vertex -85.6603 5 0
    endloop
  endfacet
  facet normal -0.913545 0.406737 0
    outer loop
      vertex -85.6603 5 0.299999
      vertex -86.5106 3.09017 0
      vertex -86.5106 3.09017 0.299999
    endloop
  endfacet
  facet normal -0.309017 -0.951057 0
    outer loop
      vertex -81.0674 -9.13545 0
      vertex -79.0791 -9.78148 0.299999
      vertex -81.0674 -9.13545 0.299999
    endloop
  endfacet
  facet normal -0.309017 -0.951057 -0
    outer loop
      vertex -79.0791 -9.78148 0.299999
      vertex -81.0674 -9.13545 0
      vertex -79.0791 -9.78148 0
    endloop
  endfacet
  facet normal -0.5 -0.866025 0
    outer loop
      vertex -82.8779 -8.09017 0
      vertex -81.0674 -9.13545 0.299999
      vertex -82.8779 -8.09017 0.299999
    endloop
  endfacet
  facet normal -0.5 -0.866025 -0
    outer loop
      vertex -81.0674 -9.13545 0.299999
      vertex -82.8779 -8.09017 0
      vertex -81.0674 -9.13545 0
    endloop
  endfacet
  facet normal -0.104529 -0.994522 0
    outer loop
      vertex -79.0791 -9.78148 0
      vertex -77 -10 0.299999
      vertex -79.0791 -9.78148 0.299999
    endloop
  endfacet
  facet normal -0.104529 -0.994522 -0
    outer loop
      vertex -77 -10 0.299999
      vertex -79.0791 -9.78148 0
      vertex -77 -10 0
    endloop
  endfacet
  facet normal -0 0 1
    outer loop
      vertex -79.0791 9.78148 0.299999
      vertex -77 1.70974e-14 0.299999
      vertex -77 10 0.299999
    endloop
  endfacet
  facet normal -0 0 1
    outer loop
      vertex -81.0674 9.13545 0.299999
      vertex -77 1.70974e-14 0.299999
      vertex -79.0791 9.78148 0.299999
    endloop
  endfacet
  facet normal 0 0 1
    outer loop
      vertex -77 1.70974e-14 0.299999
      vertex -79.0791 -9.78148 0.299999
      vertex -77 -10 0.299999
    endloop
  endfacet
  facet normal -0 0 1
    outer loop
      vertex -82.8779 8.09017 0.299999
      vertex -77 1.70974e-14 0.299999
      vertex -81.0674 9.13545 0.299999
    endloop
  endfacet
  facet normal 0 0 1
    outer loop
      vertex -77 1.70974e-14 0.299999
      vertex -81.0674 -9.13545 0.299999
      vertex -79.0791 -9.78148 0.299999
    endloop
  endfacet
  facet normal -0 0 1
    outer loop
      vertex -84.4314 6.69131 0.299999
      vertex -77 1.70974e-14 0.299999
      vertex -82.8779 8.09017 0.299999
    endloop
  endfacet
  facet normal 0 0 1
    outer loop
      vertex -77 1.70974e-14 0.299999
      vertex -82.8779 -8.09017 0.299999
      vertex -81.0674 -9.13545 0.299999
    endloop
  endfacet
  facet normal -0 0 1
    outer loop
      vertex -85.6603 5 0.299999
      vertex -77 1.70974e-14 0.299999
      vertex -84.4314 6.69131 0.299999
    endloop
  endfacet
  facet normal 0 0 1
    outer loop
      vertex -77 1.70974e-14 0.299999
      vertex -84.4314 -6.69131 0.299999
      vertex -82.8779 -8.09017 0.299999
    endloop
  endfacet
  facet normal -0 0 1
    outer loop
      vertex -86.5106 3.09017 0.299999
      vertex -77 1.70974e-14 0.299999
      vertex -85.6603 5 0.299999
    endloop
  endfacet
  facet normal 0 0 1
    outer loop
      vertex -77 1.70974e-14 0.299999
      vertex -85.6603 -5 0.299999
      vertex -84.4314 -6.69131 0.299999
    endloop
  endfacet
  facet normal -0 0 1
    outer loop
      vertex -86.9452 1.04528 0.299999
      vertex -77 1.70974e-14 0.299999
      vertex -86.5106 3.09017 0.299999
    endloop
  endfacet
  facet normal 0 0 1
    outer loop
      vertex -77 1.70974e-14 0.299999
      vertex -86.5106 -3.09017 0.299999
      vertex -85.6603 -5 0.299999
    endloop
  endfacet
  facet normal 0 0 1
    outer loop
      vertex -86.9452 -1.04528 0.299999
      vertex -77 1.70974e-14 0.299999
      vertex -86.9452 1.04528 0.299999
    endloop
  endfacet
  facet normal 0 0 1
    outer loop
      vertex -77 1.70974e-14 0.299999
      vertex -86.9452 -1.04528 0.299999
      vertex -86.5106 -3.09017 0.299999
    endloop
  endfacet
  facet normal 0 0 1
    outer loop
      vertex -77 1.70974e-14 0.299999
      vertex -67.0548 -1.04528 0.299999
      vertex -67.0548 1.48892e-14 0.299999
    endloop
  endfacet
  facet normal 0 0 1
    outer loop
      vertex -67.0548 -1.04528 0.299999
      vertex -77 1.70974e-14 0.299999
      vertex -67.4894 -3.09017 0.299999
    endloop
  endfacet
  facet normal 0 0 1
    outer loop
      vertex -67.4894 -3.09017 0.299999
      vertex -77 1.70974e-14 0.299999
      vertex -68.3397 -5 0.299999
    endloop
  endfacet
  facet normal 0 0 1
    outer loop
      vertex -68.3397 -5 0.299999
      vertex -77 1.70974e-14 0.299999
      vertex -69.5686 -6.69131 0.299999
    endloop
  endfacet
  facet normal 0 0 1
    outer loop
      vertex -69.5686 -6.69131 0.299999
      vertex -77 1.70974e-14 0.299999
      vertex -71.1221 -8.09017 0.299999
    endloop
  endfacet
  facet normal 0 0 1
    outer loop
      vertex -71.1221 -8.09017 0.299999
      vertex -77 1.70974e-14 0.299999
      vertex -72.9326 -9.13545 0.299999
    endloop
  endfacet
  facet normal 0 0 1
    outer loop
      vertex -72.9326 -9.13545 0.299999
      vertex -77 1.70974e-14 0.299999
      vertex -74.9209 -9.78148 0.299999
    endloop
  endfacet
  facet normal 0 0 1
    outer loop
      vertex -74.9209 -9.78148 0.299999
      vertex -77 1.70974e-14 0.299999
      vertex -77 -10 0.299999
    endloop
  endfacet
  facet normal -0.913545 -0.406737 0
    outer loop
      vertex -85.6603 -5 0
      vertex -86.5106 -3.09017 0.299999
      vertex -86.5106 -3.09017 0
    endloop
  endfacet
  facet normal -0.913545 -0.406737 0
    outer loop
      vertex -86.5106 -3.09017 0.299999
      vertex -85.6603 -5 0
      vertex -85.6603 -5 0.299999
    endloop
  endfacet
  facet normal 1 -0 0
    outer loop
      vertex -67.0548 -1.04528 0.299999
      vertex -67.0548 1.48892e-14 0
      vertex -67.0548 1.48892e-14 0.299999
    endloop
  endfacet
  facet normal 1 0 0
    outer loop
      vertex -67.0548 1.48892e-14 0
      vertex -67.0548 -1.04528 0.299999
      vertex -67.0548 -1.04528 0
    endloop
  endfacet
  facet normal 0.104529 -0.994522 0
    outer loop
      vertex -77 -10 0
      vertex -74.9209 -9.78148 0.299999
      vertex -77 -10 0.299999
    endloop
  endfacet
  facet normal 0.104529 -0.994522 0
    outer loop
      vertex -74.9209 -9.78148 0.299999
      vertex -77 -10 0
      vertex -74.9209 -9.78148 0
    endloop
  endfacet
  facet normal 0.669131 -0.743145 0
    outer loop
      vertex -71.1221 -8.09017 0
      vertex -69.5686 -6.69131 0.299999
      vertex -71.1221 -8.09017 0.299999
    endloop
  endfacet
  facet normal 0.669131 -0.743145 0
    outer loop
      vertex -69.5686 -6.69131 0.299999
      vertex -71.1221 -8.09017 0
      vertex -69.5686 -6.69131 0
    endloop
  endfacet
  facet normal 0.309017 -0.951057 0
    outer loop
      vertex -74.9209 -9.78148 0
      vertex -72.9326 -9.13545 0.299999
      vertex -74.9209 -9.78148 0.299999
    endloop
  endfacet
  facet normal 0.309017 -0.951057 0
    outer loop
      vertex -72.9326 -9.13545 0.299999
      vertex -74.9209 -9.78148 0
      vertex -72.9326 -9.13545 0
    endloop
  endfacet
  facet normal 0.5 -0.866025 0
    outer loop
      vertex -72.9326 -9.13545 0
      vertex -71.1221 -8.09017 0.299999
      vertex -72.9326 -9.13545 0.299999
    endloop
  endfacet
  facet normal 0.5 -0.866025 0
    outer loop
      vertex -71.1221 -8.09017 0.299999
      vertex -72.9326 -9.13545 0
      vertex -71.1221 -8.09017 0
    endloop
  endfacet
  facet normal 0.913545 -0.406737 0
    outer loop
      vertex -68.3397 -5 0.299999
      vertex -67.4894 -3.09017 0
      vertex -67.4894 -3.09017 0.299999
    endloop
  endfacet
  facet normal 0.913545 -0.406737 0
    outer loop
      vertex -67.4894 -3.09017 0
      vertex -68.3397 -5 0.299999
      vertex -68.3397 -5 0
    endloop
  endfacet
  facet normal 0.978148 -0.207912 0
    outer loop
      vertex -67.4894 -3.09017 0.299999
      vertex -67.0548 -1.04528 0
      vertex -67.0548 -1.04528 0.299999
    endloop
  endfacet
  facet normal 0.978148 -0.207912 0
    outer loop
      vertex -67.0548 -1.04528 0
      vertex -67.4894 -3.09017 0.299999
      vertex -67.4894 -3.09017 0
    endloop
  endfacet
  facet normal 0.809017 -0.587785 0
    outer loop
      vertex -69.5686 -6.69131 0.299999
      vertex -68.3397 -5 0
      vertex -68.3397 -5 0.299999
    endloop
  endfacet
  facet normal 0.809017 -0.587785 0
    outer loop
      vertex -68.3397 -5 0
      vertex -69.5686 -6.69131 0.299999
      vertex -69.5686 -6.69131 0
    endloop
  endfacet
  facet normal -0.104527 0.994522 0
    outer loop
      vertex -77 239.5 0
      vertex -79.0791 239.281 0.299999
      vertex -77 239.5 0.299999
    endloop
  endfacet
  facet normal -0.104527 0.994522 0
    outer loop
      vertex -79.0791 239.281 0.299999
      vertex -77 239.5 0
      vertex -79.0791 239.281 0
    endloop
  endfacet
  facet normal -0.978147 -0.207913 0
    outer loop
      vertex -86.5106 226.41 0
      vertex -86.9452 228.455 0.299999
      vertex -86.9452 228.455 0
    endloop
  endfacet
  facet normal -0.978147 -0.207913 0
    outer loop
      vertex -86.9452 228.455 0.299999
      vertex -86.5106 226.41 0
      vertex -86.5106 226.41 0.299999
    endloop
  endfacet
  facet normal 0.978147 0.207913 0
    outer loop
      vertex -67.0548 230.545 0.299999
      vertex -67.4894 232.59 0
      vertex -67.4894 232.59 0.299999
    endloop
  endfacet
  facet normal 0.978147 0.207913 0
    outer loop
      vertex -67.4894 232.59 0
      vertex -67.0548 230.545 0.299999
      vertex -67.0548 230.545 0
    endloop
  endfacet
  facet normal 0.913546 0.406736 0
    outer loop
      vertex -67.4894 232.59 0.299999
      vertex -68.3397 234.5 0
      vertex -68.3397 234.5 0.299999
    endloop
  endfacet
  facet normal 0.913546 0.406736 0
    outer loop
      vertex -68.3397 234.5 0
      vertex -67.4894 232.59 0.299999
      vertex -67.4894 232.59 0
    endloop
  endfacet
  facet normal -0.809016 0.587787 0
    outer loop
      vertex -85.6603 234.5 0
      vertex -84.4314 236.191 0.299999
      vertex -84.4314 236.191 0
    endloop
  endfacet
  facet normal -0.809016 0.587787 0
    outer loop
      vertex -84.4314 236.191 0.299999
      vertex -85.6603 234.5 0
      vertex -85.6603 234.5 0.299999
    endloop
  endfacet
  facet normal -0.669131 -0.743145 0
    outer loop
      vertex -84.4314 222.809 0
      vertex -82.8779 221.41 0.299999
      vertex -84.4314 222.809 0.299999
    endloop
  endfacet
  facet normal -0.669131 -0.743145 -0
    outer loop
      vertex -82.8779 221.41 0.299999
      vertex -84.4314 222.809 0
      vertex -82.8779 221.41 0
    endloop
  endfacet
  facet normal -0.809016 -0.587787 0
    outer loop
      vertex -84.4314 222.809 0
      vertex -85.6603 224.5 0.299999
      vertex -85.6603 224.5 0
    endloop
  endfacet
  facet normal -0.809016 -0.587787 0
    outer loop
      vertex -85.6603 224.5 0.299999
      vertex -84.4314 222.809 0
      vertex -84.4314 222.809 0.299999
    endloop
  endfacet
  facet normal -0.500001 0.866025 0
    outer loop
      vertex -81.0674 238.635 0
      vertex -82.8779 237.59 0.299999
      vertex -81.0674 238.635 0.299999
    endloop
  endfacet
  facet normal -0.500001 0.866025 0
    outer loop
      vertex -82.8779 237.59 0.299999
      vertex -81.0674 238.635 0
      vertex -82.8779 237.59 0
    endloop
  endfacet
  facet normal -0.309019 0.951056 0
    outer loop
      vertex -79.0791 239.281 0
      vertex -81.0674 238.635 0.299999
      vertex -79.0791 239.281 0.299999
    endloop
  endfacet
  facet normal -0.309019 0.951056 0
    outer loop
      vertex -81.0674 238.635 0.299999
      vertex -79.0791 239.281 0
      vertex -81.0674 238.635 0
    endloop
  endfacet
  facet normal -0.669131 0.743145 0
    outer loop
      vertex -82.8779 237.59 0
      vertex -84.4314 236.191 0.299999
      vertex -82.8779 237.59 0.299999
    endloop
  endfacet
  facet normal -0.669131 0.743145 0
    outer loop
      vertex -84.4314 236.191 0.299999
      vertex -82.8779 237.59 0
      vertex -84.4314 236.191 0
    endloop
  endfacet
  facet normal -0.978147 0.207913 0
    outer loop
      vertex -86.9452 230.545 0
      vertex -86.5106 232.59 0.299999
      vertex -86.5106 232.59 0
    endloop
  endfacet
  facet normal -0.978147 0.207913 0
    outer loop
      vertex -86.5106 232.59 0.299999
      vertex -86.9452 230.545 0
      vertex -86.9452 230.545 0.299999
    endloop
  endfacet
  facet normal -1 0 0
    outer loop
      vertex -86.9452 228.455 0
      vertex -86.9452 230.545 0.299999
      vertex -86.9452 230.545 0
    endloop
  endfacet
  facet normal -1 -0 0
    outer loop
      vertex -86.9452 230.545 0.299999
      vertex -86.9452 228.455 0
      vertex -86.9452 228.455 0.299999
    endloop
  endfacet
  facet normal -0.913546 0.406736 0
    outer loop
      vertex -86.5106 232.59 0
      vertex -85.6603 234.5 0.299999
      vertex -85.6603 234.5 0
    endloop
  endfacet
  facet normal -0.913546 0.406736 0
    outer loop
      vertex -85.6603 234.5 0.299999
      vertex -86.5106 232.59 0
      vertex -86.5106 232.59 0.299999
    endloop
  endfacet
  facet normal -0.309019 -0.951056 0
    outer loop
      vertex -81.0674 220.365 0
      vertex -79.0791 219.719 0.299999
      vertex -81.0674 220.365 0.299999
    endloop
  endfacet
  facet normal -0.309019 -0.951056 -0
    outer loop
      vertex -79.0791 219.719 0.299999
      vertex -81.0674 220.365 0
      vertex -79.0791 219.719 0
    endloop
  endfacet
  facet normal -0.500001 -0.866025 0
    outer loop
      vertex -82.8779 221.41 0
      vertex -81.0674 220.365 0.299999
      vertex -82.8779 221.41 0.299999
    endloop
  endfacet
  facet normal -0.500001 -0.866025 -0
    outer loop
      vertex -81.0674 220.365 0.299999
      vertex -82.8779 221.41 0
      vertex -81.0674 220.365 0
    endloop
  endfacet
  facet normal -0.104527 -0.994522 0
    outer loop
      vertex -79.0791 219.719 0
      vertex -77 219.5 0.299999
      vertex -79.0791 219.719 0.299999
    endloop
  endfacet
  facet normal -0.104527 -0.994522 -0
    outer loop
      vertex -77 219.5 0.299999
      vertex -79.0791 219.719 0
      vertex -77 219.5 0
    endloop
  endfacet
  facet normal 0 0 1
    outer loop
      vertex -77 229.5 0.299999
      vertex -67.0548 230.545 0.299999
      vertex -67.4894 232.59 0.299999
    endloop
  endfacet
  facet normal 0 0 1
    outer loop
      vertex -77 229.5 0.299999
      vertex -67.4894 232.59 0.299999
      vertex -68.3397 234.5 0.299999
    endloop
  endfacet
  facet normal 0 0 1
    outer loop
      vertex -77 229.5 0.299999
      vertex -68.3397 234.5 0.299999
      vertex -69.5686 236.191 0.299999
    endloop
  endfacet
  facet normal 0 0 1
    outer loop
      vertex -77 229.5 0.299999
      vertex -69.5686 236.191 0.299999
      vertex -71.1221 237.59 0.299999
    endloop
  endfacet
  facet normal 0 0 1
    outer loop
      vertex -77 229.5 0.299999
      vertex -71.1221 237.59 0.299999
      vertex -72.9326 238.635 0.299999
    endloop
  endfacet
  facet normal 0 0 1
    outer loop
      vertex -77 229.5 0.299999
      vertex -72.9326 238.635 0.299999
      vertex -74.9209 239.281 0.299999
    endloop
  endfacet
  facet normal 0 0 1
    outer loop
      vertex -77 229.5 0.299999
      vertex -74.9209 239.281 0.299999
      vertex -77 239.5 0.299999
    endloop
  endfacet
  facet normal 0 0 1
    outer loop
      vertex -67.0548 230.545 0.299999
      vertex -77 229.5 0.299999
      vertex -67.0548 229.5 0.299999
    endloop
  endfacet
  facet normal -0 0 1
    outer loop
      vertex -79.0791 239.281 0.299999
      vertex -77 229.5 0.299999
      vertex -77 239.5 0.299999
    endloop
  endfacet
  facet normal -0 0 1
    outer loop
      vertex -81.0674 238.635 0.299999
      vertex -77 229.5 0.299999
      vertex -79.0791 239.281 0.299999
    endloop
  endfacet
  facet normal 0 0 1
    outer loop
      vertex -77 229.5 0.299999
      vertex -79.0791 219.719 0.299999
      vertex -77 219.5 0.299999
    endloop
  endfacet
  facet normal -0 0 1
    outer loop
      vertex -82.8779 237.59 0.299999
      vertex -77 229.5 0.299999
      vertex -81.0674 238.635 0.299999
    endloop
  endfacet
  facet normal 0 0 1
    outer loop
      vertex -77 229.5 0.299999
      vertex -81.0674 220.365 0.299999
      vertex -79.0791 219.719 0.299999
    endloop
  endfacet
  facet normal -0 0 1
    outer loop
      vertex -84.4314 236.191 0.299999
      vertex -77 229.5 0.299999
      vertex -82.8779 237.59 0.299999
    endloop
  endfacet
  facet normal 0 0 1
    outer loop
      vertex -77 229.5 0.299999
      vertex -82.8779 221.41 0.299999
      vertex -81.0674 220.365 0.299999
    endloop
  endfacet
  facet normal -0 0 1
    outer loop
      vertex -85.6603 234.5 0.299999
      vertex -77 229.5 0.299999
      vertex -84.4314 236.191 0.299999
    endloop
  endfacet
  facet normal 0 0 1
    outer loop
      vertex -77 229.5 0.299999
      vertex -84.4314 222.809 0.299999
      vertex -82.8779 221.41 0.299999
    endloop
  endfacet
  facet normal -0 0 1
    outer loop
      vertex -86.5106 232.59 0.299999
      vertex -77 229.5 0.299999
      vertex -85.6603 234.5 0.299999
    endloop
  endfacet
  facet normal 0 0 1
    outer loop
      vertex -77 229.5 0.299999
      vertex -85.6603 224.5 0.299999
      vertex -84.4314 222.809 0.299999
    endloop
  endfacet
  facet normal -0 0 1
    outer loop
      vertex -86.9452 230.545 0.299999
      vertex -77 229.5 0.299999
      vertex -86.5106 232.59 0.299999
    endloop
  endfacet
  facet normal 0 0 1
    outer loop
      vertex -77 229.5 0.299999
      vertex -86.5106 226.41 0.299999
      vertex -85.6603 224.5 0.299999
    endloop
  endfacet
  facet normal 0 0 1
    outer loop
      vertex -86.9452 228.455 0.299999
      vertex -77 229.5 0.299999
      vertex -86.9452 230.545 0.299999
    endloop
  endfacet
  facet normal 0 0 1
    outer loop
      vertex -77 229.5 0.299999
      vertex -86.9452 228.455 0.299999
      vertex -86.5106 226.41 0.299999
    endloop
  endfacet
  facet normal -0.913546 -0.406736 0
    outer loop
      vertex -85.6603 224.5 0
      vertex -86.5106 226.41 0.299999
      vertex -86.5106 226.41 0
    endloop
  endfacet
  facet normal -0.913546 -0.406736 0
    outer loop
      vertex -86.5106 226.41 0.299999
      vertex -85.6603 224.5 0
      vertex -85.6603 224.5 0.299999
    endloop
  endfacet
  facet normal 0.104527 0.994522 -0
    outer loop
      vertex -74.9209 239.281 0
      vertex -77 239.5 0.299999
      vertex -74.9209 239.281 0.299999
    endloop
  endfacet
  facet normal 0.104527 0.994522 0
    outer loop
      vertex -77 239.5 0.299999
      vertex -74.9209 239.281 0
      vertex -77 239.5 0
    endloop
  endfacet
  facet normal 0.500001 0.866025 -0
    outer loop
      vertex -71.1221 237.59 0
      vertex -72.9326 238.635 0.299999
      vertex -71.1221 237.59 0.299999
    endloop
  endfacet
  facet normal 0.500001 0.866025 0
    outer loop
      vertex -72.9326 238.635 0.299999
      vertex -71.1221 237.59 0
      vertex -72.9326 238.635 0
    endloop
  endfacet
  facet normal 0.809016 0.587787 0
    outer loop
      vertex -68.3397 234.5 0.299999
      vertex -69.5686 236.191 0
      vertex -69.5686 236.191 0.299999
    endloop
  endfacet
  facet normal 0.809016 0.587787 0
    outer loop
      vertex -69.5686 236.191 0
      vertex -68.3397 234.5 0.299999
      vertex -68.3397 234.5 0
    endloop
  endfacet
  facet normal 0.309019 0.951056 -0
    outer loop
      vertex -72.9326 238.635 0
      vertex -74.9209 239.281 0.299999
      vertex -72.9326 238.635 0.299999
    endloop
  endfacet
  facet normal 0.309019 0.951056 0
    outer loop
      vertex -74.9209 239.281 0.299999
      vertex -72.9326 238.635 0
      vertex -74.9209 239.281 0
    endloop
  endfacet
  facet normal 0.669131 0.743145 -0
    outer loop
      vertex -69.5686 236.191 0
      vertex -71.1221 237.59 0.299999
      vertex -69.5686 236.191 0.299999
    endloop
  endfacet
  facet normal 0.669131 0.743145 0
    outer loop
      vertex -71.1221 237.59 0.299999
      vertex -69.5686 236.191 0
      vertex -71.1221 237.59 0
    endloop
  endfacet
  facet normal 1 -0 0
    outer loop
      vertex -67.0548 229.5 0.299999
      vertex -67.0548 230.545 0
      vertex -67.0548 230.545 0.299999
    endloop
  endfacet
  facet normal 1 0 0
    outer loop
      vertex -67.0548 230.545 0
      vertex -67.0548 229.5 0.299999
      vertex -67.0548 229.5 0
    endloop
  endfacet
endsolid OpenSCAD_Model
