solid OpenSCAD_Model
  facet normal -2.22045e-16 -1 0
    outer loop
      vertex -67.0548 1.48892e-14 0
      vertex -9.94522 2.20828e-15 0.299999
      vertex -67.0548 1.48892e-14 0.299999
    endloop
  endfacet
  facet normal -2.22045e-16 -1 -0
    outer loop
      vertex -9.94522 2.20828e-15 0.299999
      vertex -67.0548 1.48892e-14 0
      vertex -9.94522 2.20828e-15 0
    endloop
  endfacet
  facet normal -2.22045e-16 -1 0
    outer loop
      vertex -67.0548 1.48892e-14 0.299999
      vertex -77 1.70974e-14 31.5
      vertex -77 1.70974e-14 0.299999
    endloop
  endfacet
  facet normal -2.22045e-16 -1 0
    outer loop
      vertex -77 1.70974e-14 31.5
      vertex -67.0548 1.48892e-14 0.299999
      vertex 0 0 31.5
    endloop
  endfacet
  facet normal -2.22045e-16 -1 0
    outer loop
      vertex -9.94522 2.20828e-15 0.299999
      vertex 0 0 31.5
      vertex -67.0548 1.48892e-14 0.299999
    endloop
  endfacet
  facet normal -2.22045e-16 -1 -0
    outer loop
      vertex 0 0 31.5
      vertex -9.94522 2.20828e-15 0.299999
      vertex 0 0 0.299999
    endloop
  endfacet
  facet normal -0 0 1
    outer loop
      vertex -75.5 16.725 31.5
      vertex -1.5 15.225 31.5
      vertex -1.5 16.725 31.5
    endloop
  endfacet
  facet normal 0 0 1
    outer loop
      vertex -1.5 15.225 31.5
      vertex -75.5 16.725 31.5
      vertex -75.5 15.225 31.5
    endloop
  endfacet
  facet normal -0 0 1
    outer loop
      vertex -75.5 31.95 31.5
      vertex -1.5 30.45 31.5
      vertex -1.5 31.95 31.5
    endloop
  endfacet
  facet normal 0 0 1
    outer loop
      vertex -1.5 30.45 31.5
      vertex -75.5 31.95 31.5
      vertex -75.5 30.45 31.5
    endloop
  endfacet
  facet normal -0 0 1
    outer loop
      vertex -75.5 47.175 31.5
      vertex -1.5 45.675 31.5
      vertex -1.5 47.175 31.5
    endloop
  endfacet
  facet normal 0 0 1
    outer loop
      vertex -1.5 45.675 31.5
      vertex -75.5 47.175 31.5
      vertex -75.5 45.675 31.5
    endloop
  endfacet
  facet normal -0 0 1
    outer loop
      vertex -75.5 62.4 31.5
      vertex -1.5 60.9 31.5
      vertex -1.5 62.4 31.5
    endloop
  endfacet
  facet normal 0 0 1
    outer loop
      vertex -1.5 60.9 31.5
      vertex -75.5 62.4 31.5
      vertex -75.5 60.9 31.5
    endloop
  endfacet
  facet normal -0 0 1
    outer loop
      vertex -75.5 79.15 31.5
      vertex -1.5 77.65 31.5
      vertex -1.5 79.15 31.5
    endloop
  endfacet
  facet normal 0 0 1
    outer loop
      vertex -1.5 77.65 31.5
      vertex -75.5 79.15 31.5
      vertex -75.5 77.65 31.5
    endloop
  endfacet
  facet normal -0 0 1
    outer loop
      vertex -75.5 95.9 31.5
      vertex -1.5 94.4 31.5
      vertex -1.5 95.9 31.5
    endloop
  endfacet
  facet normal 0 0 1
    outer loop
      vertex -1.5 94.4 31.5
      vertex -75.5 95.9 31.5
      vertex -75.5 94.4 31.5
    endloop
  endfacet
  facet normal -0 0 1
    outer loop
      vertex -75.5 112.65 31.5
      vertex -1.5 111.15 31.5
      vertex -1.5 112.65 31.5
    endloop
  endfacet
  facet normal 0 0 1
    outer loop
      vertex -1.5 111.15 31.5
      vertex -75.5 112.65 31.5
      vertex -75.5 111.15 31.5
    endloop
  endfacet
  facet normal -0 0 1
    outer loop
      vertex -75.5 129.4 31.5
      vertex -1.5 127.9 31.5
      vertex -1.5 129.4 31.5
    endloop
  endfacet
  facet normal 0 0 1
    outer loop
      vertex -1.5 127.9 31.5
      vertex -75.5 129.4 31.5
      vertex -75.5 127.9 31.5
    endloop
  endfacet
  facet normal -0 0 1
    outer loop
      vertex -75.5 146.15 31.5
      vertex -1.5 144.65 31.5
      vertex -1.5 146.15 31.5
    endloop
  endfacet
  facet normal 0 0 1
    outer loop
      vertex -1.5 144.65 31.5
      vertex -75.5 146.15 31.5
      vertex -75.5 144.65 31.5
    endloop
  endfacet
  facet normal -0 0 1
    outer loop
      vertex -75.5 162.9 31.5
      vertex -1.5 161.4 31.5
      vertex -1.5 162.9 31.5
    endloop
  endfacet
  facet normal 0 0 1
    outer loop
      vertex -1.5 161.4 31.5
      vertex -75.5 162.9 31.5
      vertex -75.5 161.4 31.5
    endloop
  endfacet
  facet normal -0 0 1
    outer loop
      vertex -75.5 179.65 31.5
      vertex -1.5 178.15 31.5
      vertex -1.5 179.65 31.5
    endloop
  endfacet
  facet normal 0 0 1
    outer loop
      vertex -1.5 178.15 31.5
      vertex -75.5 179.65 31.5
      vertex -75.5 178.15 31.5
    endloop
  endfacet
  facet normal -0 0 1
    outer loop
      vertex -75.5 196.4 31.5
      vertex -1.5 194.9 31.5
      vertex -1.5 196.4 31.5
    endloop
  endfacet
  facet normal 0 0 1
    outer loop
      vertex -1.5 194.9 31.5
      vertex -75.5 196.4 31.5
      vertex -75.5 194.9 31.5
    endloop
  endfacet
  facet normal -0 0 1
    outer loop
      vertex -75.5 213.15 31.5
      vertex -1.5 211.65 31.5
      vertex -1.5 213.15 31.5
    endloop
  endfacet
  facet normal 0 0 1
    outer loop
      vertex -1.5 211.65 31.5
      vertex -75.5 213.15 31.5
      vertex -75.5 211.65 31.5
    endloop
  endfacet
  facet normal 0 0 1
    outer loop
      vertex -1.5 213.15 31.5
      vertex 5.10481e-14 229.9 31.5
      vertex -1.5 228.4 31.5
    endloop
  endfacet
  facet normal 0 0 1
    outer loop
      vertex 5.10481e-14 229.9 31.5
      vertex -75.5 228.4 31.5
      vertex -1.5 228.4 31.5
    endloop
  endfacet
  facet normal 0 0 1
    outer loop
      vertex -77 229.9 31.5
      vertex -75.5 213.15 31.5
      vertex -75.5 228.4 31.5
    endloop
  endfacet
  facet normal 0 0 1
    outer loop
      vertex -75.5 213.15 31.5
      vertex -77 229.9 31.5
      vertex -75.5 211.65 31.5
    endloop
  endfacet
  facet normal 0 0 1
    outer loop
      vertex -75.5 211.65 31.5
      vertex -77 229.9 31.5
      vertex -75.5 196.4 31.5
    endloop
  endfacet
  facet normal 0 0 1
    outer loop
      vertex -75.5 196.4 31.5
      vertex -77 229.9 31.5
      vertex -75.5 194.9 31.5
    endloop
  endfacet
  facet normal 0 0 1
    outer loop
      vertex -75.5 194.9 31.5
      vertex -77 229.9 31.5
      vertex -75.5 179.65 31.5
    endloop
  endfacet
  facet normal 0 0 1
    outer loop
      vertex -75.5 179.65 31.5
      vertex -77 229.9 31.5
      vertex -75.5 178.15 31.5
    endloop
  endfacet
  facet normal 0 0 1
    outer loop
      vertex -75.5 178.15 31.5
      vertex -77 229.9 31.5
      vertex -75.5 162.9 31.5
    endloop
  endfacet
  facet normal 0 0 1
    outer loop
      vertex -75.5 162.9 31.5
      vertex -77 229.9 31.5
      vertex -75.5 161.4 31.5
    endloop
  endfacet
  facet normal 0 0 1
    outer loop
      vertex -75.5 161.4 31.5
      vertex -77 229.9 31.5
      vertex -75.5 146.15 31.5
    endloop
  endfacet
  facet normal 0 0 1
    outer loop
      vertex -75.5 146.15 31.5
      vertex -77 229.9 31.5
      vertex -75.5 144.65 31.5
    endloop
  endfacet
  facet normal 0 0 1
    outer loop
      vertex -75.5 144.65 31.5
      vertex -77 229.9 31.5
      vertex -75.5 129.4 31.5
    endloop
  endfacet
  facet normal 0 0 1
    outer loop
      vertex -75.5 129.4 31.5
      vertex -77 229.9 31.5
      vertex -75.5 127.9 31.5
    endloop
  endfacet
  facet normal 0 0 1
    outer loop
      vertex -75.5 127.9 31.5
      vertex -77 229.9 31.5
      vertex -75.5 112.65 31.5
    endloop
  endfacet
  facet normal 0 0 1
    outer loop
      vertex -75.5 112.65 31.5
      vertex -77 229.9 31.5
      vertex -75.5 111.15 31.5
    endloop
  endfacet
  facet normal 0 0 1
    outer loop
      vertex -75.5 111.15 31.5
      vertex -77 229.9 31.5
      vertex -75.5 95.9 31.5
    endloop
  endfacet
  facet normal 0 0 1
    outer loop
      vertex -75.5 95.9 31.5
      vertex -77 229.9 31.5
      vertex -75.5 94.4 31.5
    endloop
  endfacet
  facet normal 0 0 1
    outer loop
      vertex -75.5 94.4 31.5
      vertex -77 229.9 31.5
      vertex -75.5 79.15 31.5
    endloop
  endfacet
  facet normal 0 0 1
    outer loop
      vertex -75.5 79.15 31.5
      vertex -77 229.9 31.5
      vertex -75.5 77.65 31.5
    endloop
  endfacet
  facet normal 0 0 1
    outer loop
      vertex -77 1.70974e-14 31.5
      vertex -75.5 77.65 31.5
      vertex -77 229.9 31.5
    endloop
  endfacet
  facet normal 0 0 1
    outer loop
      vertex -75.5 77.65 31.5
      vertex -77 1.70974e-14 31.5
      vertex -75.5 62.4 31.5
    endloop
  endfacet
  facet normal 0 0 1
    outer loop
      vertex -75.5 62.4 31.5
      vertex -77 1.70974e-14 31.5
      vertex -75.5 60.9 31.5
    endloop
  endfacet
  facet normal 0 0 1
    outer loop
      vertex -75.5 60.9 31.5
      vertex -77 1.70974e-14 31.5
      vertex -75.5 47.175 31.5
    endloop
  endfacet
  facet normal 0 0 1
    outer loop
      vertex -75.5 47.175 31.5
      vertex -77 1.70974e-14 31.5
      vertex -75.5 45.675 31.5
    endloop
  endfacet
  facet normal 0 0 1
    outer loop
      vertex -75.5 45.675 31.5
      vertex -77 1.70974e-14 31.5
      vertex -75.5 31.95 31.5
    endloop
  endfacet
  facet normal 0 0 1
    outer loop
      vertex -75.5 31.95 31.5
      vertex -77 1.70974e-14 31.5
      vertex -75.5 30.45 31.5
    endloop
  endfacet
  facet normal 0 0 1
    outer loop
      vertex -75.5 30.45 31.5
      vertex -77 1.70974e-14 31.5
      vertex -75.5 16.725 31.5
    endloop
  endfacet
  facet normal 0 0 1
    outer loop
      vertex -75.5 16.725 31.5
      vertex -77 1.70974e-14 31.5
      vertex -75.5 15.225 31.5
    endloop
  endfacet
  facet normal -0 0 1
    outer loop
      vertex -77 229.9 31.5
      vertex -75.5 228.4 31.5
      vertex 5.10481e-14 229.9 31.5
    endloop
  endfacet
  facet normal 0 0 1
    outer loop
      vertex -1.5 211.65 31.5
      vertex 5.10481e-14 229.9 31.5
      vertex -1.5 213.15 31.5
    endloop
  endfacet
  facet normal 0 0 1
    outer loop
      vertex -1.5 196.4 31.5
      vertex 5.10481e-14 229.9 31.5
      vertex -1.5 211.65 31.5
    endloop
  endfacet
  facet normal 0 0 1
    outer loop
      vertex -1.5 194.9 31.5
      vertex 5.10481e-14 229.9 31.5
      vertex -1.5 196.4 31.5
    endloop
  endfacet
  facet normal 0 0 1
    outer loop
      vertex -1.5 179.65 31.5
      vertex 5.10481e-14 229.9 31.5
      vertex -1.5 194.9 31.5
    endloop
  endfacet
  facet normal 0 0 1
    outer loop
      vertex -1.5 178.15 31.5
      vertex 5.10481e-14 229.9 31.5
      vertex -1.5 179.65 31.5
    endloop
  endfacet
  facet normal 0 0 1
    outer loop
      vertex -1.5 162.9 31.5
      vertex 5.10481e-14 229.9 31.5
      vertex -1.5 178.15 31.5
    endloop
  endfacet
  facet normal 0 0 1
    outer loop
      vertex -1.5 161.4 31.5
      vertex 5.10481e-14 229.9 31.5
      vertex -1.5 162.9 31.5
    endloop
  endfacet
  facet normal 0 0 1
    outer loop
      vertex -1.5 146.15 31.5
      vertex 5.10481e-14 229.9 31.5
      vertex -1.5 161.4 31.5
    endloop
  endfacet
  facet normal 0 0 1
    outer loop
      vertex 5.10481e-14 229.9 31.5
      vertex -1.5 146.15 31.5
      vertex 0 0 31.5
    endloop
  endfacet
  facet normal -0 0 1
    outer loop
      vertex -1.5 144.65 31.5
      vertex 0 0 31.5
      vertex -1.5 146.15 31.5
    endloop
  endfacet
  facet normal -0 0 1
    outer loop
      vertex -1.5 129.4 31.5
      vertex 0 0 31.5
      vertex -1.5 144.65 31.5
    endloop
  endfacet
  facet normal -0 0 1
    outer loop
      vertex -1.5 127.9 31.5
      vertex 0 0 31.5
      vertex -1.5 129.4 31.5
    endloop
  endfacet
  facet normal -0 0 1
    outer loop
      vertex -1.5 112.65 31.5
      vertex 0 0 31.5
      vertex -1.5 127.9 31.5
    endloop
  endfacet
  facet normal -0 0 1
    outer loop
      vertex -1.5 111.15 31.5
      vertex 0 0 31.5
      vertex -1.5 112.65 31.5
    endloop
  endfacet
  facet normal -0 0 1
    outer loop
      vertex -1.5 95.9 31.5
      vertex 0 0 31.5
      vertex -1.5 111.15 31.5
    endloop
  endfacet
  facet normal -0 0 1
    outer loop
      vertex -1.5 94.4 31.5
      vertex 0 0 31.5
      vertex -1.5 95.9 31.5
    endloop
  endfacet
  facet normal -0 0 1
    outer loop
      vertex -1.5 79.15 31.5
      vertex 0 0 31.5
      vertex -1.5 94.4 31.5
    endloop
  endfacet
  facet normal -0 0 1
    outer loop
      vertex -1.5 77.65 31.5
      vertex 0 0 31.5
      vertex -1.5 79.15 31.5
    endloop
  endfacet
  facet normal -0 0 1
    outer loop
      vertex -1.5 62.4 31.5
      vertex 0 0 31.5
      vertex -1.5 77.65 31.5
    endloop
  endfacet
  facet normal -0 0 1
    outer loop
      vertex -1.5 60.9 31.5
      vertex 0 0 31.5
      vertex -1.5 62.4 31.5
    endloop
  endfacet
  facet normal -0 0 1
    outer loop
      vertex -1.5 47.175 31.5
      vertex 0 0 31.5
      vertex -1.5 60.9 31.5
    endloop
  endfacet
  facet normal -0 0 1
    outer loop
      vertex -1.5 45.675 31.5
      vertex 0 0 31.5
      vertex -1.5 47.175 31.5
    endloop
  endfacet
  facet normal -0 0 1
    outer loop
      vertex -1.5 31.95 31.5
      vertex 0 0 31.5
      vertex -1.5 45.675 31.5
    endloop
  endfacet
  facet normal -0 0 1
    outer loop
      vertex -1.5 30.45 31.5
      vertex 0 0 31.5
      vertex -1.5 31.95 31.5
    endloop
  endfacet
  facet normal -0 0 1
    outer loop
      vertex -1.5 16.725 31.5
      vertex 0 0 31.5
      vertex -1.5 30.45 31.5
    endloop
  endfacet
  facet normal -0 0 1
    outer loop
      vertex -1.5 15.225 31.5
      vertex 0 0 31.5
      vertex -1.5 16.725 31.5
    endloop
  endfacet
  facet normal -0 0 1
    outer loop
      vertex -1.5 1.5 31.5
      vertex 0 0 31.5
      vertex -1.5 15.225 31.5
    endloop
  endfacet
  facet normal -0 0 1
    outer loop
      vertex -75.5 1.5 31.5
      vertex 0 0 31.5
      vertex -1.5 1.5 31.5
    endloop
  endfacet
  facet normal 0 0 1
    outer loop
      vertex -75.5 1.5 31.5
      vertex -77 1.70974e-14 31.5
      vertex 0 0 31.5
    endloop
  endfacet
  facet normal 0 0 1
    outer loop
      vertex -75.5 15.225 31.5
      vertex -77 1.70974e-14 31.5
      vertex -75.5 1.5 31.5
    endloop
  endfacet
  facet normal -1 0 0
    outer loop
      vertex -77 219.9 0
      vertex -77 10 0
      vertex -77 219.9 0.299999
    endloop
  endfacet
  facet normal -1 0 0
    outer loop
      vertex -77 219.9 0.299999
      vertex -77 229.9 31.5
      vertex -77 229.9 0.299999
    endloop
  endfacet
  facet normal -1 0 0
    outer loop
      vertex -77 10 0.299999
      vertex -77 219.9 0.299999
      vertex -77 10 0
    endloop
  endfacet
  facet normal -1 0 0
    outer loop
      vertex -77 219.9 0.299999
      vertex -77 10 0.299999
      vertex -77 229.9 31.5
    endloop
  endfacet
  facet normal -1 0 0
    outer loop
      vertex -77 1.70974e-14 31.5
      vertex -77 10 0.299999
      vertex -77 1.70974e-14 0.299999
    endloop
  endfacet
  facet normal -1 0 0
    outer loop
      vertex -77 10 0.299999
      vertex -77 1.70974e-14 31.5
      vertex -77 229.9 31.5
    endloop
  endfacet
  facet normal 0 0 -1
    outer loop
      vertex 9.51056 -3.09017 0
      vertex 9.94522 1.04528 0
      vertex 9.94522 -1.04528 0
    endloop
  endfacet
  facet normal 0 0 -1
    outer loop
      vertex 9.51056 -3.09017 0
      vertex 9.51056 3.09017 0
      vertex 9.94522 1.04528 0
    endloop
  endfacet
  facet normal 0 0 -1
    outer loop
      vertex 8.66025 -5 0
      vertex 9.51056 3.09017 0
      vertex 9.51056 -3.09017 0
    endloop
  endfacet
  facet normal 0 0 -1
    outer loop
      vertex 8.66025 -5 0
      vertex 8.66025 5 0
      vertex 9.51056 3.09017 0
    endloop
  endfacet
  facet normal 0 0 -1
    outer loop
      vertex 7.43145 -6.69131 0
      vertex 8.66025 5 0
      vertex 8.66025 -5 0
    endloop
  endfacet
  facet normal 0 0 -1
    outer loop
      vertex 7.43145 -6.69131 0
      vertex 7.43145 6.69131 0
      vertex 8.66025 5 0
    endloop
  endfacet
  facet normal 0 0 -1
    outer loop
      vertex 5.87785 -8.09017 0
      vertex 7.43145 6.69131 0
      vertex 7.43145 -6.69131 0
    endloop
  endfacet
  facet normal 0 0 -1
    outer loop
      vertex 5.87785 -8.09017 0
      vertex 5.87785 8.09017 0
      vertex 7.43145 6.69131 0
    endloop
  endfacet
  facet normal 0 0 -1
    outer loop
      vertex 4.06737 -9.13545 0
      vertex 5.87785 8.09017 0
      vertex 5.87785 -8.09017 0
    endloop
  endfacet
  facet normal 0 0 -1
    outer loop
      vertex 4.06737 -9.13545 0
      vertex 4.06737 9.13545 0
      vertex 5.87785 8.09017 0
    endloop
  endfacet
  facet normal 0 0 -1
    outer loop
      vertex 2.07912 -9.78148 0
      vertex 4.06737 9.13545 0
      vertex 4.06737 -9.13545 0
    endloop
  endfacet
  facet normal 0 0 -1
    outer loop
      vertex 2.07912 -9.78148 0
      vertex 2.07912 9.78148 0
      vertex 4.06737 9.13545 0
    endloop
  endfacet
  facet normal 0 0 -1
    outer loop
      vertex 2.07912 -9.78148 0
      vertex 2.22045e-15 10 0
      vertex 2.07912 9.78148 0
    endloop
  endfacet
  facet normal 0 -0 -1
    outer loop
      vertex 2.22045e-15 10 0
      vertex 2.07912 -9.78148 0
      vertex -2.22045e-15 -10 0
    endloop
  endfacet
  facet normal 0 0 -1
    outer loop
      vertex 9.51056 226.81 0
      vertex 9.94522 230.945 0
      vertex 9.94522 228.855 0
    endloop
  endfacet
  facet normal 0 0 -1
    outer loop
      vertex 9.51056 226.81 0
      vertex 9.51056 232.99 0
      vertex 9.94522 230.945 0
    endloop
  endfacet
  facet normal 0 0 -1
    outer loop
      vertex 8.66025 224.9 0
      vertex 9.51056 232.99 0
      vertex 9.51056 226.81 0
    endloop
  endfacet
  facet normal 0 0 -1
    outer loop
      vertex 8.66025 224.9 0
      vertex 8.66025 234.9 0
      vertex 9.51056 232.99 0
    endloop
  endfacet
  facet normal 0 0 -1
    outer loop
      vertex 7.43145 223.209 0
      vertex 8.66025 234.9 0
      vertex 8.66025 224.9 0
    endloop
  endfacet
  facet normal 0 0 -1
    outer loop
      vertex 7.43145 223.209 0
      vertex 7.43145 236.591 0
      vertex 8.66025 234.9 0
    endloop
  endfacet
  facet normal 0 0 -1
    outer loop
      vertex 5.87785 221.81 0
      vertex 7.43145 236.591 0
      vertex 7.43145 223.209 0
    endloop
  endfacet
  facet normal 0 0 -1
    outer loop
      vertex 5.87785 221.81 0
      vertex 5.87785 237.99 0
      vertex 7.43145 236.591 0
    endloop
  endfacet
  facet normal 0 0 -1
    outer loop
      vertex 4.06737 220.765 0
      vertex 5.87785 237.99 0
      vertex 5.87785 221.81 0
    endloop
  endfacet
  facet normal 0 0 -1
    outer loop
      vertex 4.06737 220.765 0
      vertex 4.06737 239.035 0
      vertex 5.87785 237.99 0
    endloop
  endfacet
  facet normal 0 0 -1
    outer loop
      vertex 2.07912 220.119 0
      vertex 4.06737 239.035 0
      vertex 4.06737 220.765 0
    endloop
  endfacet
  facet normal 0 0 -1
    outer loop
      vertex 2.07912 220.119 0
      vertex 2.07912 239.681 0
      vertex 4.06737 239.035 0
    endloop
  endfacet
  facet normal 0 0 -1
    outer loop
      vertex 2.07912 220.119 0
      vertex 5.32685e-14 239.9 0
      vertex 2.07912 239.681 0
    endloop
  endfacet
  facet normal 0 0 -1
    outer loop
      vertex 4.88276e-14 219.9 0
      vertex 5.32685e-14 239.9 0
      vertex 2.07912 220.119 0
    endloop
  endfacet
  facet normal 0 0 -1
    outer loop
      vertex -77 219.9 0
      vertex 4.88276e-14 219.9 0
      vertex 2.22045e-15 10 0
    endloop
  endfacet
  facet normal 0 0 -1
    outer loop
      vertex -9.94522 2.20828e-15 0
      vertex 2.22045e-15 10 0
      vertex -2.22045e-15 -10 0
    endloop
  endfacet
  facet normal 0 0 -1
    outer loop
      vertex -9.94522 2.20828e-15 0
      vertex -2.22045e-15 -10 0
      vertex -2.07912 -9.78148 0
    endloop
  endfacet
  facet normal 0 0 -1
    outer loop
      vertex -67.0548 1.48892e-14 0
      vertex 2.22045e-15 10 0
      vertex -9.94522 2.20828e-15 0
    endloop
  endfacet
  facet normal 0 0 -1
    outer loop
      vertex -9.94522 2.20828e-15 0
      vertex -2.07912 -9.78148 0
      vertex -4.06737 -9.13545 0
    endloop
  endfacet
  facet normal 0 0 -1
    outer loop
      vertex 4.88276e-14 219.9 0
      vertex -9.94522 229.9 0
      vertex 5.32685e-14 239.9 0
    endloop
  endfacet
  facet normal 0 0 -1
    outer loop
      vertex -9.94522 2.20828e-15 0
      vertex -4.06737 -9.13545 0
      vertex -5.87785 -8.09017 0
    endloop
  endfacet
  facet normal 0 0 -1
    outer loop
      vertex 5.32685e-14 239.9 0
      vertex -9.94522 229.9 0
      vertex -2.07912 239.681 0
    endloop
  endfacet
  facet normal 0 0 -1
    outer loop
      vertex -9.94522 2.20828e-15 0
      vertex -5.87785 -8.09017 0
      vertex -7.43145 -6.69131 0
    endloop
  endfacet
  facet normal 0 0 -1
    outer loop
      vertex -2.07912 239.681 0
      vertex -9.94522 229.9 0
      vertex -4.06737 239.035 0
    endloop
  endfacet
  facet normal 0 0 -1
    outer loop
      vertex -9.94522 2.20828e-15 0
      vertex -7.43145 -6.69131 0
      vertex -8.66025 -5 0
    endloop
  endfacet
  facet normal 0 0 -1
    outer loop
      vertex -4.06737 239.035 0
      vertex -9.94522 229.9 0
      vertex -5.87785 237.99 0
    endloop
  endfacet
  facet normal 0 0 -1
    outer loop
      vertex -9.94522 2.20828e-15 0
      vertex -8.66025 -5 0
      vertex -9.51056 -3.09017 0
    endloop
  endfacet
  facet normal 0 0 -1
    outer loop
      vertex -5.87785 237.99 0
      vertex -9.94522 229.9 0
      vertex -7.43145 236.591 0
    endloop
  endfacet
  facet normal 0 0 -1
    outer loop
      vertex -9.94522 2.20828e-15 0
      vertex -9.51056 -3.09017 0
      vertex -9.94522 -1.04528 0
    endloop
  endfacet
  facet normal 0 0 -1
    outer loop
      vertex -7.43145 236.591 0
      vertex -9.94522 229.9 0
      vertex -8.66025 234.9 0
    endloop
  endfacet
  facet normal 0 0 -1
    outer loop
      vertex -8.66025 234.9 0
      vertex -9.94522 229.9 0
      vertex -9.51056 232.99 0
    endloop
  endfacet
  facet normal 0 0 -1
    outer loop
      vertex -9.51056 232.99 0
      vertex -9.94522 229.9 0
      vertex -9.94522 230.945 0
    endloop
  endfacet
  facet normal 0 0 -1
    outer loop
      vertex -79.0791 -9.78148 0
      vertex -77 10 0
      vertex -77 -10 0
    endloop
  endfacet
  facet normal 0 0 -1
    outer loop
      vertex -79.0791 -9.78148 0
      vertex -79.0791 9.78148 0
      vertex -77 10 0
    endloop
  endfacet
  facet normal 0 0 -1
    outer loop
      vertex -81.0674 -9.13545 0
      vertex -79.0791 9.78148 0
      vertex -79.0791 -9.78148 0
    endloop
  endfacet
  facet normal 0 0 -1
    outer loop
      vertex -81.0674 -9.13545 0
      vertex -81.0674 9.13545 0
      vertex -79.0791 9.78148 0
    endloop
  endfacet
  facet normal 0 0 -1
    outer loop
      vertex -82.8779 -8.09017 0
      vertex -81.0674 9.13545 0
      vertex -81.0674 -9.13545 0
    endloop
  endfacet
  facet normal 0 0 -1
    outer loop
      vertex -82.8779 -8.09017 0
      vertex -82.8779 8.09017 0
      vertex -81.0674 9.13545 0
    endloop
  endfacet
  facet normal 0 0 -1
    outer loop
      vertex -84.4314 -6.69131 0
      vertex -82.8779 8.09017 0
      vertex -82.8779 -8.09017 0
    endloop
  endfacet
  facet normal 0 0 -1
    outer loop
      vertex -84.4314 -6.69131 0
      vertex -84.4314 6.69131 0
      vertex -82.8779 8.09017 0
    endloop
  endfacet
  facet normal 0 0 -1
    outer loop
      vertex -85.6603 -5 0
      vertex -84.4314 6.69131 0
      vertex -84.4314 -6.69131 0
    endloop
  endfacet
  facet normal 0 0 -1
    outer loop
      vertex -85.6603 -5 0
      vertex -85.6603 5 0
      vertex -84.4314 6.69131 0
    endloop
  endfacet
  facet normal 0 0 -1
    outer loop
      vertex -86.5106 -3.09017 0
      vertex -85.6603 5 0
      vertex -85.6603 -5 0
    endloop
  endfacet
  facet normal 0 0 -1
    outer loop
      vertex -86.5106 -3.09017 0
      vertex -86.5106 3.09017 0
      vertex -85.6603 5 0
    endloop
  endfacet
  facet normal 0 0 -1
    outer loop
      vertex -86.9452 -1.04528 0
      vertex -86.5106 3.09017 0
      vertex -86.5106 -3.09017 0
    endloop
  endfacet
  facet normal 0 0 -1
    outer loop
      vertex -86.5106 3.09017 0
      vertex -86.9452 -1.04528 0
      vertex -86.9452 1.04528 0
    endloop
  endfacet
  facet normal 0 0 -1
    outer loop
      vertex -67.4894 -3.09017 0
      vertex -67.0548 1.48892e-14 0
      vertex -67.0548 -1.04528 0
    endloop
  endfacet
  facet normal 0 0 -1
    outer loop
      vertex -77 219.9 0
      vertex 2.22045e-15 10 0
      vertex -77 10 0
    endloop
  endfacet
  facet normal 0 0 -1
    outer loop
      vertex -68.3397 -5 0
      vertex -67.0548 1.48892e-14 0
      vertex -67.4894 -3.09017 0
    endloop
  endfacet
  facet normal 0 0 -1
    outer loop
      vertex 4.88276e-14 219.9 0
      vertex -77 219.9 0
      vertex -67.0548 229.9 0
    endloop
  endfacet
  facet normal 0 0 -1
    outer loop
      vertex -69.5686 -6.69131 0
      vertex -67.0548 1.48892e-14 0
      vertex -68.3397 -5 0
    endloop
  endfacet
  facet normal 0 -0 -1
    outer loop
      vertex -69.5686 236.591 0
      vertex -67.0548 229.9 0
      vertex -77 219.9 0
    endloop
  endfacet
  facet normal -0 0 -1
    outer loop
      vertex -67.0548 1.48892e-14 0
      vertex -69.5686 -6.69131 0
      vertex -77 10 0
    endloop
  endfacet
  facet normal 0 0 -1
    outer loop
      vertex -67.0548 229.9 0
      vertex -67.4894 232.99 0
      vertex -67.0548 230.945 0
    endloop
  endfacet
  facet normal 0 0 -1
    outer loop
      vertex -77 10 0
      vertex -69.5686 -6.69131 0
      vertex -71.1221 -8.09017 0
    endloop
  endfacet
  facet normal 0 0 -1
    outer loop
      vertex -67.0548 229.9 0
      vertex -68.3397 234.9 0
      vertex -67.4894 232.99 0
    endloop
  endfacet
  facet normal 0 0 -1
    outer loop
      vertex -77 10 0
      vertex -71.1221 -8.09017 0
      vertex -72.9326 -9.13545 0
    endloop
  endfacet
  facet normal 0 0 -1
    outer loop
      vertex -67.0548 229.9 0
      vertex -69.5686 236.591 0
      vertex -68.3397 234.9 0
    endloop
  endfacet
  facet normal 0 0 -1
    outer loop
      vertex -77 10 0
      vertex -72.9326 -9.13545 0
      vertex -74.9209 -9.78148 0
    endloop
  endfacet
  facet normal -0 0 -1
    outer loop
      vertex -69.5686 236.591 0
      vertex -77 219.9 0
      vertex -71.1221 237.99 0
    endloop
  endfacet
  facet normal 0 0 -1
    outer loop
      vertex -77 10 0
      vertex -74.9209 -9.78148 0
      vertex -77 -10 0
    endloop
  endfacet
  facet normal -0 0 -1
    outer loop
      vertex -71.1221 237.99 0
      vertex -77 219.9 0
      vertex -72.9326 239.035 0
    endloop
  endfacet
  facet normal -0 0 -1
    outer loop
      vertex -72.9326 239.035 0
      vertex -77 219.9 0
      vertex -74.9209 239.681 0
    endloop
  endfacet
  facet normal 0 0 -1
    outer loop
      vertex -77 219.9 0
      vertex -77 239.9 0
      vertex -74.9209 239.681 0
    endloop
  endfacet
  facet normal 0 0 -1
    outer loop
      vertex -79.0791 220.119 0
      vertex -77 239.9 0
      vertex -77 219.9 0
    endloop
  endfacet
  facet normal 0 0 -1
    outer loop
      vertex -79.0791 220.119 0
      vertex -79.0791 239.681 0
      vertex -77 239.9 0
    endloop
  endfacet
  facet normal 0 0 -1
    outer loop
      vertex -81.0674 220.765 0
      vertex -79.0791 239.681 0
      vertex -79.0791 220.119 0
    endloop
  endfacet
  facet normal 0 0 -1
    outer loop
      vertex -81.0674 220.765 0
      vertex -81.0674 239.035 0
      vertex -79.0791 239.681 0
    endloop
  endfacet
  facet normal 0 0 -1
    outer loop
      vertex -82.8779 221.81 0
      vertex -81.0674 239.035 0
      vertex -81.0674 220.765 0
    endloop
  endfacet
  facet normal 0 0 -1
    outer loop
      vertex -82.8779 221.81 0
      vertex -82.8779 237.99 0
      vertex -81.0674 239.035 0
    endloop
  endfacet
  facet normal 0 0 -1
    outer loop
      vertex -84.4314 223.209 0
      vertex -82.8779 237.99 0
      vertex -82.8779 221.81 0
    endloop
  endfacet
  facet normal 0 0 -1
    outer loop
      vertex -84.4314 223.209 0
      vertex -84.4314 236.591 0
      vertex -82.8779 237.99 0
    endloop
  endfacet
  facet normal 0 0 -1
    outer loop
      vertex -85.6603 224.9 0
      vertex -84.4314 236.591 0
      vertex -84.4314 223.209 0
    endloop
  endfacet
  facet normal 0 0 -1
    outer loop
      vertex -85.6603 224.9 0
      vertex -85.6603 234.9 0
      vertex -84.4314 236.591 0
    endloop
  endfacet
  facet normal 0 0 -1
    outer loop
      vertex -86.5106 226.81 0
      vertex -85.6603 234.9 0
      vertex -85.6603 224.9 0
    endloop
  endfacet
  facet normal 0 0 -1
    outer loop
      vertex -86.5106 226.81 0
      vertex -86.5106 232.99 0
      vertex -85.6603 234.9 0
    endloop
  endfacet
  facet normal 0 0 -1
    outer loop
      vertex -86.9452 228.855 0
      vertex -86.5106 232.99 0
      vertex -86.5106 226.81 0
    endloop
  endfacet
  facet normal 0 0 -1
    outer loop
      vertex -86.5106 232.99 0
      vertex -86.9452 228.855 0
      vertex -86.9452 230.945 0
    endloop
  endfacet
  facet normal 0 0 -1
    outer loop
      vertex -77 10 0
      vertex 2.22045e-15 10 0
      vertex -67.0548 1.48892e-14 0
    endloop
  endfacet
  facet normal 0 0 -1
    outer loop
      vertex 4.88276e-14 219.9 0
      vertex -67.0548 229.9 0
      vertex -9.94522 229.9 0
    endloop
  endfacet
  facet normal 1 -2.22045e-16 0
    outer loop
      vertex 5.10481e-14 229.9 31.5
      vertex 4.88276e-14 219.9 0.299999
      vertex 5.10481e-14 229.9 0.299999
    endloop
  endfacet
  facet normal 1 -2.22045e-16 0
    outer loop
      vertex 4.88276e-14 219.9 0.299999
      vertex 2.22045e-15 10 0.299999
      vertex 4.88276e-14 219.9 0
    endloop
  endfacet
  facet normal 1 -2.22045e-16 0
    outer loop
      vertex 5.10481e-14 229.9 31.5
      vertex 2.22045e-15 10 0.299999
      vertex 4.88276e-14 219.9 0.299999
    endloop
  endfacet
  facet normal 1 -2.22045e-16 0
    outer loop
      vertex 0 0 31.5
      vertex 2.22045e-15 10 0.299999
      vertex 5.10481e-14 229.9 31.5
    endloop
  endfacet
  facet normal 1 -2.22045e-16 0
    outer loop
      vertex 2.22045e-15 10 0.299999
      vertex 0 0 31.5
      vertex 0 0 0.299999
    endloop
  endfacet
  facet normal 1 -2.22045e-16 0
    outer loop
      vertex 4.88276e-14 219.9 0
      vertex 2.22045e-15 10 0.299999
      vertex 2.22045e-15 10 0
    endloop
  endfacet
  facet normal 0 1 -0
    outer loop
      vertex -1.5 1.5 1.5
      vertex -75.5 1.5 31.5
      vertex -1.5 1.5 31.5
    endloop
  endfacet
  facet normal 0 1 0
    outer loop
      vertex -75.5 1.5 31.5
      vertex -1.5 1.5 1.5
      vertex -75.5 1.5 1.5
    endloop
  endfacet
  facet normal 0 -1 0
    outer loop
      vertex -75.5 15.225 1.5
      vertex -1.5 15.225 31.5
      vertex -75.5 15.225 31.5
    endloop
  endfacet
  facet normal 0 -1 -0
    outer loop
      vertex -1.5 15.225 31.5
      vertex -75.5 15.225 1.5
      vertex -1.5 15.225 1.5
    endloop
  endfacet
  facet normal 1 -0 0
    outer loop
      vertex -75.5 1.5 31.5
      vertex -75.5 15.225 1.5
      vertex -75.5 15.225 31.5
    endloop
  endfacet
  facet normal 1 0 0
    outer loop
      vertex -75.5 15.225 1.5
      vertex -75.5 1.5 31.5
      vertex -75.5 1.5 1.5
    endloop
  endfacet
  facet normal -0 0 1
    outer loop
      vertex -75.5 15.225 1.5
      vertex -1.5 1.5 1.5
      vertex -1.5 15.225 1.5
    endloop
  endfacet
  facet normal 0 0 1
    outer loop
      vertex -1.5 1.5 1.5
      vertex -75.5 15.225 1.5
      vertex -75.5 1.5 1.5
    endloop
  endfacet
  facet normal -1 0 0
    outer loop
      vertex -1.5 1.5 1.5
      vertex -1.5 15.225 31.5
      vertex -1.5 15.225 1.5
    endloop
  endfacet
  facet normal -1 -0 0
    outer loop
      vertex -1.5 15.225 31.5
      vertex -1.5 1.5 1.5
      vertex -1.5 1.5 31.5
    endloop
  endfacet
  facet normal 0 1 -0
    outer loop
      vertex -1.5 16.725 1.5
      vertex -75.5 16.725 31.5
      vertex -1.5 16.725 31.5
    endloop
  endfacet
  facet normal 0 1 0
    outer loop
      vertex -75.5 16.725 31.5
      vertex -1.5 16.725 1.5
      vertex -75.5 16.725 1.5
    endloop
  endfacet
  facet normal 0 -1 0
    outer loop
      vertex -75.5 30.45 1.5
      vertex -1.5 30.45 31.5
      vertex -75.5 30.45 31.5
    endloop
  endfacet
  facet normal 0 -1 -0
    outer loop
      vertex -1.5 30.45 31.5
      vertex -75.5 30.45 1.5
      vertex -1.5 30.45 1.5
    endloop
  endfacet
  facet normal 1 -0 0
    outer loop
      vertex -75.5 16.725 31.5
      vertex -75.5 30.45 1.5
      vertex -75.5 30.45 31.5
    endloop
  endfacet
  facet normal 1 0 0
    outer loop
      vertex -75.5 30.45 1.5
      vertex -75.5 16.725 31.5
      vertex -75.5 16.725 1.5
    endloop
  endfacet
  facet normal -0 0 1
    outer loop
      vertex -75.5 30.45 1.5
      vertex -1.5 16.725 1.5
      vertex -1.5 30.45 1.5
    endloop
  endfacet
  facet normal 0 0 1
    outer loop
      vertex -1.5 16.725 1.5
      vertex -75.5 30.45 1.5
      vertex -75.5 16.725 1.5
    endloop
  endfacet
  facet normal -1 0 0
    outer loop
      vertex -1.5 16.725 1.5
      vertex -1.5 30.45 31.5
      vertex -1.5 30.45 1.5
    endloop
  endfacet
  facet normal -1 -0 0
    outer loop
      vertex -1.5 30.45 31.5
      vertex -1.5 16.725 1.5
      vertex -1.5 16.725 31.5
    endloop
  endfacet
  facet normal 0 1 -0
    outer loop
      vertex -1.5 31.95 1.5
      vertex -75.5 31.95 31.5
      vertex -1.5 31.95 31.5
    endloop
  endfacet
  facet normal 0 1 0
    outer loop
      vertex -75.5 31.95 31.5
      vertex -1.5 31.95 1.5
      vertex -75.5 31.95 1.5
    endloop
  endfacet
  facet normal 0 -1 0
    outer loop
      vertex -75.5 45.675 1.5
      vertex -1.5 45.675 31.5
      vertex -75.5 45.675 31.5
    endloop
  endfacet
  facet normal 0 -1 -0
    outer loop
      vertex -1.5 45.675 31.5
      vertex -75.5 45.675 1.5
      vertex -1.5 45.675 1.5
    endloop
  endfacet
  facet normal 1 -0 0
    outer loop
      vertex -75.5 31.95 31.5
      vertex -75.5 45.675 1.5
      vertex -75.5 45.675 31.5
    endloop
  endfacet
  facet normal 1 0 0
    outer loop
      vertex -75.5 45.675 1.5
      vertex -75.5 31.95 31.5
      vertex -75.5 31.95 1.5
    endloop
  endfacet
  facet normal -0 0 1
    outer loop
      vertex -75.5 45.675 1.5
      vertex -1.5 31.95 1.5
      vertex -1.5 45.675 1.5
    endloop
  endfacet
  facet normal 0 0 1
    outer loop
      vertex -1.5 31.95 1.5
      vertex -75.5 45.675 1.5
      vertex -75.5 31.95 1.5
    endloop
  endfacet
  facet normal -1 0 0
    outer loop
      vertex -1.5 31.95 1.5
      vertex -1.5 45.675 31.5
      vertex -1.5 45.675 1.5
    endloop
  endfacet
  facet normal -1 -0 0
    outer loop
      vertex -1.5 45.675 31.5
      vertex -1.5 31.95 1.5
      vertex -1.5 31.95 31.5
    endloop
  endfacet
  facet normal 0 1 -0
    outer loop
      vertex -1.5 47.175 1.5
      vertex -75.5 47.175 31.5
      vertex -1.5 47.175 31.5
    endloop
  endfacet
  facet normal 0 1 0
    outer loop
      vertex -75.5 47.175 31.5
      vertex -1.5 47.175 1.5
      vertex -75.5 47.175 1.5
    endloop
  endfacet
  facet normal 0 -1 0
    outer loop
      vertex -75.5 60.9 1.5
      vertex -1.5 60.9 31.5
      vertex -75.5 60.9 31.5
    endloop
  endfacet
  facet normal 0 -1 -0
    outer loop
      vertex -1.5 60.9 31.5
      vertex -75.5 60.9 1.5
      vertex -1.5 60.9 1.5
    endloop
  endfacet
  facet normal 1 -0 0
    outer loop
      vertex -75.5 47.175 31.5
      vertex -75.5 60.9 1.5
      vertex -75.5 60.9 31.5
    endloop
  endfacet
  facet normal 1 0 0
    outer loop
      vertex -75.5 60.9 1.5
      vertex -75.5 47.175 31.5
      vertex -75.5 47.175 1.5
    endloop
  endfacet
  facet normal -0 0 1
    outer loop
      vertex -75.5 60.9 1.5
      vertex -1.5 47.175 1.5
      vertex -1.5 60.9 1.5
    endloop
  endfacet
  facet normal 0 0 1
    outer loop
      vertex -1.5 47.175 1.5
      vertex -75.5 60.9 1.5
      vertex -75.5 47.175 1.5
    endloop
  endfacet
  facet normal -1 0 0
    outer loop
      vertex -1.5 47.175 1.5
      vertex -1.5 60.9 31.5
      vertex -1.5 60.9 1.5
    endloop
  endfacet
  facet normal -1 -0 0
    outer loop
      vertex -1.5 60.9 31.5
      vertex -1.5 47.175 1.5
      vertex -1.5 47.175 31.5
    endloop
  endfacet
  facet normal 0 1 -0
    outer loop
      vertex -1.5 79.15 1.5
      vertex -75.5 79.15 31.5
      vertex -1.5 79.15 31.5
    endloop
  endfacet
  facet normal 0 1 0
    outer loop
      vertex -75.5 79.15 31.5
      vertex -1.5 79.15 1.5
      vertex -75.5 79.15 1.5
    endloop
  endfacet
  facet normal 0 1 -0
    outer loop
      vertex -1.5 62.4 1.5
      vertex -75.5 62.4 31.5
      vertex -1.5 62.4 31.5
    endloop
  endfacet
  facet normal 0 1 0
    outer loop
      vertex -75.5 62.4 31.5
      vertex -1.5 62.4 1.5
      vertex -75.5 62.4 1.5
    endloop
  endfacet
  facet normal 1 -0 0
    outer loop
      vertex -75.5 62.4 31.5
      vertex -75.5 77.65 1.5
      vertex -75.5 77.65 31.5
    endloop
  endfacet
  facet normal 1 0 0
    outer loop
      vertex -75.5 77.65 1.5
      vertex -75.5 62.4 31.5
      vertex -75.5 62.4 1.5
    endloop
  endfacet
  facet normal -0 0 1
    outer loop
      vertex -75.5 77.65 1.5
      vertex -1.5 62.4 1.5
      vertex -1.5 77.65 1.5
    endloop
  endfacet
  facet normal 0 0 1
    outer loop
      vertex -1.5 62.4 1.5
      vertex -75.5 77.65 1.5
      vertex -75.5 62.4 1.5
    endloop
  endfacet
  facet normal -1 0 0
    outer loop
      vertex -1.5 62.4 1.5
      vertex -1.5 77.65 31.5
      vertex -1.5 77.65 1.5
    endloop
  endfacet
  facet normal -1 -0 0
    outer loop
      vertex -1.5 77.65 31.5
      vertex -1.5 62.4 1.5
      vertex -1.5 62.4 31.5
    endloop
  endfacet
  facet normal 0 -1 0
    outer loop
      vertex -75.5 77.65 1.5
      vertex -1.5 77.65 31.5
      vertex -75.5 77.65 31.5
    endloop
  endfacet
  facet normal 0 -1 -0
    outer loop
      vertex -1.5 77.65 31.5
      vertex -75.5 77.65 1.5
      vertex -1.5 77.65 1.5
    endloop
  endfacet
  facet normal 0 1 -0
    outer loop
      vertex -1.5 95.9 1.5
      vertex -75.5 95.9 31.5
      vertex -1.5 95.9 31.5
    endloop
  endfacet
  facet normal 0 1 0
    outer loop
      vertex -75.5 95.9 31.5
      vertex -1.5 95.9 1.5
      vertex -75.5 95.9 1.5
    endloop
  endfacet
  facet normal 0 -1 0
    outer loop
      vertex -75.5 94.4 1.5
      vertex -1.5 94.4 31.5
      vertex -75.5 94.4 31.5
    endloop
  endfacet
  facet normal 0 -1 -0
    outer loop
      vertex -1.5 94.4 31.5
      vertex -75.5 94.4 1.5
      vertex -1.5 94.4 1.5
    endloop
  endfacet
  facet normal 1 -0 0
    outer loop
      vertex -75.5 79.15 31.5
      vertex -75.5 94.4 1.5
      vertex -75.5 94.4 31.5
    endloop
  endfacet
  facet normal 1 0 0
    outer loop
      vertex -75.5 94.4 1.5
      vertex -75.5 79.15 31.5
      vertex -75.5 79.15 1.5
    endloop
  endfacet
  facet normal -0 0 1
    outer loop
      vertex -75.5 94.4 1.5
      vertex -1.5 79.15 1.5
      vertex -1.5 94.4 1.5
    endloop
  endfacet
  facet normal 0 0 1
    outer loop
      vertex -1.5 79.15 1.5
      vertex -75.5 94.4 1.5
      vertex -75.5 79.15 1.5
    endloop
  endfacet
  facet normal -1 0 0
    outer loop
      vertex -1.5 79.15 1.5
      vertex -1.5 94.4 31.5
      vertex -1.5 94.4 1.5
    endloop
  endfacet
  facet normal -1 -0 0
    outer loop
      vertex -1.5 94.4 31.5
      vertex -1.5 79.15 1.5
      vertex -1.5 79.15 31.5
    endloop
  endfacet
  facet normal 0 1 -0
    outer loop
      vertex -1.5 112.65 1.5
      vertex -75.5 112.65 31.5
      vertex -1.5 112.65 31.5
    endloop
  endfacet
  facet normal 0 1 0
    outer loop
      vertex -75.5 112.65 31.5
      vertex -1.5 112.65 1.5
      vertex -75.5 112.65 1.5
    endloop
  endfacet
  facet normal 0 -1 0
    outer loop
      vertex -75.5 111.15 1.5
      vertex -1.5 111.15 31.5
      vertex -75.5 111.15 31.5
    endloop
  endfacet
  facet normal 0 -1 -0
    outer loop
      vertex -1.5 111.15 31.5
      vertex -75.5 111.15 1.5
      vertex -1.5 111.15 1.5
    endloop
  endfacet
  facet normal 1 -0 0
    outer loop
      vertex -75.5 95.9 31.5
      vertex -75.5 111.15 1.5
      vertex -75.5 111.15 31.5
    endloop
  endfacet
  facet normal 1 0 0
    outer loop
      vertex -75.5 111.15 1.5
      vertex -75.5 95.9 31.5
      vertex -75.5 95.9 1.5
    endloop
  endfacet
  facet normal -0 0 1
    outer loop
      vertex -75.5 111.15 1.5
      vertex -1.5 95.9 1.5
      vertex -1.5 111.15 1.5
    endloop
  endfacet
  facet normal 0 0 1
    outer loop
      vertex -1.5 95.9 1.5
      vertex -75.5 111.15 1.5
      vertex -75.5 95.9 1.5
    endloop
  endfacet
  facet normal -1 0 0
    outer loop
      vertex -1.5 95.9 1.5
      vertex -1.5 111.15 31.5
      vertex -1.5 111.15 1.5
    endloop
  endfacet
  facet normal -1 -0 0
    outer loop
      vertex -1.5 111.15 31.5
      vertex -1.5 95.9 1.5
      vertex -1.5 95.9 31.5
    endloop
  endfacet
  facet normal 0 1 -0
    outer loop
      vertex -1.5 129.4 1.5
      vertex -75.5 129.4 31.5
      vertex -1.5 129.4 31.5
    endloop
  endfacet
  facet normal 0 1 0
    outer loop
      vertex -75.5 129.4 31.5
      vertex -1.5 129.4 1.5
      vertex -75.5 129.4 1.5
    endloop
  endfacet
  facet normal 0 -1 0
    outer loop
      vertex -75.5 127.9 1.5
      vertex -1.5 127.9 31.5
      vertex -75.5 127.9 31.5
    endloop
  endfacet
  facet normal 0 -1 -0
    outer loop
      vertex -1.5 127.9 31.5
      vertex -75.5 127.9 1.5
      vertex -1.5 127.9 1.5
    endloop
  endfacet
  facet normal 1 -0 0
    outer loop
      vertex -75.5 112.65 31.5
      vertex -75.5 127.9 1.5
      vertex -75.5 127.9 31.5
    endloop
  endfacet
  facet normal 1 0 0
    outer loop
      vertex -75.5 127.9 1.5
      vertex -75.5 112.65 31.5
      vertex -75.5 112.65 1.5
    endloop
  endfacet
  facet normal -0 0 1
    outer loop
      vertex -75.5 127.9 1.5
      vertex -1.5 112.65 1.5
      vertex -1.5 127.9 1.5
    endloop
  endfacet
  facet normal 0 0 1
    outer loop
      vertex -1.5 112.65 1.5
      vertex -75.5 127.9 1.5
      vertex -75.5 112.65 1.5
    endloop
  endfacet
  facet normal -1 0 0
    outer loop
      vertex -1.5 112.65 1.5
      vertex -1.5 127.9 31.5
      vertex -1.5 127.9 1.5
    endloop
  endfacet
  facet normal -1 -0 0
    outer loop
      vertex -1.5 127.9 31.5
      vertex -1.5 112.65 1.5
      vertex -1.5 112.65 31.5
    endloop
  endfacet
  facet normal 0 -1 0
    outer loop
      vertex -75.5 144.65 1.5
      vertex -1.5 144.65 31.5
      vertex -75.5 144.65 31.5
    endloop
  endfacet
  facet normal 0 -1 -0
    outer loop
      vertex -1.5 144.65 31.5
      vertex -75.5 144.65 1.5
      vertex -1.5 144.65 1.5
    endloop
  endfacet
  facet normal 1 -0 0
    outer loop
      vertex -75.5 129.4 31.5
      vertex -75.5 144.65 1.5
      vertex -75.5 144.65 31.5
    endloop
  endfacet
  facet normal 1 0 0
    outer loop
      vertex -75.5 144.65 1.5
      vertex -75.5 129.4 31.5
      vertex -75.5 129.4 1.5
    endloop
  endfacet
  facet normal -0 0 1
    outer loop
      vertex -75.5 144.65 1.5
      vertex -1.5 129.4 1.5
      vertex -1.5 144.65 1.5
    endloop
  endfacet
  facet normal 0 0 1
    outer loop
      vertex -1.5 129.4 1.5
      vertex -75.5 144.65 1.5
      vertex -75.5 129.4 1.5
    endloop
  endfacet
  facet normal -1 0 0
    outer loop
      vertex -1.5 129.4 1.5
      vertex -1.5 144.65 31.5
      vertex -1.5 144.65 1.5
    endloop
  endfacet
  facet normal -1 -0 0
    outer loop
      vertex -1.5 144.65 31.5
      vertex -1.5 129.4 1.5
      vertex -1.5 129.4 31.5
    endloop
  endfacet
  facet normal 0 1 -0
    outer loop
      vertex -1.5 162.9 1.5
      vertex -75.5 162.9 31.5
      vertex -1.5 162.9 31.5
    endloop
  endfacet
  facet normal 0 1 0
    outer loop
      vertex -75.5 162.9 31.5
      vertex -1.5 162.9 1.5
      vertex -75.5 162.9 1.5
    endloop
  endfacet
  facet normal 0 1 -0
    outer loop
      vertex -1.5 146.15 1.5
      vertex -75.5 146.15 31.5
      vertex -1.5 146.15 31.5
    endloop
  endfacet
  facet normal 0 1 0
    outer loop
      vertex -75.5 146.15 31.5
      vertex -1.5 146.15 1.5
      vertex -75.5 146.15 1.5
    endloop
  endfacet
  facet normal 0 -1 0
    outer loop
      vertex -75.5 161.4 1.5
      vertex -1.5 161.4 31.5
      vertex -75.5 161.4 31.5
    endloop
  endfacet
  facet normal 0 -1 -0
    outer loop
      vertex -1.5 161.4 31.5
      vertex -75.5 161.4 1.5
      vertex -1.5 161.4 1.5
    endloop
  endfacet
  facet normal 1 -0 0
    outer loop
      vertex -75.5 146.15 31.5
      vertex -75.5 161.4 1.5
      vertex -75.5 161.4 31.5
    endloop
  endfacet
  facet normal 1 0 0
    outer loop
      vertex -75.5 161.4 1.5
      vertex -75.5 146.15 31.5
      vertex -75.5 146.15 1.5
    endloop
  endfacet
  facet normal -0 0 1
    outer loop
      vertex -75.5 161.4 1.5
      vertex -1.5 146.15 1.5
      vertex -1.5 161.4 1.5
    endloop
  endfacet
  facet normal 0 0 1
    outer loop
      vertex -1.5 146.15 1.5
      vertex -75.5 161.4 1.5
      vertex -75.5 146.15 1.5
    endloop
  endfacet
  facet normal -1 0 0
    outer loop
      vertex -1.5 146.15 1.5
      vertex -1.5 161.4 31.5
      vertex -1.5 161.4 1.5
    endloop
  endfacet
  facet normal -1 -0 0
    outer loop
      vertex -1.5 161.4 31.5
      vertex -1.5 146.15 1.5
      vertex -1.5 146.15 31.5
    endloop
  endfacet
  facet normal 0 1 -0
    outer loop
      vertex -1.5 179.65 1.5
      vertex -75.5 179.65 31.5
      vertex -1.5 179.65 31.5
    endloop
  endfacet
  facet normal 0 1 0
    outer loop
      vertex -75.5 179.65 31.5
      vertex -1.5 179.65 1.5
      vertex -75.5 179.65 1.5
    endloop
  endfacet
  facet normal 0 -1 0
    outer loop
      vertex -75.5 178.15 1.5
      vertex -1.5 178.15 31.5
      vertex -75.5 178.15 31.5
    endloop
  endfacet
  facet normal 0 -1 -0
    outer loop
      vertex -1.5 178.15 31.5
      vertex -75.5 178.15 1.5
      vertex -1.5 178.15 1.5
    endloop
  endfacet
  facet normal 1 -0 0
    outer loop
      vertex -75.5 162.9 31.5
      vertex -75.5 178.15 1.5
      vertex -75.5 178.15 31.5
    endloop
  endfacet
  facet normal 1 0 0
    outer loop
      vertex -75.5 178.15 1.5
      vertex -75.5 162.9 31.5
      vertex -75.5 162.9 1.5
    endloop
  endfacet
  facet normal -0 0 1
    outer loop
      vertex -75.5 178.15 1.5
      vertex -1.5 162.9 1.5
      vertex -1.5 178.15 1.5
    endloop
  endfacet
  facet normal 0 0 1
    outer loop
      vertex -1.5 162.9 1.5
      vertex -75.5 178.15 1.5
      vertex -75.5 162.9 1.5
    endloop
  endfacet
  facet normal -1 0 0
    outer loop
      vertex -1.5 162.9 1.5
      vertex -1.5 178.15 31.5
      vertex -1.5 178.15 1.5
    endloop
  endfacet
  facet normal -1 -0 0
    outer loop
      vertex -1.5 178.15 31.5
      vertex -1.5 162.9 1.5
      vertex -1.5 162.9 31.5
    endloop
  endfacet
  facet normal 0 1 -0
    outer loop
      vertex -1.5 196.4 1.5
      vertex -75.5 196.4 31.5
      vertex -1.5 196.4 31.5
    endloop
  endfacet
  facet normal 0 1 0
    outer loop
      vertex -75.5 196.4 31.5
      vertex -1.5 196.4 1.5
      vertex -75.5 196.4 1.5
    endloop
  endfacet
  facet normal 0 -1 0
    outer loop
      vertex -75.5 194.9 1.5
      vertex -1.5 194.9 31.5
      vertex -75.5 194.9 31.5
    endloop
  endfacet
  facet normal 0 -1 -0
    outer loop
      vertex -1.5 194.9 31.5
      vertex -75.5 194.9 1.5
      vertex -1.5 194.9 1.5
    endloop
  endfacet
  facet normal 1 -0 0
    outer loop
      vertex -75.5 179.65 31.5
      vertex -75.5 194.9 1.5
      vertex -75.5 194.9 31.5
    endloop
  endfacet
  facet normal 1 0 0
    outer loop
      vertex -75.5 194.9 1.5
      vertex -75.5 179.65 31.5
      vertex -75.5 179.65 1.5
    endloop
  endfacet
  facet normal -0 0 1
    outer loop
      vertex -75.5 194.9 1.5
      vertex -1.5 179.65 1.5
      vertex -1.5 194.9 1.5
    endloop
  endfacet
  facet normal 0 0 1
    outer loop
      vertex -1.5 179.65 1.5
      vertex -75.5 194.9 1.5
      vertex -75.5 179.65 1.5
    endloop
  endfacet
  facet normal -1 0 0
    outer loop
      vertex -1.5 179.65 1.5
      vertex -1.5 194.9 31.5
      vertex -1.5 194.9 1.5
    endloop
  endfacet
  facet normal -1 -0 0
    outer loop
      vertex -1.5 194.9 31.5
      vertex -1.5 179.65 1.5
      vertex -1.5 179.65 31.5
    endloop
  endfacet
  facet normal 0 1 -0
    outer loop
      vertex -1.5 213.15 1.5
      vertex -75.5 213.15 31.5
      vertex -1.5 213.15 31.5
    endloop
  endfacet
  facet normal 0 1 0
    outer loop
      vertex -75.5 213.15 31.5
      vertex -1.5 213.15 1.5
      vertex -75.5 213.15 1.5
    endloop
  endfacet
  facet normal 0 -1 0
    outer loop
      vertex -75.5 211.65 1.5
      vertex -1.5 211.65 31.5
      vertex -75.5 211.65 31.5
    endloop
  endfacet
  facet normal 0 -1 -0
    outer loop
      vertex -1.5 211.65 31.5
      vertex -75.5 211.65 1.5
      vertex -1.5 211.65 1.5
    endloop
  endfacet
  facet normal 1 -0 0
    outer loop
      vertex -75.5 196.4 31.5
      vertex -75.5 211.65 1.5
      vertex -75.5 211.65 31.5
    endloop
  endfacet
  facet normal 1 0 0
    outer loop
      vertex -75.5 211.65 1.5
      vertex -75.5 196.4 31.5
      vertex -75.5 196.4 1.5
    endloop
  endfacet
  facet normal -0 0 1
    outer loop
      vertex -75.5 211.65 1.5
      vertex -1.5 196.4 1.5
      vertex -1.5 211.65 1.5
    endloop
  endfacet
  facet normal 0 0 1
    outer loop
      vertex -1.5 196.4 1.5
      vertex -75.5 211.65 1.5
      vertex -75.5 196.4 1.5
    endloop
  endfacet
  facet normal -1 0 0
    outer loop
      vertex -1.5 196.4 1.5
      vertex -1.5 211.65 31.5
      vertex -1.5 211.65 1.5
    endloop
  endfacet
  facet normal -1 -0 0
    outer loop
      vertex -1.5 211.65 31.5
      vertex -1.5 196.4 1.5
      vertex -1.5 196.4 31.5
    endloop
  endfacet
  facet normal 0 1 -0
    outer loop
      vertex -9.94522 229.9 0
      vertex -67.0548 229.9 0.299999
      vertex -9.94522 229.9 0.299999
    endloop
  endfacet
  facet normal 0 1 0
    outer loop
      vertex -67.0548 229.9 0.299999
      vertex -9.94522 229.9 0
      vertex -67.0548 229.9 0
    endloop
  endfacet
  facet normal 0 1 0
    outer loop
      vertex -9.94522 229.9 0.299999
      vertex 5.10481e-14 229.9 31.5
      vertex 5.10481e-14 229.9 0.299999
    endloop
  endfacet
  facet normal 0 1 0
    outer loop
      vertex 5.10481e-14 229.9 31.5
      vertex -9.94522 229.9 0.299999
      vertex -77 229.9 31.5
    endloop
  endfacet
  facet normal 0 1 -0
    outer loop
      vertex -67.0548 229.9 0.299999
      vertex -77 229.9 31.5
      vertex -9.94522 229.9 0.299999
    endloop
  endfacet
  facet normal 0 1 0
    outer loop
      vertex -77 229.9 31.5
      vertex -67.0548 229.9 0.299999
      vertex -77 229.9 0.299999
    endloop
  endfacet
  facet normal 0 -1 0
    outer loop
      vertex -75.5 228.4 1.5
      vertex -1.5 228.4 31.5
      vertex -75.5 228.4 31.5
    endloop
  endfacet
  facet normal 0 -1 -0
    outer loop
      vertex -1.5 228.4 31.5
      vertex -75.5 228.4 1.5
      vertex -1.5 228.4 1.5
    endloop
  endfacet
  facet normal 1 -0 0
    outer loop
      vertex -75.5 213.15 31.5
      vertex -75.5 228.4 1.5
      vertex -75.5 228.4 31.5
    endloop
  endfacet
  facet normal 1 0 0
    outer loop
      vertex -75.5 228.4 1.5
      vertex -75.5 213.15 31.5
      vertex -75.5 213.15 1.5
    endloop
  endfacet
  facet normal -0 0 1
    outer loop
      vertex -75.5 228.4 1.5
      vertex -1.5 213.15 1.5
      vertex -1.5 228.4 1.5
    endloop
  endfacet
  facet normal 0 0 1
    outer loop
      vertex -1.5 213.15 1.5
      vertex -75.5 228.4 1.5
      vertex -75.5 213.15 1.5
    endloop
  endfacet
  facet normal -1 0 0
    outer loop
      vertex -1.5 213.15 1.5
      vertex -1.5 228.4 31.5
      vertex -1.5 228.4 1.5
    endloop
  endfacet
  facet normal -1 -0 0
    outer loop
      vertex -1.5 228.4 31.5
      vertex -1.5 213.15 1.5
      vertex -1.5 213.15 31.5
    endloop
  endfacet
  facet normal -0.104529 -0.994522 0
    outer loop
      vertex -2.07912 -9.78148 0
      vertex -2.22045e-15 -10 0.299999
      vertex -2.07912 -9.78148 0.299999
    endloop
  endfacet
  facet normal -0.104529 -0.994522 -0
    outer loop
      vertex -2.22045e-15 -10 0.299999
      vertex -2.07912 -9.78148 0
      vertex -2.22045e-15 -10 0
    endloop
  endfacet
  facet normal -1 0 0
    outer loop
      vertex -9.94522 -1.04528 0
      vertex -9.94522 2.20828e-15 0.299999
      vertex -9.94522 2.20828e-15 0
    endloop
  endfacet
  facet normal -1 -0 0
    outer loop
      vertex -9.94522 2.20828e-15 0.299999
      vertex -9.94522 -1.04528 0
      vertex -9.94522 -1.04528 0.299999
    endloop
  endfacet
  facet normal 1 -0 0
    outer loop
      vertex 9.94522 -1.04528 0.299999
      vertex 9.94522 1.04528 0
      vertex 9.94522 1.04528 0.299999
    endloop
  endfacet
  facet normal 1 0 0
    outer loop
      vertex 9.94522 1.04528 0
      vertex 9.94522 -1.04528 0.299999
      vertex 9.94522 -1.04528 0
    endloop
  endfacet
  facet normal -0.669131 -0.743145 0
    outer loop
      vertex -7.43145 -6.69131 0
      vertex -5.87785 -8.09017 0.299999
      vertex -7.43145 -6.69131 0.299999
    endloop
  endfacet
  facet normal -0.669131 -0.743145 -0
    outer loop
      vertex -5.87785 -8.09017 0.299999
      vertex -7.43145 -6.69131 0
      vertex -5.87785 -8.09017 0
    endloop
  endfacet
  facet normal -0.5 -0.866026 0
    outer loop
      vertex -5.87785 -8.09017 0
      vertex -4.06737 -9.13545 0.299999
      vertex -5.87785 -8.09017 0.299999
    endloop
  endfacet
  facet normal -0.5 -0.866026 -0
    outer loop
      vertex -4.06737 -9.13545 0.299999
      vertex -5.87785 -8.09017 0
      vertex -4.06737 -9.13545 0
    endloop
  endfacet
  facet normal -0.913545 -0.406737 0
    outer loop
      vertex -8.66025 -5 0
      vertex -9.51056 -3.09017 0.299999
      vertex -9.51056 -3.09017 0
    endloop
  endfacet
  facet normal -0.913545 -0.406737 0
    outer loop
      vertex -9.51056 -3.09017 0.299999
      vertex -8.66025 -5 0
      vertex -8.66025 -5 0.299999
    endloop
  endfacet
  facet normal 0.309017 0.951057 -0
    outer loop
      vertex 4.06737 9.13545 0
      vertex 2.07912 9.78148 0.299999
      vertex 4.06737 9.13545 0.299999
    endloop
  endfacet
  facet normal 0.309017 0.951057 0
    outer loop
      vertex 2.07912 9.78148 0.299999
      vertex 4.06737 9.13545 0
      vertex 2.07912 9.78148 0
    endloop
  endfacet
  facet normal -0.309017 -0.951057 0
    outer loop
      vertex -4.06737 -9.13545 0
      vertex -2.07912 -9.78148 0.299999
      vertex -4.06737 -9.13545 0.299999
    endloop
  endfacet
  facet normal -0.309017 -0.951057 -0
    outer loop
      vertex -2.07912 -9.78148 0.299999
      vertex -4.06737 -9.13545 0
      vertex -2.07912 -9.78148 0
    endloop
  endfacet
  facet normal 0 0 1
    outer loop
      vertex 0 0 0.299999
      vertex 9.94522 1.04528 0.299999
      vertex 9.51056 3.09017 0.299999
    endloop
  endfacet
  facet normal 0 0 1
    outer loop
      vertex 9.94522 1.04528 0.299999
      vertex 0 0 0.299999
      vertex 9.94522 -1.04528 0.299999
    endloop
  endfacet
  facet normal 0 0 1
    outer loop
      vertex 0 0 0.299999
      vertex 9.51056 3.09017 0.299999
      vertex 8.66025 5 0.299999
    endloop
  endfacet
  facet normal 0 0 1
    outer loop
      vertex 9.94522 -1.04528 0.299999
      vertex 0 0 0.299999
      vertex 9.51056 -3.09017 0.299999
    endloop
  endfacet
  facet normal 0 0 1
    outer loop
      vertex 0 0 0.299999
      vertex 8.66025 5 0.299999
      vertex 7.43145 6.69131 0.299999
    endloop
  endfacet
  facet normal 0 0 1
    outer loop
      vertex 9.51056 -3.09017 0.299999
      vertex 0 0 0.299999
      vertex 8.66025 -5 0.299999
    endloop
  endfacet
  facet normal 0 0 1
    outer loop
      vertex 0 0 0.299999
      vertex 7.43145 6.69131 0.299999
      vertex 5.87785 8.09017 0.299999
    endloop
  endfacet
  facet normal 0 0 1
    outer loop
      vertex 8.66025 -5 0.299999
      vertex 0 0 0.299999
      vertex 7.43145 -6.69131 0.299999
    endloop
  endfacet
  facet normal 0 0 1
    outer loop
      vertex 0 0 0.299999
      vertex 5.87785 8.09017 0.299999
      vertex 4.06737 9.13545 0.299999
    endloop
  endfacet
  facet normal 0 0 1
    outer loop
      vertex 7.43145 -6.69131 0.299999
      vertex 0 0 0.299999
      vertex 5.87785 -8.09017 0.299999
    endloop
  endfacet
  facet normal 0 0 1
    outer loop
      vertex 0 0 0.299999
      vertex 4.06737 9.13545 0.299999
      vertex 2.07912 9.78148 0.299999
    endloop
  endfacet
  facet normal 0 0 1
    outer loop
      vertex 5.87785 -8.09017 0.299999
      vertex 0 0 0.299999
      vertex 4.06737 -9.13545 0.299999
    endloop
  endfacet
  facet normal 0 0 1
    outer loop
      vertex 0 0 0.299999
      vertex 2.07912 9.78148 0.299999
      vertex 2.22045e-15 10 0.299999
    endloop
  endfacet
  facet normal 0 0 1
    outer loop
      vertex 4.06737 -9.13545 0.299999
      vertex 0 0 0.299999
      vertex 2.07912 -9.78148 0.299999
    endloop
  endfacet
  facet normal 0 0 1
    outer loop
      vertex 0 0 0.299999
      vertex -2.22045e-15 -10 0.299999
      vertex 2.07912 -9.78148 0.299999
    endloop
  endfacet
  facet normal 0 0 1
    outer loop
      vertex 0 0 0.299999
      vertex -2.07912 -9.78148 0.299999
      vertex -2.22045e-15 -10 0.299999
    endloop
  endfacet
  facet normal 0 0 1
    outer loop
      vertex 0 0 0.299999
      vertex -4.06737 -9.13545 0.299999
      vertex -2.07912 -9.78148 0.299999
    endloop
  endfacet
  facet normal 0 0 1
    outer loop
      vertex 0 0 0.299999
      vertex -5.87785 -8.09017 0.299999
      vertex -4.06737 -9.13545 0.299999
    endloop
  endfacet
  facet normal 0 0 1
    outer loop
      vertex 0 0 0.299999
      vertex -7.43145 -6.69131 0.299999
      vertex -5.87785 -8.09017 0.299999
    endloop
  endfacet
  facet normal 0 0 1
    outer loop
      vertex 0 0 0.299999
      vertex -8.66025 -5 0.299999
      vertex -7.43145 -6.69131 0.299999
    endloop
  endfacet
  facet normal 0 0 1
    outer loop
      vertex 0 0 0.299999
      vertex -9.51056 -3.09017 0.299999
      vertex -8.66025 -5 0.299999
    endloop
  endfacet
  facet normal 0 0 1
    outer loop
      vertex -9.94522 -1.04528 0.299999
      vertex 0 0 0.299999
      vertex -9.94522 2.20828e-15 0.299999
    endloop
  endfacet
  facet normal 0 0 1
    outer loop
      vertex 0 0 0.299999
      vertex -9.94522 -1.04528 0.299999
      vertex -9.51056 -3.09017 0.299999
    endloop
  endfacet
  facet normal -0.809017 -0.587785 0
    outer loop
      vertex -7.43145 -6.69131 0
      vertex -8.66025 -5 0.299999
      vertex -8.66025 -5 0
    endloop
  endfacet
  facet normal -0.809017 -0.587785 0
    outer loop
      vertex -8.66025 -5 0.299999
      vertex -7.43145 -6.69131 0
      vertex -7.43145 -6.69131 0.299999
    endloop
  endfacet
  facet normal -0.978148 -0.207911 0
    outer loop
      vertex -9.51056 -3.09017 0
      vertex -9.94522 -1.04528 0.299999
      vertex -9.94522 -1.04528 0
    endloop
  endfacet
  facet normal -0.978148 -0.207911 0
    outer loop
      vertex -9.94522 -1.04528 0.299999
      vertex -9.51056 -3.09017 0
      vertex -9.51056 -3.09017 0.299999
    endloop
  endfacet
  facet normal 0.104529 0.994522 -0
    outer loop
      vertex 2.07912 9.78148 0
      vertex 2.22045e-15 10 0.299999
      vertex 2.07912 9.78148 0.299999
    endloop
  endfacet
  facet normal 0.104529 0.994522 0
    outer loop
      vertex 2.22045e-15 10 0.299999
      vertex 2.07912 9.78148 0
      vertex 2.22045e-15 10 0
    endloop
  endfacet
  facet normal 0.978148 0.207911 0
    outer loop
      vertex 9.94522 1.04528 0.299999
      vertex 9.51056 3.09017 0
      vertex 9.51056 3.09017 0.299999
    endloop
  endfacet
  facet normal 0.978148 0.207911 0
    outer loop
      vertex 9.51056 3.09017 0
      vertex 9.94522 1.04528 0.299999
      vertex 9.94522 1.04528 0
    endloop
  endfacet
  facet normal 0.5 0.866026 -0
    outer loop
      vertex 5.87785 8.09017 0
      vertex 4.06737 9.13545 0.299999
      vertex 5.87785 8.09017 0.299999
    endloop
  endfacet
  facet normal 0.5 0.866026 0
    outer loop
      vertex 4.06737 9.13545 0.299999
      vertex 5.87785 8.09017 0
      vertex 4.06737 9.13545 0
    endloop
  endfacet
  facet normal 0.5 -0.866026 0
    outer loop
      vertex 4.06737 -9.13545 0
      vertex 5.87785 -8.09017 0.299999
      vertex 4.06737 -9.13545 0.299999
    endloop
  endfacet
  facet normal 0.5 -0.866026 0
    outer loop
      vertex 5.87785 -8.09017 0.299999
      vertex 4.06737 -9.13545 0
      vertex 5.87785 -8.09017 0
    endloop
  endfacet
  facet normal 0.104529 -0.994522 0
    outer loop
      vertex -2.22045e-15 -10 0
      vertex 2.07912 -9.78148 0.299999
      vertex -2.22045e-15 -10 0.299999
    endloop
  endfacet
  facet normal 0.104529 -0.994522 0
    outer loop
      vertex 2.07912 -9.78148 0.299999
      vertex -2.22045e-15 -10 0
      vertex 2.07912 -9.78148 0
    endloop
  endfacet
  facet normal 0.809017 0.587785 0
    outer loop
      vertex 8.66025 5 0.299999
      vertex 7.43145 6.69131 0
      vertex 7.43145 6.69131 0.299999
    endloop
  endfacet
  facet normal 0.809017 0.587785 0
    outer loop
      vertex 7.43145 6.69131 0
      vertex 8.66025 5 0.299999
      vertex 8.66025 5 0
    endloop
  endfacet
  facet normal 0.913545 0.406737 0
    outer loop
      vertex 9.51056 3.09017 0.299999
      vertex 8.66025 5 0
      vertex 8.66025 5 0.299999
    endloop
  endfacet
  facet normal 0.913545 0.406737 0
    outer loop
      vertex 8.66025 5 0
      vertex 9.51056 3.09017 0.299999
      vertex 9.51056 3.09017 0
    endloop
  endfacet
  facet normal 0.978148 -0.207911 0
    outer loop
      vertex 9.51056 -3.09017 0.299999
      vertex 9.94522 -1.04528 0
      vertex 9.94522 -1.04528 0.299999
    endloop
  endfacet
  facet normal 0.978148 -0.207911 0
    outer loop
      vertex 9.94522 -1.04528 0
      vertex 9.51056 -3.09017 0.299999
      vertex 9.51056 -3.09017 0
    endloop
  endfacet
  facet normal 0.669131 -0.743145 0
    outer loop
      vertex 5.87785 -8.09017 0
      vertex 7.43145 -6.69131 0.299999
      vertex 5.87785 -8.09017 0.299999
    endloop
  endfacet
  facet normal 0.669131 -0.743145 0
    outer loop
      vertex 7.43145 -6.69131 0.299999
      vertex 5.87785 -8.09017 0
      vertex 7.43145 -6.69131 0
    endloop
  endfacet
  facet normal 0.309017 -0.951057 0
    outer loop
      vertex 2.07912 -9.78148 0
      vertex 4.06737 -9.13545 0.299999
      vertex 2.07912 -9.78148 0.299999
    endloop
  endfacet
  facet normal 0.309017 -0.951057 0
    outer loop
      vertex 4.06737 -9.13545 0.299999
      vertex 2.07912 -9.78148 0
      vertex 4.06737 -9.13545 0
    endloop
  endfacet
  facet normal 0.669131 0.743145 -0
    outer loop
      vertex 7.43145 6.69131 0
      vertex 5.87785 8.09017 0.299999
      vertex 7.43145 6.69131 0.299999
    endloop
  endfacet
  facet normal 0.669131 0.743145 0
    outer loop
      vertex 5.87785 8.09017 0.299999
      vertex 7.43145 6.69131 0
      vertex 5.87785 8.09017 0
    endloop
  endfacet
  facet normal 0.809017 -0.587785 0
    outer loop
      vertex 7.43145 -6.69131 0.299999
      vertex 8.66025 -5 0
      vertex 8.66025 -5 0.299999
    endloop
  endfacet
  facet normal 0.809017 -0.587785 0
    outer loop
      vertex 8.66025 -5 0
      vertex 7.43145 -6.69131 0.299999
      vertex 7.43145 -6.69131 0
    endloop
  endfacet
  facet normal 0.913545 -0.406737 0
    outer loop
      vertex 8.66025 -5 0.299999
      vertex 9.51056 -3.09017 0
      vertex 9.51056 -3.09017 0.299999
    endloop
  endfacet
  facet normal 0.913545 -0.406737 0
    outer loop
      vertex 9.51056 -3.09017 0
      vertex 8.66025 -5 0.299999
      vertex 8.66025 -5 0
    endloop
  endfacet
  facet normal -0.500001 0.866025 0
    outer loop
      vertex -4.06737 239.035 0
      vertex -5.87785 237.99 0.299999
      vertex -4.06737 239.035 0.299999
    endloop
  endfacet
  facet normal -0.500001 0.866025 0
    outer loop
      vertex -5.87785 237.99 0.299999
      vertex -4.06737 239.035 0
      vertex -5.87785 237.99 0
    endloop
  endfacet
  facet normal -0.669131 0.743145 0
    outer loop
      vertex -5.87785 237.99 0
      vertex -7.43145 236.591 0.299999
      vertex -5.87785 237.99 0.299999
    endloop
  endfacet
  facet normal -0.669131 0.743145 0
    outer loop
      vertex -7.43145 236.591 0.299999
      vertex -5.87785 237.99 0
      vertex -7.43145 236.591 0
    endloop
  endfacet
  facet normal -0.978148 0.207911 0
    outer loop
      vertex -9.94522 230.945 0
      vertex -9.51056 232.99 0.299999
      vertex -9.51056 232.99 0
    endloop
  endfacet
  facet normal -0.978148 0.207911 0
    outer loop
      vertex -9.51056 232.99 0.299999
      vertex -9.94522 230.945 0
      vertex -9.94522 230.945 0.299999
    endloop
  endfacet
  facet normal -0.913545 0.406738 0
    outer loop
      vertex -9.51056 232.99 0
      vertex -8.66025 234.9 0.299999
      vertex -8.66025 234.9 0
    endloop
  endfacet
  facet normal -0.913545 0.406738 0
    outer loop
      vertex -8.66025 234.9 0.299999
      vertex -9.51056 232.99 0
      vertex -9.51056 232.99 0.299999
    endloop
  endfacet
  facet normal 0.104527 0.994522 -0
    outer loop
      vertex 2.07912 239.681 0
      vertex 5.32685e-14 239.9 0.299999
      vertex 2.07912 239.681 0.299999
    endloop
  endfacet
  facet normal 0.104527 0.994522 0
    outer loop
      vertex 5.32685e-14 239.9 0.299999
      vertex 2.07912 239.681 0
      vertex 5.32685e-14 239.9 0
    endloop
  endfacet
  facet normal -1 0 0
    outer loop
      vertex -9.94522 229.9 0
      vertex -9.94522 230.945 0.299999
      vertex -9.94522 230.945 0
    endloop
  endfacet
  facet normal -1 -0 0
    outer loop
      vertex -9.94522 230.945 0.299999
      vertex -9.94522 229.9 0
      vertex -9.94522 229.9 0.299999
    endloop
  endfacet
  facet normal -0.809018 0.587783 0
    outer loop
      vertex -8.66025 234.9 0
      vertex -7.43145 236.591 0.299999
      vertex -7.43145 236.591 0
    endloop
  endfacet
  facet normal -0.809018 0.587783 0
    outer loop
      vertex -7.43145 236.591 0.299999
      vertex -8.66025 234.9 0
      vertex -8.66025 234.9 0.299999
    endloop
  endfacet
  facet normal -0.104527 0.994522 0
    outer loop
      vertex 5.32685e-14 239.9 0
      vertex -2.07912 239.681 0.299999
      vertex 5.32685e-14 239.9 0.299999
    endloop
  endfacet
  facet normal -0.104527 0.994522 0
    outer loop
      vertex -2.07912 239.681 0.299999
      vertex 5.32685e-14 239.9 0
      vertex -2.07912 239.681 0
    endloop
  endfacet
  facet normal 0.809016 -0.587787 0
    outer loop
      vertex 7.43145 223.209 0.299999
      vertex 8.66025 224.9 0
      vertex 8.66025 224.9 0.299999
    endloop
  endfacet
  facet normal 0.809016 -0.587787 0
    outer loop
      vertex 8.66025 224.9 0
      vertex 7.43145 223.209 0.299999
      vertex 7.43145 223.209 0
    endloop
  endfacet
  facet normal 0.500001 -0.866025 0
    outer loop
      vertex 4.06737 220.765 0
      vertex 5.87785 221.81 0.299999
      vertex 4.06737 220.765 0.299999
    endloop
  endfacet
  facet normal 0.500001 -0.866025 0
    outer loop
      vertex 5.87785 221.81 0.299999
      vertex 4.06737 220.765 0
      vertex 5.87785 221.81 0
    endloop
  endfacet
  facet normal 0.809018 0.587783 0
    outer loop
      vertex 8.66025 234.9 0.299999
      vertex 7.43145 236.591 0
      vertex 7.43145 236.591 0.299999
    endloop
  endfacet
  facet normal 0.809018 0.587783 0
    outer loop
      vertex 7.43145 236.591 0
      vertex 8.66025 234.9 0.299999
      vertex 8.66025 234.9 0
    endloop
  endfacet
  facet normal -0.309013 0.951058 0
    outer loop
      vertex -2.07912 239.681 0
      vertex -4.06737 239.035 0.299999
      vertex -2.07912 239.681 0.299999
    endloop
  endfacet
  facet normal -0.309013 0.951058 0
    outer loop
      vertex -4.06737 239.035 0.299999
      vertex -2.07912 239.681 0
      vertex -4.06737 239.035 0
    endloop
  endfacet
  facet normal -0 0 1
    outer loop
      vertex -2.07912 239.681 0.299999
      vertex 5.10481e-14 229.9 0.299999
      vertex 5.32685e-14 239.9 0.299999
    endloop
  endfacet
  facet normal -0 0 1
    outer loop
      vertex -4.06737 239.035 0.299999
      vertex 5.10481e-14 229.9 0.299999
      vertex -2.07912 239.681 0.299999
    endloop
  endfacet
  facet normal -0 0 1
    outer loop
      vertex -5.87785 237.99 0.299999
      vertex 5.10481e-14 229.9 0.299999
      vertex -4.06737 239.035 0.299999
    endloop
  endfacet
  facet normal -0 0 1
    outer loop
      vertex -7.43145 236.591 0.299999
      vertex 5.10481e-14 229.9 0.299999
      vertex -5.87785 237.99 0.299999
    endloop
  endfacet
  facet normal -0 0 1
    outer loop
      vertex -8.66025 234.9 0.299999
      vertex 5.10481e-14 229.9 0.299999
      vertex -7.43145 236.591 0.299999
    endloop
  endfacet
  facet normal -0 0 1
    outer loop
      vertex -9.51056 232.99 0.299999
      vertex 5.10481e-14 229.9 0.299999
      vertex -8.66025 234.9 0.299999
    endloop
  endfacet
  facet normal -0 0 1
    outer loop
      vertex -9.94522 230.945 0.299999
      vertex 5.10481e-14 229.9 0.299999
      vertex -9.51056 232.99 0.299999
    endloop
  endfacet
  facet normal 0 0 1
    outer loop
      vertex 5.10481e-14 229.9 0.299999
      vertex -9.94522 230.945 0.299999
      vertex -9.94522 229.9 0.299999
    endloop
  endfacet
  facet normal 0 0 1
    outer loop
      vertex 5.10481e-14 229.9 0.299999
      vertex 9.94522 230.945 0.299999
      vertex 9.51056 232.99 0.299999
    endloop
  endfacet
  facet normal 0 0 1
    outer loop
      vertex 9.94522 230.945 0.299999
      vertex 5.10481e-14 229.9 0.299999
      vertex 9.94522 228.855 0.299999
    endloop
  endfacet
  facet normal 0 0 1
    outer loop
      vertex 5.10481e-14 229.9 0.299999
      vertex 9.51056 232.99 0.299999
      vertex 8.66025 234.9 0.299999
    endloop
  endfacet
  facet normal 0 0 1
    outer loop
      vertex 9.94522 228.855 0.299999
      vertex 5.10481e-14 229.9 0.299999
      vertex 9.51056 226.81 0.299999
    endloop
  endfacet
  facet normal 0 0 1
    outer loop
      vertex 5.10481e-14 229.9 0.299999
      vertex 8.66025 234.9 0.299999
      vertex 7.43145 236.591 0.299999
    endloop
  endfacet
  facet normal 0 0 1
    outer loop
      vertex 9.51056 226.81 0.299999
      vertex 5.10481e-14 229.9 0.299999
      vertex 8.66025 224.9 0.299999
    endloop
  endfacet
  facet normal 0 0 1
    outer loop
      vertex 5.10481e-14 229.9 0.299999
      vertex 7.43145 236.591 0.299999
      vertex 5.87785 237.99 0.299999
    endloop
  endfacet
  facet normal 0 0 1
    outer loop
      vertex 8.66025 224.9 0.299999
      vertex 5.10481e-14 229.9 0.299999
      vertex 7.43145 223.209 0.299999
    endloop
  endfacet
  facet normal 0 0 1
    outer loop
      vertex 5.10481e-14 229.9 0.299999
      vertex 5.87785 237.99 0.299999
      vertex 4.06737 239.035 0.299999
    endloop
  endfacet
  facet normal 0 0 1
    outer loop
      vertex 7.43145 223.209 0.299999
      vertex 5.10481e-14 229.9 0.299999
      vertex 5.87785 221.81 0.299999
    endloop
  endfacet
  facet normal 0 0 1
    outer loop
      vertex 5.10481e-14 229.9 0.299999
      vertex 4.06737 239.035 0.299999
      vertex 2.07912 239.681 0.299999
    endloop
  endfacet
  facet normal 0 0 1
    outer loop
      vertex 5.87785 221.81 0.299999
      vertex 5.10481e-14 229.9 0.299999
      vertex 4.06737 220.765 0.299999
    endloop
  endfacet
  facet normal 0 0 1
    outer loop
      vertex 5.10481e-14 229.9 0.299999
      vertex 2.07912 239.681 0.299999
      vertex 5.32685e-14 239.9 0.299999
    endloop
  endfacet
  facet normal 0 0 1
    outer loop
      vertex 4.06737 220.765 0.299999
      vertex 5.10481e-14 229.9 0.299999
      vertex 2.07912 220.119 0.299999
    endloop
  endfacet
  facet normal 0 0 1
    outer loop
      vertex 2.07912 220.119 0.299999
      vertex 5.10481e-14 229.9 0.299999
      vertex 4.88276e-14 219.9 0.299999
    endloop
  endfacet
  facet normal 0.499996 0.866028 -0
    outer loop
      vertex 5.87785 237.99 0
      vertex 4.06737 239.035 0.299999
      vertex 5.87785 237.99 0.299999
    endloop
  endfacet
  facet normal 0.499996 0.866028 0
    outer loop
      vertex 4.06737 239.035 0.299999
      vertex 5.87785 237.99 0
      vertex 4.06737 239.035 0
    endloop
  endfacet
  facet normal 1 -0 0
    outer loop
      vertex 9.94522 228.855 0.299999
      vertex 9.94522 230.945 0
      vertex 9.94522 230.945 0.299999
    endloop
  endfacet
  facet normal 1 0 0
    outer loop
      vertex 9.94522 230.945 0
      vertex 9.94522 228.855 0.299999
      vertex 9.94522 228.855 0
    endloop
  endfacet
  facet normal 0.669131 -0.743145 0
    outer loop
      vertex 5.87785 221.81 0
      vertex 7.43145 223.209 0.299999
      vertex 5.87785 221.81 0.299999
    endloop
  endfacet
  facet normal 0.669131 -0.743145 0
    outer loop
      vertex 7.43145 223.209 0.299999
      vertex 5.87785 221.81 0
      vertex 7.43145 223.209 0
    endloop
  endfacet
  facet normal 0.978148 0.207911 0
    outer loop
      vertex 9.94522 230.945 0.299999
      vertex 9.51056 232.99 0
      vertex 9.51056 232.99 0.299999
    endloop
  endfacet
  facet normal 0.978148 0.207911 0
    outer loop
      vertex 9.51056 232.99 0
      vertex 9.94522 230.945 0.299999
      vertex 9.94522 230.945 0
    endloop
  endfacet
  facet normal 0.913545 0.406738 0
    outer loop
      vertex 9.51056 232.99 0.299999
      vertex 8.66025 234.9 0
      vertex 8.66025 234.9 0.299999
    endloop
  endfacet
  facet normal 0.913545 0.406738 0
    outer loop
      vertex 8.66025 234.9 0
      vertex 9.51056 232.99 0.299999
      vertex 9.51056 232.99 0
    endloop
  endfacet
  facet normal 0.309019 0.951056 -0
    outer loop
      vertex 4.06737 239.035 0
      vertex 2.07912 239.681 0.299999
      vertex 4.06737 239.035 0.299999
    endloop
  endfacet
  facet normal 0.309019 0.951056 0
    outer loop
      vertex 2.07912 239.681 0.299999
      vertex 4.06737 239.035 0
      vertex 2.07912 239.681 0
    endloop
  endfacet
  facet normal 0.978148 -0.207911 0
    outer loop
      vertex 9.51056 226.81 0.299999
      vertex 9.94522 228.855 0
      vertex 9.94522 228.855 0.299999
    endloop
  endfacet
  facet normal 0.978148 -0.207911 0
    outer loop
      vertex 9.94522 228.855 0
      vertex 9.51056 226.81 0.299999
      vertex 9.51056 226.81 0
    endloop
  endfacet
  facet normal 0.309013 -0.951058 0
    outer loop
      vertex 2.07912 220.119 0
      vertex 4.06737 220.765 0.299999
      vertex 2.07912 220.119 0.299999
    endloop
  endfacet
  facet normal 0.309013 -0.951058 0
    outer loop
      vertex 4.06737 220.765 0.299999
      vertex 2.07912 220.119 0
      vertex 4.06737 220.765 0
    endloop
  endfacet
  facet normal 0.104534 -0.994521 0
    outer loop
      vertex 4.88276e-14 219.9 0
      vertex 2.07912 220.119 0.299999
      vertex 4.88276e-14 219.9 0.299999
    endloop
  endfacet
  facet normal 0.104534 -0.994521 0
    outer loop
      vertex 2.07912 220.119 0.299999
      vertex 4.88276e-14 219.9 0
      vertex 2.07912 220.119 0
    endloop
  endfacet
  facet normal 0.669131 0.743145 -0
    outer loop
      vertex 7.43145 236.591 0
      vertex 5.87785 237.99 0.299999
      vertex 7.43145 236.591 0.299999
    endloop
  endfacet
  facet normal 0.669131 0.743145 0
    outer loop
      vertex 5.87785 237.99 0.299999
      vertex 7.43145 236.591 0
      vertex 5.87785 237.99 0
    endloop
  endfacet
  facet normal 0.913546 -0.406736 0
    outer loop
      vertex 8.66025 224.9 0.299999
      vertex 9.51056 226.81 0
      vertex 9.51056 226.81 0.299999
    endloop
  endfacet
  facet normal 0.913546 -0.406736 0
    outer loop
      vertex 9.51056 226.81 0
      vertex 8.66025 224.9 0.299999
      vertex 8.66025 224.9 0
    endloop
  endfacet
  facet normal -0.104529 0.994522 0
    outer loop
      vertex -77 10 0
      vertex -79.0791 9.78148 0.299999
      vertex -77 10 0.299999
    endloop
  endfacet
  facet normal -0.104529 0.994522 0
    outer loop
      vertex -79.0791 9.78148 0.299999
      vertex -77 10 0
      vertex -79.0791 9.78148 0
    endloop
  endfacet
  facet normal -0.978148 -0.207912 0
    outer loop
      vertex -86.5106 -3.09017 0
      vertex -86.9452 -1.04528 0.299999
      vertex -86.9452 -1.04528 0
    endloop
  endfacet
  facet normal -0.978148 -0.207912 0
    outer loop
      vertex -86.9452 -1.04528 0.299999
      vertex -86.5106 -3.09017 0
      vertex -86.5106 -3.09017 0.299999
    endloop
  endfacet
  facet normal -0.809017 0.587785 0
    outer loop
      vertex -85.6603 5 0
      vertex -84.4314 6.69131 0.299999
      vertex -84.4314 6.69131 0
    endloop
  endfacet
  facet normal -0.809017 0.587785 0
    outer loop
      vertex -84.4314 6.69131 0.299999
      vertex -85.6603 5 0
      vertex -85.6603 5 0.299999
    endloop
  endfacet
  facet normal -0.669131 -0.743145 0
    outer loop
      vertex -84.4314 -6.69131 0
      vertex -82.8779 -8.09017 0.299999
      vertex -84.4314 -6.69131 0.299999
    endloop
  endfacet
  facet normal -0.669131 -0.743145 -0
    outer loop
      vertex -82.8779 -8.09017 0.299999
      vertex -84.4314 -6.69131 0
      vertex -82.8779 -8.09017 0
    endloop
  endfacet
  facet normal -0.809017 -0.587785 0
    outer loop
      vertex -84.4314 -6.69131 0
      vertex -85.6603 -5 0.299999
      vertex -85.6603 -5 0
    endloop
  endfacet
  facet normal -0.809017 -0.587785 0
    outer loop
      vertex -85.6603 -5 0.299999
      vertex -84.4314 -6.69131 0
      vertex -84.4314 -6.69131 0.299999
    endloop
  endfacet
  facet normal -0.5 0.866025 0
    outer loop
      vertex -81.0674 9.13545 0
      vertex -82.8779 8.09017 0.299999
      vertex -81.0674 9.13545 0.299999
    endloop
  endfacet
  facet normal -0.5 0.866025 0
    outer loop
      vertex -82.8779 8.09017 0.299999
      vertex -81.0674 9.13545 0
      vertex -82.8779 8.09017 0
    endloop
  endfacet
  facet normal -0.309017 0.951057 0
    outer loop
      vertex -79.0791 9.78148 0
      vertex -81.0674 9.13545 0.299999
      vertex -79.0791 9.78148 0.299999
    endloop
  endfacet
  facet normal -0.309017 0.951057 0
    outer loop
      vertex -81.0674 9.13545 0.299999
      vertex -79.0791 9.78148 0
      vertex -81.0674 9.13545 0
    endloop
  endfacet
  facet normal -0.669131 0.743145 0
    outer loop
      vertex -82.8779 8.09017 0
      vertex -84.4314 6.69131 0.299999
      vertex -82.8779 8.09017 0.299999
    endloop
  endfacet
  facet normal -0.669131 0.743145 0
    outer loop
      vertex -84.4314 6.69131 0.299999
      vertex -82.8779 8.09017 0
      vertex -84.4314 6.69131 0
    endloop
  endfacet
  facet normal -0.978148 0.207912 0
    outer loop
      vertex -86.9452 1.04528 0
      vertex -86.5106 3.09017 0.299999
      vertex -86.5106 3.09017 0
    endloop
  endfacet
  facet normal -0.978148 0.207912 0
    outer loop
      vertex -86.5106 3.09017 0.299999
      vertex -86.9452 1.04528 0
      vertex -86.9452 1.04528 0.299999
    endloop
  endfacet
  facet normal -1 0 0
    outer loop
      vertex -86.9452 -1.04528 0
      vertex -86.9452 1.04528 0.299999
      vertex -86.9452 1.04528 0
    endloop
  endfacet
  facet normal -1 -0 0
    outer loop
      vertex -86.9452 1.04528 0.299999
      vertex -86.9452 -1.04528 0
      vertex -86.9452 -1.04528 0.299999
    endloop
  endfacet
  facet normal -0.913545 0.406737 0
    outer loop
      vertex -86.5106 3.09017 0
      vertex -85.6603 5 0.299999
      vertex -85.6603 5 0
    endloop
  endfacet
  facet normal -0.913545 0.406737 0
    outer loop
      vertex -85.6603 5 0.299999
      vertex -86.5106 3.09017 0
      vertex -86.5106 3.09017 0.299999
    endloop
  endfacet
  facet normal -0.309017 -0.951057 0
    outer loop
      vertex -81.0674 -9.13545 0
      vertex -79.0791 -9.78148 0.299999
      vertex -81.0674 -9.13545 0.299999
    endloop
  endfacet
  facet normal -0.309017 -0.951057 -0
    outer loop
      vertex -79.0791 -9.78148 0.299999
      vertex -81.0674 -9.13545 0
      vertex -79.0791 -9.78148 0
    endloop
  endfacet
  facet normal -0.5 -0.866025 0
    outer loop
      vertex -82.8779 -8.09017 0
      vertex -81.0674 -9.13545 0.299999
      vertex -82.8779 -8.09017 0.299999
    endloop
  endfacet
  facet normal -0.5 -0.866025 -0
    outer loop
      vertex -81.0674 -9.13545 0.299999
      vertex -82.8779 -8.09017 0
      vertex -81.0674 -9.13545 0
    endloop
  endfacet
  facet normal -0.104529 -0.994522 0
    outer loop
      vertex -79.0791 -9.78148 0
      vertex -77 -10 0.299999
      vertex -79.0791 -9.78148 0.299999
    endloop
  endfacet
  facet normal -0.104529 -0.994522 -0
    outer loop
      vertex -77 -10 0.299999
      vertex -79.0791 -9.78148 0
      vertex -77 -10 0
    endloop
  endfacet
  facet normal -0 0 1
    outer loop
      vertex -79.0791 9.78148 0.299999
      vertex -77 1.70974e-14 0.299999
      vertex -77 10 0.299999
    endloop
  endfacet
  facet normal -0 0 1
    outer loop
      vertex -81.0674 9.13545 0.299999
      vertex -77 1.70974e-14 0.299999
      vertex -79.0791 9.78148 0.299999
    endloop
  endfacet
  facet normal 0 0 1
    outer loop
      vertex -77 1.70974e-14 0.299999
      vertex -79.0791 -9.78148 0.299999
      vertex -77 -10 0.299999
    endloop
  endfacet
  facet normal -0 0 1
    outer loop
      vertex -82.8779 8.09017 0.299999
      vertex -77 1.70974e-14 0.299999
      vertex -81.0674 9.13545 0.299999
    endloop
  endfacet
  facet normal 0 0 1
    outer loop
      vertex -77 1.70974e-14 0.299999
      vertex -81.0674 -9.13545 0.299999
      vertex -79.0791 -9.78148 0.299999
    endloop
  endfacet
  facet normal -0 0 1
    outer loop
      vertex -84.4314 6.69131 0.299999
      vertex -77 1.70974e-14 0.299999
      vertex -82.8779 8.09017 0.299999
    endloop
  endfacet
  facet normal 0 0 1
    outer loop
      vertex -77 1.70974e-14 0.299999
      vertex -82.8779 -8.09017 0.299999
      vertex -81.0674 -9.13545 0.299999
    endloop
  endfacet
  facet normal -0 0 1
    outer loop
      vertex -85.6603 5 0.299999
      vertex -77 1.70974e-14 0.299999
      vertex -84.4314 6.69131 0.299999
    endloop
  endfacet
  facet normal 0 0 1
    outer loop
      vertex -77 1.70974e-14 0.299999
      vertex -84.4314 -6.69131 0.299999
      vertex -82.8779 -8.09017 0.299999
    endloop
  endfacet
  facet normal -0 0 1
    outer loop
      vertex -86.5106 3.09017 0.299999
      vertex -77 1.70974e-14 0.299999
      vertex -85.6603 5 0.299999
    endloop
  endfacet
  facet normal 0 0 1
    outer loop
      vertex -77 1.70974e-14 0.299999
      vertex -85.6603 -5 0.299999
      vertex -84.4314 -6.69131 0.299999
    endloop
  endfacet
  facet normal -0 0 1
    outer loop
      vertex -86.9452 1.04528 0.299999
      vertex -77 1.70974e-14 0.299999
      vertex -86.5106 3.09017 0.299999
    endloop
  endfacet
  facet normal 0 0 1
    outer loop
      vertex -77 1.70974e-14 0.299999
      vertex -86.5106 -3.09017 0.299999
      vertex -85.6603 -5 0.299999
    endloop
  endfacet
  facet normal 0 0 1
    outer loop
      vertex -86.9452 -1.04528 0.299999
      vertex -77 1.70974e-14 0.299999
      vertex -86.9452 1.04528 0.299999
    endloop
  endfacet
  facet normal 0 0 1
    outer loop
      vertex -77 1.70974e-14 0.299999
      vertex -86.9452 -1.04528 0.299999
      vertex -86.5106 -3.09017 0.299999
    endloop
  endfacet
  facet normal 0 0 1
    outer loop
      vertex -77 1.70974e-14 0.299999
      vertex -67.0548 -1.04528 0.299999
      vertex -67.0548 1.48892e-14 0.299999
    endloop
  endfacet
  facet normal 0 0 1
    outer loop
      vertex -67.0548 -1.04528 0.299999
      vertex -77 1.70974e-14 0.299999
      vertex -67.4894 -3.09017 0.299999
    endloop
  endfacet
  facet normal 0 0 1
    outer loop
      vertex -67.4894 -3.09017 0.299999
      vertex -77 1.70974e-14 0.299999
      vertex -68.3397 -5 0.299999
    endloop
  endfacet
  facet normal 0 0 1
    outer loop
      vertex -68.3397 -5 0.299999
      vertex -77 1.70974e-14 0.299999
      vertex -69.5686 -6.69131 0.299999
    endloop
  endfacet
  facet normal 0 0 1
    outer loop
      vertex -69.5686 -6.69131 0.299999
      vertex -77 1.70974e-14 0.299999
      vertex -71.1221 -8.09017 0.299999
    endloop
  endfacet
  facet normal 0 0 1
    outer loop
      vertex -71.1221 -8.09017 0.299999
      vertex -77 1.70974e-14 0.299999
      vertex -72.9326 -9.13545 0.299999
    endloop
  endfacet
  facet normal 0 0 1
    outer loop
      vertex -72.9326 -9.13545 0.299999
      vertex -77 1.70974e-14 0.299999
      vertex -74.9209 -9.78148 0.299999
    endloop
  endfacet
  facet normal 0 0 1
    outer loop
      vertex -74.9209 -9.78148 0.299999
      vertex -77 1.70974e-14 0.299999
      vertex -77 -10 0.299999
    endloop
  endfacet
  facet normal -0.913545 -0.406737 0
    outer loop
      vertex -85.6603 -5 0
      vertex -86.5106 -3.09017 0.299999
      vertex -86.5106 -3.09017 0
    endloop
  endfacet
  facet normal -0.913545 -0.406737 0
    outer loop
      vertex -86.5106 -3.09017 0.299999
      vertex -85.6603 -5 0
      vertex -85.6603 -5 0.299999
    endloop
  endfacet
  facet normal 0.104529 -0.994522 0
    outer loop
      vertex -77 -10 0
      vertex -74.9209 -9.78148 0.299999
      vertex -77 -10 0.299999
    endloop
  endfacet
  facet normal 0.104529 -0.994522 0
    outer loop
      vertex -74.9209 -9.78148 0.299999
      vertex -77 -10 0
      vertex -74.9209 -9.78148 0
    endloop
  endfacet
  facet normal 0.913545 -0.406737 0
    outer loop
      vertex -68.3397 -5 0.299999
      vertex -67.4894 -3.09017 0
      vertex -67.4894 -3.09017 0.299999
    endloop
  endfacet
  facet normal 0.913545 -0.406737 0
    outer loop
      vertex -67.4894 -3.09017 0
      vertex -68.3397 -5 0.299999
      vertex -68.3397 -5 0
    endloop
  endfacet
  facet normal 0.669131 -0.743145 0
    outer loop
      vertex -71.1221 -8.09017 0
      vertex -69.5686 -6.69131 0.299999
      vertex -71.1221 -8.09017 0.299999
    endloop
  endfacet
  facet normal 0.669131 -0.743145 0
    outer loop
      vertex -69.5686 -6.69131 0.299999
      vertex -71.1221 -8.09017 0
      vertex -69.5686 -6.69131 0
    endloop
  endfacet
  facet normal 0.809017 -0.587785 0
    outer loop
      vertex -69.5686 -6.69131 0.299999
      vertex -68.3397 -5 0
      vertex -68.3397 -5 0.299999
    endloop
  endfacet
  facet normal 0.809017 -0.587785 0
    outer loop
      vertex -68.3397 -5 0
      vertex -69.5686 -6.69131 0.299999
      vertex -69.5686 -6.69131 0
    endloop
  endfacet
  facet normal 0.5 -0.866025 0
    outer loop
      vertex -72.9326 -9.13545 0
      vertex -71.1221 -8.09017 0.299999
      vertex -72.9326 -9.13545 0.299999
    endloop
  endfacet
  facet normal 0.5 -0.866025 0
    outer loop
      vertex -71.1221 -8.09017 0.299999
      vertex -72.9326 -9.13545 0
      vertex -71.1221 -8.09017 0
    endloop
  endfacet
  facet normal 0.309017 -0.951057 0
    outer loop
      vertex -74.9209 -9.78148 0
      vertex -72.9326 -9.13545 0.299999
      vertex -74.9209 -9.78148 0.299999
    endloop
  endfacet
  facet normal 0.309017 -0.951057 0
    outer loop
      vertex -72.9326 -9.13545 0.299999
      vertex -74.9209 -9.78148 0
      vertex -72.9326 -9.13545 0
    endloop
  endfacet
  facet normal 0.978148 -0.207912 0
    outer loop
      vertex -67.4894 -3.09017 0.299999
      vertex -67.0548 -1.04528 0
      vertex -67.0548 -1.04528 0.299999
    endloop
  endfacet
  facet normal 0.978148 -0.207912 0
    outer loop
      vertex -67.0548 -1.04528 0
      vertex -67.4894 -3.09017 0.299999
      vertex -67.4894 -3.09017 0
    endloop
  endfacet
  facet normal 1 -0 0
    outer loop
      vertex -67.0548 -1.04528 0.299999
      vertex -67.0548 1.48892e-14 0
      vertex -67.0548 1.48892e-14 0.299999
    endloop
  endfacet
  facet normal 1 0 0
    outer loop
      vertex -67.0548 1.48892e-14 0
      vertex -67.0548 -1.04528 0.299999
      vertex -67.0548 -1.04528 0
    endloop
  endfacet
  facet normal -0.500001 0.866025 0
    outer loop
      vertex -81.0674 239.035 0
      vertex -82.8779 237.99 0.299999
      vertex -81.0674 239.035 0.299999
    endloop
  endfacet
  facet normal -0.500001 0.866025 0
    outer loop
      vertex -82.8779 237.99 0.299999
      vertex -81.0674 239.035 0
      vertex -82.8779 237.99 0
    endloop
  endfacet
  facet normal 0.104527 0.994522 -0
    outer loop
      vertex -74.9209 239.681 0
      vertex -77 239.9 0.299999
      vertex -74.9209 239.681 0.299999
    endloop
  endfacet
  facet normal 0.104527 0.994522 0
    outer loop
      vertex -77 239.9 0.299999
      vertex -74.9209 239.681 0
      vertex -77 239.9 0
    endloop
  endfacet
  facet normal -0.669131 0.743145 0
    outer loop
      vertex -82.8779 237.99 0
      vertex -84.4314 236.591 0.299999
      vertex -82.8779 237.99 0.299999
    endloop
  endfacet
  facet normal -0.669131 0.743145 0
    outer loop
      vertex -84.4314 236.591 0.299999
      vertex -82.8779 237.99 0
      vertex -84.4314 236.591 0
    endloop
  endfacet
  facet normal -0.978148 0.207911 0
    outer loop
      vertex -86.9452 230.945 0
      vertex -86.5106 232.99 0.299999
      vertex -86.5106 232.99 0
    endloop
  endfacet
  facet normal -0.978148 0.207911 0
    outer loop
      vertex -86.5106 232.99 0.299999
      vertex -86.9452 230.945 0
      vertex -86.9452 230.945 0.299999
    endloop
  endfacet
  facet normal -0.809016 -0.587787 0
    outer loop
      vertex -84.4314 223.209 0
      vertex -85.6603 224.9 0.299999
      vertex -85.6603 224.9 0
    endloop
  endfacet
  facet normal -0.809016 -0.587787 0
    outer loop
      vertex -85.6603 224.9 0.299999
      vertex -84.4314 223.209 0
      vertex -84.4314 223.209 0.299999
    endloop
  endfacet
  facet normal -0.104534 -0.994521 0
    outer loop
      vertex -79.0791 220.119 0
      vertex -77 219.9 0.299999
      vertex -79.0791 220.119 0.299999
    endloop
  endfacet
  facet normal -0.104534 -0.994521 -0
    outer loop
      vertex -77 219.9 0.299999
      vertex -79.0791 220.119 0
      vertex -77 219.9 0
    endloop
  endfacet
  facet normal 0.913545 0.406738 0
    outer loop
      vertex -67.4894 232.99 0.299999
      vertex -68.3397 234.9 0
      vertex -68.3397 234.9 0.299999
    endloop
  endfacet
  facet normal 0.913545 0.406738 0
    outer loop
      vertex -68.3397 234.9 0
      vertex -67.4894 232.99 0.299999
      vertex -67.4894 232.99 0
    endloop
  endfacet
  facet normal -0.309012 0.951058 0
    outer loop
      vertex -79.0791 239.681 0
      vertex -81.0674 239.035 0.299999
      vertex -79.0791 239.681 0.299999
    endloop
  endfacet
  facet normal -0.309012 0.951058 0
    outer loop
      vertex -81.0674 239.035 0.299999
      vertex -79.0791 239.681 0
      vertex -81.0674 239.035 0
    endloop
  endfacet
  facet normal -0.809018 0.587783 0
    outer loop
      vertex -85.6603 234.9 0
      vertex -84.4314 236.591 0.299999
      vertex -84.4314 236.591 0
    endloop
  endfacet
  facet normal -0.809018 0.587783 0
    outer loop
      vertex -84.4314 236.591 0.299999
      vertex -85.6603 234.9 0
      vertex -85.6603 234.9 0.299999
    endloop
  endfacet
  facet normal -0.978148 -0.207911 0
    outer loop
      vertex -86.5106 226.81 0
      vertex -86.9452 228.855 0.299999
      vertex -86.9452 228.855 0
    endloop
  endfacet
  facet normal -0.978148 -0.207911 0
    outer loop
      vertex -86.9452 228.855 0.299999
      vertex -86.5106 226.81 0
      vertex -86.5106 226.81 0.299999
    endloop
  endfacet
  facet normal -0.913545 0.406738 0
    outer loop
      vertex -86.5106 232.99 0
      vertex -85.6603 234.9 0.299999
      vertex -85.6603 234.9 0
    endloop
  endfacet
  facet normal -0.913545 0.406738 0
    outer loop
      vertex -85.6603 234.9 0.299999
      vertex -86.5106 232.99 0
      vertex -86.5106 232.99 0.299999
    endloop
  endfacet
  facet normal -0.309012 -0.951058 0
    outer loop
      vertex -81.0674 220.765 0
      vertex -79.0791 220.119 0.299999
      vertex -81.0674 220.765 0.299999
    endloop
  endfacet
  facet normal -0.309012 -0.951058 -0
    outer loop
      vertex -79.0791 220.119 0.299999
      vertex -81.0674 220.765 0
      vertex -79.0791 220.119 0
    endloop
  endfacet
  facet normal -0.669131 -0.743145 0
    outer loop
      vertex -84.4314 223.209 0
      vertex -82.8779 221.81 0.299999
      vertex -84.4314 223.209 0.299999
    endloop
  endfacet
  facet normal -0.669131 -0.743145 -0
    outer loop
      vertex -82.8779 221.81 0.299999
      vertex -84.4314 223.209 0
      vertex -82.8779 221.81 0
    endloop
  endfacet
  facet normal -0.913546 -0.406736 0
    outer loop
      vertex -85.6603 224.9 0
      vertex -86.5106 226.81 0.299999
      vertex -86.5106 226.81 0
    endloop
  endfacet
  facet normal -0.913546 -0.406736 0
    outer loop
      vertex -86.5106 226.81 0.299999
      vertex -85.6603 224.9 0
      vertex -85.6603 224.9 0.299999
    endloop
  endfacet
  facet normal -0.500001 -0.866025 0
    outer loop
      vertex -82.8779 221.81 0
      vertex -81.0674 220.765 0.299999
      vertex -82.8779 221.81 0.299999
    endloop
  endfacet
  facet normal -0.500001 -0.866025 -0
    outer loop
      vertex -81.0674 220.765 0.299999
      vertex -82.8779 221.81 0
      vertex -81.0674 220.765 0
    endloop
  endfacet
  facet normal -0.104527 0.994522 0
    outer loop
      vertex -77 239.9 0
      vertex -79.0791 239.681 0.299999
      vertex -77 239.9 0.299999
    endloop
  endfacet
  facet normal -0.104527 0.994522 0
    outer loop
      vertex -79.0791 239.681 0.299999
      vertex -77 239.9 0
      vertex -79.0791 239.681 0
    endloop
  endfacet
  facet normal 1 -0 0
    outer loop
      vertex -67.0548 229.9 0.299999
      vertex -67.0548 230.945 0
      vertex -67.0548 230.945 0.299999
    endloop
  endfacet
  facet normal 1 0 0
    outer loop
      vertex -67.0548 230.945 0
      vertex -67.0548 229.9 0.299999
      vertex -67.0548 229.9 0
    endloop
  endfacet
  facet normal 0.309012 0.951058 -0
    outer loop
      vertex -72.9326 239.035 0
      vertex -74.9209 239.681 0.299999
      vertex -72.9326 239.035 0.299999
    endloop
  endfacet
  facet normal 0.309012 0.951058 0
    outer loop
      vertex -74.9209 239.681 0.299999
      vertex -72.9326 239.035 0
      vertex -74.9209 239.681 0
    endloop
  endfacet
  facet normal 0.669131 0.743145 -0
    outer loop
      vertex -69.5686 236.591 0
      vertex -71.1221 237.99 0.299999
      vertex -69.5686 236.591 0.299999
    endloop
  endfacet
  facet normal 0.669131 0.743145 0
    outer loop
      vertex -71.1221 237.99 0.299999
      vertex -69.5686 236.591 0
      vertex -71.1221 237.99 0
    endloop
  endfacet
  facet normal -1 0 0
    outer loop
      vertex -86.9452 228.855 0
      vertex -86.9452 230.945 0.299999
      vertex -86.9452 230.945 0
    endloop
  endfacet
  facet normal -1 -0 0
    outer loop
      vertex -86.9452 230.945 0.299999
      vertex -86.9452 228.855 0
      vertex -86.9452 228.855 0.299999
    endloop
  endfacet
  facet normal 0 0 1
    outer loop
      vertex -77 229.9 0.299999
      vertex -67.0548 230.945 0.299999
      vertex -67.4894 232.99 0.299999
    endloop
  endfacet
  facet normal 0 0 1
    outer loop
      vertex -77 229.9 0.299999
      vertex -67.4894 232.99 0.299999
      vertex -68.3397 234.9 0.299999
    endloop
  endfacet
  facet normal 0 0 1
    outer loop
      vertex -77 229.9 0.299999
      vertex -68.3397 234.9 0.299999
      vertex -69.5686 236.591 0.299999
    endloop
  endfacet
  facet normal 0 0 1
    outer loop
      vertex -77 229.9 0.299999
      vertex -69.5686 236.591 0.299999
      vertex -71.1221 237.99 0.299999
    endloop
  endfacet
  facet normal 0 0 1
    outer loop
      vertex -77 229.9 0.299999
      vertex -71.1221 237.99 0.299999
      vertex -72.9326 239.035 0.299999
    endloop
  endfacet
  facet normal 0 0 1
    outer loop
      vertex -77 229.9 0.299999
      vertex -72.9326 239.035 0.299999
      vertex -74.9209 239.681 0.299999
    endloop
  endfacet
  facet normal 0 0 1
    outer loop
      vertex -77 229.9 0.299999
      vertex -74.9209 239.681 0.299999
      vertex -77 239.9 0.299999
    endloop
  endfacet
  facet normal 0 0 1
    outer loop
      vertex -67.0548 230.945 0.299999
      vertex -77 229.9 0.299999
      vertex -67.0548 229.9 0.299999
    endloop
  endfacet
  facet normal -0 0 1
    outer loop
      vertex -79.0791 239.681 0.299999
      vertex -77 229.9 0.299999
      vertex -77 239.9 0.299999
    endloop
  endfacet
  facet normal -0 0 1
    outer loop
      vertex -81.0674 239.035 0.299999
      vertex -77 229.9 0.299999
      vertex -79.0791 239.681 0.299999
    endloop
  endfacet
  facet normal 0 0 1
    outer loop
      vertex -77 229.9 0.299999
      vertex -79.0791 220.119 0.299999
      vertex -77 219.9 0.299999
    endloop
  endfacet
  facet normal -0 0 1
    outer loop
      vertex -82.8779 237.99 0.299999
      vertex -77 229.9 0.299999
      vertex -81.0674 239.035 0.299999
    endloop
  endfacet
  facet normal 0 0 1
    outer loop
      vertex -77 229.9 0.299999
      vertex -81.0674 220.765 0.299999
      vertex -79.0791 220.119 0.299999
    endloop
  endfacet
  facet normal -0 0 1
    outer loop
      vertex -84.4314 236.591 0.299999
      vertex -77 229.9 0.299999
      vertex -82.8779 237.99 0.299999
    endloop
  endfacet
  facet normal 0 0 1
    outer loop
      vertex -77 229.9 0.299999
      vertex -82.8779 221.81 0.299999
      vertex -81.0674 220.765 0.299999
    endloop
  endfacet
  facet normal -0 0 1
    outer loop
      vertex -85.6603 234.9 0.299999
      vertex -77 229.9 0.299999
      vertex -84.4314 236.591 0.299999
    endloop
  endfacet
  facet normal 0 0 1
    outer loop
      vertex -77 229.9 0.299999
      vertex -84.4314 223.209 0.299999
      vertex -82.8779 221.81 0.299999
    endloop
  endfacet
  facet normal -0 0 1
    outer loop
      vertex -86.5106 232.99 0.299999
      vertex -77 229.9 0.299999
      vertex -85.6603 234.9 0.299999
    endloop
  endfacet
  facet normal 0 0 1
    outer loop
      vertex -77 229.9 0.299999
      vertex -85.6603 224.9 0.299999
      vertex -84.4314 223.209 0.299999
    endloop
  endfacet
  facet normal -0 0 1
    outer loop
      vertex -86.9452 230.945 0.299999
      vertex -77 229.9 0.299999
      vertex -86.5106 232.99 0.299999
    endloop
  endfacet
  facet normal 0 0 1
    outer loop
      vertex -77 229.9 0.299999
      vertex -86.5106 226.81 0.299999
      vertex -85.6603 224.9 0.299999
    endloop
  endfacet
  facet normal 0 0 1
    outer loop
      vertex -86.9452 228.855 0.299999
      vertex -77 229.9 0.299999
      vertex -86.9452 230.945 0.299999
    endloop
  endfacet
  facet normal 0 0 1
    outer loop
      vertex -77 229.9 0.299999
      vertex -86.9452 228.855 0.299999
      vertex -86.5106 226.81 0.299999
    endloop
  endfacet
  facet normal 0.500001 0.866025 -0
    outer loop
      vertex -71.1221 237.99 0
      vertex -72.9326 239.035 0.299999
      vertex -71.1221 237.99 0.299999
    endloop
  endfacet
  facet normal 0.500001 0.866025 0
    outer loop
      vertex -72.9326 239.035 0.299999
      vertex -71.1221 237.99 0
      vertex -72.9326 239.035 0
    endloop
  endfacet
  facet normal 0.978148 0.207911 0
    outer loop
      vertex -67.0548 230.945 0.299999
      vertex -67.4894 232.99 0
      vertex -67.4894 232.99 0.299999
    endloop
  endfacet
  facet normal 0.978148 0.207911 0
    outer loop
      vertex -67.4894 232.99 0
      vertex -67.0548 230.945 0.299999
      vertex -67.0548 230.945 0
    endloop
  endfacet
  facet normal 0.809018 0.587783 0
    outer loop
      vertex -68.3397 234.9 0.299999
      vertex -69.5686 236.591 0
      vertex -69.5686 236.591 0.299999
    endloop
  endfacet
  facet normal 0.809018 0.587783 0
    outer loop
      vertex -69.5686 236.591 0
      vertex -68.3397 234.9 0.299999
      vertex -68.3397 234.9 0
    endloop
  endfacet
endsolid OpenSCAD_Model
